<svg width="18" height="18" viewBox="0 0 18 18" fill="none" xmlns="http://www.w3.org/2000/svg">
<path fill-rule="evenodd" clip-rule="evenodd" d="M9.07107 16.1423L9.07108 16.1423L9.77819 15.4352L9.77817 15.4352L16.1421 9.07128L15.435 8.36417L9.07107 14.7281L2.70712 8.36417L2.00001 9.07128L8.36396 15.4352L8.36395 15.4352L9.07106 16.1423L9.07107 16.1423Z" fill="#B7B8B9"/>
<path d="M9.07108 16.1423L8.36397 16.8495L9.07108 17.5566L9.77819 16.8495L9.07108 16.1423ZM9.07107 16.1423L9.77817 15.4352L9.07107 14.7281L8.36396 15.4352L9.07107 16.1423ZM9.77819 15.4352L10.4853 16.1423L11.1924 15.4352L10.4853 14.7281L9.77819 15.4352ZM9.77817 15.4352L9.07107 14.7281L8.36396 15.4352L9.07107 16.1423L9.77817 15.4352ZM16.1421 9.07128L16.8492 9.77838L17.5563 9.07128L16.8492 8.36417L16.1421 9.07128ZM15.435 8.36417L16.1421 7.65706L15.435 6.94996L14.7279 7.65706L15.435 8.36417ZM9.07107 14.7281L8.36396 15.4352L9.07107 16.1423L9.77817 15.4352L9.07107 14.7281ZM2.70712 8.36417L3.41423 7.65706L2.70712 6.94996L2.00001 7.65706L2.70712 8.36417ZM2.00001 9.07128L1.2929 8.36417L0.585798 9.07128L1.2929 9.77838L2.00001 9.07128ZM8.36396 15.4352L9.07107 16.1423L9.77817 15.4352L9.07107 14.7281L8.36396 15.4352ZM8.36395 15.4352L7.65684 14.7281L6.94974 15.4352L7.65684 16.1423L8.36395 15.4352ZM9.07106 16.1423L8.36395 16.8495L9.07106 17.5566L9.77816 16.8495L9.07106 16.1423ZM9.77819 15.4352L9.77817 15.4352L8.36396 16.8494L8.36397 16.8495L9.77819 15.4352ZM9.07108 14.7281L8.36397 15.4352L9.77819 16.8495L10.4853 16.1423L9.07108 14.7281ZM9.07107 16.1423L9.07108 16.1423L10.4853 14.7281L10.4853 14.7281L9.07107 16.1423ZM15.435 8.36417L9.07107 14.7281L10.4853 16.1423L16.8492 9.77838L15.435 8.36417ZM14.7279 9.07128L15.435 9.77838L16.8492 8.36417L16.1421 7.65706L14.7279 9.07128ZM9.77817 15.4352L16.1421 9.07128L14.7279 7.65706L8.36396 14.021L9.77817 15.4352ZM2.00001 9.07128L8.36396 15.4352L9.77817 14.021L3.41423 7.65706L2.00001 9.07128ZM2.70712 9.77838L3.41423 9.07128L2.00001 7.65706L1.2929 8.36417L2.70712 9.77838ZM9.07107 14.7281L2.70712 8.36417L1.2929 9.77838L7.65685 16.1423L9.07107 14.7281ZM9.07106 16.1423L9.07107 16.1423L7.65685 14.7281L7.65684 14.7281L9.07106 16.1423ZM9.77816 15.4352L9.07106 14.7281L7.65684 16.1423L8.36395 16.8495L9.77816 15.4352ZM8.36396 15.4352L8.36395 15.4352L9.77816 16.8495L9.77817 16.8494L8.36396 15.4352Z" fill="#B7B8B9"/>
</svg>
