<svg width="1366" height="705" viewBox="0 0 1366 705" fill="none" xmlns="http://www.w3.org/2000/svg">
<path d="M1366 191H1357.33L1327.59 207.319L1307.15 228.376L1263.78 207.319L1227.85 235.746L1203.07 274.702L1156.61 306.814L1142.36 289.968L1119.44 312.605L1098.38 343.138L1074.83 328.924L1059.35 323.133L1041.38 331.556L1027.13 338.4L1006.07 362.616L996.158 348.928L982.529 345.77L971.378 335.768L957.749 328.924L945.359 338.4L923.676 348.928L912.525 333.662L900.755 343.138L885.887 348.928L877.833 338.4L864.204 328.924L835.088 348.928L813.405 338.4L807.21 400.518L790.483 348.928L742.782 333.662L706.851 338.4L685.788 312.605L677.734 280.493L661.008 255.224L643.042 244.696H612.687L589.765 264.174L579.233 235.746H553.834L514.805 274.702L479.494 289.968L457.811 274.702L445.421 235.746L431.173 333.662L418.783 359.457L388.427 380.514L365.506 366.827L340.726 380.514L320.902 348.928L301.078 289.968L283.731 264.174L242.844 321.554L210.63 298.918L190.806 321.554L178.416 289.968L151.778 359.457L130.715 348.928L100.359 444.212L76.8181 394.201L50.1796 404.73L16.7265 359.457L7.74376 369.986H0" stroke="#D2F400" stroke-width="3"/>
<path d="M1317.48 585.322L1351.02 597.157L1360.03 594.405H1366V705H0V641.196H6.9054L36.7195 636.93L57.2166 631.425L100.695 636.93L136.72 629.498L161.566 619.314L208.15 610.919L222.436 615.323L245.417 609.406L266.536 601.423L290.138 605.139L305.667 606.653L323.679 604.451L337.965 602.662L359.083 596.331L369.021 599.91L382.686 600.735L393.866 603.35L407.531 605.139L419.954 602.662L441.693 599.91L452.873 603.901L464.674 601.423L479.582 599.91L487.656 602.662L501.321 605.139L530.514 599.91L552.253 602.662L558.464 586.423L575.235 599.91L623.061 603.901L659.087 602.662L680.205 609.406L688.28 617.801L705.05 624.406L723.062 627.159H753.498L776.479 622.067L787.038 629.498H812.505L851.635 619.314L887.04 615.323L908.779 619.314L921.201 629.498L935.487 603.901L947.91 597.157L978.345 591.652L1001.33 595.23L1026.17 591.652L1046.05 599.91L1065.92 615.323L1083.32 622.067L1124.31 607.066L1156.61 612.984L1176.48 607.066L1188.91 615.323L1215.61 597.157L1236.73 599.91L1267.17 575L1290.77 588.074L1317.48 585.322Z" fill="#565555"/>
<path d="M157.903 692.591C157.903 694.065 157.598 695.193 156.987 695.975C156.377 696.756 155.483 697.146 154.307 697.146C153.145 697.146 152.256 696.763 151.641 695.997C151.025 695.23 150.71 694.131 150.696 692.701V690.738C150.696 689.249 151.003 688.118 151.619 687.347C152.239 686.575 153.13 686.189 154.292 686.189C155.454 686.189 156.343 686.573 156.958 687.339C157.573 688.101 157.888 689.197 157.903 690.628V692.591ZM155.786 690.438C155.786 689.554 155.664 688.912 155.42 688.511C155.181 688.106 154.805 687.903 154.292 687.903C153.794 687.903 153.425 688.096 153.186 688.482C152.952 688.863 152.827 689.461 152.812 690.276V692.869C152.812 693.738 152.93 694.385 153.164 694.81C153.403 695.23 153.784 695.44 154.307 695.44C154.824 695.44 155.198 695.237 155.427 694.832C155.657 694.427 155.776 693.807 155.786 692.972V690.438ZM166.516 692.591C166.516 694.065 166.211 695.193 165.601 695.975C164.99 696.756 164.097 697.146 162.92 697.146C161.758 697.146 160.869 696.763 160.254 695.997C159.639 695.23 159.324 694.131 159.309 692.701V690.738C159.309 689.249 159.617 688.118 160.232 687.347C160.852 686.575 161.743 686.189 162.905 686.189C164.067 686.189 164.956 686.573 165.571 687.339C166.187 688.101 166.501 689.197 166.516 690.628V692.591ZM164.399 690.438C164.399 689.554 164.277 688.912 164.033 688.511C163.794 688.106 163.418 687.903 162.905 687.903C162.407 687.903 162.039 688.096 161.799 688.482C161.565 688.863 161.44 689.461 161.426 690.276V692.869C161.426 693.738 161.543 694.385 161.777 694.81C162.017 695.23 162.397 695.44 162.92 695.44C163.438 695.44 163.811 695.237 164.041 694.832C164.27 694.427 164.39 693.807 164.399 692.972V690.438ZM168.142 695.96C168.142 695.623 168.254 695.35 168.479 695.14C168.708 694.93 168.994 694.825 169.336 694.825C169.683 694.825 169.968 694.93 170.193 695.14C170.422 695.35 170.537 695.623 170.537 695.96C170.537 696.292 170.425 696.563 170.2 696.773C169.976 696.978 169.688 697.081 169.336 697.081C168.989 697.081 168.704 696.978 168.479 696.773C168.254 696.563 168.142 696.292 168.142 695.96ZM168.142 689.961C168.142 689.625 168.254 689.351 168.479 689.141C168.708 688.931 168.994 688.826 169.336 688.826C169.683 688.826 169.968 688.931 170.193 689.141C170.422 689.351 170.537 689.625 170.537 689.961C170.537 690.293 170.425 690.564 170.2 690.774C169.976 690.979 169.688 691.082 169.336 691.082C168.989 691.082 168.704 690.979 168.479 690.774C168.254 690.564 168.142 690.293 168.142 689.961ZM179.363 692.591C179.363 694.065 179.058 695.193 178.447 695.975C177.837 696.756 176.943 697.146 175.767 697.146C174.604 697.146 173.716 696.763 173.101 695.997C172.485 695.23 172.17 694.131 172.156 692.701V690.738C172.156 689.249 172.463 688.118 173.079 687.347C173.699 686.575 174.59 686.189 175.752 686.189C176.914 686.189 177.803 686.573 178.418 687.339C179.033 688.101 179.348 689.197 179.363 690.628V692.591ZM177.246 690.438C177.246 689.554 177.124 688.912 176.88 688.511C176.641 688.106 176.265 687.903 175.752 687.903C175.254 687.903 174.885 688.096 174.646 688.482C174.412 688.863 174.287 689.461 174.272 690.276V692.869C174.272 693.738 174.39 694.385 174.624 694.81C174.863 695.23 175.244 695.44 175.767 695.44C176.284 695.44 176.658 695.237 176.887 694.832C177.117 694.427 177.236 693.807 177.246 692.972V690.438ZM187.976 692.591C187.976 694.065 187.671 695.193 187.061 695.975C186.45 696.756 185.557 697.146 184.38 697.146C183.218 697.146 182.329 696.763 181.714 695.997C181.099 695.23 180.784 694.131 180.769 692.701V690.738C180.769 689.249 181.077 688.118 181.692 687.347C182.312 686.575 183.203 686.189 184.365 686.189C185.527 686.189 186.416 686.573 187.031 687.339C187.646 688.101 187.961 689.197 187.976 690.628V692.591ZM185.859 690.438C185.859 689.554 185.737 688.912 185.493 688.511C185.254 688.106 184.878 687.903 184.365 687.903C183.867 687.903 183.499 688.096 183.259 688.482C183.025 688.863 182.9 689.461 182.886 690.276V692.869C182.886 693.738 183.003 694.385 183.237 694.81C183.477 695.23 183.857 695.44 184.38 695.44C184.897 695.44 185.271 695.237 185.5 694.832C185.73 694.427 185.85 693.807 185.859 692.972V690.438Z" fill="#B7B8B9"/>
<path d="M337.903 692.591C337.903 694.065 337.598 695.193 336.987 695.975C336.377 696.756 335.483 697.146 334.307 697.146C333.145 697.146 332.256 696.763 331.641 695.997C331.025 695.23 330.71 694.131 330.696 692.701V690.738C330.696 689.249 331.003 688.118 331.619 687.347C332.239 686.575 333.13 686.189 334.292 686.189C335.454 686.189 336.343 686.573 336.958 687.339C337.573 688.101 337.888 689.197 337.903 690.628V692.591ZM335.786 690.438C335.786 689.554 335.664 688.912 335.42 688.511C335.181 688.106 334.805 687.903 334.292 687.903C333.794 687.903 333.425 688.096 333.186 688.482C332.952 688.863 332.827 689.461 332.812 690.276V692.869C332.812 693.738 332.93 694.385 333.164 694.81C333.403 695.23 333.784 695.44 334.307 695.44C334.824 695.44 335.198 695.237 335.427 694.832C335.657 694.427 335.776 693.807 335.786 692.972V690.438ZM341.492 690.73H342.62C343.157 690.73 343.555 690.596 343.813 690.328C344.072 690.059 344.202 689.703 344.202 689.258C344.202 688.829 344.072 688.494 343.813 688.255C343.56 688.016 343.208 687.896 342.759 687.896C342.354 687.896 342.014 688.008 341.741 688.233C341.467 688.453 341.331 688.741 341.331 689.097H339.214C339.214 688.541 339.363 688.042 339.661 687.603C339.963 687.159 340.383 686.812 340.92 686.563C341.462 686.314 342.058 686.189 342.708 686.189C343.835 686.189 344.719 686.46 345.359 687.002C345.999 687.54 346.318 688.282 346.318 689.229C346.318 689.717 346.169 690.167 345.872 690.577C345.574 690.987 345.183 691.302 344.7 691.521C345.3 691.736 345.747 692.059 346.04 692.488C346.338 692.918 346.487 693.426 346.487 694.012C346.487 694.959 346.14 695.718 345.447 696.29C344.758 696.861 343.845 697.146 342.708 697.146C341.643 697.146 340.771 696.866 340.093 696.304C339.419 695.743 339.082 695 339.082 694.078H341.199C341.199 694.478 341.348 694.805 341.646 695.059C341.948 695.313 342.319 695.44 342.759 695.44C343.262 695.44 343.655 695.308 343.938 695.044C344.226 694.776 344.37 694.422 344.37 693.982C344.37 692.918 343.784 692.386 342.612 692.386H341.492V690.73ZM348.142 695.96C348.142 695.623 348.254 695.35 348.479 695.14C348.708 694.93 348.994 694.825 349.336 694.825C349.683 694.825 349.968 694.93 350.193 695.14C350.422 695.35 350.537 695.623 350.537 695.96C350.537 696.292 350.425 696.563 350.2 696.773C349.976 696.978 349.688 697.081 349.336 697.081C348.989 697.081 348.704 696.978 348.479 696.773C348.254 696.563 348.142 696.292 348.142 695.96ZM348.142 689.961C348.142 689.625 348.254 689.351 348.479 689.141C348.708 688.931 348.994 688.826 349.336 688.826C349.683 688.826 349.968 688.931 350.193 689.141C350.422 689.351 350.537 689.625 350.537 689.961C350.537 690.293 350.425 690.564 350.2 690.774C349.976 690.979 349.688 691.082 349.336 691.082C348.989 691.082 348.704 690.979 348.479 690.774C348.254 690.564 348.142 690.293 348.142 689.961ZM359.363 692.591C359.363 694.065 359.058 695.193 358.447 695.975C357.837 696.756 356.943 697.146 355.767 697.146C354.604 697.146 353.716 696.763 353.101 695.997C352.485 695.23 352.17 694.131 352.156 692.701V690.738C352.156 689.249 352.463 688.118 353.079 687.347C353.699 686.575 354.59 686.189 355.752 686.189C356.914 686.189 357.803 686.573 358.418 687.339C359.033 688.101 359.348 689.197 359.363 690.628V692.591ZM357.246 690.438C357.246 689.554 357.124 688.912 356.88 688.511C356.641 688.106 356.265 687.903 355.752 687.903C355.254 687.903 354.885 688.096 354.646 688.482C354.412 688.863 354.287 689.461 354.272 690.276V692.869C354.272 693.738 354.39 694.385 354.624 694.81C354.863 695.23 355.244 695.44 355.767 695.44C356.284 695.44 356.658 695.237 356.887 694.832C357.117 694.427 357.236 693.807 357.246 692.972V690.438ZM367.976 692.591C367.976 694.065 367.671 695.193 367.061 695.975C366.45 696.756 365.557 697.146 364.38 697.146C363.218 697.146 362.329 696.763 361.714 695.997C361.099 695.23 360.784 694.131 360.769 692.701V690.738C360.769 689.249 361.077 688.118 361.692 687.347C362.312 686.575 363.203 686.189 364.365 686.189C365.527 686.189 366.416 686.573 367.031 687.339C367.646 688.101 367.961 689.197 367.976 690.628V692.591ZM365.859 690.438C365.859 689.554 365.737 688.912 365.493 688.511C365.254 688.106 364.878 687.903 364.365 687.903C363.867 687.903 363.499 688.096 363.259 688.482C363.025 688.863 362.9 689.461 362.886 690.276V692.869C362.886 693.738 363.003 694.385 363.237 694.81C363.477 695.23 363.857 695.44 364.38 695.44C364.897 695.44 365.271 695.237 365.5 694.832C365.73 694.427 365.85 693.807 365.859 692.972V690.438Z" fill="#B7B8B9"/>
<path d="M517.903 692.591C517.903 694.065 517.598 695.193 516.987 695.975C516.377 696.756 515.483 697.146 514.307 697.146C513.145 697.146 512.256 696.763 511.641 695.997C511.025 695.23 510.71 694.131 510.696 692.701V690.738C510.696 689.249 511.003 688.118 511.619 687.347C512.239 686.575 513.13 686.189 514.292 686.189C515.454 686.189 516.343 686.573 516.958 687.339C517.573 688.101 517.888 689.197 517.903 690.628V692.591ZM515.786 690.438C515.786 689.554 515.664 688.912 515.42 688.511C515.181 688.106 514.805 687.903 514.292 687.903C513.794 687.903 513.425 688.096 513.186 688.482C512.952 688.863 512.827 689.461 512.812 690.276V692.869C512.812 693.738 512.93 694.385 513.164 694.81C513.403 695.23 513.784 695.44 514.307 695.44C514.824 695.44 515.198 695.237 515.427 694.832C515.657 694.427 515.776 693.807 515.786 692.972V690.438ZM525.081 686.226V687.969H524.875C523.918 687.984 523.147 688.233 522.561 688.716C521.98 689.2 521.631 689.871 521.514 690.73C522.08 690.154 522.795 689.866 523.66 689.866C524.587 689.866 525.325 690.198 525.872 690.862C526.418 691.526 526.692 692.4 526.692 693.484C526.692 694.178 526.541 694.805 526.238 695.367C525.94 695.928 525.515 696.365 524.963 696.678C524.417 696.99 523.796 697.146 523.103 697.146C521.98 697.146 521.072 696.756 520.378 695.975C519.69 695.193 519.346 694.151 519.346 692.847V692.085C519.346 690.928 519.563 689.908 519.998 689.024C520.437 688.135 521.064 687.449 521.88 686.966C522.7 686.478 523.65 686.231 524.729 686.226H525.081ZM523.015 691.565C522.673 691.565 522.363 691.656 522.085 691.836C521.807 692.012 521.602 692.247 521.47 692.54V693.184C521.47 693.892 521.609 694.446 521.887 694.847C522.166 695.242 522.556 695.44 523.059 695.44C523.513 695.44 523.879 695.262 524.158 694.905C524.441 694.544 524.583 694.078 524.583 693.506C524.583 692.925 524.441 692.457 524.158 692.1C523.875 691.744 523.494 691.565 523.015 691.565ZM528.142 695.96C528.142 695.623 528.254 695.35 528.479 695.14C528.708 694.93 528.994 694.825 529.336 694.825C529.683 694.825 529.968 694.93 530.193 695.14C530.422 695.35 530.537 695.623 530.537 695.96C530.537 696.292 530.425 696.563 530.2 696.773C529.976 696.978 529.688 697.081 529.336 697.081C528.989 697.081 528.704 696.978 528.479 696.773C528.254 696.563 528.142 696.292 528.142 695.96ZM528.142 689.961C528.142 689.625 528.254 689.351 528.479 689.141C528.708 688.931 528.994 688.826 529.336 688.826C529.683 688.826 529.968 688.931 530.193 689.141C530.422 689.351 530.537 689.625 530.537 689.961C530.537 690.293 530.425 690.564 530.2 690.774C529.976 690.979 529.688 691.082 529.336 691.082C528.989 691.082 528.704 690.979 528.479 690.774C528.254 690.564 528.142 690.293 528.142 689.961ZM539.363 692.591C539.363 694.065 539.058 695.193 538.447 695.975C537.837 696.756 536.943 697.146 535.767 697.146C534.604 697.146 533.716 696.763 533.101 695.997C532.485 695.23 532.17 694.131 532.156 692.701V690.738C532.156 689.249 532.463 688.118 533.079 687.347C533.699 686.575 534.59 686.189 535.752 686.189C536.914 686.189 537.803 686.573 538.418 687.339C539.033 688.101 539.348 689.197 539.363 690.628V692.591ZM537.246 690.438C537.246 689.554 537.124 688.912 536.88 688.511C536.641 688.106 536.265 687.903 535.752 687.903C535.254 687.903 534.885 688.096 534.646 688.482C534.412 688.863 534.287 689.461 534.272 690.276V692.869C534.272 693.738 534.39 694.385 534.624 694.81C534.863 695.23 535.244 695.44 535.767 695.44C536.284 695.44 536.658 695.237 536.887 694.832C537.117 694.427 537.236 693.807 537.246 692.972V690.438ZM547.976 692.591C547.976 694.065 547.671 695.193 547.061 695.975C546.45 696.756 545.557 697.146 544.38 697.146C543.218 697.146 542.329 696.763 541.714 695.997C541.099 695.23 540.784 694.131 540.769 692.701V690.738C540.769 689.249 541.077 688.118 541.692 687.347C542.312 686.575 543.203 686.189 544.365 686.189C545.527 686.189 546.416 686.573 547.031 687.339C547.646 688.101 547.961 689.197 547.976 690.628V692.591ZM545.859 690.438C545.859 689.554 545.737 688.912 545.493 688.511C545.254 688.106 544.878 687.903 544.365 687.903C543.867 687.903 543.499 688.096 543.259 688.482C543.025 688.863 542.9 689.461 542.886 690.276V692.869C542.886 693.738 543.003 694.385 543.237 694.81C543.477 695.23 543.857 695.44 544.38 695.44C544.897 695.44 545.271 695.237 545.5 694.832C545.73 694.427 545.85 693.807 545.859 692.972V690.438Z" fill="#B7B8B9"/>
<path d="M697.903 692.591C697.903 694.065 697.598 695.193 696.987 695.975C696.377 696.756 695.483 697.146 694.307 697.146C693.145 697.146 692.256 696.763 691.641 695.997C691.025 695.23 690.71 694.131 690.696 692.701V690.738C690.696 689.249 691.003 688.118 691.619 687.347C692.239 686.575 693.13 686.189 694.292 686.189C695.454 686.189 696.343 686.573 696.958 687.339C697.573 688.101 697.888 689.197 697.903 690.628V692.591ZM695.786 690.438C695.786 689.554 695.664 688.912 695.42 688.511C695.181 688.106 694.805 687.903 694.292 687.903C693.794 687.903 693.425 688.096 693.186 688.482C692.952 688.863 692.827 689.461 692.812 690.276V692.869C692.812 693.738 692.93 694.385 693.164 694.81C693.403 695.23 693.784 695.44 694.307 695.44C694.824 695.44 695.198 695.237 695.427 694.832C695.657 694.427 695.776 693.807 695.786 692.972V690.438ZM704.29 692.737C703.738 693.279 703.093 693.55 702.356 693.55C701.414 693.55 700.659 693.228 700.093 692.583C699.526 691.934 699.243 691.06 699.243 689.961C699.243 689.263 699.395 688.624 699.697 688.042C700.005 687.457 700.432 687.002 700.979 686.68C701.526 686.353 702.141 686.189 702.825 686.189C703.528 686.189 704.153 686.365 704.7 686.717C705.247 687.068 705.671 687.574 705.974 688.233C706.277 688.892 706.431 689.646 706.436 690.496V691.28C706.436 693.057 705.994 694.454 705.11 695.469C704.226 696.485 702.974 697.027 701.353 697.095L700.833 697.103V695.337L701.301 695.33C703.142 695.247 704.138 694.383 704.29 692.737ZM702.876 691.932C703.218 691.932 703.511 691.844 703.755 691.668C704.004 691.492 704.192 691.28 704.319 691.031V690.159C704.319 689.441 704.182 688.885 703.909 688.489C703.635 688.094 703.269 687.896 702.81 687.896C702.385 687.896 702.036 688.091 701.763 688.482C701.489 688.868 701.353 689.354 701.353 689.939C701.353 690.521 701.484 690.999 701.748 691.375C702.017 691.746 702.393 691.932 702.876 691.932ZM708.142 695.96C708.142 695.623 708.254 695.35 708.479 695.14C708.708 694.93 708.994 694.825 709.336 694.825C709.683 694.825 709.968 694.93 710.193 695.14C710.422 695.35 710.537 695.623 710.537 695.96C710.537 696.292 710.425 696.563 710.2 696.773C709.976 696.978 709.688 697.081 709.336 697.081C708.989 697.081 708.704 696.978 708.479 696.773C708.254 696.563 708.142 696.292 708.142 695.96ZM708.142 689.961C708.142 689.625 708.254 689.351 708.479 689.141C708.708 688.931 708.994 688.826 709.336 688.826C709.683 688.826 709.968 688.931 710.193 689.141C710.422 689.351 710.537 689.625 710.537 689.961C710.537 690.293 710.425 690.564 710.2 690.774C709.976 690.979 709.688 691.082 709.336 691.082C708.989 691.082 708.704 690.979 708.479 690.774C708.254 690.564 708.142 690.293 708.142 689.961ZM719.363 692.591C719.363 694.065 719.058 695.193 718.447 695.975C717.837 696.756 716.943 697.146 715.767 697.146C714.604 697.146 713.716 696.763 713.101 695.997C712.485 695.23 712.17 694.131 712.156 692.701V690.738C712.156 689.249 712.463 688.118 713.079 687.347C713.699 686.575 714.59 686.189 715.752 686.189C716.914 686.189 717.803 686.573 718.418 687.339C719.033 688.101 719.348 689.197 719.363 690.628V692.591ZM717.246 690.438C717.246 689.554 717.124 688.912 716.88 688.511C716.641 688.106 716.265 687.903 715.752 687.903C715.254 687.903 714.885 688.096 714.646 688.482C714.412 688.863 714.287 689.461 714.272 690.276V692.869C714.272 693.738 714.39 694.385 714.624 694.81C714.863 695.23 715.244 695.44 715.767 695.44C716.284 695.44 716.658 695.237 716.887 694.832C717.117 694.427 717.236 693.807 717.246 692.972V690.438ZM727.976 692.591C727.976 694.065 727.671 695.193 727.061 695.975C726.45 696.756 725.557 697.146 724.38 697.146C723.218 697.146 722.329 696.763 721.714 695.997C721.099 695.23 720.784 694.131 720.769 692.701V690.738C720.769 689.249 721.077 688.118 721.692 687.347C722.312 686.575 723.203 686.189 724.365 686.189C725.527 686.189 726.416 686.573 727.031 687.339C727.646 688.101 727.961 689.197 727.976 690.628V692.591ZM725.859 690.438C725.859 689.554 725.737 688.912 725.493 688.511C725.254 688.106 724.878 687.903 724.365 687.903C723.867 687.903 723.499 688.096 723.259 688.482C723.025 688.863 722.9 689.461 722.886 690.276V692.869C722.886 693.738 723.003 694.385 723.237 694.81C723.477 695.23 723.857 695.44 724.38 695.44C724.897 695.44 725.271 695.237 725.5 694.832C725.73 694.427 725.85 693.807 725.859 692.972V690.438Z" fill="#B7B8B9"/>
<path d="M875.867 697H873.75V688.841L871.223 689.625V687.903L875.64 686.321H875.867V697ZM886.648 697H879.338V695.55L882.788 691.873C883.262 691.355 883.611 690.904 883.835 690.518C884.065 690.132 884.18 689.766 884.18 689.419C884.18 688.946 884.06 688.575 883.821 688.306C883.582 688.033 883.24 687.896 882.795 687.896C882.317 687.896 881.938 688.062 881.66 688.394C881.387 688.721 881.25 689.153 881.25 689.69H879.126C879.126 689.041 879.28 688.448 879.587 687.911C879.9 687.374 880.339 686.954 880.906 686.651C881.472 686.343 882.114 686.189 882.832 686.189C883.931 686.189 884.783 686.453 885.388 686.98C885.999 687.508 886.304 688.252 886.304 689.214C886.304 689.742 886.167 690.279 885.894 690.826C885.62 691.373 885.151 692.01 884.487 692.737L882.063 695.293H886.648V697ZM888.142 695.96C888.142 695.623 888.254 695.35 888.479 695.14C888.708 694.93 888.994 694.825 889.336 694.825C889.683 694.825 889.968 694.93 890.193 695.14C890.422 695.35 890.537 695.623 890.537 695.96C890.537 696.292 890.425 696.563 890.2 696.773C889.976 696.978 889.688 697.081 889.336 697.081C888.989 697.081 888.704 696.978 888.479 696.773C888.254 696.563 888.142 696.292 888.142 695.96ZM888.142 689.961C888.142 689.625 888.254 689.351 888.479 689.141C888.708 688.931 888.994 688.826 889.336 688.826C889.683 688.826 889.968 688.931 890.193 689.141C890.422 689.351 890.537 689.625 890.537 689.961C890.537 690.293 890.425 690.564 890.2 690.774C889.976 690.979 889.688 691.082 889.336 691.082C888.989 691.082 888.704 690.979 888.479 690.774C888.254 690.564 888.142 690.293 888.142 689.961ZM899.363 692.591C899.363 694.065 899.058 695.193 898.447 695.975C897.837 696.756 896.943 697.146 895.767 697.146C894.604 697.146 893.716 696.763 893.101 695.997C892.485 695.23 892.17 694.131 892.156 692.701V690.738C892.156 689.249 892.463 688.118 893.079 687.347C893.699 686.575 894.59 686.189 895.752 686.189C896.914 686.189 897.803 686.573 898.418 687.339C899.033 688.101 899.348 689.197 899.363 690.628V692.591ZM897.246 690.438C897.246 689.554 897.124 688.912 896.88 688.511C896.641 688.106 896.265 687.903 895.752 687.903C895.254 687.903 894.885 688.096 894.646 688.482C894.412 688.863 894.287 689.461 894.272 690.276V692.869C894.272 693.738 894.39 694.385 894.624 694.81C894.863 695.23 895.244 695.44 895.767 695.44C896.284 695.44 896.658 695.237 896.887 694.832C897.117 694.427 897.236 693.807 897.246 692.972V690.438ZM907.976 692.591C907.976 694.065 907.671 695.193 907.061 695.975C906.45 696.756 905.557 697.146 904.38 697.146C903.218 697.146 902.329 696.763 901.714 695.997C901.099 695.23 900.784 694.131 900.769 692.701V690.738C900.769 689.249 901.077 688.118 901.692 687.347C902.312 686.575 903.203 686.189 904.365 686.189C905.527 686.189 906.416 686.573 907.031 687.339C907.646 688.101 907.961 689.197 907.976 690.628V692.591ZM905.859 690.438C905.859 689.554 905.737 688.912 905.493 688.511C905.254 688.106 904.878 687.903 904.365 687.903C903.867 687.903 903.499 688.096 903.259 688.482C903.025 688.863 902.9 689.461 902.886 690.276V692.869C902.886 693.738 903.003 694.385 903.237 694.81C903.477 695.23 903.857 695.44 904.38 695.44C904.897 695.44 905.271 695.237 905.5 694.832C905.73 694.427 905.85 693.807 905.859 692.972V690.438Z" fill="#B7B8B9"/>
<path d="M1055.87 697H1053.75V688.841L1051.22 689.625V687.903L1055.64 686.321H1055.87V697ZM1059.65 691.756L1060.27 686.336H1066.25V688.101H1062L1061.74 690.394C1062.24 690.125 1062.78 689.991 1063.34 689.991C1064.36 689.991 1065.16 690.306 1065.73 690.936C1066.31 691.565 1066.6 692.447 1066.6 693.58C1066.6 694.268 1066.45 694.886 1066.16 695.433C1065.87 695.975 1065.45 696.397 1064.91 696.7C1064.37 696.998 1063.73 697.146 1062.99 697.146C1062.35 697.146 1061.75 697.017 1061.2 696.758C1060.65 696.495 1060.21 696.126 1059.89 695.652C1059.57 695.179 1059.4 694.639 1059.38 694.034H1061.48C1061.52 694.478 1061.67 694.825 1061.94 695.074C1062.21 695.318 1062.56 695.44 1062.99 695.44C1063.46 695.44 1063.83 695.269 1064.09 694.927C1064.35 694.581 1064.48 694.092 1064.48 693.462C1064.48 692.857 1064.33 692.393 1064.03 692.071C1063.74 691.749 1063.31 691.587 1062.77 691.587C1062.26 691.587 1061.86 691.719 1061.54 691.983L1061.34 692.173L1059.65 691.756ZM1068.14 695.96C1068.14 695.623 1068.25 695.35 1068.48 695.14C1068.71 694.93 1068.99 694.825 1069.34 694.825C1069.68 694.825 1069.97 694.93 1070.19 695.14C1070.42 695.35 1070.54 695.623 1070.54 695.96C1070.54 696.292 1070.42 696.563 1070.2 696.773C1069.98 696.978 1069.69 697.081 1069.34 697.081C1068.99 697.081 1068.7 696.978 1068.48 696.773C1068.25 696.563 1068.14 696.292 1068.14 695.96ZM1068.14 689.961C1068.14 689.625 1068.25 689.351 1068.48 689.141C1068.71 688.931 1068.99 688.826 1069.34 688.826C1069.68 688.826 1069.97 688.931 1070.19 689.141C1070.42 689.351 1070.54 689.625 1070.54 689.961C1070.54 690.293 1070.42 690.564 1070.2 690.774C1069.98 690.979 1069.69 691.082 1069.34 691.082C1068.99 691.082 1068.7 690.979 1068.48 690.774C1068.25 690.564 1068.14 690.293 1068.14 689.961ZM1079.36 692.591C1079.36 694.065 1079.06 695.193 1078.45 695.975C1077.84 696.756 1076.94 697.146 1075.77 697.146C1074.6 697.146 1073.72 696.763 1073.1 695.997C1072.49 695.23 1072.17 694.131 1072.16 692.701V690.738C1072.16 689.249 1072.46 688.118 1073.08 687.347C1073.7 686.575 1074.59 686.189 1075.75 686.189C1076.91 686.189 1077.8 686.573 1078.42 687.339C1079.03 688.101 1079.35 689.197 1079.36 690.628V692.591ZM1077.25 690.438C1077.25 689.554 1077.12 688.912 1076.88 688.511C1076.64 688.106 1076.26 687.903 1075.75 687.903C1075.25 687.903 1074.89 688.096 1074.65 688.482C1074.41 688.863 1074.29 689.461 1074.27 690.276V692.869C1074.27 693.738 1074.39 694.385 1074.62 694.81C1074.86 695.23 1075.24 695.44 1075.77 695.44C1076.28 695.44 1076.66 695.237 1076.89 694.832C1077.12 694.427 1077.24 693.807 1077.25 692.972V690.438ZM1087.98 692.591C1087.98 694.065 1087.67 695.193 1087.06 695.975C1086.45 696.756 1085.56 697.146 1084.38 697.146C1083.22 697.146 1082.33 696.763 1081.71 695.997C1081.1 695.23 1080.78 694.131 1080.77 692.701V690.738C1080.77 689.249 1081.08 688.118 1081.69 687.347C1082.31 686.575 1083.2 686.189 1084.37 686.189C1085.53 686.189 1086.42 686.573 1087.03 687.339C1087.65 688.101 1087.96 689.197 1087.98 690.628V692.591ZM1085.86 690.438C1085.86 689.554 1085.74 688.912 1085.49 688.511C1085.25 688.106 1084.88 687.903 1084.37 687.903C1083.87 687.903 1083.5 688.096 1083.26 688.482C1083.02 688.863 1082.9 689.461 1082.89 690.276V692.869C1082.89 693.738 1083 694.385 1083.24 694.81C1083.48 695.23 1083.86 695.44 1084.38 695.44C1084.9 695.44 1085.27 695.237 1085.5 694.832C1085.73 694.427 1085.85 693.807 1085.86 692.972V690.438Z" fill="#B7B8B9"/>
<path d="M1235.87 697H1233.75V688.841L1231.22 689.625V687.903L1235.64 686.321H1235.87V697ZM1246.29 689.17C1246.29 689.688 1246.16 690.147 1245.9 690.547C1245.64 690.948 1245.29 691.268 1244.83 691.507C1245.35 691.756 1245.76 692.1 1246.06 692.54C1246.36 692.974 1246.52 693.487 1246.52 694.078C1246.52 695.025 1246.19 695.774 1245.55 696.326C1244.9 696.873 1244.03 697.146 1242.92 697.146C1241.81 697.146 1240.93 696.871 1240.28 696.319C1239.63 695.767 1239.31 695.02 1239.31 694.078C1239.31 693.487 1239.46 692.972 1239.76 692.532C1240.07 692.093 1240.47 691.751 1240.99 691.507C1240.53 691.268 1240.18 690.948 1239.92 690.547C1239.66 690.147 1239.54 689.688 1239.54 689.17C1239.54 688.262 1239.84 687.54 1240.44 687.002C1241.05 686.46 1241.87 686.189 1242.91 686.189C1243.95 686.189 1244.77 686.458 1245.37 686.995C1245.98 687.527 1246.29 688.252 1246.29 689.17ZM1244.39 693.924C1244.39 693.46 1244.26 693.089 1243.99 692.811C1243.72 692.532 1243.36 692.393 1242.91 692.393C1242.46 692.393 1242.1 692.532 1241.83 692.811C1241.56 693.084 1241.43 693.455 1241.43 693.924C1241.43 694.378 1241.56 694.744 1241.82 695.022C1242.08 695.301 1242.45 695.44 1242.92 695.44C1243.38 695.44 1243.74 695.306 1244 695.037C1244.26 694.769 1244.39 694.397 1244.39 693.924ZM1244.17 689.273C1244.17 688.858 1244.06 688.526 1243.84 688.277C1243.62 688.023 1243.31 687.896 1242.91 687.896C1242.52 687.896 1242.21 688.018 1241.99 688.262C1241.77 688.506 1241.66 688.843 1241.66 689.273C1241.66 689.698 1241.77 690.04 1241.99 690.298C1242.21 690.557 1242.52 690.687 1242.92 690.687C1243.32 690.687 1243.63 690.557 1243.84 690.298C1244.06 690.04 1244.17 689.698 1244.17 689.273ZM1248.14 695.96C1248.14 695.623 1248.25 695.35 1248.48 695.14C1248.71 694.93 1248.99 694.825 1249.34 694.825C1249.68 694.825 1249.97 694.93 1250.19 695.14C1250.42 695.35 1250.54 695.623 1250.54 695.96C1250.54 696.292 1250.42 696.563 1250.2 696.773C1249.98 696.978 1249.69 697.081 1249.34 697.081C1248.99 697.081 1248.7 696.978 1248.48 696.773C1248.25 696.563 1248.14 696.292 1248.14 695.96ZM1248.14 689.961C1248.14 689.625 1248.25 689.351 1248.48 689.141C1248.71 688.931 1248.99 688.826 1249.34 688.826C1249.68 688.826 1249.97 688.931 1250.19 689.141C1250.42 689.351 1250.54 689.625 1250.54 689.961C1250.54 690.293 1250.42 690.564 1250.2 690.774C1249.98 690.979 1249.69 691.082 1249.34 691.082C1248.99 691.082 1248.7 690.979 1248.48 690.774C1248.25 690.564 1248.14 690.293 1248.14 689.961ZM1259.36 692.591C1259.36 694.065 1259.06 695.193 1258.45 695.975C1257.84 696.756 1256.94 697.146 1255.77 697.146C1254.6 697.146 1253.72 696.763 1253.1 695.997C1252.49 695.23 1252.17 694.131 1252.16 692.701V690.738C1252.16 689.249 1252.46 688.118 1253.08 687.347C1253.7 686.575 1254.59 686.189 1255.75 686.189C1256.91 686.189 1257.8 686.573 1258.42 687.339C1259.03 688.101 1259.35 689.197 1259.36 690.628V692.591ZM1257.25 690.438C1257.25 689.554 1257.12 688.912 1256.88 688.511C1256.64 688.106 1256.26 687.903 1255.75 687.903C1255.25 687.903 1254.89 688.096 1254.65 688.482C1254.41 688.863 1254.29 689.461 1254.27 690.276V692.869C1254.27 693.738 1254.39 694.385 1254.62 694.81C1254.86 695.23 1255.24 695.44 1255.77 695.44C1256.28 695.44 1256.66 695.237 1256.89 694.832C1257.12 694.427 1257.24 693.807 1257.25 692.972V690.438ZM1267.98 692.591C1267.98 694.065 1267.67 695.193 1267.06 695.975C1266.45 696.756 1265.56 697.146 1264.38 697.146C1263.22 697.146 1262.33 696.763 1261.71 695.997C1261.1 695.23 1260.78 694.131 1260.77 692.701V690.738C1260.77 689.249 1261.08 688.118 1261.69 687.347C1262.31 686.575 1263.2 686.189 1264.37 686.189C1265.53 686.189 1266.42 686.573 1267.03 687.339C1267.65 688.101 1267.96 689.197 1267.98 690.628V692.591ZM1265.86 690.438C1265.86 689.554 1265.74 688.912 1265.49 688.511C1265.25 688.106 1264.88 687.903 1264.37 687.903C1263.87 687.903 1263.5 688.096 1263.26 688.482C1263.02 688.863 1262.9 689.461 1262.89 690.276V692.869C1262.89 693.738 1263 694.385 1263.24 694.81C1263.48 695.23 1263.86 695.44 1264.38 695.44C1264.9 695.44 1265.27 695.237 1265.5 694.832C1265.73 694.427 1265.85 693.807 1265.86 692.972V690.438Z" fill="#B7B8B9"/>
<rect x="726" y="144" width="300" height="92" fill="white"/>
<path d="M749.222 167.02H744.249V172H743.348V161.336H749.954V162.105H744.249V166.25H749.222V167.02ZM755.052 164.822C754.866 164.788 754.668 164.771 754.458 164.771C753.912 164.771 753.448 164.925 753.067 165.232C752.691 165.535 752.422 165.977 752.261 166.558V172H751.39V164.075H752.247L752.261 165.335C752.725 164.397 753.47 163.929 754.495 163.929C754.739 163.929 754.932 163.96 755.074 164.024L755.052 164.822ZM757.425 172H756.546V164.075H757.425V172ZM756.392 161.783C756.392 161.617 756.446 161.478 756.553 161.365C756.661 161.248 756.807 161.189 756.993 161.189C757.178 161.189 757.325 161.248 757.432 161.365C757.544 161.478 757.601 161.617 757.601 161.783C757.601 161.949 757.544 162.088 757.432 162.2C757.325 162.312 757.178 162.369 756.993 162.369C756.807 162.369 756.661 162.312 756.553 162.2C756.446 162.088 756.392 161.949 756.392 161.783ZM759.461 167.964C759.461 166.734 759.734 165.755 760.281 165.027C760.833 164.295 761.58 163.929 762.522 163.929C763.592 163.929 764.407 164.351 764.969 165.196V160.75H765.84V172H765.02L764.983 170.945C764.422 171.746 763.597 172.146 762.508 172.146C761.595 172.146 760.857 171.78 760.296 171.048C759.739 170.311 759.461 169.317 759.461 168.067V167.964ZM760.347 168.118C760.347 169.129 760.55 169.927 760.955 170.513C761.36 171.094 761.932 171.385 762.669 171.385C763.748 171.385 764.515 170.909 764.969 169.957V166.236C764.515 165.206 763.753 164.69 762.684 164.69C761.946 164.69 761.373 164.981 760.962 165.562C760.552 166.138 760.347 166.99 760.347 168.118ZM773.15 172C773.062 171.751 773.006 171.382 772.981 170.894C772.674 171.294 772.281 171.604 771.802 171.824C771.329 172.039 770.826 172.146 770.293 172.146C769.532 172.146 768.914 171.934 768.44 171.509C767.972 171.084 767.737 170.547 767.737 169.898C767.737 169.126 768.057 168.516 768.697 168.067C769.341 167.618 770.237 167.393 771.385 167.393H772.974V166.492C772.974 165.926 772.798 165.481 772.447 165.159C772.1 164.832 771.592 164.668 770.923 164.668C770.313 164.668 769.808 164.825 769.407 165.137C769.007 165.45 768.807 165.826 768.807 166.265L767.928 166.258C767.928 165.628 768.221 165.083 768.807 164.625C769.393 164.161 770.113 163.929 770.967 163.929C771.851 163.929 772.547 164.151 773.055 164.595C773.567 165.035 773.831 165.65 773.846 166.441V170.191C773.846 170.958 773.926 171.531 774.087 171.912V172H773.15ZM770.396 171.37C770.982 171.37 771.504 171.229 771.963 170.945C772.427 170.662 772.764 170.284 772.974 169.81V168.067H771.407C770.533 168.077 769.849 168.238 769.356 168.55C768.863 168.858 768.616 169.283 768.616 169.825C768.616 170.269p=r    p=r                    à<f            f    Ø=r            =r     @      =r            4.075H781.844L778.46 173.348L778.284 173.758C777.85 174.72 777.178 175.201 776.27 175.201C776.06 175.201 775.835 175.167 775.596 175.098L775.589 174.373L776.043 174.417C776.473 174.417 776.819 174.31 777.083 174.095C777.352 173.885 777.579 173.521 777.764 173.003L778.152 171.934L775.164 164.075H776.124L778.584 170.74ZM782.232 173.992L781.712 173.611C782.156 173.016 782.386 172.398 782.4 171.758V170.623H783.257V171.539C783.257 172.554 782.916 173.372 782.232 173.992ZM795.474 172H788.794V171.326L792.449 167.181C793.055 166.482 793.475 165.906 793.709 165.452C793.943 164.998 794.061 164.556 794.061 164.126C794.061 163.453 793.863 162.92 793.467 162.53C793.072 162.134 792.527 161.937 791.834 161.937C791.116 161.937 790.535 162.166 790.091 162.625C789.651 163.084 789.432 163.68 789.432 164.412H788.56C788.56 163.812 788.694 163.265 788.963 162.771C789.236 162.278 789.622 161.893 790.12 161.614C790.623 161.331 791.194 161.189 791.834 161.189C792.811 161.189 793.572 161.446 794.119 161.958C794.671 162.471 794.947 163.169 794.947 164.053C794.947 164.551 794.791 165.096 794.478 165.687C794.17 166.277 793.626 167.015 792.845 167.898L789.871 171.26H795.474V172ZM801.194 172H800.315V162.391L797.415 163.467V162.647L801.048 161.299H801.194V172ZM809.427 172V161.336H812.408C813.282 161.336 814.065 161.536 814.759 161.937C815.452 162.332 815.992 162.901 816.377 163.643C816.768 164.385 816.963 165.23 816.963 166.177V167.159C816.963 168.111 816.771 168.956 816.385 169.693C815.999 170.43 815.455 170.999 814.751 171.399C814.053 171.8 813.25 172 812.342 172H809.427ZM810.328 162.105V171.238H812.349C813.472 171.238 814.373 170.867 815.052 170.125C815.73 169.378 816.07 168.37 816.07 167.1V166.163C816.07 164.937 815.735 163.956 815.066 163.218C814.397 162.481 813.516 162.11 812.422 162.105H810.328ZM822.12 172.146C821.446 172.146 820.835 171.98 820.289 171.648C819.747 171.316 819.324 170.855 819.021 170.264C818.719 169.668 818.567 169.002 818.567 168.265V167.95C818.567 167.188 818.714 166.502 819.007 165.892C819.305 165.281 819.717 164.803 820.245 164.456C820.772 164.104 821.343 163.929 821.958 163.929C822.92 163.929 823.682 164.258 824.244 164.917C824.81 165.572 825.093 166.468 825.093 167.605V168.096H819.439V168.265C819.439 169.163 819.695 169.913 820.208 170.513C820.726 171.109 821.375 171.407 822.156 171.407C822.625 171.407 823.038 171.321 823.394 171.15C823.755 170.979 824.083 170.706 824.375 170.33L824.925 170.748C824.28 171.68 823.345 172.146 822.12 172.146ZM821.958 164.676C821.299 164.676 820.743 164.917 820.289 165.401C819.839 165.884 819.566 166.534 819.468 167.349H824.222V167.254C824.197 166.492 823.98 165.872 823.57 165.394C823.16 164.915 822.623 164.676 821.958 164.676ZM829.729 171.407C830.34 171.407 830.85 171.236 831.26 170.894C831.675 170.547 831.9 170.101 831.934 169.554H832.776C832.752 170.037 832.601 170.479 832.322 170.879C832.044 171.275 831.673 171.585 831.209 171.81C830.75 172.034 830.257 172.146 829.729 172.146C828.689 172.146 827.864 171.785 827.254 171.062C826.648 170.34 826.346 169.368 826.346 168.147V167.884C826.346 167.103 826.482 166.412 826.756 165.811C827.029 165.21 827.42 164.747 827.928 164.419C828.44 164.092 829.039 163.929 829.722 163.929C830.591 163.929 831.307 164.188 831.868 164.705C832.435 165.223 832.737 165.904 832.776 166.749H831.934C831.895 166.128 831.67 165.628 831.26 165.247C830.855 164.866 830.342 164.676 829.722 164.676C828.931 164.676 828.316 164.961 827.876 165.533C827.442 166.104 827.225 166.905 827.225 167.935V168.191C827.225 169.202 827.442 169.991 827.876 170.557C828.316 171.124 828.934 171.407 829.729 171.407ZM844.722 172H838.042V171.326L841.697 167.181C842.303 166.482 842.723 165.906 842.957 165.452C843.191 164.998 843.309 164.556 843.309 164.126C843.309 163.453 843.111 162.92 842.715 162.53C842.32 162.134 841.775 161.937 841.082 161.937C840.364 161.937 839.783 162.166 839.339 162.625C838.899 163.084 838.68 163.68 838.68 164.412H837.808C837.808 163.812 837.942 163.265 838.211 162.771C838.484 162.278 838.87 161.893 839.368 161.614C839.871 161.331 840.442 161.189 841.082 161.189C842.059 161.189 842.82 161.446 843.367 161.958C843.919 162.471 844.195 163.169 844.195 164.053C844.195 164.551 844.039 165.096 843.726 165.687C843.418 166.277 842.874 167.015 842.093 167.898L839.119 171.26H844.722V172ZM852.793 167.554C852.793 169.058 852.518 170.201 851.966 170.982C851.414 171.758 850.601 172.146 849.527 172.146C848.472 172.146 847.664 171.766 847.103 171.004C846.541 170.237 846.253 169.124 846.238 167.664V165.752C846.238 164.253 846.517 163.118 847.073 162.347C847.63 161.575 848.443 161.189 849.512 161.189C850.567 161.189 851.373 161.563 851.929 162.31C852.486 163.052 852.774 164.148 852.793 165.599V167.554ZM851.915 165.643C851.915 164.422 851.714 163.499 851.314 162.874C850.918 162.249 850.318 161.937 849.512 161.937C848.721 161.937 848.125 162.242 847.725 162.852C847.325 163.462 847.12 164.363 847.11 165.555V167.649C847.11 168.865 847.315 169.795 847.725 170.44C848.14 171.084 848.741 171.407 849.527 171.407C850.308 171.407 850.899 171.092 851.299 170.462C851.705 169.832 851.91 168.909 851.915 167.693V165.643ZM858.763 172H857.884V162.391L854.983 163.467V162.647L858.616 161.299H858.763V172ZM869.288 164.083C869.288 164.634 869.126 165.13 868.804 165.569C868.482 166.004 868.057 166.324 867.53 166.529C868.145 166.739 868.638 167.078 869.009 167.547C869.38 168.016 869.566 168.558 869.566 169.173C869.566 170.086 869.256 170.811 868.636 171.348C868.016 171.88 867.195 172.146 866.175 172.146C865.145 172.146 864.319 171.88 863.699 171.348C863.084 170.816 862.776 170.091 862.776 169.173C862.776 168.567 862.955 168.028 863.311 167.554C863.667 167.081 864.156 166.739 864.776 166.529C864.249 166.324 863.829 166.004 863.516 165.569C863.204 165.13 863.047 164.634 863.047 164.083C863.047 163.199 863.331 162.496 863.897 161.973C864.468 161.451 865.223 161.189 866.16 161.189C867.098 161.189 867.852 161.453 868.423 161.98C869 162.508 869.288 163.208 869.288 164.083ZM868.687 169.18C868.687 168.516 868.45 167.972 867.977 167.547C867.503 167.117 866.897 166.902 866.16 166.902C865.423 166.902 864.82 167.112 864.351 167.532C863.882 167.952 863.648 168.501 863.648 169.18C863.648 169.859 863.875 170.401 864.329 170.806C864.783 171.207 865.398 171.407 866.175 171.407C866.932 171.407 867.54 171.207 867.999 170.806C868.458 170.406 868.687 169.864 868.687 169.18ZM868.409 164.075C868.409 163.465 868.196 162.957 867.771 162.552C867.352 162.142 866.814 161.937 866.16 161.937C865.496 161.937 864.957 162.134 864.542 162.53C864.131 162.92 863.926 163.436 863.926 164.075C863.926 164.7 864.131 165.203 864.542 165.584C864.957 165.965 865.499 166.155 866.167 166.155C866.827 166.155 867.364 165.965 867.779 165.584C868.199 165.198 868.409 164.695 868.409 164.075ZM871.28 173.992L870.76 173.611C871.204 173.016 871.434 172.398 871.448 171.758V170.623H872.305V171.539C872.305 172.554 871.963 173.372 871.28 173.992ZM881.922 172H881.043V162.391L878.143 163.467V162.647L881.775 161.299H881.922V172ZM892.447 164.083C892.447 164.634 892.286 165.13 891.963 165.569C891.641 166.004 891.216 166.324 890.689 166.529C891.304 166.739 891.797 167.078 892.168 167.547C892.54 168.016 892.725 168.558 892.725 169.173C892.725 170.086 892.415 170.811 891.795 171.348C891.175 171.88 890.354 172.146 889.334 172.146C888.304 172.146 887.479 171.88 886.858 171.348C886.243 170.816 885.936 170.091 885.936 169.173C885.936 168.567 886.114 168.028 886.47 167.554C886.827 167.081 887.315 166.739 887.935 166.529C887.408 166.324 886.988 166.004 886.675 165.569C886.363 165.13 886.207 164.634 886.207 164.083C886.207 163.199 886.49 162.496 887.056 161.973C887.627 161.451 888.382 161.189 889.319 161.189C890.257 161.189 891.011 161.453 891.583 161.98C892.159 162.508 892.447 163.208 892.447 164.083ZM891.846 169.18C891.846 168.516 891.609 167.972 891.136 167.547C890.662 167.117 890.057 166.902 889.319 166.902C888.582 166.902 887.979 167.112 887.51 167.532C887.042 167.952 886.807 168.501 886.807 169.18C886.807 169.859 887.034 170.401 887.488 170.806C887.942 171.207 888.558 171.407 889.334 171.407C890.091 171.407 890.699 171.207 891.158 170.806C891.617 170.406 891.846 169.864 891.846 169.18ZM891.568 164.075C891.568 163.465 891.355 162.957 890.931 162.552C890.511 162.142 889.974 161.937 889.319 161.937C888.655 161.937 888.116 162.134 887.701 162.53C887.291 162.92 887.085 163.436 887.085 164.075C887.085 164.7 887.291 165.203 887.701 165.584C888.116 165.965 888.658 166.155 889.327 166.155C889.986 166.155 890.523 165.965 890.938 165.584C891.358 165.198 891.568 164.695 891.568 164.075ZM894.41 171.473C894.41 171.302 894.463 171.158 894.571 171.041C894.683 170.918 894.837 170.857 895.032 170.857C895.228 170.857 895.381 170.918 895.494 171.041C895.606 171.158 895.662 171.302 895.662 171.473C895.662 171.644 895.606 171.785 895.494 171.897C895.381 172.005 895.228 172.059 895.032 172.059C894.837 172.059 894.683 172.005 894.571 171.897C894.463 171.785 894.41 171.644 894.41 171.473ZM894.424 164.712C894.424 164.542 894.478 164.397 894.585 164.28C894.698 164.158 894.852 164.097 895.047 164.097C895.242 164.097 895.396 164.158 895.508 164.28C895.621 164.397 895.677 164.542 895.677 164.712C895.677 164.883 895.621 165.025 895.508 165.137C895.396 165.245 895.242 165.298 895.047 165.298C894.852 165.298 894.698 165.245 894.585 165.137C894.478 165.025 894.424 164.883 894.424 164.712ZM904.063 167.554C904.063 169.058 903.787 170.201 903.235 170.982C902.684 171.758 901.871 172.146 900.796 172.146C899.742 172.146 898.934 171.766 898.372 171.004C897.811 170.237 897.522 169.124 897.508 167.664V165.752C897.508 164.253 897.786 163.118 898.343 162.347C898.899 161.575 899.712 161.189 900.782 161.189C901.836 161.189 902.642 161.563 903.199 162.31C903.755 163.052 904.043 164.148 904.063 165.599V167.554ZM903.184 165.643C903.184 164.422 902.984 163.499 902.583 162.874C902.188 162.249 901.587 161.937 900.782 161.937C899.991 161.937 899.395 162.242 898.995 162.852C898.594 163.462 898.389 164.363 898.379 165.555V167.649C898.379 168.865 898.584 169.795 898.995 170.44C899.41 171.084 900.01 171.407 900.796 171.407C901.578 171.407 902.168 171.092 902.569 170.462C902.974 169.832 903.179 168.909 903.184 167.693V165.643ZM912.383 167.554C912.383 169.058 912.107 170.201 911.556 170.982C911.004 171.758 910.191 172.146 909.117 172.146C908.062 172.146 907.254 171.766 906.692 171.004C906.131 170.237 905.843 169.124 905.828 167.664V165.752C905.828 164.253 906.106 163.118 906.663 162.347C907.22 161.575 908.033 161.189 909.102 161.189C910.157 161.189 910.962 161.563 911.519 162.31C912.076 163.052 912.364 164.148 912.383 165.599V167.554ZM911.504 165.643C911.504 164.422 911.304 163.499 910.904 162.874C910.508 162.249 909.908 161.937 909.102 161.937C908.311 161.937 907.715 162.242 907.315 162.852C906.915 163.462 906.709 164.363 906.7 165.555V167.649C906.7 168.865 906.905 169.795 907.315 170.44C907.73 171.084 908.331 171.407 909.117 171.407C909.898 171.407 910.489 171.092 910.889 170.462C911.294 169.832 911.5 168.909 911.504 167.693V165.643ZM914.2 171.473C914.2 171.302 914.253 171.158 914.361 171.041C914.473 170.918 914.627 170.857 914.822 170.857C915.018 170.857 915.171 170.918 915.284 171.041C915.396 171.158 915.452 171.302 915.452 171.473C915.452 171.644 915.396 171.785 915.284 171.897C915.171 172.005 915.018 172.059 914.822 172.059C914.627 172.059 914.473 172.005 914.361 171.897C914.253 171.785 914.2 171.644 914.2 171.473ZM914.214 164.712C914.214 164.542 914.268 164.397 914.375 164.28C914.488 164.158 914.642 164.097 914.837 164.097C915.032 164.097 915.186 164.158 915.298 164.28C915.411 164.397 915.467 164.542 915.467 164.712C915.467 164.883 915.411 165.025 915.298 165.137C915.186 165.245 915.032 165.298 914.837 165.298C914.642 165.298 914.488 165.245 914.375 165.137C914.268 165.025 914.214 164.883 914.214 164.712ZM923.853 167.554C923.853 169.058 923.577 170.201 923.025 170.982C922.474 171.758 921.661 172.146 920.586 172.146C919.532 172.146 918.724 171.766 918.162 171.004C917.601 170.237 917.312 169.124 917.298 167.664V165.752C917.298 164.253 917.576 163.118 918.133 162.347C918.689 161.575 919.502 161.189 920.572 161.189C921.626 161.189 922.432 161.563 922.989 162.31C923.545 163.052 923.833 164.148 923.853 165.599V167.554ZM922.974 165.643C922.974 164.422 922.774 163.499 922.374 162.874C921.978 162.249 921.377 161.937 920.572 161.937C919.781 161.937 919.185 162.242 918.785 162.852C918.384 163.462 918.179 164.363 918.169 165.555V167.649C918.169 168.865 918.375 169.795 918.785 170.44C919.2 171.084 919.8 171.407 920.586 171.407C921.368 171.407 921.958 171.092 922.359 170.462C922.764 169.832 922.969 168.909 922.974 167.693V165.643ZM932.173 167.554C932.173 169.058 931.897 170.201 931.346 170.982C930.794 171.758 929.981 172.146 928.907 172.146C927.852 172.146 927.044 171.766 926.482 171.004C925.921 170.237 925.633 169.124 925.618 167.664V165.752C925.618 164.253 925.896 163.118 926.453 162.347C927.01 161.575 927.823 161.189 928.892 161.189C929.947 161.189 930.752 161.563 931.309 162.31C931.866 163.052 932.154 164.148 932.173 165.599V167.554ZM931.294 165.643C931.294 164.422 931.094 163.499 930.694 162.874C930.298 162.249 929.698 161.937 928.892 161.937C928.101 161.937 927.505 162.242 927.105 162.852C926.705 163.462 926.5 164.363 926.49 165.555V167.649C926.49 168.865 926.695 169.795 927.105 170.44C927.52 171.084 928.121 171.407 928.907 171.407C929.688 171.407 930.279 171.092 930.679 170.462C931.084 169.832 931.29 168.909 931.294 167.693V165.643ZM945.401 161.336V168.616C945.396 169.334 945.237 169.959 944.925 170.491C944.612 171.023 944.17 171.434 943.599 171.722C943.033 172.005 942.381 172.146 941.644 172.146C940.521 172.146 939.62 171.841 938.941 171.231C938.267 170.616 937.918 169.766 937.894 168.682V161.336H938.787V168.55C938.787 169.449 939.043 170.147 939.556 170.645C940.069 171.138 940.765 171.385 941.644 171.385C942.522 171.385 943.216 171.136 943.724 170.638C944.236 170.14 944.493 169.446 944.493 168.558V161.336H945.401ZM955.149 162.105H951.495V172H950.594V162.105H946.946V161.336H955.149V162.105ZM964.224 168.675C964.102 169.798 963.699 170.657 963.016 171.253C962.337 171.849 961.431 172.146 960.298 172.146C959.507 172.146 958.807 171.949 958.196 171.553C957.591 171.158 957.122 170.599 956.79 169.876C956.458 169.148 956.29 168.318 956.285 167.386V166.001C956.285 165.054 956.451 164.214 956.783 163.482C957.115 162.75 957.591 162.186 958.211 161.79C958.836 161.39 959.554 161.189 960.364 161.189C961.507 161.189 962.408 161.5 963.067 162.12C963.731 162.735 964.117 163.587 964.224 164.676H963.316C963.091 162.864 962.107 161.958 960.364 161.958C959.397 161.958 958.626 162.32 958.05 163.042C957.479 163.765 957.193 164.764 957.193 166.038V167.342C957.193 168.572 957.471 169.554 958.028 170.286C958.589 171.019 959.346 171.385 960.298 171.385C961.241 171.385 961.951 171.16 962.43 170.711C962.908 170.257 963.204 169.578 963.316 168.675H964.224ZM969.681 166.58H972.925V167.4H969.681V170.931H968.794V167.4H965.616V166.58H968.794V163.167H969.681V166.58ZM980.967 167.554C980.967 169.058 980.691 170.201 980.14 170.982C979.588 171.758 978.775 172.146 977.701 172.146C976.646 172.146 975.838 171.766 975.276 171.004C974.715 170.237 974.427 169.124 974.412 167.664V165.752C974.412 164.253 974.69 163.118 975.247 162.347C975.804 161.575 976.617 161.189 977.686 161.189C978.741 161.189 979.546 161.563 980.103 162.31C980.66 163.052 980.948 164.148 980.967 165.599V167.554ZM980.088 165.643C980.088 164.422 979.888 163.499 979.488 162.874C979.092 162.249 978.492 161.937 977.686 161.937C976.895 161.937 976.299 162.242 975.899 162.852C975.499 163.462 975.293 164.363 975.284 165.555V167.649C975.284 168.865 975.489 169.795 975.899 170.44C976.314 171.084 976.915 171.407 977.701 171.407C978.482 171.407 979.073 171.092 979.473 170.462C979.878 169.832 980.083 168.909 980.088 167.693V165.643ZM984.805 166.192H985.713C986.216 166.192 986.656 166.104 987.032 165.928C987.408 165.748 987.693 165.503 987.889 165.196C988.089 164.883 988.189 164.524 988.189 164.119C988.189 163.436 987.996 162.901 987.61 162.515C987.225 162.129 986.67 161.937 985.948 161.937C985.264 161.937 984.703 162.139 984.263 162.544C983.829 162.945 983.611 163.475 983.611 164.134H982.732C982.732 163.582 982.872 163.079 983.15 162.625C983.428 162.166 983.814 161.812 984.307 161p=r    p=r                    à<f            f    Ø=r            =r     @      =r             162.508 989.068 163.23 989.068 164.148C989.068 164.661 988.904 165.135 988.577 165.569C988.255 165.999 987.811 166.321 987.244 166.536C987.908 166.722 988.411 167.042 988.753 167.496C989.095 167.945 989.266 168.482 989.266 169.107C989.266 170.02 988.968 170.755 988.372 171.312C987.776 171.868 986.98 172.146 985.984 172.146C985.35 172.146 984.766 172.02 984.234 171.766C983.707 171.512 983.296 171.158 983.003 170.704C982.715 170.245 982.571 169.712 982.571 169.107H983.45C983.45 169.786 983.687 170.34 984.161 170.77C984.634 171.194 985.242 171.407 985.984 171.407C986.741 171.407 987.33 171.214 987.75 170.828C988.174 170.438 988.387 169.874 988.387 169.136C988.387 168.423 988.157 167.879 987.698 167.503C987.244 167.127 986.573 166.939 985.684 166.939H984.805V166.192ZM991.104 171.473C991.104 171.302 991.158 171.158 991.265 171.041C991.377 170.918 991.531 170.857 991.727 170.857C991.922 170.857 992.076 170.918 992.188 171.041C992.3 171.158 992.356 171.302 992.356 171.473C992.356 171.644 992.3 171.785 992.188 171.897C992.076 172.005 991.922 172.059 991.727 172.059C991.531 172.059 991.377 172.005 991.265 171.897C991.158 171.785 991.104 171.644 991.104 171.473ZM991.119 164.712C991.119 164.542 991.172 164.397 991.28 164.28C991.392 164.158 991.546 164.097 991.741 164.097C991.937 164.097 992.09 164.158 992.203 164.28C992.315 164.397 992.371 164.542 992.371 164.712C992.371 164.883 992.315 165.025 992.203 165.137C992.09 165.245 991.937 165.298 991.741 165.298C991.546 165.298 991.392 165.245 991.28 165.137C991.172 165.025 991.119 164.883 991.119 164.712ZM1000.76 167.554C1000.76 169.058 1000.48 170.201 999.93 170.982C999.378 171.758 998.565 172.146 997.491 172.146C996.436 172.146 995.628 171.766 995.066 171.004C994.505 170.237 994.217 169.124 994.202 167.664V165.752C994.202 164.253 994.48 163.118 995.037 162.347C995.594 161.575 996.407 161.189 997.476 161.189C998.531 161.189 999.336 161.563 999.893 162.31C1000.45 163.052 1000.74 164.148 1000.76 165.599V167.554ZM999.878 165.643C999.878 164.422 999.678 163.499 999.278 162.874C998.882 162.249 998.282 161.937 997.476 161.937C996.685 161.937 996.089 162.242 995.689 162.852C995.289 163.462 995.083 164.363 995.074 165.555V167.649C995.074 168.865 995.279 169.795 995.689 170.44C996.104 171.084 996.705 171.407 997.491 171.407C998.272 171.407 998.863 171.092 999.263 170.462C999.668 169.832 999.874 168.909 999.878 167.693V165.643ZM1009.08 167.554C1009.08 169.058 1008.8 170.201 1008.25 170.982C1007.7 171.758 1006.89 172.146 1005.81 172.146C1004.76 172.146 1003.95 171.766 1003.39 171.004C1002.83 170.237 1002.54 169.124 1002.52 167.664V165.752C1002.52 164.253 1002.8 163.118 1003.36 162.347C1003.91 161.575 1004.73 161.189 1005.8 161.189C1006.85 161.189 1007.66 161.563 1008.21 162.31C1008.77 163.052 1009.06 164.148 1009.08 165.599V167.554ZM1008.2 165.643C1008.2 164.422 1008 163.499 1007.6 162.874C1007.2 162.249 1006.6 161.937 1005.8 161.937C1005.01 161.937 1004.41 162.242 1004.01 162.852C1003.61 163.462 1003.4 164.363 1003.39 165.555V167.649C1003.39 168.865 1003.6 169.795 1004.01 170.44C1004.42 171.084 1005.02 171.407 1005.81 171.407C1006.59 171.407 1007.18 171.092 1007.58 170.462C1007.99 169.832 1008.19 168.909 1008.2 167.693V165.643ZM745.389 179.781L750.633 192.33L755.896 179.781H757.498V194H756.297V187.809L756.395 181.461L751.102 194H750.174L744.9 181.51L744.998 187.77V194H743.797V179.781H745.389ZM767.498 194C767.381 193.668 767.306 193.176 767.273 192.525C766.863 193.059 766.339 193.473 765.701 193.766C765.07 194.052 764.399 194.195 763.689 194.195C762.674 194.195 761.85 193.912 761.219 193.346C760.594 192.779 760.281 192.063 760.281 191.197C760.281 190.169 760.708 189.355 761.561 188.756C762.42 188.157 763.615 187.857 765.145 187.857H767.264V186.656C767.264 185.901 767.029 185.309 766.561 184.879C766.098 184.443 765.421 184.225 764.529 184.225C763.715 184.225 763.042 184.433 762.508 184.85C761.974 185.266 761.707 185.768 761.707 186.354L760.535 186.344C760.535 185.504 760.926 184.778 761.707 184.166C762.488 183.548 763.449 183.238 764.588 183.238C765.766 183.238 766.694 183.535 767.371 184.127C768.055 184.713 768.406 185.533 768.426 186.588V191.588C768.426 192.61 768.533 193.375 768.748 193.883V194H767.498ZM763.826 193.16C764.607 193.16 765.304 192.971 765.916 192.594C766.535 192.216 766.984 191.712 767.264 191.08V188.756H765.174C764.008 188.769 763.097 188.984 762.439 189.4C761.782 189.811 761.453 190.377 761.453 191.1C761.453 191.692 761.671 192.184 762.107 192.574C762.55 192.965 763.123 193.16 763.826 193.16ZM776.434 184.43C776.186 184.384 775.923 184.361 775.643 184.361C774.913 184.361 774.295 184.566 773.787 184.977C773.286 185.38 772.928 185.969 772.713 186.744V194H771.551V183.434H772.693L772.713 185.113C773.331 183.863 774.324 183.238 775.691 183.238C776.017 183.238 776.274 183.281 776.463 183.365L776.434 184.43ZM780.799 188.678L779.461 189.967V194H778.289V179H779.461V188.6L780.564 187.408L784.607 183.434H786.082L781.6 187.887L786.473 194H785.076L780.799 188.678ZM791.99 194.195C791.092 194.195 790.278 193.974 789.549 193.531C788.826 193.089 788.263 192.473 787.859 191.686C787.456 190.891 787.254 190.003 787.254 189.02V188.6C787.254 187.584 787.449 186.669 787.84 185.855C788.237 185.042 788.787 184.404 789.49 183.941C790.193 183.473 790.955 183.238 791.775 183.238C793.058 183.238 794.074 183.678 794.822 184.557C795.577 185.429 795.955 186.624 795.955 188.141V188.795H788.416V189.02C788.416 190.217 788.758 191.217 789.441 192.018C790.132 192.812 790.997 193.209 792.039 193.209C792.664 193.209 793.214 193.095 793.689 192.867C794.171 192.639 794.607 192.275 794.998 191.773L795.73 192.33C794.871 193.574 793.624 194.195 791.99 194.195ZM791.775 184.234C790.896 184.234 790.154 184.557 789.549 185.201C788.95 185.846 788.585 186.712 788.455 187.799H794.793V187.672C794.76 186.656 794.471 185.829 793.924 185.191C793.377 184.553 792.661 184.234 791.775 184.234ZM800.047 180.729V183.434H802.234V184.391H800.047V191.432C800.047 192.018 800.151 192.454 800.359 192.74C800.574 193.027 800.929 193.17 801.424 193.17C801.619 193.17 801.935 193.137 802.371 193.072L802.42 194.029C802.114 194.14 801.697 194.195 801.17 194.195C800.369 194.195 799.786 193.964 799.422 193.502C799.057 193.033 798.875 192.346 798.875 191.441V184.391H796.932V183.434H798.875V180.729H800.047ZM819.861 189.566C819.699 191.064 819.161 192.21 818.25 193.004C817.345 193.798 816.137 194.195 814.627 194.195C813.572 194.195 812.638 193.932 811.824 193.404C811.017 192.877 810.392 192.132 809.949 191.168C809.507 190.198 809.282 189.091 809.275 187.848V186.002C809.275 184.739 809.497 183.619 809.939 182.643C810.382 181.666 811.017 180.914 811.844 180.387C812.677 179.853 813.634 179.586 814.715 179.586C816.238 179.586 817.439 179.999 818.318 180.826C819.204 181.646 819.718 182.783 819.861 184.234H818.65C818.351 181.819 817.039 180.611 814.715 180.611C813.426 180.611 812.397 181.093 811.629 182.057C810.867 183.02 810.486 184.352 810.486 186.051V187.789C810.486 189.43 810.857 190.738 811.6 191.715C812.348 192.691 813.357 193.18 814.627 193.18C815.883 193.18 816.831 192.88 817.469 192.281C818.107 191.676 818.501 190.771 818.65 189.566H819.861ZM829.178 194C829.061 193.668 828.986 193.176 828.953 192.525C828.543 193.059 828.019 193.473 827.381 193.766C826.749 194.052 826.079 194.195 825.369 194.195C824.354 194.195 823.53 193.912 822.898 193.346C822.273 192.779 821.961 192.063 821.961 191.197C821.961 190.169 822.387 189.355 823.24 188.756C824.1 188.157 825.294 187.857 826.824 187.857H828.943V186.656C828.943 185.901 828.709 185.309 828.24 184.879C827.778 184.443 827.101 184.225 826.209 184.225C825.395 184.225 824.721 184.433 824.188 184.85C823.654 185.266 823.387 185.768 823.387 186.354L822.215 186.344C822.215 185.504 822.605 184.778 823.387 184.166C824.168 183.548 825.128 183.238 826.268 183.238C827.446 183.238 828.374 183.535 829.051 184.127C829.734 184.713 830.086 185.533 830.105 186.588V191.588C830.105 192.61 830.213 193.375 830.428 193.883V194H829.178ZM825.506 193.16C826.287 193.16 826.984 192.971 827.596 192.594C828.214 192.216 828.663 191.712 828.943 191.08V188.756H826.854C825.688 188.769 824.777 188.984 824.119 189.4C823.462 189.811 823.133 190.377 823.133 191.1C823.133 191.692 823.351 192.184 823.787 192.574C824.23 192.965 824.803 193.16 825.506 193.16ZM841.727 188.824C841.727 190.471 841.362 191.78 840.633 192.75C839.904 193.714 838.927 194.195 837.703 194.195C836.258 194.195 835.151 193.688 834.383 192.672V198.062H833.221V183.434H834.305L834.363 184.928C835.125 183.801 836.229 183.238 837.674 183.238C838.937 183.238 839.926 183.717 840.643 184.674C841.365 185.631 841.727 186.959 841.727 188.658V188.824ZM840.555 188.619C840.555 187.271 840.278 186.207 839.725 185.426C839.171 184.645 838.4 184.254 837.41 184.254C836.694 184.254 836.079 184.426 835.564 184.771C835.05 185.117 834.656 185.618 834.383 186.275V191.344C834.663 191.949 835.063 192.411 835.584 192.73C836.105 193.049 836.72 193.209 837.43 193.209C838.413 193.209 839.178 192.818 839.725 192.037C840.278 191.249 840.555 190.11 840.555 188.619ZM844.041 193.297C844.041 193.069 844.113 192.877 844.256 192.721C844.406 192.558 844.611 192.477 844.871 192.477C845.132 192.477 845.337 192.558 845.486 192.721C845.636 192.877 845.711 193.069 845.711 193.297C845.711 193.525 845.636 193.714 845.486 193.863C845.337 194.007 845.132 194.078 844.871 194.078C844.611 194.078 844.406 194.007 844.256 193.863C844.113 193.714 844.041 193.525 844.041 193.297ZM844.061 184.283C844.061 184.055 844.132 183.863 844.275 183.707C844.425 183.544 844.63 183.463 844.891 183.463C845.151 183.463 845.356 183.544 845.506 183.707C845.656 183.863 845.73 184.055 845.73 184.283C845.73 184.511 845.656 184.7 845.506 184.85C845.356 184.993 845.151 185.064 844.891 185.064C844.63 185.064 844.425 184.993 844.275 184.85C844.132 184.7 844.061 184.511 844.061 184.283ZM861.775 188.072C861.775 190.077 861.408 191.601 860.672 192.643C859.936 193.678 858.852 194.195 857.42 194.195C856.014 194.195 854.936 193.688 854.188 192.672C853.439 191.65 853.055 190.165 853.035 188.219V185.67C853.035 183.671 853.406 182.158 854.148 181.129C854.891 180.1 855.975 179.586 857.4 179.586C858.807 179.586 859.881 180.084 860.623 181.08C861.365 182.07 861.749 183.531 861.775 185.465V188.072ZM860.604 185.523C860.604 183.896 860.337 182.665 859.803 181.832C859.275 180.999 858.475 180.582 857.4 180.582C856.346 180.582 855.551 180.989 855.018 181.803C854.484 182.617 854.21 183.818 854.197 185.406V188.199C854.197 189.82 854.471 191.061 855.018 191.92C855.571 192.779 856.372 193.209 857.42 193.209C858.462 193.209 859.249 192.789 859.783 191.949C860.324 191.109 860.597 189.879 860.604 188.258V185.523ZM872.869 188.072C872.869 190.077 872.501 191.601 871.766 192.643C871.03 193.678 869.946 194.195 868.514 194.195C867.107 194.195 866.03 193.688 865.281 192.672C864.533 191.65 864.148 190.165 864.129 188.219V185.67C864.129 183.671 864.5 182.158 865.242 181.129C865.984 180.1 867.068 179.586 868.494 179.586C869.9 179.586 870.975 180.084 871.717 181.08C872.459 182.07 872.843 183.531 872.869 185.465V188.072ZM871.697 185.523C871.697 183.896 871.43 182.665 870.896 181.832C870.369 180.999 869.568 180.582 868.494 180.582C867.439 180.582 866.645 180.989 866.111 181.803C865.577 182.617 865.304 183.818 865.291 185.406V188.199C865.291 189.82 865.564 191.061 866.111 191.92C866.665 192.779 867.465 193.209 868.514 193.209C869.555 193.209 870.343 192.789 870.877 191.949C871.417 191.109 871.691 189.879 871.697 188.258V185.523ZM883.963 188.072C883.963 190.077 883.595 191.601 882.859 192.643C882.124 193.678 881.04 194.195 879.607 194.195C878.201 194.195 877.124 193.688 876.375 192.672C875.626 191.65 875.242 190.165 875.223 188.219V185.67C875.223 183.671 875.594 182.158 876.336 181.129C877.078 180.1 878.162 179.586 879.588 179.586C880.994 179.586 882.068 180.084 882.811 181.08C883.553 182.07 883.937 183.531 883.963 185.465V188.072ZM882.791 185.523C882.791 183.896 882.524 182.665 881.99 181.832C881.463 180.999 880.662 180.582 879.588 180.582C878.533 180.582 877.739 180.989 877.205 181.803C876.671 182.617 876.398 183.818 876.385 185.406V188.199C876.385 189.82 876.658 191.061 877.205 191.92C877.758 192.779 878.559 193.209 879.607 193.209C880.649 193.209 881.437 192.789 881.971 191.949C882.511 191.109 882.785 189.879 882.791 188.258V185.523ZM886.424 196.656L885.73 196.148C886.323 195.354 886.629 194.531 886.648 193.678V192.164H887.791V193.385C887.791 194.739 887.335 195.829 886.424 196.656ZM898.885 188.072C898.885 190.077 898.517 191.601 897.781 192.643C897.046 193.678 895.962 194.195 894.529 194.195C893.123 194.195 892.046 193.688 891.297 192.672C890.548 191.65 890.164 190.165 890.145 188.219V185.67C890.145 183.671 890.516 182.158 891.258 181.129C892 180.1 893.084 179.586 894.51 179.586C895.916 179.586 896.99 180.084 897.732 181.08C898.475 182.07 898.859 183.531 898.885 185.465V188.072ZM897.713 185.523C897.713 183.896 897.446 182.665 896.912 181.832C896.385 180.999 895.584 180.582 894.51 180.582C893.455 180.582 892.661 180.989 892.127 181.803C891.593 182.617 891.32 183.818 891.307 185.406V188.199C891.307 189.82 891.58 191.061 892.127 191.92C892.68 192.779 893.481 193.209 894.529 193.209C895.571 193.209 896.359 192.789 896.893 191.949C897.433 191.109 897.706 189.879 897.713 188.258V185.523ZM909.979 188.072C909.979 190.077 909.611 191.601 908.875 192.643C908.139 193.678 907.055 194.195 905.623 194.195C904.217 194.195 903.139 193.688 902.391 192.672C901.642 191.65 901.258 190.165 901.238 188.219V185.67C901.238 183.671 901.609 182.158 902.352 181.129C903.094 180.1 904.178 179.586 905.604 179.586C907.01 179.586 908.084 180.084 908.826 181.08C909.568 182.07 909.952 183.531 909.979 185.465V188.072ZM908.807 185.523C908.807 183.896 908.54 182.665 908.006 181.832C907.479 180.999 906.678 180.582 905.604 180.582C904.549 180.582 903.755 180.989 903.221 181.803C902.687 182.617 902.413 183.818 902.4 185.406V188.199C902.4 189.82 902.674 191.061 903.221 191.92C903.774 192.779 904.575 193.209 905.623 193.209C906.665 193.209 907.452 192.789 907.986 191.949C908.527 191.109 908.8 189.879 908.807 188.258V185.523ZM921.072 188.072C921.072 190.077 920.704 191.601 919.969 192.643C919.233 193.678 918.149 194.195 916.717 194.195C915.311 194.195 914.233 193.688 913.484 192.672C912.736 191.65 912.352 190.165 912.332 188.219V185.67C912.332 183.671 912.703 182.158 913.445 181.129C914.188 180.1 915.271 179.586 916.697 179.586C918.104 179.586 919.178 180.084 919.92 181.08C920.662 182.07 921.046 183.531 921.072 185.465V188.072ZM919.9 185.523C919.9 183.896 919.633 182.665 919.1 181.832C918.572 180.999 917.771 180.582 916.697 180.582C915.643 180.582 914.848 180.989 914.314 181.803C913.781 182.617 913.507 183.818 913.494 185.406V188.199C913.494 189.82 913.768 191.061 914.314 191.92C914.868 192.779 915.669 193.209 916.717 193.209C917.758 193.209 918.546 192.789 919.08 191.949C919.62 191.109 919.894 189.879 919.9 188.258V185.523ZM923.533 196.656L922.84 196.148C923.432 195.354 923.738 194.531 923.758 193.678V192.164H924.9V193.385C924.9 194.739 924.445 195.829 923.533 196.656ZM935.994 188.072C935.994 190.077 935.626 191.601 934.891 192.643C934.155 193.678 933.071 194.195 931.639 194.195C930.232 194.195 929.155 193.688 928.406 192.672C927.658 191.65 927.273 190.165 927.254 188.219V185.67C927.254 183.671 927.625 182.158 928.367 181.129C929.109 180.1 930.193 179.586 931.619 179.586C933.025 179.586 934.1 180.084 934.842 181.08C935.584 182.07 935.968 183.531 935.994 185.465V188.072ZM934.822 185.523C934.822 183.896 934.555 182.665 934.021 181.832C933.494 180.999 932.693 180.582 931.619 180.582C930.564 180.582 929.77 180.989 929.236 181.803C928.702 182.617 928.429 183.818 928.416 185.406V188.199C928.416 189.82 928.689 191.061 929.236 191.92C929.79 192.779 930.59 193.209 931.639 193.209C932.68 193.209 933.468 192.789 934.002 191.949C934.542 191.109 934.816 189.879 934.822 188.258V185.523ZM947.088 188.072C947.088 190.077 946.72 191.601 945.984 192.643C945.249 193.678 944.165 194.195 942.732 194.195C941.326 194.195 940.249 193.688 939.5 192.672C938.751 191.65 938.367 190.165 938.348 188.219V185.67C938.348 183.671 938.719 182.158 939.461 181.129C940.203 180.1 941.287 179.586 942.713 179.586C944.119 179.586 945.193 180.084 945.936 181.08C946.678 182.07 947.062 183.531 947.088 185.465V188.072ZM945.916 1p=r    p=r                    à<f            f    Ø=r            =r     @      =r            41.658 180.582 940.864 180.989 940.33 181.803C939.796 182.617 939.523 183.818 939.51 185.406V188.199C939.51 189.82 939.783 191.061 940.33 191.92C940.883 192.779 941.684 193.209 942.732 193.209C943.774 193.209 944.562 192.789 945.096 191.949C945.636 191.109 945.91 189.879 945.916 188.258V185.523ZM958.182 188.072C958.182 190.077 957.814 191.601 957.078 192.643C956.342 193.678 955.258 194.195 953.826 194.195C952.42 194.195 951.342 193.688 950.594 192.672C949.845 191.65 949.461 190.165 949.441 188.219V185.67C949.441 183.671 949.812 182.158 950.555 181.129C951.297 180.1 952.381 179.586 953.807 179.586C955.213 179.586 956.287 180.084 957.029 181.08C957.771 182.07 958.156 183.531 958.182 185.465V188.072ZM957.01 185.523C957.01 183.896 956.743 182.665 956.209 181.832C955.682 180.999 954.881 180.582 953.807 180.582C952.752 180.582 951.958 180.989 951.424 181.803C950.89 182.617 950.617 183.818 950.604 185.406V188.199C950.604 189.82 950.877 191.061 951.424 191.92C951.977 192.779 952.778 193.209 953.826 193.209C954.868 193.209 955.656 192.789 956.189 191.949C956.73 191.109 957.003 189.879 957.01 188.258V185.523ZM960.643 196.656L959.949 196.148C960.542 195.354 960.848 194.531 960.867 193.678V192.164H962.01V193.385C962.01 194.739 961.554 195.829 960.643 196.656ZM973.104 188.072C973.104 190.077 972.736 191.601 972 192.643C971.264 193.678 970.18 194.195 968.748 194.195C967.342 194.195 966.264 193.688 965.516 192.672C964.767 191.65 964.383 190.165 964.363 188.219V185.67C964.363 183.671 964.734 182.158 965.477 181.129C966.219 180.1 967.303 179.586 968.729 179.586C970.135 179.586 971.209 180.084 971.951 181.08C972.693 182.07 973.077 183.531 973.104 185.465V188.072ZM971.932 185.523C971.932 183.896 971.665 182.665 971.131 181.832C970.604 180.999 969.803 180.582 968.729 180.582C967.674 180.582 966.88 180.989 966.346 181.803C965.812 182.617 965.538 183.818 965.525 185.406V188.199C965.525 189.82 965.799 191.061 966.346 191.92C966.899 192.779 967.7 193.209 968.748 193.209C969.79 193.209 970.577 192.789 971.111 191.949C971.652 191.109 971.925 189.879 971.932 188.258V185.523ZM984.197 188.072C984.197 190.077 983.829 191.601 983.094 192.643C982.358 193.678 981.274 194.195 979.842 194.195C978.436 194.195 977.358 193.688 976.609 192.672C975.861 191.65 975.477 190.165 975.457 188.219V185.67C975.457 183.671 975.828 182.158 976.57 181.129C977.312 180.1 978.396 179.586 979.822 179.586C981.229 179.586 982.303 180.084 983.045 181.08C983.787 182.07 984.171 183.531 984.197 185.465V188.072ZM983.025 185.523C983.025 183.896 982.758 182.665 982.225 181.832C981.697 180.999 980.896 180.582 979.822 180.582C978.768 180.582 977.973 180.989 977.439 181.803C976.906 182.617 976.632 183.818 976.619 185.406V188.199C976.619 189.82 976.893 191.061 977.439 191.92C977.993 192.779 978.794 193.209 979.842 193.209C980.883 193.209 981.671 192.789 982.205 191.949C982.745 191.109 983.019 189.879 983.025 188.258V185.523ZM995.291 188.072C995.291 190.077 994.923 191.601 994.188 192.643C993.452 193.678 992.368 194.195 990.936 194.195C989.529 194.195 988.452 193.688 987.703 192.672C986.954 191.65 986.57 190.165 986.551 188.219V185.67C986.551 183.671 986.922 182.158 987.664 181.129C988.406 180.1 989.49 179.586 990.916 179.586C992.322 179.586 993.396 180.084 994.139 181.08C994.881 182.07 995.265 183.531 995.291 185.465V188.072ZM994.119 185.523C994.119 183.896 993.852 182.665 993.318 181.832C992.791 180.999 991.99 180.582 990.916 180.582C989.861 180.582 989.067 180.989 988.533 181.803C987.999 182.617 987.726 183.818 987.713 185.406V188.199C987.713 189.82 987.986 191.061 988.533 191.92C989.087 192.779 989.887 193.209 990.936 193.209C991.977 193.209 992.765 192.789 993.299 191.949C993.839 191.109 994.113 189.879 994.119 188.258V185.523ZM752.244 217H743.338V216.102L748.211 210.574C749.018 209.643 749.578 208.875 749.891 208.27C750.203 207.664 750.359 207.075 750.359 206.502C750.359 205.604 750.096 204.894 749.568 204.373C749.041 203.846 748.315 203.582 747.391 203.582C746.434 203.582 745.659 203.888 745.066 204.5C744.48 205.112 744.188 205.906 744.188 206.883H743.025C743.025 206.082 743.204 205.353 743.562 204.695C743.927 204.038 744.441 203.523 745.105 203.152C745.776 202.775 746.538 202.586 747.391 202.586C748.693 202.586 749.708 202.928 750.438 203.611C751.173 204.295 751.541 205.226 751.541 206.404C751.541 207.068 751.333 207.794 750.916 208.582C750.506 209.37 749.78 210.353 748.738 211.531L744.773 216.014H752.244V217ZM761.609 212.42H763.826V213.406H761.609V217H760.438V213.406H753.748V212.742L760.33 202.781H761.609V212.42ZM755.184 212.42H760.438V204.295L759.92 205.193L755.184 212.42ZM766.873 208.221C767.257 207.589 767.749 207.101 768.348 206.756C768.947 206.411 769.601 206.238 770.311 206.238C771.443 206.238 772.286 206.557 772.84 207.195C773.393 207.833 773.673 208.79 773.68 210.066V217H772.518V210.057C772.511 209.113 772.309 208.41 771.912 207.947C771.521 207.485 770.893 207.254 770.027 207.254C769.305 207.254 768.663 207.482 768.104 207.938C767.55 208.387 767.14 208.995 766.873 209.764V217H765.711V202H766.873V208.221ZM786.111 215.242L786.189 215.545L786.277 215.242L790.75 202.781H792.068L786.775 217H785.623L780.33 202.781H781.639L786.111 215.242ZM792.801 211.561C792.801 210.545 792.996 209.63 793.387 208.816C793.784 208.003 794.34 207.371 795.057 206.922C795.779 206.466 796.596 206.238 797.508 206.238C798.914 206.238 800.053 206.733 800.926 207.723C801.798 208.706 802.234 210.011 802.234 211.639V211.883C802.234 212.905 802.036 213.826 801.639 214.646C801.248 215.46 800.695 216.089 799.979 216.531C799.262 216.974 798.445 217.195 797.527 217.195C796.128 217.195 794.988 216.704 794.109 215.721C793.237 214.731 792.801 213.423 792.801 211.795V211.561ZM793.973 211.883C793.973 213.146 794.298 214.184 794.949 214.998C795.607 215.805 796.466 216.209 797.527 216.209C798.582 216.209 799.435 215.805 800.086 214.998C800.743 214.184 801.072 213.113 801.072 211.785V211.561C801.072 210.753 800.923 210.014 800.623 209.344C800.324 208.673 799.904 208.156 799.363 207.791C798.823 207.42 798.204 207.234 797.508 207.234C796.466 207.234 795.617 207.645 794.959 208.465C794.301 209.279 793.973 210.346 793.973 211.668V211.883ZM805.965 217H804.793V202H805.965V217ZM808.865 216.297C808.865 216.069 808.937 215.877 809.08 215.721C809.23 215.558 809.435 215.477 809.695 215.477C809.956 215.477 810.161 215.558 810.311 215.721C810.46 215.877 810.535 216.069 810.535 216.297C810.535 216.525 810.46 216.714 810.311 216.863C810.161 217.007 809.956 217.078 809.695 217.078C809.435 217.078 809.23 217.007 809.08 216.863C808.937 216.714 808.865 216.525 808.865 216.297ZM808.885 207.283C808.885 207.055 808.956 206.863 809.1 206.707C809.249 206.544 809.454 206.463 809.715 206.463C809.975 206.463 810.18 206.544 810.33 206.707C810.48 206.863 810.555 207.055 810.555 207.283C810.555 207.511 810.48 207.7 810.33 207.85C810.18 207.993 809.975 208.064 809.715 208.064C809.454 208.064 809.249 207.993 809.1 207.85C808.956 207.7 808.885 207.511 808.885 207.283ZM826.6 211.072C826.6 213.077 826.232 214.601 825.496 215.643C824.76 216.678 823.676 217.195 822.244 217.195C820.838 217.195 819.76 216.688 819.012 215.672C818.263 214.65 817.879 213.165 817.859 211.219V208.67C817.859 206.671 818.23 205.158 818.973 204.129C819.715 203.1 820.799 202.586 822.225 202.586C823.631 202.586 824.705 203.084 825.447 204.08C826.189 205.07 826.574 206.531 826.6 208.465V211.072ZM825.428 208.523C825.428 206.896 825.161 205.665 824.627 204.832C824.1 203.999 823.299 203.582 822.225 203.582C821.17 203.582 820.376 203.989 819.842 204.803C819.308 205.617 819.035 206.818 819.021 208.406V211.199C819.021 212.82 819.295 214.061 819.842 214.92C820.395 215.779 821.196 216.209 822.244 216.209C823.286 216.209 824.074 215.789 824.607 214.949C825.148 214.109 825.421 212.879 825.428 211.258V208.523ZM837.693 211.072C837.693 213.077 837.326 214.601 836.59 215.643C835.854 216.678 834.77 217.195 833.338 217.195C831.932 217.195 830.854 216.688 830.105 215.672C829.357 214.65 828.973 213.165 828.953 211.219V208.67C828.953 206.671 829.324 205.158 830.066 204.129C830.809 203.1 831.893 202.586 833.318 202.586C834.725 202.586 835.799 203.084 836.541 204.08C837.283 205.07 837.667 206.531 837.693 208.465V211.072ZM836.521 208.523C836.521 206.896 836.255 205.665 835.721 204.832C835.193 203.999 834.393 203.582 833.318 203.582C832.264 203.582 831.469 203.989 830.936 204.803C830.402 205.617 830.128 206.818 830.115 208.406V211.199C830.115 212.82 830.389 214.061 830.936 214.92C831.489 215.779 832.29 216.209 833.338 216.209C834.38 216.209 835.167 215.789 835.701 214.949C836.242 214.109 836.515 212.879 836.521 211.258V208.523ZM840.154 219.656L839.461 219.148C840.053 218.354 840.359 217.531 840.379 216.678V215.164H841.521V216.385C841.521 217.739 841.066 218.829 840.154 219.656ZM852.615 211.072C852.615 213.077 852.247 214.601 851.512 215.643C850.776 216.678 849.692 217.195 848.26 217.195C846.854 217.195 845.776 216.688 845.027 215.672C844.279 214.65 843.895 213.165 843.875 211.219V208.67C843.875 206.671 844.246 205.158 844.988 204.129C845.73 203.1 846.814 202.586 848.24 202.586C849.646 202.586 850.721 203.084 851.463 204.08C852.205 205.07 852.589 206.531 852.615 208.465V211.072ZM851.443 208.523C851.443 206.896 851.176 205.665 850.643 204.832C850.115 203.999 849.314 203.582 848.24 203.582C847.186 203.582 846.391 203.989 845.857 204.803C845.324 205.617 845.05 206.818 845.037 208.406V211.199C845.037 212.82 845.311 214.061 845.857 214.92C846.411 215.779 847.212 216.209 848.26 216.209C849.301 216.209 850.089 215.789 850.623 214.949C851.163 214.109 851.437 212.879 851.443 211.258V208.523ZM863.709 211.072C863.709 213.077 863.341 214.601 862.605 215.643C861.87 216.678 860.786 217.195 859.354 217.195C857.947 217.195 856.87 216.688 856.121 215.672C855.372 214.65 854.988 213.165 854.969 211.219V208.67C854.969 206.671 855.34 205.158 856.082 204.129C856.824 203.1 857.908 202.586 859.334 202.586C860.74 202.586 861.814 203.084 862.557 204.08C863.299 205.07 863.683 206.531 863.709 208.465V211.072ZM862.537 208.523C862.537 206.896 862.27 205.665 861.736 204.832C861.209 203.999 860.408 203.582 859.334 203.582C858.279 203.582 857.485 203.989 856.951 204.803C856.417 205.617 856.144 206.818 856.131 208.406V211.199C856.131 212.82 856.404 214.061 856.951 214.92C857.505 215.779 858.305 216.209 859.354 216.209C860.395 216.209 861.183 215.789 861.717 214.949C862.257 214.109 862.531 212.879 862.537 211.258V208.523ZM874.803 211.072C874.803 213.077 874.435 214.601 873.699 215.643C872.964 216.678 871.88 217.195 870.447 217.195C869.041 217.195 867.964 216.688 867.215 215.672C866.466 214.65 866.082 213.165 866.062 211.219V208.67C866.062 206.671 866.434 205.158 867.176 204.129C867.918 203.1 869.002 202.586 870.428 202.586C871.834 202.586 872.908 203.084 873.65 204.08C874.393 205.07 874.777 206.531 874.803 208.465V211.072ZM873.631 208.523C873.631 206.896 873.364 205.665 872.83 204.832C872.303 203.999 871.502 203.582 870.428 203.582C869.373 203.582 868.579 203.989 868.045 204.803C867.511 205.617 867.238 206.818 867.225 208.406V211.199C867.225 212.82 867.498 214.061 868.045 214.92C868.598 215.779 869.399 216.209 870.447 216.209C871.489 216.209 872.277 215.789 872.811 214.949C873.351 214.109 873.624 212.879 873.631 211.258V208.523ZM877.264 219.656L876.57 219.148C877.163 218.354 877.469 217.531 877.488 216.678V215.164H878.631V216.385C878.631 217.739 878.175 218.829 877.264 219.656ZM889.725 211.072C889.725 213.077 889.357 214.601 888.621 215.643C887.885 216.678 886.801 217.195 885.369 217.195C883.963 217.195 882.885 216.688 882.137 215.672C881.388 214.65 881.004 213.165 880.984 211.219V208.67C880.984 206.671 881.355 205.158 882.098 204.129C882.84 203.1 883.924 202.586 885.35 202.586C886.756 202.586 887.83 203.084 888.572 204.08C889.314 205.07 889.699 206.531 889.725 208.465V211.072ZM888.553 208.523C888.553 206.896 888.286 205.665 887.752 204.832C887.225 203.999 886.424 203.582 885.35 203.582C884.295 203.582 883.501 203.989 882.967 204.803C882.433 205.617 882.16 206.818 882.146 208.406V211.199C882.146 212.82 882.42 214.061 882.967 214.92C883.52 215.779 884.321 216.209 885.369 216.209C886.411 216.209 887.199 215.789 887.732 214.949C888.273 214.109 888.546 212.879 888.553 211.258V208.523ZM900.818 211.072C900.818 213.077 900.451 214.601 899.715 215.643C898.979 216.678 897.895 217.195 896.463 217.195C895.057 217.195 893.979 216.688 893.23 215.672C892.482 214.65 892.098 213.165 892.078 211.219V208.67C892.078 206.671 892.449 205.158 893.191 204.129C893.934 203.1 895.018 202.586 896.443 202.586C897.85 202.586 898.924 203.084 899.666 204.08C900.408 205.07 900.792 206.531 900.818 208.465V211.072ZM899.646 208.523C899.646 206.896 899.38 205.665 898.846 204.832C898.318 203.999 897.518 203.582 896.443 203.582C895.389 203.582 894.594 203.989 894.061 204.803C893.527 205.617 893.253 206.818 893.24 208.406V211.199C893.24 212.82 893.514 214.061 894.061 214.92C894.614 215.779 895.415 216.209 896.463 216.209C897.505 216.209 898.292 215.789 898.826 214.949C899.367 214.109 899.64 212.879 899.646 211.258V208.523ZM911.912 211.072C911.912 213.077 911.544 214.601 910.809 215.643C910.073 216.678 908.989 217.195 907.557 217.195C906.15 217.195 905.073 216.688 904.324 215.672C903.576 214.65 903.191 213.165 903.172 211.219V208.67C903.172 206.671 903.543 205.158 904.285 204.129C905.027 203.1 906.111 202.586 907.537 202.586C908.943 202.586 910.018 203.084 910.76 204.08C911.502 205.07 911.886 206.531 911.912 208.465V211.072ZM910.74 208.523C910.74 206.896 910.473 205.665 909.939 204.832C909.412 203.999 908.611 203.582 907.537 203.582C906.482 203.582 905.688 203.989 905.154 204.803C904.62 205.617 904.347 206.818 904.334 208.406V211.199C904.334 212.82 904.607 214.061 905.154 214.92C905.708 215.779 906.508 216.209 907.557 216.209C908.598 216.209 909.386 215.789 909.92 214.949C910.46 214.109 910.734 212.879 910.74 211.258V208.523ZM914.373 219.656L913.68 219.148C914.272 218.354 914.578 217.531 914.598 216.678V215.164H915.74V216.385C915.74 217.739 915.285 218.829 914.373 219.656ZM926.834 211.072C926.834 213.077 926.466 214.601 925.73 215.643C924.995 216.678 923.911 217.195 922.479 217.195C921.072 217.195 919.995 216.688 919.246 215.672C918.497 214.65 918.113 213.165 918.094 211.219V208.67C918.094 206.671 918.465 205.158 919.207 204.129C919.949 203.1 921.033 202.586 922.459 202.586C923.865 202.586 924.939 203.084 925.682 204.08C926.424 205.07 926.808 206.531 926.834 208.465V211.072ZM925.662 208.523C925.662 206.896 925.395 205.665 924.861 204.832C924.334 203.999 923.533 203.582 922.459 203.582C921.404 203.582 920.61 203.989 920.076 204.803C919.542 205.617 919.269 206.818 919.256 208.406V211.199C919.256 212.82 919.529 214.061 920.076 214.92C920.63 215.779 921.43 216.209 922.479 216.209C923.52 216.209 924.308 215.789 924.842 214.949C925.382 214.109 925.656 212.879 925.662 211.258V208.523ZM937.928 211.072C937.928 213.077 937.56 214.601 936.824 215.643C936.089 216.678 935.005 217.195 933.572 217.195C932.166 217.195 931.089 216.688 930.34 215.672C929.591 214.65 929.207 213.165 929.188 211.219V208.67C929.188 206.671 929.559 205.158 930.301 204.129C931.043 203.1 932.127 202.586 933.553 202.586C934.959 202.586 936.033 203.084 936.775 204.08C937.518 205.07 937.902 206.531 937.928 208.465V211.072ZM936.756 208.523C936.756 206.896 936.489 205.665 935.955 204.832C935.428 203.999 934.627 203.582 933.553 203.582C932.498 203.582 931.704 203.989 931.17 204.803C930.636 205.617 930.363 206.818 930.35 208.406V211.199C930.35 212.82 930.623 214.061 931.17 214.92C931.723 215.779 932.524 216.209 933.572 216.209C934.614 216.209 935.402 215.789 935.936 214.949C936.476 214.109 936.749 212.879 936.756 211.258V208.523ZM949.021 211.072C949.021 213.077 948.654 214.601 947.918 215.643C947.182 216.678 946.098 217.195 944.666 217.195C943.26 217.195 942.182 216.688 941.434 215.672C940.685 214.65 940.301 213.165 940.281 211.219V208.67C940.281 206.671 940.652 205.158 941.395 204.129C942.137 203.1 943.221 202.586 944.646 202.586C946.053 202.586 947.127 203.084 947.869 204.08C948.611 205.07 948.995 206.531 949.021 208.465V211.072ZM947.85 208.523C947.85 206.896 947.583 205.665 947.049 204.832C946.521 203.999 945.721 203.582 944.646 203.582C943.592 203.582 942.798 203.989 942.264 204.803C941.73 205.617 941.456 206.818 941.443 208.406V211.199C941.443 212.82 941.717 214.061 942.264 214.92C942.817 215.779 943.618 216.209 944.666 216.209C945.708 216.209 946.495 215.789 947.029 214.949C947.57 214.109 947.843 212.879 947.85 211.258V208.523Z" fill="#18181A"/>
<rect x="488" width="65" height="33" fill="#565555"/>
<path d="M516.945 24H514.123V13.1211L510.754 14.166V11.8711L516.643 9.76172H516.945V24ZM521.252 18.6387C521.252 16.9915 521.62 15.6797 522.355 14.7031C523.098 13.7266 524.11 13.2383 525.393 13.2383C526.421 13.2383 527.271 13.6224 527.941 14.3906V9H530.773V24H528.225L528.088 22.877C527.385 23.7559 526.48 24.1953 525.373 24.1953C524.13 24.1953 523.13 23.707 522.375 22.7305C521.626 21.7474 521.252 20.3835 521.252 18.6387ZM524.074 18.8438C524.074 19.8333 524.247 20.5918 524.592 21.1191C524.937 21.6465 525.438 21.9102 526.096 21.9102C526.968 21.9102 527.583 21.5423 527.941 20.8066V16.6367C527.59 15.901 526.981 15.5332 526.115 15.5332C524.755 15.5332 524.074 16.6367 524.074 18.8438Z" fill="#D2F400"/>
<path d="M584.758 11.3633L579.26 24H576.281L581.789 12.0664H574.719V9.78125H584.758V11.3633ZM586.252 18.6387C586.252 16.9915 586.62 15.6797 587.355 14.7031C588.098 13.7266 589.11 13.2383 590.393 13.2383C591.421 13.2383 592.271 13.6224 592.941 14.3906V9H595.773V24H593.225L593.088 22.877C592.385 23.7559 591.48 24.1953 590.373 24.1953C589.13 24.1953 588.13 23.707 587.375 22.7305C586.626 21.7474 586.252 20.3835 586.252 18.6387ZM589.074 18.8438C589.074 19.8333 589.247 20.5918 589.592 21.1191C589.937 21.6465 590.438 21.9102 591.096 21.9102C591.968 21.9102 592.583 21.5423 592.941 20.8066V16.6367C592.59 15.901 591.981 15.5332 591.115 15.5332C589.755 15.5332 589.074 16.6367 589.074 18.8438Z" fill="#565555"/>
<path d="M643.918 24H641.096V13.1211L637.727 14.166V11.8711L643.615 9.76172H643.918V24ZM651.311 13.4336L651.398 14.6152C652.147 13.6973 653.16 13.2383 654.436 13.2383C655.796 13.2383 656.73 13.7754 657.238 14.8496C657.98 13.7754 659.038 13.2383 660.412 13.2383C661.558 13.2383 662.411 13.5736 662.971 14.2441C663.531 14.9082 663.811 15.9108 663.811 17.252V24H660.979V17.2617C660.979 16.6628 660.861 16.2266 660.627 15.9531C660.393 15.6732 659.979 15.5332 659.387 15.5332C658.54 15.5332 657.954 15.9368 657.629 16.7441L657.639 24H654.816V17.2715C654.816 16.6595 654.696 16.2168 654.455 15.9434C654.214 15.6699 653.804 15.5332 653.225 15.5332C652.424 15.5332 651.844 15.8652 651.486 16.5293V24H648.664V13.4336H651.311Z" fill="#565555"/>
<path d="M704.934 15.6406H706.438C707.154 15.6406 707.684 15.4616 708.029 15.1035C708.374 14.7454 708.547 14.2702 708.547 13.6777C708.547 13.1048 708.374 12.6589 708.029 12.3398C707.691 12.0208 707.222 11.8613 706.623 11.8613C706.083 11.8613 705.63 12.0111 705.266 12.3105C704.901 12.6035 704.719 12.9876 704.719 13.4629H701.896C701.896 12.7207 702.095 12.0566 702.492 11.4707C702.896 10.8783 703.456 10.416 704.172 10.084C704.895 9.75195 705.689 9.58594 706.555 9.58594C708.059 9.58594 709.237 9.94727 710.09 10.6699C710.943 11.3861 711.369 12.3757 711.369 13.6387C711.369 14.2897 711.171 14.8887 710.773 15.4355C710.376 15.9824 709.855 16.4023 709.211 16.6953C710.012 16.9818 710.607 17.4115 710.998 17.9844C711.395 18.5573 711.594 19.2344 711.594 20.0156C711.594 21.2786 711.132 22.291 710.207 23.0527C709.289 23.8145 708.072 24.1953 706.555 24.1953C705.135 24.1953 703.973 23.821 703.068 23.0723C702.17 22.3236 701.721 21.334 701.721 20.1035H704.543C704.543 20.6374 704.742 21.0736 705.139 21.4121C705.542 21.7507 706.037 21.9199 706.623 21.9199C707.294 21.9199 707.818 21.7441 708.195 21.3926C708.579 21.0345 708.771 20.5625 708.771 19.9766C708.771 18.5573 707.99 17.8477 706.428 17.8477H704.934V15.6406ZM716.311 13.4336L716.398 14.6152C717.147 13.6973 718.16 13.2383 719.436 13.2383C720.796 13.2383 721.73 13.7754 722.238 14.8496C722.98 13.7754 724.038 13.2383 725.412 13.2383C726.558 13.2383 727.411 13.5736 727.971 14.2441C728.531 14.9082 728.811 15.9108 728.811 17.252V24H725.979V17.2617C725.979 16.6628 725.861 16.2266 725.627 15.9531C725.393 15.6732 724.979 15.5332 724.387 15.5332C723.54 15.5332 722.954 15.9368 722.629 16.7441L722.639 24H719.816V17.2715C719.816 16.6595 719.696 16.2168 719.455 15.9434C719.214 15.6699 718.804 15.5332 718.225 15.5332C717.424 15.5332 716.844 15.8652 716.486 16.5293V24H713.664V13.4336H716.311Z" fill="#565555"/>
<path d="M777.561 24H774.738V13.1211L771.369 14.166V11.8711L777.258 9.76172H777.561V24ZM786.252 20.0059L788.205 13.4336H791.232L786.984 25.6406L786.75 26.1973C786.118 27.5775 785.077 28.2676 783.625 28.2676C783.215 28.2676 782.798 28.2057 782.375 28.082V25.9434L782.805 25.9531C783.339 25.9531 783.736 25.8717 783.996 25.709C784.263 25.5462 784.471 25.276 784.621 24.8984L784.953 24.0293L781.252 13.4336H784.289L786.252 20.0059Z" fill="#565555"/>
<path d="M837.229 21.0703H832.092L831.115 24H828L833.293 9.78125H836.008L841.33 24H838.215L837.229 21.0703ZM832.883 18.6973H836.438L834.65 13.375L832.883 18.6973ZM845.588 21.6465H851.809V24H842.658V9.78125H845.588V21.6465ZM856.428 21.6465H862.648V24H853.498V9.78125H856.428V21.6465Z" fill="#565555"/>
<line x1="1025" y1="236" x2="1025" y2="705" stroke="white" stroke-width="2"/>
<rect x="1025.14" y="326" width="20" height="20" transform="rotate(45 1025.14 326)" fill="white"/>
</svg>
