<svg width="1440" height="581" viewBox="0 0 1440 581" fill="none" xmlns="http://www.w3.org/2000/svg">
<path d="M1388.85 461.322L1424.21 473.157L1433.7 470.405H1440V581H0V517.196H7.27954L38.7086 512.93L60.3162 507.425L106.15 512.93L144.127 505.498L170.318 495.314L219.426 486.919L234.486 491.323L258.712 485.406L280.975 477.423L305.856 481.139L322.225 482.653L341.214 480.451L356.274 478.662L378.536 472.331L389.012 475.91L403.417 476.735L415.203 479.35L429.608 481.139L442.704 478.662L465.621 475.91L477.407 479.901L489.847 477.423L505.562 475.91L514.074 478.662L528.479 481.139L559.253 475.91L582.17 478.662L588.718 462.423L606.397 475.91L656.814 479.901L694.791 478.662L717.053 485.406L725.566 493.801L743.244 500.406L762.233 503.159H794.317L818.543 498.067L829.674 505.498H856.52L897.771 495.314L935.093 491.323L958.01 495.314L971.105 505.498L986.165 479.901L999.261 473.157L1031.34 467.652L1055.57 471.23L1081.76 467.652L1102.71 475.91L1123.67 491.323L1142 498.067L1185.22 483.066L1219.26 488.984L1240.22 483.066L1253.31 491.323L1281.47 473.157L1303.73 475.91L1335.81 451L1360.7 464.074L1388.85 461.322Z" fill="#565555"/>
<path d="M15.0347 573H7.7251V571.55L11.1748 567.873C11.6484 567.355 11.9976 566.904 12.2222 566.518C12.4517 566.132 12.5664 565.766 12.5664 565.419C12.5664 564.946 12.4468 564.575 12.2075 564.306C11.9683 564.033 11.6265 563.896 11.1821 563.896C10.7036 563.896 10.3252 564.062 10.0469 564.394C9.77344 564.721 9.63672 565.153 9.63672 565.69H7.5127C7.5127 565.041 7.6665 564.448 7.97412 563.911C8.28662 563.374 8.72607 562.954 9.29248 562.651C9.85889 562.343 10.501 562.189 11.2188 562.189C12.3174 562.189 13.1694 562.453 13.7749 562.98C14.3853 563.508 14.6904 564.252 14.6904 565.214C14.6904 565.742 14.5537 566.279 14.2803 566.826C14.0068 567.373 13.5381 568.01 12.874 568.737L10.4497 571.293H15.0347V573ZM21.48 573H19.3633V564.841L16.8364 565.625V563.903L21.2529 562.321H21.48V573ZM25.1421 571.96C25.1421 571.623 25.2544 571.35 25.479 571.14C25.7085 570.93 25.9941 570.825 26.3359 570.825C26.6826 570.825 26.9683 570.93 27.1929 571.14C27.4224 571.35 27.5371 571.623 27.5371 571.96C27.5371 572.292 27.4248 572.563 27.2002 572.773C26.9756 572.978 26.6875 573.081 26.3359 573.081C25.9893 573.081 25.7036 572.978 25.479 572.773C25.2544 572.563 25.1421 572.292 25.1421 571.96ZM25.1421 565.961C25.1421 565.625 25.2544 565.351 25.479 565.141C25.7085 564.931 25.9941 564.826 26.3359 564.826C26.6826 564.826 26.9683 564.931 27.1929 565.141C27.4224 565.351 27.5371 565.625 27.5371 565.961C27.5371 566.293 27.4248 566.564 27.2002 566.774C26.9756 566.979 26.6875 567.082 26.3359 567.082C25.9893 567.082 25.7036 566.979 25.479 566.774C25.2544 566.564 25.1421 566.293 25.1421 565.961ZM36.3628 568.591C36.3628 570.065 36.0576 571.193 35.4473 571.975C34.8369 572.756 33.9434 573.146 32.7666 573.146C31.6045 573.146 30.7158 572.763 30.1006 571.997C29.4854 571.23 29.1704 570.131 29.1558 568.701V566.738C29.1558 565.249 29.4634 564.118 30.0786 563.347C30.6987 562.575 31.5898 562.189 32.752 562.189C33.9141 562.189 34.8027 562.573 35.418 563.339C36.0332 564.101 36.3481 565.197 36.3628 566.628V568.591ZM34.2461 566.438C34.2461 565.554 34.124 564.912 33.8799 564.511C33.6406 564.106 33.2646 563.903 32.752 563.903C32.2539 563.903 31.8853 564.096 31.646 564.482C31.4116 564.863 31.2871 565.461 31.2725 566.276V568.869C31.2725 569.738 31.3896 570.385 31.624 570.81C31.8633 571.23 32.2441 571.44 32.7666 571.44C33.2842 571.44 33.6577 571.237 33.8872 570.832C34.1167 570.427 34.2363 569.807 34.2461 568.972V566.438ZM44.9761 568.591C44.9761 570.065 44.6709 571.193 44.0605 571.975C43.4502 572.756 42.5566 573.146 41.3799 573.146C40.2178 573.146 39.3291 572.763 38.7139 571.997C38.0986 571.23 37.7837 570.131 37.769 568.701V566.738C37.769 565.249 38.0767 564.118 38.6919 563.347C39.312 562.575 40.2031 562.189 41.3652 562.189C42.5273 562.189 43.416 562.573 44.0312 563.339C44.6465 564.101 44.9614 565.197 44.9761 566.628V568.591ZM42.8594 566.438C42.8594 565.554 42.7373 564.912 42.4932 564.511C42.2539 564.106 41.8779 563.903 41.3652 563.903C40.8672 563.903 40.4985 564.096 40.2593 564.482C40.0249 564.863 39.9004 565.461 39.8857 566.276V568.869C39.8857 569.738 40.0029 570.385 40.2373 570.81C40.4766 571.23 40.8574 571.44 41.3799 571.44C41.8975 571.44 42.271 571.237 42.5005 570.832C42.73 570.427 42.8496 569.807 42.8594 568.972V566.438Z" fill="#B7B8B9"/>
<path d="M194.903 568.591C194.903 570.065 194.598 571.193 193.987 571.975C193.377 572.756 192.483 573.146 191.307 573.146C190.145 573.146 189.256 572.763 188.641 571.997C188.025 571.23 187.71 570.131 187.696 568.701V566.738C187.696 565.249 188.003 564.118 188.619 563.347C189.239 562.575 190.13 562.189 191.292 562.189C192.454 562.189 193.343 562.573 193.958 563.339C194.573 564.101 194.888 565.197 194.903 566.628V568.591ZM192.786 566.438C192.786 565.554 192.664 564.912 192.42 564.511C192.181 564.106 191.805 563.903 191.292 563.903C190.794 563.903 190.425 564.096 190.186 564.482C189.952 564.863 189.827 565.461 189.812 566.276V568.869C189.812 569.738 189.93 570.385 190.164 570.81C190.403 571.23 190.784 571.44 191.307 571.44C191.824 571.44 192.198 571.237 192.427 570.832C192.657 570.427 192.776 569.807 192.786 568.972V566.438ZM203.516 568.591C203.516 570.065 203.211 571.193 202.601 571.975C201.99 572.756 201.097 573.146 199.92 573.146C198.758 573.146 197.869 572.763 197.254 571.997C196.639 571.23 196.324 570.131 196.309 568.701V566.738C196.309 565.249 196.617 564.118 197.232 563.347C197.852 562.575 198.743 562.189 199.905 562.189C201.067 562.189 201.956 562.573 202.571 563.339C203.187 564.101 203.501 565.197 203.516 566.628V568.591ZM201.399 566.438C201.399 565.554 201.277 564.912 201.033 564.511C200.794 564.106 200.418 563.903 199.905 563.903C199.407 563.903 199.039 564.096 198.799 564.482C198.565 564.863 198.44 565.461 198.426 566.276V568.869C198.426 569.738 198.543 570.385 198.777 570.81C199.017 571.23 199.397 571.44 199.92 571.44C200.438 571.44 200.811 571.237 201.041 570.832C201.27 570.427 201.39 569.807 201.399 568.972V566.438ZM205.142 571.96C205.142 571.623 205.254 571.35 205.479 571.14C205.708 570.93 205.994 570.825 206.336 570.825C206.683 570.825 206.968 570.93 207.193 571.14C207.422 571.35 207.537 571.623 207.537 571.96C207.537 572.292 207.425 572.563 207.2 572.773C206.976 572.978 206.688 573.081 206.336 573.081C205.989 573.081 205.704 572.978 205.479 572.773C205.254 572.563 205.142 572.292 205.142 571.96ZM205.142 565.961C205.142 565.625 205.254 565.351 205.479 565.141C205.708 564.931 205.994 564.826 206.336 564.826C206.683 564.826 206.968 564.931 207.193 565.141C207.422 565.351 207.537 565.625 207.537 565.961C207.537 566.293 207.425 566.564 207.2 566.774C206.976 566.979 206.688 567.082 206.336 567.082C205.989 567.082 205.704 566.979 205.479 566.774C205.254 566.564 205.142 566.293 205.142 565.961ZM216.363 568.591C216.363 570.065 216.058 571.193 215.447 571.975C214.837 572.756 213.943 573.146 212.767 573.146C211.604 573.146 210.716 572.763 210.101 571.997C209.485 571.23 209.17 570.131 209.156 568.701V566.738C209.156 565.249 209.463 564.118 210.079 563.347C210.699 562.575 211.59 562.189 212.752 562.189C213.914 562.189 214.803 562.573 215.418 563.339C216.033 564.101 216.348 565.197 216.363 566.628V568.591ZM214.246 566.438C214.246 565.554 214.124 564.912 213.88 564.511C213.641 564.106 213.265 563.903 212.752 563.903C212.254 563.903 211.885 564.096 211.646 564.482C211.412 564.863 211.287 565.461 211.272 566.276V568.869C211.272 569.738 211.39 570.385 211.624 570.81C211.863 571.23 212.244 571.44 212.767 571.44C213.284 571.44 213.658 571.237 213.887 570.832C214.117 570.427 214.236 569.807 214.246 568.972V566.438ZM224.976 568.591C224.976 570.065 224.671 571.193 224.061 571.975C223.45 572.756 222.557 573.146 221.38 573.146C220.218 573.146 219.329 572.763 218.714 571.997C218.099 571.23 217.784 570.131 217.769 568.701V566.738C217.769 565.249 218.077 564.118 218.692 563.347C219.312 562.575 220.203 562.189 221.365 562.189C222.527 562.189 223.416 562.573 224.031 563.339C224.646 564.101 224.961 565.197 224.976 566.628V568.591ZM222.859 566.438C222.859 565.554 222.737 564.912 222.493 564.511C222.254 564.106 221.878 563.903 221.365 563.903C220.867 563.903 220.499 564.096 220.259 564.482C220.025 564.863 219.9 565.461 219.886 566.276V568.869C219.886 569.738 220.003 570.385 220.237 570.81C220.477 571.23 220.857 571.44 221.38 571.44C221.897 571.44 222.271 571.237 222.5 570.832C222.73 570.427 222.85 569.807 222.859 568.972V566.438Z" fill="#B7B8B9"/>
<path d="M374.903 568.591C374.903 570.065 374.598 571.193 373.987 571.975C373.377 572.756 372.483 573.146 371.307 573.146C370.145 573.146 369.256 572.763 368.641 571.997C368.025 571.23 367.71 570.131 367.696 568.701V566.738C367.696 565.249 368.003 564.118 368.619 563.347C369.239 562.575 370.13 562.189 371.292 562.189C372.454 562.189 373.343 562.573 373.958 563.339C374.573 564.101 374.888 565.197 374.903 566.628V568.591ZM372.786 566.438C372.786 565.554 372.664 564.912 372.42 564.511C372.181 564.106 371.805 563.903 371.292 563.903C370.794 563.903 370.425 564.096 370.186 564.482C369.952 564.863 369.827 565.461 369.812 566.276V568.869C369.812 569.738 369.93 570.385 370.164 570.81C370.403 571.23 370.784 571.44 371.307 571.44C371.824 571.44 372.198 571.237 372.427 570.832C372.657 570.427 372.776 569.807 372.786 568.972V566.438ZM378.492 566.73H379.62C380.157 566.73 380.555 566.596 380.813 566.328C381.072 566.059 381.202 565.703 381.202 565.258C381.202 564.829 381.072 564.494 380.813 564.255C380.56 564.016 380.208 563.896 379.759 563.896C379.354 563.896 379.014 564.008 378.741 564.233C378.467 564.453 378.331 564.741 378.331 565.097H376.214C376.214 564.541 376.363 564.042 376.661 563.603C376.963 563.159 377.383 562.812 377.92 562.563C378.462 562.314 379.058 562.189 379.708 562.189C380.835 562.189 381.719 562.46 382.359 563.002C382.999 563.54 383.318 564.282 383.318 565.229C383.318 565.717 383.169 566.167 382.872 566.577C382.574 566.987 382.183 567.302 381.7 567.521C382.3 567.736 382.747 568.059 383.04 568.488C383.338 568.918 383.487 569.426 383.487 570.012C383.487 570.959 383.14 571.718 382.447 572.29C381.758 572.861 380.845 573.146 379.708 573.146C378.643 573.146 377.771 572.866 377.093 572.304C376.419 571.743 376.082 571 376.082 570.078H378.199C378.199 570.478 378.348 570.805 378.646 571.059C378.948 571.313 379.319 571.44 379.759 571.44C380.262 571.44 380.655 571.308 380.938 571.044C381.226 570.776 381.37 570.422 381.37 569.982C381.37 568.918 380.784 568.386 379.612 568.386H378.492V566.73ZM385.142 571.96C385.142 571.623 385.254 571.35 385.479 571.14C385.708 570.93 385.994 570.825 386.336 570.825C386.683 570.825 386.968 570.93 387.193 571.14C387.422 571.35 387.537 571.623 387.537 571.96C387.537 572.292 387.425 572.563 387.2 572.773C386.976 572.978 386.688 573.081 386.336 573.081C385.989 573.081 385.704 572.978 385.479 572.773C385.254 572.563 385.142 572.292 385.142 571.96ZM385.142 565.961C385.142 565.625 385.254 565.351 385.479 565.141C385.708 564.931 385.994 564.826 386.336 564.826C386.683 564.826 386.968 564.931 387.193 565.141C387.422 565.351 387.537 565.625 387.537 565.961C387.537 566.293 387.425 566.564 387.2 566.774C386.976 566.979 386.688 567.082 386.336 567.082C385.989 567.082 385.704 566.979 385.479 566.774C385.254 566.564 385.142 566.293 385.142 565.961ZM396.363 568.591C396.363 570.065 396.058 571.193 395.447 571.975C394.837 572.756 393.943 573.146 392.767 573.146C391.604 573.146 390.716 572.763 390.101 571.997C389.485 571.23 389.17 570.131 389.156 568.701V566.738C389.156 565.249 389.463 564.118 390.079 563.347C390.699 562.575 391.59 562.189 392.752 562.189C393.914 562.189 394.803 562.573 395.418 563.339C396.033 564.101 396.348 565.197 396.363 566.628V568.591ZM394.246 566.438C394.246 565.554 394.124 564.912 393.88 564.511C393.641 564.106 393.265 563.903 392.752 563.903C392.254 563.903 391.885 564.096 391.646 564.482C391.412 564.863 391.287 565.461 391.272 566.276V568.869C391.272 569.738 391.39 570.385 391.624 570.81C391.863 571.23 392.244 571.44 392.767 571.44C393.284 571.44 393.658 571.237 393.887 570.832C394.117 570.427 394.236 569.807 394.246 568.972V566.438ZM404.976 568.591C404.976 570.065 404.671 571.193 404.061 571.975C403.45 572.756 402.557 573.146 401.38 573.146C400.218 573.146 399.329 572.763 398.714 571.997C398.099 571.23 397.784 570.131 397.769 568.701V566.738C397.769 565.249 398.077 564.118 398.692 563.347C399.312 562.575 400.203 562.189 401.365 562.189C402.527 562.189 403.416 562.573 404.031 563.339C404.646 564.101 404.961 565.197 404.976 566.628V568.591ZM402.859 566.438C402.859 565.554 402.737 564.912 402.493 564.511C402.254 564.106 401.878 563.903 401.365 563.903C400.867 563.903 400.499 564.096 400.259 564.482C400.025 564.863 399.9 565.461 399.886 566.276V568.869C399.886 569.738 400.003 570.385 400.237 570.81C400.477 571.23 400.857 571.44 401.38 571.44C401.897 571.44 402.271 571.237 402.5 570.832C402.73 570.427 402.85 569.807 402.859 568.972V566.438Z" fill="#B7B8B9"/>
<path d="M554.903 568.591C554.903 570.065 554.598 571.193 553.987 571.975C553.377 572.756 552.483 573.146 551.307 573.146C550.145 573.146 549.256 572.763 548.641 571.997C548.025 571.23 547.71 570.131 547.696 568.701V566.738C547.696 565.249 548.003 564.118 548.619 563.347C549.239 562.575 550.13 562.189 551.292 562.189C552.454 562.189 553.343 562.573 553.958 563.339C554.573 564.101 554.888 565.197 554.903 566.628V568.591ZM552.786 566.438C552.786 565.554 552.664 564.912 552.42 564.511C552.181 564.106 551.805 563.903 551.292 563.903C550.794 563.903 550.425 564.096 550.186 564.482C549.952 564.863 549.827 565.461 549.812 566.276V568.869C549.812 569.738 549.93 570.385 550.164 570.81C550.403 571.23 550.784 571.44 551.307 571.44C551.824 571.44 552.198 571.237 552.427 570.832C552.657 570.427 552.776 569.807 552.786 568.972V566.438ZM562.081 562.226V563.969H561.875C560.918 563.984 560.147 564.233 559.561 564.716C558.98 565.2 558.631 565.871 558.514 566.73C559.08 566.154 559.795 565.866 560.66 565.866C561.587 565.866 562.325 566.198 562.872 566.862C563.418 567.526 563.692 568.4 563.692 569.484C563.692 570.178 563.541 570.805 563.238 571.367C562.94 571.928 562.515 572.365 561.963 572.678C561.417 572.99 560.796 573.146 560.103 573.146C558.98 573.146 558.072 572.756 557.378 571.975C556.69 571.193 556.346 570.151 556.346 568.847V568.085C556.346 566.928 556.563 565.908 556.998 565.024C557.437 564.135 558.064 563.449 558.88 562.966C559.7 562.478 560.65 562.231 561.729 562.226H562.081ZM560.015 567.565C559.673 567.565 559.363 567.656 559.085 567.836C558.807 568.012 558.602 568.247 558.47 568.54V569.184C558.47 569.892 558.609 570.446 558.887 570.847C559.166 571.242 559.556 571.44 560.059 571.44C560.513 571.44 560.879 571.262 561.158 570.905C561.441 570.544 561.583 570.078 561.583 569.506C561.583 568.925 561.441 568.457 561.158 568.1C560.875 567.744 560.494 567.565 560.015 567.565ZM565.142 571.96C565.142 571.623 565.254 571.35 565.479 571.14C565.708 570.93 565.994 570.825 566.336 570.825C566.683 570.825 566.968 570.93 567.193 571.14C567.422 571.35 567.537 571.623 567.537 571.96C567.537 572.292 567.425 572.563 567.2 572.773C566.976 572.978 566.688 573.081 566.336 573.081C565.989 573.081 565.704 572.978 565.479 572.773C565.254 572.563 565.142 572.292 565.142 571.96ZM565.142 565.961C565.142 565.625 565.254 565.351 565.479 565.141C565.708 564.931 565.994 564.826 566.336 564.826C566.683 564.826 566.968 564.931 567.193 565.141C567.422 565.351 567.537 565.625 567.537 565.961C567.537 566.293 567.425 566.564 567.2 566.774C566.976 566.979 566.688 567.082 566.336 567.082C565.989 567.082 565.704 566.979 565.479 566.774C565.254 566.564 565.142 566.293 565.142 565.961ZM576.363 568.591C576.363 570.065 576.058 571.193 575.447 571.975C574.837 572.756 573.943 573.146 572.767 573.146C571.604 573.146 570.716 572.763 570.101 571.997C569.485 571.23 569.17 570.131 569.156 568.701V566.738C569.156 565.249 569.463 564.118 570.079 563.347C570.699 562.575 571.59 562.189 572.752 562.189C573.914 562.189 574.803 562.573 575.418 563.339C576.033 564.101 576.348 565.197 576.363 566.628V568.591ZM574.246 566.438C574.246 565.554 574.124 564.912 573.88 564.511C573.641 564.106 573.265 563.903 572.752 563.903C572.254 563.903 571.885 564.096 571.646 564.482C571.412 564.863 571.287 565.461 571.272 566.276V568.869C571.272 569.738 571.39 570.385 571.624 570.81C571.863 571.23 572.244 571.44 572.767 571.44C573.284 571.44 573.658 571.237 573.887 570.832C574.117 570.427 574.236 569.807 574.246 568.972V566.438ZM584.976 568.591C584.976 570.065 584.671 571.193 584.061 571.975C583.45 572.756 582.557 573.146 581.38 573.146C580.218 573.146 579.329 572.763 578.714 571.997C578.099 571.23 577.784 570.131 577.769 568.701V566.738C577.769 565.249 578.077 564.118 578.692 563.347C579.312 562.575 580.203 562.189 581.365 562.189C582.527 562.189 583.416 562.573 584.031 563.339C584.646 564.101 584.961 565.197 584.976 566.628V568.591ZM582.859 566.438C582.859 565.554 582.737 564.912 582.493 564.511C582.254 564.106 581.878 563.903 581.365 563.903C580.867 563.903 580.499 564.096 580.259 564.482C580.025 564.863 579.9 565.461 579.886 566.276V568.869C579.886 569.738 580.003 570.385 580.237 570.81C580.477 571.23 580.857 571.44 581.38 571.44C581.897 571.44 582.271 571.237 582.5 570.832C582.73 570.427 582.85 569.807 582.859 568.972V566.438Z" fill="#B7B8B9"/>
<path d="M734.903 568.591C734.903 570.065 734.598 571.193 733.987 571.975C733.377 572.756 732.483 573.146 731.307 573.146C730.145 573.146 729.256 572.763 728.641 571.997C728.025 571.23 727.71 570.131 727.696 568.701V566.738C727.696 565.249 728.003 564.118 728.619 563.347C729.239 562.575 730.13 562.189 731.292 562.189C732.454 562.189 733.343 562.573 733.958 563.339C734.573 564.101 734.888 565.197 734.903 566.628V568.591ZM732.786 566.438C732.786 565.554 732.664 564.912 732.42 564.511C732.181 564.106 731.805 563.903 731.292 563.903C730.794 563.903 730.425 564.096 730.186 564.482C729.952 564.863 729.827 565.461 729.812 566.276V568.869C729.812 569.738 729.93 570.385 730.164 570.81C730.403 571.23 730.784 571.44 731.307 571.44C731.824 571.44 732.198 571.237 732.427 570.832C732.657 570.427 732.776 569.807 732.786 568.972V566.438ZM741.29 568.737C740.738 569.279 740.093 569.55 739.356 569.55C738.414 569.55 737.659 569.228 737.093 568.583C736.526 567.934 736.243 567.06 736.243 565.961C736.243 565.263 736.395 564.624 736.697 564.042C737.005 563.457 737.432 563.002 737.979 562.68C738.526 562.353 739.141 562.189 739.825 562.189C740.528 562.189 741.153 562.365 741.7 562.717C742.247 563.068 742.671 563.574 742.974 564.233C743.277 564.892 743.431 565.646 743.436 566.496V567.28C743.436 569.057 742.994 570.454 742.11 571.469C741.226 572.485 739.974 573.027 738.353 573.095L737.833 573.103V571.337L738.301 571.33C740.142 571.247 741.138 570.383 741.29 568.737ZM739.876 567.932C740.218 567.932 740.511 567.844 740.755 567.668C741.004 567.492 741.192 567.28 741.319 567.031V566.159C741.319 565.441 741.182 564.885 740.909 564.489C740.635 564.094 740.269 563.896 739.81 563.896C739.385 563.896 739.036 564.091 738.763 564.482C738.489 564.868 738.353 565.354 738.353 565.939C738.353 566.521 738.484 566.999 738.748 567.375C739.017 567.746 739.393 567.932 739.876 567.932ZM745.142 571.96C745.142 571.623 745.254 571.35 745.479 571.14C745.708 570.93 745.994 570.825 746.336 570.825C746.683 570.825 746.968 570.93 747.193 571.14C747.422 571.35 747.537 571.623 747.537 571.96C747.537 572.292 747.425 572.563 747.2 572.773C746.976 572.978 746.688 573.081 746.336 573.081C745.989 573.081 745.704 572.978 745.479 572.773C745.254 572.563 745.142 572.292 745.142 571.96ZM745.142 565.961C745.142 565.625 745.254 565.351 745.479 565.141C745.708 564.931 745.994 564.826 746.336 564.826C746.683 564.826 746.968 564.931 747.193 565.141C747.422 565.351 747.537 565.625 747.537 565.961C747.537 566.293 747.425 566.564 747.2 566.774C746.976 566.979 746.688 567.082 746.336 567.082C745.989 567.082 745.704 566.979 745.479 566.774C745.254 566.564 745.142 566.293 745.142 565.961ZM756.363 568.591C756.363 570.065 756.058 571.193 755.447 571.975C754.837 572.756 753.943 573.146 752.767 573.146C751.604 573.146 750.716 572.763 750.101 571.997C749.485 571.23 749.17 570.131 749.156 568.701V566.738C749.156 565.249 749.463 564.118 750.079 563.347C750.699 562.575 751.59 562.189 752.752 562.189C753.914 562.189 754.803 562.573 755.418 563.339C756.033 564.101 756.348 565.197 756.363 566.628V568.591ZM754.246 566.438C754.246 565.554 754.124 564.912 753.88 564.511C753.641 564.106 753.265 563.903 752.752 563.903C752.254 563.903 751.885 564.096 751.646 564.482C751.412 564.863 751.287 565.461 751.272 566.276V568.869C751.272 569.738 751.39 570.385 751.624 570.81C751.863 571.23 752.244 571.44 752.767 571.44C753.284 571.44 753.658 571.237 753.887 570.832C754.117 570.427 754.236 569.807 754.246 568.972V566.438ZM764.976 568.591C764.976 570.065 764.671 571.193 764.061 571.975C763.45 572.756 762.557 573.146 761.38 573.146C760.218 573.146 759.329 572.763 758.714 571.997C758.099 571.23 757.784 570.131 757.769 568.701V566.738C757.769 565.249 758.077 564.118 758.692 563.347C759.312 562.575 760.203 562.189 761.365 562.189C762.527 562.189 763.416 562.573 764.031 563.339C764.646 564.101 764.961 565.197 764.976 566.628V568.591ZM762.859 566.438C762.859 565.554 762.737 564.912 762.493 564.511C762.254 564.106 761.878 563.903 761.365 563.903C760.867 563.903 760.499 564.096 760.259 564.482C760.025 564.863 759.9 565.461 759.886 566.276V568.869C759.886 569.738 760.003 570.385 760.237 570.81C760.477 571.23 760.857 571.44 761.38 571.44C761.897 571.44 762.271 571.237 762.5 570.832C762.73 570.427 762.85 569.807 762.859 568.972V566.438Z" fill="#B7B8B9"/>
<path d="M912.867 573H910.75V564.841L908.223 565.625V563.903L912.64 562.321H912.867V573ZM923.648 573H916.338V571.55L919.788 567.873C920.262 567.355 920.611 566.904 920.835 566.518C921.065 566.132 921.18 565.766 921.18 565.419C921.18 564.946 921.06 564.575 920.821 564.306C920.582 564.033 920.24 563.896 919.795 563.896C919.317 563.896 918.938 564.062 918.66 564.394C918.387 564.721 918.25 565.153 918.25 565.69H916.126C916.126 565.041 916.28 564.448 916.587 563.911C916.9 563.374 917.339 562.954 917.906 562.651C918.472 562.343 919.114 562.189 919.832 562.189C920.931 562.189 921.783 562.453 922.388 562.98C922.999 563.508 923.304 564.252 923.304 565.214C923.304 565.742 923.167 566.279 922.894 566.826C922.62 567.373 922.151 568.01 921.487 568.737L919.063 571.293H923.648V573ZM925.142 571.96C925.142 571.623 925.254 571.35 925.479 571.14C925.708 570.93 925.994 570.825 926.336 570.825C926.683 570.825 926.968 570.93 927.193 571.14C927.422 571.35 927.537 571.623 927.537 571.96C927.537 572.292 927.425 572.563 927.2 572.773C926.976 572.978 926.688 573.081 926.336 573.081C925.989 573.081 925.704 572.978 925.479 572.773C925.254 572.563 925.142 572.292 925.142 571.96ZM925.142 565.961C925.142 565.625 925.254 565.351 925.479 565.141C925.708 564.931 925.994 564.826 926.336 564.826C926.683 564.826 926.968 564.931 927.193 565.141C927.422 565.351 927.537 565.625 927.537 565.961C927.537 566.293 927.425 566.564 927.2 566.774C926.976 566.979 926.688 567.082 926.336 567.082C925.989 567.082 925.704 566.979 925.479 566.774C925.254 566.564 925.142 566.293 925.142 565.961ZM936.363 568.591C936.363 570.065 936.058 571.193 935.447 571.975C934.837 572.756 933.943 573.146 932.767 573.146C931.604 573.146 930.716 572.763 930.101 571.997C929.485 571.23 929.17 570.131 929.156 568.701V566.738C929.156 565.249 929.463 564.118 930.079 563.347C930.699 562.575 931.59 562.189 932.752 562.189C933.914 562.189 934.803 562.573 935.418 563.339C936.033 564.101 936.348 565.197 936.363 566.628V568.591ZM934.246 566.438C934.246 565.554 934.124 564.912 933.88 564.511C933.641 564.106 933.265 563.903 932.752 563.903C932.254 563.903 931.885 564.096 931.646 564.482C931.412 564.863 931.287 565.461 931.272 566.276V568.869C931.272 569.738 931.39 570.385 931.624 570.81C931.863 571.23 932.244 571.44 932.767 571.44C933.284 571.44 933.658 571.237 933.887 570.832C934.117 570.427 934.236 569.807 934.246 568.972V566.438ZM944.976 568.591C944.976 570.065 944.671 571.193 944.061 571.975C943.45 572.756 942.557 573.146 941.38 573.146C940.218 573.146 939.329 572.763 938.714 571.997C938.099 571.23 937.784 570.131 937.769 568.701V566.738C937.769 565.249 938.077 564.118 938.692 563.347C939.312 562.575 940.203 562.189 941.365 562.189C942.527 562.189 943.416 562.573 944.031 563.339C944.646 564.101 944.961 565.197 944.976 566.628V568.591ZM942.859 566.438C942.859 565.554 942.737 564.912 942.493 564.511C942.254 564.106 941.878 563.903 941.365 563.903C940.867 563.903 940.499 564.096 940.259 564.482C940.025 564.863 939.9 565.461 939.886 566.276V568.869C939.886 569.738 940.003 570.385 940.237 570.81C940.477 571.23 940.857 571.44 941.38 571.44C941.897 571.44 942.271 571.237 942.5 570.832C942.73 570.427 942.85 569.807 942.859 568.972V566.438Z" fill="#B7B8B9"/>
<path d="M1092.87 573H1090.75V564.841L1088.22 565.625V563.903L1092.64 562.321H1092.87V573ZM1096.65 567.756L1097.27 562.336H1103.25V564.101H1099L1098.74 566.394C1099.24 566.125 1099.78 565.991 1100.34 565.991C1101.36 565.991 1102.16 566.306 1102.73 566.936C1103.31 567.565 1103.6 568.447 1103.6 569.58C1103.6 570.268 1103.45 570.886 1103.16 571.433C1102.87 571.975 1102.45 572.397 1101.91 572.7C1101.37 572.998 1100.73 573.146 1099.99 573.146C1099.35 573.146 1098.75 573.017 1098.2 572.758C1097.65 572.495 1097.21 572.126 1096.89 571.652C1096.57 571.179 1096.4 570.639 1096.38 570.034H1098.48C1098.52 570.478 1098.67 570.825 1098.94 571.074C1099.21 571.318 1099.56 571.44 1099.99 571.44C1100.46 571.44 1100.83 571.269 1101.09 570.927C1101.35 570.581 1101.48 570.092 1101.48 569.462C1101.48 568.857 1101.33 568.393 1101.03 568.071C1100.74 567.749 1100.31 567.587 1099.77 567.587C1099.26 567.587 1098.86 567.719 1098.54 567.983L1098.34 568.173L1096.65 567.756ZM1105.14 571.96C1105.14 571.623 1105.25 571.35 1105.48 571.14C1105.71 570.93 1105.99 570.825 1106.34 570.825C1106.68 570.825 1106.97 570.93 1107.19 571.14C1107.42 571.35 1107.54 571.623 1107.54 571.96C1107.54 572.292 1107.42 572.563 1107.2 572.773C1106.98 572.978 1106.69 573.081 1106.34 573.081C1105.99 573.081 1105.7 572.978 1105.48 572.773C1105.25 572.563 1105.14 572.292 1105.14 571.96ZM1105.14 565.961C1105.14 565.625 1105.25 565.351 1105.48 565.141C1105.71 564.931 1105.99 564.826 1106.34 564.826C1106.68 564.826 1106.97 564.931 1107.19 565.141C1107.42 565.351 1107.54 565.625 1107.54 565.961C1107.54 566.293 1107.42 566.564 1107.2 566.774C1106.98 566.979 1106.69 567.082 1106.34 567.082C1105.99 567.082 1105.7 566.979 1105.48 566.774C1105.25 566.564 1105.14 566.293 1105.14 565.961ZM1116.36 568.591C1116.36 570.065 1116.06 571.193 1115.45 571.975C1114.84 572.756 1113.94 573.146 1112.77 573.146C1111.6 573.146 1110.72 572.763 1110.1 571.997C1109.49 571.23 1109.17 570.131 1109.16 568.701V566.738C1109.16 565.249 1109.46 564.118 1110.08 563.347C1110.7 562.575 1111.59 562.189 1112.75 562.189C1113.91 562.189 1114.8 562.573 1115.42 563.339C1116.03 564.101 1116.35 565.197 1116.36 566.628V568.591ZM1114.25 566.438C1114.25 565.554 1114.12 564.912 1113.88 564.511C1113.64 564.106 1113.26 563.903 1112.75 563.903C1112.25 563.903 1111.89 564.096 1111.65 564.482C1111.41 564.863 1111.29 565.461 1111.27 566.276V568.869C1111.27 569.738 1111.39 570.385 1111.62 570.81C1111.86 571.23 1112.24 571.44 1112.77 571.44C1113.28 571.44 1113.66 571.237 1113.89 570.832C1114.12 570.427 1114.24 569.807 1114.25 568.972V566.438ZM1124.98 568.591C1124.98 570.065 1124.67 571.193 1124.06 571.975C1123.45 572.756 1122.56 573.146 1121.38 573.146C1120.22 573.146 1119.33 572.763 1118.71 571.997C1118.1 571.23 1117.78 570.131 1117.77 568.701V566.738C1117.77 565.249 1118.08 564.118 1118.69 563.347C1119.31 562.575 1120.2 562.189 1121.37 562.189C1122.53 562.189 1123.42 562.573 1124.03 563.339C1124.65 564.101 1124.96 565.197 1124.98 566.628V568.591ZM1122.86 566.438C1122.86 565.554 1122.74 564.912 1122.49 564.511C1122.25 564.106 1121.88 563.903 1121.37 563.903C1120.87 563.903 1120.5 564.096 1120.26 564.482C1120.02 564.863 1119.9 565.461 1119.89 566.276V568.869C1119.89 569.738 1120 570.385 1120.24 570.81C1120.48 571.23 1120.86 571.44 1121.38 571.44C1121.9 571.44 1122.27 571.237 1122.5 570.832C1122.73 570.427 1122.85 569.807 1122.86 568.972V566.438Z" fill="#B7B8B9"/>
<path d="M1272.87 573H1270.75V564.841L1268.22 565.625V563.903L1272.64 562.321H1272.87V573ZM1283.29 565.17C1283.29 565.688 1283.16 566.147 1282.9 566.547C1282.64 566.948 1282.29 567.268 1281.83 567.507C1282.35 567.756 1282.76 568.1 1283.06 568.54C1283.36 568.974 1283.52 569.487 1283.52 570.078C1283.52 571.025 1283.19 571.774 1282.55 572.326C1281.9 572.873 1281.03 573.146 1279.92 573.146C1278.81 573.146 1277.93 572.871 1277.28 572.319C1276.63 571.767 1276.31 571.02 1276.31 570.078C1276.31 569.487 1276.46 568.972 1276.76 568.532C1277.07 568.093 1277.47 567.751 1277.99 567.507C1277.53 567.268 1277.18 566.948 1276.92 566.547C1276.66 566.147 1276.54 565.688 1276.54 565.17C1276.54 564.262 1276.84 563.54 1277.44 563.002C1278.05 562.46 1278.87 562.189 1279.91 562.189C1280.95 562.189 1281.77 562.458 1282.37 562.995C1282.98 563.527 1283.29 564.252 1283.29 565.17ZM1281.39 569.924C1281.39 569.46 1281.26 569.089 1280.99 568.811C1280.72 568.532 1280.36 568.393 1279.91 568.393C1279.46 568.393 1279.1 568.532 1278.83 568.811C1278.56 569.084 1278.43 569.455 1278.43 569.924C1278.43 570.378 1278.56 570.744 1278.82 571.022C1279.08 571.301 1279.45 571.44 1279.92 571.44C1280.38 571.44 1280.74 571.306 1281 571.037C1281.26 570.769 1281.39 570.397 1281.39 569.924ZM1281.17 565.273C1281.17 564.858 1281.06 564.526 1280.84 564.277C1280.62 564.023 1280.31 563.896 1279.91 563.896C1279.52 563.896 1279.21 564.018 1278.99 564.262C1278.77 564.506 1278.66 564.843 1278.66 565.273C1278.66 565.698 1278.77 566.04 1278.99 566.298C1279.21 566.557 1279.52 566.687 1279.92 566.687C1280.32 566.687 1280.63 566.557 1280.84 566.298C1281.06 566.04 1281.17 565.698 1281.17 565.273ZM1285.14 571.96C1285.14 571.623 1285.25 571.35 1285.48 571.14C1285.71 570.93 1285.99 570.825 1286.34 570.825C1286.68 570.825 1286.97 570.93 1287.19 571.14C1287.42 571.35 1287.54 571.623 1287.54 571.96C1287.54 572.292 1287.42 572.563 1287.2 572.773C1286.98 572.978 1286.69 573.081 1286.34 573.081C1285.99 573.081 1285.7 572.978 1285.48 572.773C1285.25 572.563 1285.14 572.292 1285.14 571.96ZM1285.14 565.961C1285.14 565.625 1285.25 565.351 1285.48 565.141C1285.71 564.931 1285.99 564.826 1286.34 564.826C1286.68 564.826 1286.97 564.931 1287.19 565.141C1287.42 565.351 1287.54 565.625 1287.54 565.961C1287.54 566.293 1287.42 566.564 1287.2 566.774C1286.98 566.979 1286.69 567.082 1286.34 567.082C1285.99 567.082 1285.7 566.979 1285.48 566.774C1285.25 566.564 1285.14 566.293 1285.14 565.961ZM1296.36 568.591C1296.36 570.065 1296.06 571.193 1295.45 571.975C1294.84 572.756 1293.94 573.146 1292.77 573.146C1291.6 573.146 1290.72 572.763 1290.1 571.997C1289.49 571.23 1289.17 570.131 1289.16 568.701V566.738C1289.16 565.249 1289.46 564.118 1290.08 563.347C1290.7 562.575 1291.59 562.189 1292.75 562.189C1293.91 562.189 1294.8 562.573 1295.42 563.339C1296.03 564.101 1296.35 565.197 1296.36 566.628V568.591ZM1294.25 566.438C1294.25 565.554 1294.12 564.912 1293.88 564.511C1293.64 564.106 1293.26 563.903 1292.75 563.903C1292.25 563.903 1291.89 564.096 1291.65 564.482C1291.41 564.863 1291.29 565.461 1291.27 566.276V568.869C1291.27 569.738 1291.39 570.385 1291.62 570.81C1291.86 571.23 1292.24 571.44 1292.77 571.44C1293.28 571.44 1293.66 571.237 1293.89 570.832C1294.12 570.427 1294.24 569.807 1294.25 568.972V566.438ZM1304.98 568.591C1304.98 570.065 1304.67 571.193 1304.06 571.975C1303.45 572.756 1302.56 573.146 1301.38 573.146C1300.22 573.146 1299.33 572.763 1298.71 571.997C1298.1 571.23 1297.78 570.131 1297.77 568.701V566.738C1297.77 565.249 1298.08 564.118 1298.69 563.347C1299.31 562.575 1300.2 562.189 1301.37 562.189C1302.53 562.189 1303.42 562.573 1304.03 563.339C1304.65 564.101 1304.96 565.197 1304.98 566.628V568.591ZM1302.86 566.438C1302.86 565.554 1302.74 564.912 1302.49 564.511C1302.25 564.106 1301.88 563.903 1301.37 563.903C1300.87 563.903 1300.5 564.096 1300.26 564.482C1300.02 564.863 1299.9 565.461 1299.89 566.276V568.869C1299.89 569.738 1300 570.385 1300.24 570.81C1300.48 571.23 1300.86 571.44 1301.38 571.44C1301.9 571.44 1302.27 571.237 1302.5 570.832C1302.73 570.427 1302.85 569.807 1302.86 568.972V566.438Z" fill="#B7B8B9"/>
<path d="M1401.35 573H1394.04V571.55L1397.49 567.873C1397.96 567.355 1398.31 566.904 1398.54 566.518C1398.77 566.132 1398.88 565.766 1398.88 565.419C1398.88 564.946 1398.76 564.575 1398.52 564.306C1398.28 564.033 1397.94 563.896 1397.5 563.896C1397.02 563.896 1396.64 564.062 1396.36 564.394C1396.09 564.721 1395.95 565.153 1395.95 565.69H1393.83C1393.83 565.041 1393.98 564.448 1394.29 563.911C1394.6 563.374 1395.04 562.954 1395.61 562.651C1396.17 562.343 1396.81 562.189 1397.53 562.189C1398.63 562.189 1399.48 562.453 1400.09 562.98C1400.7 563.508 1401 564.252 1401 565.214C1401 565.742 1400.87 566.279 1400.59 566.826C1400.32 567.373 1399.85 568.01 1399.19 568.737L1396.76 571.293H1401.35V573ZM1407.79 573H1405.68V564.841L1403.15 565.625V563.903L1407.57 562.321H1407.79V573ZM1411.46 571.96C1411.46 571.623 1411.57 571.35 1411.79 571.14C1412.02 570.93 1412.31 570.825 1412.65 570.825C1413 570.825 1413.28 570.93 1413.51 571.14C1413.74 571.35 1413.85 571.623 1413.85 571.96C1413.85 572.292 1413.74 572.563 1413.51 572.773C1413.29 572.978 1413 573.081 1412.65 573.081C1412.3 573.081 1412.02 572.978 1411.79 572.773C1411.57 572.563 1411.46 572.292 1411.46 571.96ZM1411.46 565.961C1411.46 565.625 1411.57 565.351 1411.79 565.141C1412.02 564.931 1412.31 564.826 1412.65 564.826C1413 564.826 1413.28 564.931 1413.51 565.141C1413.74 565.351 1413.85 565.625 1413.85 565.961C1413.85 566.293 1413.74 566.564 1413.51 566.774C1413.29 566.979 1413 567.082 1412.65 567.082C1412.3 567.082 1412.02 566.979 1411.79 566.774C1411.57 566.564 1411.46 566.293 1411.46 565.961ZM1422.68 568.591C1422.68 570.065 1422.37 571.193 1421.76 571.975C1421.15 572.756 1420.26 573.146 1419.08 573.146C1417.92 573.146 1417.03 572.763 1416.41 571.997C1415.8 571.23 1415.48 570.131 1415.47 568.701V566.738C1415.47 565.249 1415.78 564.118 1416.39 563.347C1417.01 562.575 1417.9 562.189 1419.07 562.189C1420.23 562.189 1421.12 562.573 1421.73 563.339C1422.35 564.101 1422.66 565.197 1422.68 566.628V568.591ZM1420.56 566.438C1420.56 565.554 1420.44 564.912 1420.19 564.511C1419.95 564.106 1419.58 563.903 1419.07 563.903C1418.57 563.903 1418.2 564.096 1417.96 564.482C1417.73 564.863 1417.6 565.461 1417.59 566.276V568.869C1417.59 569.738 1417.7 570.385 1417.94 570.81C1418.18 571.23 1418.56 571.44 1419.08 571.44C1419.6 571.44 1419.97 571.237 1420.2 570.832C1420.43 570.427 1420.55 569.807 1420.56 568.972V566.438ZM1431.29 568.591C1431.29 570.065 1430.98 571.193 1430.37 571.975C1429.76 572.756 1428.87 573.146 1427.69 573.146C1426.53 573.146 1425.64 572.763 1425.03 571.997C1424.41 571.23 1424.1 570.131 1424.08 568.701V566.738C1424.08 565.249 1424.39 564.118 1425.01 563.347C1425.63 562.575 1426.52 562.189 1427.68 562.189C1428.84 562.189 1429.73 562.573 1430.34 563.339C1430.96 564.101 1431.27 565.197 1431.29 566.628V568.591ZM1429.17 566.438C1429.17 565.554 1429.05 564.912 1428.81 564.511C1428.57 564.106 1428.19 563.903 1427.68 563.903C1427.18 563.903 1426.81 564.096 1426.57 564.482C1426.34 564.863 1426.21 565.461 1426.2 566.276V568.869C1426.2 569.738 1426.32 570.385 1426.55 570.81C1426.79 571.23 1427.17 571.44 1427.69 571.44C1428.21 571.44 1428.58 571.237 1428.81 570.832C1429.04 570.427 1429.16 569.807 1429.17 568.972V566.438Z" fill="#B7B8B9"/>
<rect x="763" y="149" width="300" height="92" fill="white"/>
<path d="M786.222 172.02H781.249V177H780.348V166.336H786.954V167.105H781.249V171.25H786.222V172.02ZM792.052 169.822C791.866 169.788 791.668 169.771 791.458 169.771C790.912 169.771 790.448 169.925 790.067 170.232C789.691 170.535 789.422 170.977 789.261 171.558V177H788.39V169.075H789.247L789.261 170.335C789.725 169.397 790.47 168.929 791.495 168.929C791.739 168.929 791.932 168.96 792.074 169.024L792.052 169.822ZM794.425 177H793.546V169.075H794.425V177ZM793.392 166.783C793.392 166.617 793.446 166.478 793.553 166.365C793.661 166.248 793.807 166.189 793.993 166.189C794.178 166.189 794.325 166.248 794.432 166.365C794.544 166.478 794.601 166.617 794.601 166.783C794.601 166.949 794.544 167.088 794.432 167.2C794.325 167.312 794.178 167.369 793.993 167.369C793.807 167.369 793.661 167.312 793.553 167.2C793.446 167.088 793.392 166.949 793.392 166.783ZM796.461 172.964C796.461 171.734 796.734 170.755 797.281 170.027C797.833 169.295 798.58 168.929 799.522 168.929C800.592 168.929 801.407 169.351 801.969 170.196V165.75H802.84V177H802.02L801.983 175.945C801.422 176.746 800.597 177.146 799.508 177.146C798.595 177.146 797.857 176.78 797.296 176.048C796.739 175.311 796.461 174.317 796.461 173.067V172.964ZM797.347 173.118C797.347 174.129 797.55 174.927 797.955 175.513C798.36 176.094 798.932 176.385 799.669 176.385C800.748 176.385 801.515 175.909 801.969 174.957V171.236C801.515 170.206 800.753 169.69 799.684 169.69C798.946 169.69 798.373 169.981 797.962 170.562C797.552 171.138 797.347 171.99 797.347 173.118ZM810.15 177C810.062 176.751 810.006 176.382 809.981 175.894C809.674 176.294 809.281 176.604 808.802 176.824C808.329 177.039 807.826 177.146 807.293 177.146C806.532 177.146 805.914 176.934 805.44 176.509C804.972 176.084 804.737 175.547 804.737 174.898C804.737 174.126 805.057 173.516 805.697 173.067C806.341 172.618 807.237 172.393 808.385 172.393H809.974V171.492C809.974 170.926 809.798 170.481 809.447 170.159C809.1 169.832 808.592 169.668 807.923 169.668C807.313 169.668 806.808 169.825 806.407 170.137C806.007 170.45 805.807 170.826 805.807 171.265L804.928 171.258C804.928 170.628 805.221 170.083 805.807 169.625C806.393 169.161 807.113 168.929 807.967 168.929C808.851 168.929 809.547 169.151 810.055 169.595C810.567 170.035 810.831 170.65 810.846 171.441V175.191C810.846 175.958 810.926 176.531 811.087 176.912V177H810.15ZM807.396 176.37C807.982 176.37 808.504 176.229 808.963 175.945C809.427 175.662 809.764 175.284 809.974 174.81V173.067H808.407C807.533 173.077 806.849 173.238 806.356 173.55C805.863 173.858 805.616 174.283 805.616 174.825C805.616 175.269 805.78 175.638 806.107 175.931C806.439 176.224 806.869 176.37 807.396 176.37ZM815.584 175.74L817.899 169.075H818.844L815.46 178.348L815.284 178.758C814.85 179.72 814.178 180.201 813.27 180.201C813.06 180.201 812.835 180.167 812.596 180.098L812.589 179.373L813.043 179.417C813.473 179.417 813.819 179.31 814.083 179.095C814.352 178.885 814.579 178.521 814.764 178.003L815.152 176.934L812.164 169.075H813.124L815.584 175.74ZM819.232 178.992L818.712 178.611C819.156 178.016 819.386 177.398 819.4 176.758V175.623H820.257V176.539C820.257 177.554 819.916 178.372 819.232 178.992ZM832.474 177H825.794V176.326L829.449 172.181C830.055 171.482 830.475 170.906 830.709 170.452C830.943 169.998 831.061 169.556 831.061 169.126C831.061 168.453 830.863 167.92 830.467 167.53C830.072 167.134 829.527 166.937 828.834 166.937C828.116 166.937 827.535 167.166 827.091 167.625C826.651 168.084 826.432 168.68 826.432 169.412H825.56C825.56 168.812 825.694 168.265 825.963 167.771C826.236 167.278 826.622 166.893 827.12 166.614C827.623 166.331 828.194 166.189 828.834 166.189C829.811 166.189 830.572 166.446 831.119 166.958C831.671 167.471 831.947 168.169 831.947 169.053C831.947 169.551 831.791 170.096 831.478 170.687C831.17 171.277 830.626 172.015 829.845 172.898L826.871 176.26H832.474V177ZM838.194 177H837.315V167.391L834.415 168.467V167.647L838.048 166.299H838.194V177ZM846.427 177V166.336H849.408C850.282 166.336 851.065 166.536 851.759 166.937C852.452 167.332 852.992 167.901 853.377 168.643C853.768 169.385 853.963 170.23 853.963 171.177V172.159C853.963 173.111 853.771 173.956 853.385 174.693C852.999 175.43 852.455 175.999 851.751 176.399C851.053 176.8 850.25 177 849.342 177H846.427ZM847.328 167.105V176.238H849.349C850.472 176.238 851.373 175.867 852.052 175.125C852.73 174.378 853.07 173.37 853.07 172.1V171.163C853.07 169.937 852.735 168.956 852.066 168.218C851.397 167.481 850.516 167.11 849.422 167.105H847.328ZM859.12 177.146C858.446 177.146 857.835 176.98 857.289 176.648C856.747 176.316 856.324 175.855 856.021 175.264C855.719 174.668 855.567 174.002 855.567 173.265V172.95C855.567 172.188 855.714 171.502 856.007 170.892C856.305 170.281 856.717 169.803 857.245 169.456C857.772 169.104 858.343 168.929 858.958 168.929C859.92 168.929 860.682 169.258 861.244 169.917C861.81 170.572 862.093 171.468 862.093 172.605V173.096H856.439V173.265C856.439 174.163 856.695 174.913 857.208 175.513C857.726 176.109 858.375 176.407 859.156 176.407C859.625 176.407 860.038 176.321 860.394 176.15C860.755 175.979 861.083 175.706 861.375 175.33L861.925 175.748C861.28 176.68 860.345 177.146 859.12 177.146ZM858.958 169.676C858.299 169.676 857.743 169.917 857.289 170.401C856.839 170.884 856.566 171.534 856.468 172.349H861.222V172.254C861.197 171.492 860.98 170.872 860.57 170.394C860.16 169.915 859.623 169.676 858.958 169.676ZM866.729 176.407C867.34 176.407 867.85 176.236 868.26 175.894C868.675 175.547 868.9 175.101 868.934 174.554H869.776C869.752 175.037 869.601 175.479 869.322 175.879C869.044 176.275 868.673 176.585 868.209 176.81C867.75 177.034 867.257 177.146 866.729 177.146C865.689 177.146 864.864 176.785 864.254 176.062C863.648 175.34 863.346 174.368 863.346 173.147V172.884C863.346 172.103 863.482 171.412 863.756 170.811C864.029 170.21 864.42 169.747 864.928 169.419C865.44 169.092 866.039 168.929 866.722 168.929C867.591 168.929 868.307 169.188 868.868 169.705C869.435 170.223 869.737 170.904 869.776 171.749H868.934C868.895 171.128 868.67 170.628 868.26 170.247C867.855 169.866 867.342 169.676 866.722 169.676C865.931 169.676 865.316 169.961 864.876 170.533C864.442 171.104 864.225 171.905 864.225 172.935V173.191C864.225 174.202 864.442 174.991 864.876 175.557C865.316 176.124 865.934 176.407 866.729 176.407ZM881.722 177H875.042V176.326L878.697 172.181C879.303 171.482 879.723 170.906 879.957 170.452C880.191 169.998 880.309 169.556 880.309 169.126C880.309 168.453 880.111 167.92 879.715 167.53C879.32 167.134 878.775 166.937 878.082 166.937C877.364 166.937 876.783 167.166 876.339 167.625C875.899 168.084 875.68 168.68 875.68 169.412H874.808C874.808 168.812 874.942 168.265 875.211 167.771C875.484 167.278 875.87 166.893 876.368 166.614C876.871 166.331 877.442 166.189 878.082 166.189C879.059 166.189 879.82 166.446 880.367 166.958C880.919 167.471 881.195 168.169 881.195 169.053C881.195 169.551 881.039 170.096 880.726 170.687C880.418 171.277 879.874 172.015 879.093 172.898L876.119 176.26H881.722V177ZM889.793 172.554C889.793 174.058 889.518 175.201 888.966 175.982C888.414 176.758 887.601 177.146 886.527 177.146C885.472 177.146 884.664 176.766 884.103 176.004C883.541 175.237 883.253 174.124 883.238 172.664V170.752C883.238 169.253 883.517 168.118 884.073 167.347C884.63 166.575 885.443 166.189 886.512 166.189C887.567 166.189 888.373 166.563 888.929 167.31C889.486 168.052 889.774 169.148 889.793 170.599V172.554ZM888.915 170.643C888.915 169.422 888.714 168.499 888.314 167.874C887.918 167.249 887.318 166.937 886.512 166.937C885.721 166.937 885.125 167.242 884.725 167.852C884.325 168.462 884.12 169.363 884.11 170.555V172.649C884.11 173.865 884.315 174.795 884.725 175.44C885.14 176.084 885.741 176.407 886.527 176.407C887.308 176.407 887.899 176.092 888.299 175.462C888.705 174.832 888.91 173.909 888.915 172.693V170.643ZM895.763 177H894.884V167.391L891.983 168.467V167.647L895.616 166.299H895.763V177ZM906.288 169.083C906.288 169.634 906.126 170.13 905.804 170.569C905.482 171.004 905.057 171.324 904.53 171.529C905.145 171.739 905.638 172.078 906.009 172.547C906.38 173.016 906.566 173.558 906.566 174.173C906.566 175.086 906.256 175.811 905.636 176.348C905.016 176.88 904.195 177.146 903.175 177.146C902.145 177.146 901.319 176.88 900.699 176.348C900.084 175.816 899.776 175.091 899.776 174.173C899.776 173.567 899.955 173.028 900.311 172.554C900.667 172.081 901.156 171.739 901.776 171.529C901.249 171.324 900.829 171.004 900.516 170.569C900.204 170.13 900.047 169.634 900.047 169.083C900.047 168.199 900.331 167.496 900.897 166.973C901.468 166.451 902.223 166.189 903.16 166.189C904.098 166.189 904.852 166.453 905.423 166.98C906 167.508 906.288 168.208 906.288 169.083ZM905.687 174.18C905.687 173.516 905.45 172.972 904.977 172.547C904.503 172.117 903.897 171.902 903.16 171.902C902.423 171.902 901.82 172.112 901.351 172.532C900.882 172.952 900.648 173.501 900.648 174.18C900.648 174.859 900.875 175.401 901.329 175.806C901.783 176.207 902.398 176.407 903.175 176.407C903.932 176.407 904.54 176.207 904.999 175.806C905.458 175.406 905.687 174.864 905.687 174.18ZM905.409 169.075C905.409 168.465 905.196 167.957 904.771 167.552C904.352 167.142 903.814 166.937 903.16 166.937C902.496 166.937 901.957 167.134 901.542 167.53C901.131 167.92 900.926 168.436 900.926 169.075C900.926 169.7 901.131 170.203 901.542 170.584C901.957 170.965 902.499 171.155 903.167 171.155C903.827 171.155 904.364 170.965 904.779 170.584C905.199 170.198 905.409 169.695 905.409 169.075ZM908.28 178.992L907.76 178.611C908.204 178.016 908.434 177.398 908.448 176.758V175.623H909.305V176.539C909.305 177.554 908.963 178.372 908.28 178.992ZM918.922 177H918.043V167.391L915.143 168.467V167.647L918.775 166.299H918.922V177ZM929.447 169.083C929.447 169.634 929.286 170.13 928.963 170.569C928.641 171.004 928.216 171.324 927.689 171.529C928.304 171.739 928.797 172.078 929.168 172.547C929.54 173.016 929.725 173.558 929.725 174.173C929.725 175.086 929.415 175.811 928.795 176.348C928.175 176.88 927.354 177.146 926.334 177.146C925.304 177.146 924.479 176.88 923.858 176.348C923.243 175.816 922.936 175.091 922.936 174.173C922.936 173.567 923.114 173.028 923.47 172.554C923.827 172.081 924.315 171.739 924.935 171.529C924.408 171.324 923.988 171.004 923.675 170.569C923.363 170.13 923.207 169.634 923.207 169.083C923.207 168.199 923.49 167.496 924.056 166.973C924.627 166.451 925.382 166.189 926.319 166.189C927.257 166.189 928.011 166.453 928.583 166.98C929.159 167.508 929.447 168.208 929.447 169.083ZM928.846 174.18C928.846 173.516 928.609 172.972 928.136 172.547C927.662 172.117 927.057 171.902 926.319 171.902C925.582 171.902 924.979 172.112 924.51 172.532C924.042 172.952 923.807 173.501 923.807 174.18C923.807 174.859 924.034 175.401 924.488 175.806C924.942 176.207 925.558 176.407 926.334 176.407C927.091 176.407 927.699 176.207 928.158 175.806C928.617 175.406 928.846 174.864 928.846 174.18ZM928.568 169.075C928.568 168.465 928.355 167.957 927.931 167.552C927.511 167.142 926.974 166.937 926.319 166.937C925.655 166.937 925.116 167.134 924.701 167.53C924.291 167.92 924.085 168.436 924.085 169.075C924.085 169.7 924.291 170.203 924.701 170.584C925.116 170.965 925.658 171.155 926.327 171.155C926.986 171.155 927.523 170.965 927.938 170.584C928.358 170.198 928.568 169.695 928.568 169.075ZM931.41 176.473C931.41 176.302 931.463 176.158 931.571 176.041C931.683 175.918 931.837 175.857 932.032 175.857C932.228 175.857 932.381 175.918 932.494 176.041C932.606 176.158 932.662 176.302 932.662 176.473C932.662 176.644 932.606 176.785 932.494 176.897C932.381 177.005 932.228 177.059 932.032 177.059C931.837 177.059 931.683 177.005 931.571 176.897C931.463 176.785 931.41 176.644 931.41 176.473ZM931.424 169.712C931.424 169.542 931.478 169.397 931.585 169.28C931.698 169.158 931.852 169.097 932.047 169.097C932.242 169.097 932.396 169.158 932.508 169.28C932.621 169.397 932.677 169.542 932.677 169.712C932.677 169.883 932.621 170.025 932.508 170.137C932.396 170.245 932.242 170.298 932.047 170.298C931.852 170.298 931.698 170.245 931.585 170.137C931.478 170.025 931.424 169.883 931.424 169.712ZM941.063 172.554C941.063 174.058 940.787 175.201 940.235 175.982C939.684 176.758 938.871 177.146 937.796 177.146C936.742 177.146 935.934 176.766 935.372 176.004C934.811 175.237 934.522 174.124 934.508 172.664V170.752C934.508 169.253 934.786 168.118 935.343 167.347C935.899 166.575 936.712 166.189 937.782 166.189C938.836 166.189 939.642 166.563 940.199 167.31C940.755 168.052 941.043 169.148 941.063 170.599V172.554ZM940.184 170.643C940.184 169.422 939.984 168.499 939.583 167.874C939.188 167.249 938.587 166.937 937.782 166.937C936.991 166.937 936.395 167.242 935.995 167.852C935.594 168.462 935.389 169.363 935.379 170.555V172.649C935.379 173.865 935.584 174.795 935.995 175.44C936.41 176.084 937.01 176.407 937.796 176.407C938.578 176.407 939.168 176.092 939.569 175.462C939.974 174.832 940.179 173.909 940.184 172.693V170.643ZM949.383 172.554C949.383 174.058 949.107 175.201 948.556 175.982C948.004 176.758 947.191 177.146 946.117 177.146C945.062 177.146 944.254 176.766 943.692 176.004C943.131 175.237 942.843 174.124 942.828 172.664V170.752C942.828 169.253 943.106 168.118 943.663 167.347C944.22 166.575 945.033 166.189 946.102 166.189C947.157 166.189 947.962 166.563 948.519 167.31C949.076 168.052 949.364 169.148 949.383 170.599V172.554ZM948.504 170.643C948.504 169.422 948.304 168.499 947.904 167.874C947.508 167.249 946.908 166.937 946.102 166.937C945.311 166.937 944.715 167.242 944.315 167.852C943.915 168.462 943.709 169.363 943.7 170.555V172.649C943.7 173.865 943.905 174.795 -j     -j                    ð$f            à<f    .j            À-j     @      À-j            75.462C948.294 174.832 948.5 173.909 948.504 172.693V170.643ZM951.2 176.473C951.2 176.302 951.253 176.158 951.361 176.041C951.473 175.918 951.627 175.857 951.822 175.857C952.018 175.857 952.171 175.918 952.284 176.041C952.396 176.158 952.452 176.302 952.452 176.473C952.452 176.644 952.396 176.785 952.284 176.897C952.171 177.005 952.018 177.059 951.822 177.059C951.627 177.059 951.473 177.005 951.361 176.897C951.253 176.785 951.2 176.644 951.2 176.473ZM951.214 169.712C951.214 169.542 951.268 169.397 951.375 169.28C951.488 169.158 951.642 169.097 951.837 169.097C952.032 169.097 952.186 169.158 952.298 169.28C952.411 169.397 952.467 169.542 952.467 169.712C952.467 169.883 952.411 170.025 952.298 170.137C952.186 170.245 952.032 170.298 951.837 170.298C951.642 170.298 951.488 170.245 951.375 170.137C951.268 170.025 951.214 169.883 951.214 169.712ZM960.853 172.554C960.853 174.058 960.577 175.201 960.025 175.982C959.474 176.758 958.661 177.146 957.586 177.146C956.532 177.146 955.724 176.766 955.162 176.004C954.601 175.237 954.312 174.124 954.298 172.664V170.752C954.298 169.253 954.576 168.118 955.133 167.347C955.689 166.575 956.502 166.189 957.572 166.189C958.626 166.189 959.432 166.563 959.989 167.31C960.545 168.052 960.833 169.148 960.853 170.599V172.554ZM959.974 170.643C959.974 169.422 959.774 168.499 959.374 167.874C958.978 167.249 958.377 166.937 957.572 166.937C956.781 166.937 956.185 167.242 955.785 167.852C955.384 168.462 955.179 169.363 955.169 170.555V172.649C955.169 173.865 955.375 174.795 955.785 175.44C956.2 176.084 956.8 176.407 957.586 176.407C958.368 176.407 958.958 176.092 959.359 175.462C959.764 174.832 959.969 173.909 959.974 172.693V170.643ZM969.173 172.554C969.173 174.058 968.897 175.201 968.346 175.982C967.794 176.758 966.981 177.146 965.907 177.146C964.852 177.146 964.044 176.766 963.482 176.004C962.921 175.237 962.633 174.124 962.618 172.664V170.752C962.618 169.253 962.896 168.118 963.453 167.347C964.01 166.575 964.823 166.189 965.892 166.189C966.947 166.189 967.752 166.563 968.309 167.31C968.866 168.052 969.154 169.148 969.173 170.599V172.554ZM968.294 170.643C968.294 169.422 968.094 168.499 967.694 167.874C967.298 167.249 966.698 166.937 965.892 166.937C965.101 166.937 964.505 167.242 964.105 167.852C963.705 168.462 963.5 169.363 963.49 170.555V172.649C963.49 173.865 963.695 174.795 964.105 175.44C964.52 176.084 965.121 176.407 965.907 176.407C966.688 176.407 967.279 176.092 967.679 175.462C968.084 174.832 968.29 173.909 968.294 172.693V170.643ZM982.401 166.336V173.616C982.396 174.334 982.237 174.959 981.925 175.491C981.612 176.023 981.17 176.434 980.599 176.722C980.033 177.005 979.381 177.146 978.644 177.146C977.521 177.146 976.62 176.841 975.941 176.231C975.267 175.616 974.918 174.766 974.894 173.682V166.336H975.787V173.55C975.787 174.449 976.043 175.147 976.556 175.645C977.069 176.138 977.765 176.385 978.644 176.385C979.522 176.385 980.216 176.136 980.724 175.638C981.236 175.14 981.493 174.446 981.493 173.558V166.336H982.401ZM992.149 167.105H988.495V177H987.594V167.105H983.946V166.336H992.149V167.105ZM1001.22 173.675C1001.1 174.798 1000.7 175.657 1000.02 176.253C999.337 176.849 998.431 177.146 997.298 177.146C996.507 177.146 995.807 176.949 995.196 176.553C994.591 176.158 994.122 175.599 993.79 174.876C993.458 174.148 993.29 173.318 993.285 172.386V171.001C993.285 170.054 993.451 169.214 993.783 168.482C994.115 167.75 994.591 167.186 995.211 166.79C995.836 166.39 996.554 166.189 997.364 166.189C998.507 166.189 999.408 166.5 1000.07 167.12C1000.73 167.735 1001.12 168.587 1001.22 169.676H1000.32C1000.09 167.864 999.107 166.958 997.364 166.958C996.397 166.958 995.626 167.32 995.05 168.042C994.479 168.765 994.193 169.764 994.193 171.038V172.342C994.193 173.572 994.471 174.554 995.028 175.286C995.589 176.019 996.346 176.385 997.298 176.385C998.241 176.385 998.951 176.16 999.43 175.711C999.908 175.257 1000.2 174.578 1000.32 173.675H1001.22ZM1006.68 171.58H1009.93V172.4H1006.68V175.931H1005.79V172.4H1002.62V171.58H1005.79V168.167H1006.68V171.58ZM1017.97 172.554C1017.97 174.058 1017.69 175.201 1017.14 175.982C1016.59 176.758 1015.77 177.146 1014.7 177.146C1013.65 177.146 1012.84 176.766 1012.28 176.004C1011.71 175.237 1011.43 174.124 1011.41 172.664V170.752C1011.41 169.253 1011.69 168.118 1012.25 167.347C1012.8 166.575 1013.62 166.189 1014.69 166.189C1015.74 166.189 1016.55 166.563 1017.1 167.31C1017.66 168.052 1017.95 169.148 1017.97 170.599V172.554ZM1017.09 170.643C1017.09 169.422 1016.89 168.499 1016.49 167.874C1016.09 167.249 1015.49 166.937 1014.69 166.937C1013.9 166.937 1013.3 167.242 1012.9 167.852C1012.5 168.462 1012.29 169.363 1012.28 170.555V172.649C1012.28 173.865 1012.49 174.795 1012.9 175.44C1013.31 176.084 1013.91 176.407 1014.7 176.407C1015.48 176.407 1016.07 176.092 1016.47 175.462C1016.88 174.832 1017.08 173.909 1017.09 172.693V170.643ZM1021.81 171.192H1022.71C1023.22 171.192 1023.66 171.104 1024.03 170.928C1024.41 170.748 1024.69 170.503 1024.89 170.196C1025.09 169.883 1025.19 169.524 1025.19 169.119C1025.19 168.436 1025 167.901 1024.61 167.515C1024.22 167.129 1023.67 166.937 1022.95 166.937C1022.26 166.937 1021.7 167.139 1021.26 167.544C1020.83 167.945 1020.61 168.475 1020.61 169.134H1019.73C1019.73 168.582 1019.87 168.079 1020.15 167.625C1020.43 167.166 1020.81 166.812 1021.31 166.563C1021.8 166.314 1022.35 166.189 1022.95 166.189C1023.91 166.189 1024.68 166.453 1025.23 166.98C1025.79 167.508 1026.07 168.23 1026.07 169.148C1026.07 169.661 1025.9 170.135 1025.58 170.569C1025.25 170.999 1024.81 171.321 1024.24 171.536C1024.91 171.722 1025.41 172.042 1025.75 172.496C1026.09 172.945 1026.27 173.482 1026.27 174.107C1026.27 175.02 1025.97 175.755 1025.37 176.312C1024.78 176.868 1023.98 177.146 1022.98 177.146C1022.35 177.146 1021.77 177.02 1021.23 176.766C1020.71 176.512 1020.3 176.158 1020 175.704C1019.72 175.245 1019.57 174.712 1019.57 174.107H1020.45C1020.45 174.786 1020.69 175.34 1021.16 175.77C1021.63 176.194 1022.24 176.407 1022.98 176.407C1023.74 176.407 1024.33 176.214 1024.75 175.828C1025.17 175.438 1025.39 174.874 1025.39 174.136C1025.39 173.423 1025.16 172.879 1024.7 172.503C1024.24 172.127 1023.57 171.939 1022.68 171.939H1021.81V171.192ZM1028.1 176.473C1028.1 176.302 1028.16 176.158 1028.27 176.041C1028.38 175.918 1028.53 175.857 1028.73 175.857C1028.92 175.857 1029.08 175.918 1029.19 176.041C1029.3 176.158 1029.36 176.302 1029.36 176.473C1029.36 176.644 1029.3 176.785 1029.19 176.897C1029.08 177.005 1028.92 177.059 1028.73 177.059C1028.53 177.059 1028.38 177.005 1028.27 176.897C1028.16 176.785 1028.1 176.644 1028.1 176.473ZM1028.12 169.712C1028.12 169.542 1028.17 169.397 1028.28 169.28C1028.39 169.158 1028.55 169.097 1028.74 169.097C1028.94 169.097 1029.09 169.158 1029.2 169.28C1029.31 169.397 1029.37 169.542 1029.37 169.712C1029.37 169.883 1029.31 170.025 1029.2 170.137C1029.09 170.245 1028.94 170.298 1028.74 170.298C1028.55 170.298 1028.39 170.245 1028.28 170.137C1028.17 170.025 1028.12 169.883 1028.12 169.712ZM1037.76 172.554C1037.76 174.058 1037.48 175.201 1036.93 175.982C1036.38 176.758 1035.56 177.146 1034.49 177.146C1033.44 177.146 1032.63 176.766 1032.07 176.004C1031.5 175.237 1031.22 174.124 1031.2 172.664V170.752C1031.2 169.253 1031.48 168.118 1032.04 167.347C1032.59 166.575 1033.41 166.189 1034.48 166.189C1035.53 166.189 1036.34 166.563 1036.89 167.31C1037.45 168.052 1037.74 169.148 1037.76 170.599V172.554ZM1036.88 170.643C1036.88 169.422 1036.68 168.499 1036.28 167.874C1035.88 167.249 1035.28 166.937 1034.48 166.937C1033.69 166.937 1033.09 167.242 1032.69 167.852C1032.29 168.462 1032.08 169.363 1032.07 170.555V172.649C1032.07 173.865 1032.28 174.795 1032.69 175.44C1033.1 176.084 1033.7 176.407 1034.49 176.407C1035.27 176.407 1035.86 176.092 1036.26 175.462C1036.67 174.832 1036.87 173.909 1036.88 172.693V170.643ZM1046.08 172.554C1046.08 174.058 1045.8 175.201 1045.25 175.982C1044.7 176.758 1043.89 177.146 1042.81 177.146C1041.76 177.146 1040.95 176.766 1040.39 176.004C1039.83 175.237 1039.54 174.124 1039.52 172.664V170.752C1039.52 169.253 1039.8 168.118 1040.36 167.347C1040.91 166.575 1041.73 166.189 1042.8 166.189C1043.85 166.189 1044.66 166.563 1045.21 167.31C1045.77 168.052 1046.06 169.148 1046.08 170.599V172.554ZM1045.2 170.643C1045.2 169.422 1045 168.499 1044.6 167.874C1044.2 167.249 1043.6 166.937 1042.8 166.937C1042.01 166.937 1041.41 167.242 1041.01 167.852C1040.61 168.462 1040.4 169.363 1040.39 170.555V172.649C1040.39 173.865 1040.6 174.795 1041.01 175.44C1041.42 176.084 1042.02 176.407 1042.81 176.407C1043.59 176.407 1044.18 176.092 1044.58 175.462C1044.99 174.832 1045.19 173.909 1045.2 172.693V170.643ZM782.389 184.781L787.633 197.33L792.896 184.781H794.498V199H793.297V192.809L793.395 186.461L788.102 199H787.174L781.9 186.51L781.998 192.77V199H780.797V184.781H782.389ZM804.498 199C804.381 198.668 804.306 198.176 804.273 197.525C803.863 198.059 803.339 198.473 802.701 198.766C802.07 199.052 801.399 199.195 800.689 199.195C799.674 199.195 798.85 198.912 798.219 198.346C797.594 197.779 797.281 197.063 797.281 196.197C797.281 195.169 797.708 194.355 798.561 193.756C799.42 193.157 800.615 192.857 802.145 192.857H804.264V191.656C804.264 190.901 804.029 190.309 803.561 189.879C803.098 189.443 802.421 189.225 801.529 189.225C800.715 189.225 800.042 189.433 799.508 189.85C798.974 190.266 798.707 190.768 798.707 191.354L797.535 191.344C797.535 190.504 797.926 189.778 798.707 189.166C799.488 188.548 800.449 188.238 801.588 188.238C802.766 188.238 803.694 188.535 804.371 189.127C805.055 189.713 805.406 190.533 805.426 191.588V196.588C805.426 197.61 805.533 198.375 805.748 198.883V199H804.498ZM800.826 198.16C801.607 198.16 802.304 197.971 802.916 197.594C803.535 197.216 803.984 196.712 804.264 196.08V193.756H802.174C801.008 193.769 800.097 193.984 799.439 194.4C798.782 194.811 798.453 195.377 798.453 196.1C798.453 196.692 798.671 197.184 799.107 197.574C799.55 197.965 800.123 198.16 800.826 198.16ZM813.434 189.43C813.186 189.384 812.923 189.361 812.643 189.361C811.913 189.361 811.295 189.566 810.787 189.977C810.286 190.38 809.928 190.969 809.713 191.744V199H808.551V188.434H809.693L809.713 190.113C810.331 188.863 811.324 188.238 812.691 188.238C813.017 188.238 813.274 188.281 813.463 188.365L813.434 189.43ZM817.799 193.678L816.461 194.967V199H815.289V184H816.461V193.6L817.564 192.408L821.607 188.434H823.082L818.6 192.887L823.473 199H822.076L817.799 193.678ZM828.99 199.195C828.092 199.195 827.278 198.974 826.549 198.531C825.826 198.089 825.263 197.473 824.859 196.686C824.456 195.891 824.254 195.003 824.254 194.02V193.6C824.254 192.584 824.449 191.669 824.84 190.855C825.237 190.042 825.787 189.404 826.49 188.941C827.193 188.473 827.955 188.238 828.775 188.238C830.058 188.238 831.074 188.678 831.822 189.557C832.577 190.429 832.955 191.624 832.955 193.141V193.795H825.416V194.02C825.416 195.217 825.758 196.217 826.441 197.018C827.132 197.812 827.997 198.209 829.039 198.209C829.664 198.209 830.214 198.095 830.689 197.867C831.171 197.639 831.607 197.275 831.998 196.773L832.73 197.33C831.871 198.574 830.624 199.195 828.99 199.195ZM828.775 189.234C827.896 189.234 827.154 189.557 826.549 190.201C825.95 190.846 825.585 191.712 825.455 192.799H831.793V192.672C831.76 191.656 831.471 190.829 830.924 190.191C830.377 189.553 829.661 189.234 828.775 189.234ZM837.047 185.729V188.434H839.234V189.391H837.047V196.432C837.047 197.018 837.151 197.454 837.359 197.74C837.574 198.027 837.929 198.17 838.424 198.17C838.619 198.17 838.935 198.137 839.371 198.072L839.42 199.029C839.114 199.14 838.697 199.195 838.17 199.195C837.369 199.195 836.786 198.964 836.422 198.502C836.057 198.033 835.875 197.346 835.875 196.441V189.391H833.932V188.434H835.875V185.729H837.047ZM856.861 194.566C856.699 196.064 856.161 197.21 855.25 198.004C854.345 198.798 853.137 199.195 851.627 199.195C850.572 199.195 849.638 198.932 848.824 198.404C848.017 197.877 847.392 197.132 846.949 196.168C846.507 195.198 846.282 194.091 846.275 192.848V191.002C846.275 189.739 846.497 188.619 846.939 187.643C847.382 186.666 848.017 185.914 848.844 185.387C849.677 184.853 850.634 184.586 851.715 184.586C853.238 184.586 854.439 184.999 855.318 185.826C856.204 186.646 856.718 187.783 856.861 189.234H855.65C855.351 186.819 854.039 185.611 851.715 185.611C850.426 185.611 849.397 186.093 848.629 187.057C847.867 188.02 847.486 189.352 847.486 191.051V192.789C847.486 194.43 847.857 195.738 848.6 196.715C849.348 197.691 850.357 198.18 851.627 198.18C852.883 198.18 853.831 197.88 854.469 197.281C855.107 196.676 855.501 195.771 855.65 194.566H856.861ZM866.178 199C866.061 198.668 865.986 198.176 865.953 197.525C865.543 198.059 865.019 198.473 864.381 198.766C863.749 199.052 863.079 199.195 862.369 199.195C861.354 199.195 860.53 198.912 859.898 198.346C859.273 197.779 858.961 197.063 858.961 196.197C858.961 195.169 859.387 194.355 860.24 193.756C861.1 193.157 862.294 192.857 863.824 192.857H865.943V191.656C865.943 190.901 865.709 190.309 865.24 189.879C864.778 189.443 864.101 189.225 863.209 189.225C862.395 189.225 861.721 189.433 861.188 189.85C860.654 190.266 860.387 190.768 860.387 191.354L859.215 191.344C859.215 190.504 859.605 189.778 860.387 189.166C861.168 188.548 862.128 188.238 863.268 188.238C864.446 188.238 865.374 188.535 866.051 189.127C866.734 189.713 867.086 190.533 867.105 191.588V196.588C867.105 197.61 867.213 198.375 867.428 198.883V199H866.178ZM862.506 198.16C863.287 198.16 863.984 197.971 864.596 197.594C865.214 197.216 865.663 196.712 865.943 196.08V193.756H863.854C862.688 193.769 861.777 193.984 861.119 194.4C860.462 194.811 860.133 195.377 860.133 196.1C860.133 196.692 860.351 197.184 860.787 197.574C861.23 197.965 861.803 198.16 862.506 198.16ZM878.727 193.824C878.727 195.471 878.362 196.78 877.633 197.75C876.904 198.714 875.927 199.195 874.703 199.195C873.258 199.195 872.151 198.688 871.383 197.672V203.062H870.221V188.434H871.305L871.363 189.928C872.125 188.801 873.229 188.238 874.674 188.238C875.937 188.238 876.926 188.717 877.643 189.674C878.365 190.631 878.727 191.959 878.727 193.658V193.824ZM877.555 193.619C877.555 192.271 877.278 191.207 876.725 190.426C876.171 189.645 875.4 189.254 874.41 189.254C873.694 189.254 873.079 189.426 872.564 189.771C872.05 190.117 871.656 190.618 871.383 191.275V196.344C871.663 196.949 872.063 197.411 872.584 197.73C873.105 198.049 873.72 198.209 874.43 198.209C875.413 198.209 876.178 197.818 876.725 197.037C877.278 196.249 877.555 195.11 877.555 193.619ZM881.041 198.297C881.041 198.069 881.113 197.877 881.256 197.721C881.406 197.558 881.611 197.477 881.871 197.477C882.132 197.477 882.337 197.558 882.486 197.721C882.636 197.877 882.711 198.069 882.711 198.297C882.711 198.525 882.636 198.714 882.486 198.863C882.337 199.007 882.132 199.078 881.871 199.078C881.611 199.078 881.406 199.007 881.256 198.863C881.113 198.714 881.041 198.525 881.041 198.297ZM881.061 189.283C881.061 189.055 881.132 188.863 881.275 188.707C881.425 188.544 881.63 188.463 881.891 188.463C882.151 188.463 882.356 188.544 882.506 188.707C882.656 188.863 882.73 189.055 882.73 189.283C882.73 189.511 882.656 189.7 882.506 189.85C882.356 189.993 882.151 190.064 881.891 190.064C881.63 190.064 881.425 189.993 881.275 189.85C881.132 189.7 881.061 189.511 881.061 189.283ZM898.775 193.072C898.775 195.077 898.408 196.601 897.672 197.643C896.936 198.678 895.852 199.195 894.42 199.195C893.014 199.195 891.936 198.688 891.188 197.672C890.439 196.65 890.055 195.165 890.035 193.219V190.67C890.035 188.671 890.406 187.158 891.148 186.129C891.891 185.1 892.975 184.586 894.4 184.586C895.807 184.586 896.881 185.084 897.623 186.08C898.365 187.07 898.749 188.531 898.775 190.465V193.072ZM897.604 190.523C897.604 188.896 897.337 187.665 896.803 186.832C896.275 185.999 895.475 185.582 894.4 185.582C893.346 185.582 892.551 185.989 892.018 186.803C891.484 187.617 891.21 188.818 891.197 190.406V193.199C891.197 194.82 891.471 196.061 892.018 196.92C892.571 197.779 893.372 198.209 894.42 198.209C895.462 198.209 896.249 197.789 896.783 196.949C897.324 196.109 897.597 194.879 897.604 193.258V190.523ZM909.869 193.072C909.869 195.077 909.501 196.601 908.766 197.643C908.03 198.678 906.946 199.195 905.514 199.195C904.107 199.195 903.03 198.688 902.281 197.672C901.533 196.65 901.148 195.165 901.129 193.219V190.67C901 -j     -j                    ð$f            à<f    .j            À-j     @      À-j            07.975 185.084 908.717 186.08C909.459 187.07 909.843 188.531 909.869 190.465V193.072ZM908.697 190.523C908.697 188.896 908.43 187.665 907.896 186.832C907.369 185.999 906.568 185.582 905.494 185.582C904.439 185.582 903.645 185.989 903.111 186.803C902.577 187.617 902.304 188.818 902.291 190.406V193.199C902.291 194.82 902.564 196.061 903.111 196.92C903.665 197.779 904.465 198.209 905.514 198.209C906.555 198.209 907.343 197.789 907.877 196.949C908.417 196.109 908.691 194.879 908.697 193.258V190.523ZM920.963 193.072C920.963 195.077 920.595 196.601 919.859 197.643C919.124 198.678 918.04 199.195 916.607 199.195C915.201 199.195 914.124 198.688 913.375 197.672C912.626 196.65 912.242 195.165 912.223 193.219V190.67C912.223 188.671 912.594 187.158 913.336 186.129C914.078 185.1 915.162 184.586 916.588 184.586C917.994 184.586 919.068 185.084 919.811 186.08C920.553 187.07 920.937 188.531 920.963 190.465V193.072ZM919.791 190.523C919.791 188.896 919.524 187.665 918.99 186.832C918.463 185.999 917.662 185.582 916.588 185.582C915.533 185.582 914.739 185.989 914.205 186.803C913.671 187.617 913.398 188.818 913.385 190.406V193.199C913.385 194.82 913.658 196.061 914.205 196.92C914.758 197.779 915.559 198.209 916.607 198.209C917.649 198.209 918.437 197.789 918.971 196.949C919.511 196.109 919.785 194.879 919.791 193.258V190.523ZM923.424 201.656L922.73 201.148C923.323 200.354 923.629 199.531 923.648 198.678V197.164H924.791V198.385C924.791 199.739 924.335 200.829 923.424 201.656ZM935.885 193.072C935.885 195.077 935.517 196.601 934.781 197.643C934.046 198.678 932.962 199.195 931.529 199.195C930.123 199.195 929.046 198.688 928.297 197.672C927.548 196.65 927.164 195.165 927.145 193.219V190.67C927.145 188.671 927.516 187.158 928.258 186.129C929 185.1 930.084 184.586 931.51 184.586C932.916 184.586 933.99 185.084 934.732 186.08C935.475 187.07 935.859 188.531 935.885 190.465V193.072ZM934.713 190.523C934.713 188.896 934.446 187.665 933.912 186.832C933.385 185.999 932.584 185.582 931.51 185.582C930.455 185.582 929.661 185.989 929.127 186.803C928.593 187.617 928.32 188.818 928.307 190.406V193.199C928.307 194.82 928.58 196.061 929.127 196.92C929.68 197.779 930.481 198.209 931.529 198.209C932.571 198.209 933.359 197.789 933.893 196.949C934.433 196.109 934.706 194.879 934.713 193.258V190.523ZM946.979 193.072C946.979 195.077 946.611 196.601 945.875 197.643C945.139 198.678 944.055 199.195 942.623 199.195C941.217 199.195 940.139 198.688 939.391 197.672C938.642 196.65 938.258 195.165 938.238 193.219V190.67C938.238 188.671 938.609 187.158 939.352 186.129C940.094 185.1 941.178 184.586 942.604 184.586C944.01 184.586 945.084 185.084 945.826 186.08C946.568 187.07 946.952 188.531 946.979 190.465V193.072ZM945.807 190.523C945.807 188.896 945.54 187.665 945.006 186.832C944.479 185.999 943.678 185.582 942.604 185.582C941.549 185.582 940.755 185.989 940.221 186.803C939.687 187.617 939.413 188.818 939.4 190.406V193.199C939.4 194.82 939.674 196.061 940.221 196.92C940.774 197.779 941.575 198.209 942.623 198.209C943.665 198.209 944.452 197.789 944.986 196.949C945.527 196.109 945.8 194.879 945.807 193.258V190.523ZM958.072 193.072C958.072 195.077 957.704 196.601 956.969 197.643C956.233 198.678 955.149 199.195 953.717 199.195C952.311 199.195 951.233 198.688 950.484 197.672C949.736 196.65 949.352 195.165 949.332 193.219V190.67C949.332 188.671 949.703 187.158 950.445 186.129C951.188 185.1 952.271 184.586 953.697 184.586C955.104 184.586 956.178 185.084 956.92 186.08C957.662 187.07 958.046 188.531 958.072 190.465V193.072ZM956.9 190.523C956.9 188.896 956.633 187.665 956.1 186.832C955.572 185.999 954.771 185.582 953.697 185.582C952.643 185.582 951.848 185.989 951.314 186.803C950.781 187.617 950.507 188.818 950.494 190.406V193.199C950.494 194.82 950.768 196.061 951.314 196.92C951.868 197.779 952.669 198.209 953.717 198.209C954.758 198.209 955.546 197.789 956.08 196.949C956.62 196.109 956.894 194.879 956.9 193.258V190.523ZM960.533 201.656L959.84 201.148C960.432 200.354 960.738 199.531 960.758 198.678V197.164H961.9V198.385C961.9 199.739 961.445 200.829 960.533 201.656ZM972.994 193.072C972.994 195.077 972.626 196.601 971.891 197.643C971.155 198.678 970.071 199.195 968.639 199.195C967.232 199.195 966.155 198.688 965.406 197.672C964.658 196.65 964.273 195.165 964.254 193.219V190.67C964.254 188.671 964.625 187.158 965.367 186.129C966.109 185.1 967.193 184.586 968.619 184.586C970.025 184.586 971.1 185.084 971.842 186.08C972.584 187.07 972.968 188.531 972.994 190.465V193.072ZM971.822 190.523C971.822 188.896 971.555 187.665 971.021 186.832C970.494 185.999 969.693 185.582 968.619 185.582C967.564 185.582 966.77 185.989 966.236 186.803C965.702 187.617 965.429 188.818 965.416 190.406V193.199C965.416 194.82 965.689 196.061 966.236 196.92C966.79 197.779 967.59 198.209 968.639 198.209C969.68 198.209 970.468 197.789 971.002 196.949C971.542 196.109 971.816 194.879 971.822 193.258V190.523ZM984.088 193.072C984.088 195.077 983.72 196.601 982.984 197.643C982.249 198.678 981.165 199.195 979.732 199.195C978.326 199.195 977.249 198.688 976.5 197.672C975.751 196.65 975.367 195.165 975.348 193.219V190.67C975.348 188.671 975.719 187.158 976.461 186.129C977.203 185.1 978.287 184.586 979.713 184.586C981.119 184.586 982.193 185.084 982.936 186.08C983.678 187.07 984.062 188.531 984.088 190.465V193.072ZM982.916 190.523C982.916 188.896 982.649 187.665 982.115 186.832C981.588 185.999 980.787 185.582 979.713 185.582C978.658 185.582 977.864 185.989 977.33 186.803C976.796 187.617 976.523 188.818 976.51 190.406V193.199C976.51 194.82 976.783 196.061 977.33 196.92C977.883 197.779 978.684 198.209 979.732 198.209C980.774 198.209 981.562 197.789 982.096 196.949C982.636 196.109 982.91 194.879 982.916 193.258V190.523ZM995.182 193.072C995.182 195.077 994.814 196.601 994.078 197.643C993.342 198.678 992.258 199.195 990.826 199.195C989.42 199.195 988.342 198.688 987.594 197.672C986.845 196.65 986.461 195.165 986.441 193.219V190.67C986.441 188.671 986.812 187.158 987.555 186.129C988.297 185.1 989.381 184.586 990.807 184.586C992.213 184.586 993.287 185.084 994.029 186.08C994.771 187.07 995.156 188.531 995.182 190.465V193.072ZM994.01 190.523C994.01 188.896 993.743 187.665 993.209 186.832C992.682 185.999 991.881 185.582 990.807 185.582C989.752 185.582 988.958 185.989 988.424 186.803C987.89 187.617 987.617 188.818 987.604 190.406V193.199C987.604 194.82 987.877 196.061 988.424 196.92C988.977 197.779 989.778 198.209 990.826 198.209C991.868 198.209 992.656 197.789 993.189 196.949C993.73 196.109 994.003 194.879 994.01 193.258V190.523ZM997.643 201.656L996.949 201.148C997.542 200.354 997.848 199.531 997.867 198.678V197.164H999.01V198.385C999.01 199.739 998.554 200.829 997.643 201.656ZM1010.1 193.072C1010.1 195.077 1009.74 196.601 1009 197.643C1008.26 198.678 1007.18 199.195 1005.75 199.195C1004.34 199.195 1003.26 198.688 1002.52 197.672C1001.77 196.65 1001.38 195.165 1001.36 193.219V190.67C1001.36 188.671 1001.73 187.158 1002.48 186.129C1003.22 185.1 1004.3 184.586 1005.73 184.586C1007.13 184.586 1008.21 185.084 1008.95 186.08C1009.69 187.07 1010.08 188.531 1010.1 190.465V193.072ZM1008.93 190.523C1008.93 188.896 1008.66 187.665 1008.13 186.832C1007.6 185.999 1006.8 185.582 1005.73 185.582C1004.67 185.582 1003.88 185.989 1003.35 186.803C1002.81 187.617 1002.54 188.818 1002.53 190.406V193.199C1002.53 194.82 1002.8 196.061 1003.35 196.92C1003.9 197.779 1004.7 198.209 1005.75 198.209C1006.79 198.209 1007.58 197.789 1008.11 196.949C1008.65 196.109 1008.93 194.879 1008.93 193.258V190.523ZM1021.2 193.072C1021.2 195.077 1020.83 196.601 1020.09 197.643C1019.36 198.678 1018.27 199.195 1016.84 199.195C1015.44 199.195 1014.36 198.688 1013.61 197.672C1012.86 196.65 1012.48 195.165 1012.46 193.219V190.67C1012.46 188.671 1012.83 187.158 1013.57 186.129C1014.31 185.1 1015.4 184.586 1016.82 184.586C1018.23 184.586 1019.3 185.084 1020.04 186.08C1020.79 187.07 1021.17 188.531 1021.2 190.465V193.072ZM1020.03 190.523C1020.03 188.896 1019.76 187.665 1019.22 186.832C1018.7 185.999 1017.9 185.582 1016.82 185.582C1015.77 185.582 1014.97 185.989 1014.44 186.803C1013.91 187.617 1013.63 188.818 1013.62 190.406V193.199C1013.62 194.82 1013.89 196.061 1014.44 196.92C1014.99 197.779 1015.79 198.209 1016.84 198.209C1017.88 198.209 1018.67 197.789 1019.21 196.949C1019.75 196.109 1020.02 194.879 1020.03 193.258V190.523ZM1032.29 193.072C1032.29 195.077 1031.92 196.601 1031.19 197.643C1030.45 198.678 1029.37 199.195 1027.94 199.195C1026.53 199.195 1025.45 198.688 1024.7 197.672C1023.95 196.65 1023.57 195.165 1023.55 193.219V190.67C1023.55 188.671 1023.92 187.158 1024.66 186.129C1025.41 185.1 1026.49 184.586 1027.92 184.586C1029.32 184.586 1030.4 185.084 1031.14 186.08C1031.88 187.07 1032.26 188.531 1032.29 190.465V193.072ZM1031.12 190.523C1031.12 188.896 1030.85 187.665 1030.32 186.832C1029.79 185.999 1028.99 185.582 1027.92 185.582C1026.86 185.582 1026.07 185.989 1025.53 186.803C1025 187.617 1024.73 188.818 1024.71 190.406V193.199C1024.71 194.82 1024.99 196.061 1025.53 196.92C1026.09 197.779 1026.89 198.209 1027.94 198.209C1028.98 198.209 1029.76 197.789 1030.3 196.949C1030.84 196.109 1031.11 194.879 1031.12 193.258V190.523ZM789.244 222H780.338V221.102L785.211 215.574C786.018 214.643 786.578 213.875 786.891 213.27C787.203 212.664 787.359 212.075 787.359 211.502C787.359 210.604 787.096 209.894 786.568 209.373C786.041 208.846 785.315 208.582 784.391 208.582C783.434 208.582 782.659 208.888 782.066 209.5C781.48 210.112 781.188 210.906 781.188 211.883H780.025C780.025 211.082 780.204 210.353 780.562 209.695C780.927 209.038 781.441 208.523 782.105 208.152C782.776 207.775 783.538 207.586 784.391 207.586C785.693 207.586 786.708 207.928 787.438 208.611C788.173 209.295 788.541 210.226 788.541 211.404C788.541 212.068 788.333 212.794 787.916 213.582C787.506 214.37 786.78 215.353 785.738 216.531L781.773 221.014H789.244V222ZM798.609 217.42H800.826V218.406H798.609V222H797.438V218.406H790.748V217.742L797.33 207.781H798.609V217.42ZM792.184 217.42H797.438V209.295L796.92 210.193L792.184 217.42ZM803.873 213.221C804.257 212.589 804.749 212.101 805.348 211.756C805.947 211.411 806.601 211.238 807.311 211.238C808.443 211.238 809.286 211.557 809.84 212.195C810.393 212.833 810.673 213.79 810.68 215.066V222H809.518V215.057C809.511 214.113 809.309 213.41 808.912 212.947C808.521 212.485 807.893 212.254 807.027 212.254C806.305 212.254 805.663 212.482 805.104 212.938C804.55 213.387 804.14 213.995 803.873 214.764V222H802.711V207H803.873V213.221ZM823.111 220.242L823.189 220.545L823.277 220.242L827.75 207.781H829.068L823.775 222H822.623L817.33 207.781H818.639L823.111 220.242ZM829.801 216.561C829.801 215.545 829.996 214.63 830.387 213.816C830.784 213.003 831.34 212.371 832.057 211.922C832.779 211.466 833.596 211.238 834.508 211.238C835.914 211.238 837.053 211.733 837.926 212.723C838.798 213.706 839.234 215.011 839.234 216.639V216.883C839.234 217.905 839.036 218.826 838.639 219.646C838.248 220.46 837.695 221.089 836.979 221.531C836.262 221.974 835.445 222.195 834.527 222.195C833.128 222.195 831.988 221.704 831.109 220.721C830.237 219.731 829.801 218.423 829.801 216.795V216.561ZM830.973 216.883C830.973 218.146 831.298 219.184 831.949 219.998C832.607 220.805 833.466 221.209 834.527 221.209C835.582 221.209 836.435 220.805 837.086 219.998C837.743 219.184 838.072 218.113 838.072 216.785V216.561C838.072 215.753 837.923 215.014 837.623 214.344C837.324 213.673 836.904 213.156 836.363 212.791C835.823 212.42 835.204 212.234 834.508 212.234C833.466 212.234 832.617 212.645 831.959 213.465C831.301 214.279 830.973 215.346 830.973 216.668V216.883ZM842.965 222H841.793V207H842.965V222ZM845.865 221.297C845.865 221.069 845.937 220.877 846.08 220.721C846.23 220.558 846.435 220.477 846.695 220.477C846.956 220.477 847.161 220.558 847.311 220.721C847.46 220.877 847.535 221.069 847.535 221.297C847.535 221.525 847.46 221.714 847.311 221.863C847.161 222.007 846.956 222.078 846.695 222.078C846.435 222.078 846.23 222.007 846.08 221.863C845.937 221.714 845.865 221.525 845.865 221.297ZM845.885 212.283C845.885 212.055 845.956 211.863 846.1 211.707C846.249 211.544 846.454 211.463 846.715 211.463C846.975 211.463 847.18 211.544 847.33 211.707C847.48 211.863 847.555 212.055 847.555 212.283C847.555 212.511 847.48 212.7 847.33 212.85C847.18 212.993 846.975 213.064 846.715 213.064C846.454 213.064 846.249 212.993 846.1 212.85C845.956 212.7 845.885 212.511 845.885 212.283ZM863.6 216.072C863.6 218.077 863.232 219.601 862.496 220.643C861.76 221.678 860.676 222.195 859.244 222.195C857.838 222.195 856.76 221.688 856.012 220.672C855.263 219.65 854.879 218.165 854.859 216.219V213.67C854.859 211.671 855.23 210.158 855.973 209.129C856.715 208.1 857.799 207.586 859.225 207.586C860.631 207.586 861.705 208.084 862.447 209.08C863.189 210.07 863.574 211.531 863.6 213.465V216.072ZM862.428 213.523C862.428 211.896 862.161 210.665 861.627 209.832C861.1 208.999 860.299 208.582 859.225 208.582C858.17 208.582 857.376 208.989 856.842 209.803C856.308 210.617 856.035 211.818 856.021 213.406V216.199C856.021 217.82 856.295 219.061 856.842 219.92C857.395 220.779 858.196 221.209 859.244 221.209C860.286 221.209 861.074 220.789 861.607 219.949C862.148 219.109 862.421 217.879 862.428 216.258V213.523ZM874.693 216.072C874.693 218.077 874.326 219.601 873.59 220.643C872.854 221.678 871.77 222.195 870.338 222.195C868.932 222.195 867.854 221.688 867.105 220.672C866.357 219.65 865.973 218.165 865.953 216.219V213.67C865.953 211.671 866.324 210.158 867.066 209.129C867.809 208.1 868.893 207.586 870.318 207.586C871.725 207.586 872.799 208.084 873.541 209.08C874.283 210.07 874.667 211.531 874.693 213.465V216.072ZM873.521 213.523C873.521 211.896 873.255 210.665 872.721 209.832C872.193 208.999 871.393 208.582 870.318 208.582C869.264 208.582 868.469 208.989 867.936 209.803C867.402 210.617 867.128 211.818 867.115 213.406V216.199C867.115 217.82 867.389 219.061 867.936 219.92C868.489 220.779 869.29 221.209 870.338 221.209C871.38 221.209 872.167 220.789 872.701 219.949C873.242 219.109 873.515 217.879 873.521 216.258V213.523ZM877.154 224.656L876.461 224.148C877.053 223.354 877.359 222.531 877.379 221.678V220.164H878.521V221.385C878.521 222.739 878.066 223.829 877.154 224.656ZM889.615 216.072C889.615 218.077 889.247 219.601 888.512 220.643C887.776 221.678 886.692 222.195 885.26 222.195C883.854 222.195 882.776 221.688 882.027 220.672C881.279 219.65 880.895 218.165 880.875 216.219V213.67C880.875 211.671 881.246 210.158 881.988 209.129C882.73 208.1 883.814 207.586 885.24 207.586C886.646 207.586 887.721 208.084 888.463 209.08C889.205 210.07 889.589 211.531 889.615 213.465V216.072ZM888.443 213.523C888.443 211.896 888.176 210.665 887.643 209.832C887.115 208.999 886.314 208.582 885.24 208.582C884.186 208.582 883.391 208.989 882.857 209.803C882.324 210.617 882.05 211.818 882.037 213.406V216.199C882.037 217.82 882.311 219.061 882.857 219.92C883.411 220.779 884.212 221.209 885.26 221.209C886.301 221.209 887.089 220.789 887.623 219.949C888.163 219.109 888.437 217.879 888.443 216.258V213.523ZM900.709 216.072C900.709 218.077 900.341 219.601 899.605 220.643C898.87 221.678 897.786 222.195 896.354 222.195C894.947 222.195 893.87 221.688 893.121 220.672C892.372 219.65 891.988 218.165 891.969 216.219V213.67C891.969 211.671 892.34 210.158 893.082 209.129C893.824 208.1 894.908 207.586 896.334 207.586C897.74 207.586 898.814 208.084 899.557 209.08C900.299 210.07 900.683 211.531 900.709 213.465V216.072ZM899.537 213.523C899.537 211.896 899.27 210.665 898.736 209.832C898.209 208.999 897.408 208.582 896.334 208.582C895.279 208.582 894.485 208.989 893.951 209.803C893.417 210.617 893.144 211.818 893.131 213.406V216.199C893.131 217.82 893.404 219.061 893.951 219.92C894.505 220.779 895.305 221.209 896.354 221.209C897.395 221.209 898.183 220.789 898.717 219.949C899.257 219.109 899.531 217.879 899.537 216.258V213.523ZM911.803 216.072C911.803 218.077 911.435 219.601 910.699 220.643C909.964 221.678 908.88 222.195 907.447 222.195C906.041 222.195 904.964 221.688 904.215 220.672C903.466 219.65 903.082 218.165 903.062 216.219V213.67C903.062 211.671 903.434 210.158 904.176 209.129C904.918 208.1 906.002 207.586 907.428 207.586C908.834 207.586 909.908 208.084 910.65 209.08C911.393 210.07 911.777 211.531 911.803 213.465V216.072ZM910.631 213.523C910.631 211.896 910.364 210.665 909.83 209.832C909.303 208.999 908.502 208.582 907.428 208.582C906.373 208.582 905.579 208.989 905.045 209.803C904.511 210.617 904.238 211.818 904.225 213.406V216.199C904.225 217.82 904.498 219.061 905.045 219.92C905.598 220.779 906.399 221.209 907.447 221.209C908.489 221.209 909.277 220.789 909.811 219.949C910.351 219.109 910.624 217.879 910.631 216.258V213.523ZM914.264 224.656L913.57 224.148C914.163 223.354 914.469 222.531 914.488 221.678V220.164H915.631V221.385C915.631 222.739 915.175 223.829 914.264 224.656ZM926.725 216.072C926.725 218.077 926.357 219.601 925.621 220.643C924.885 221.678 923.801 222.195 922.369 222.195C920.963 222.195 919.885 221.688 919.137 220.672C918.388 219.65 918.004 218.165 917.984 216.219V213.67C917.984 211.671 918.355 210.158 919.098 209.129C919.84 208.1 920.924 207.586 922.35 207.586C923.756 207.586 924.83 208.084 925.572 209.08C926.314 210.07 926.699 211.531 926.725 213.465V216.072ZM925.553 213.523C925.553 211.896 925.286 210.665 924.752 209.832C924.225 208.999 923.424 208.582 922.35 208.582C921.295 208.582 920.501 208.989 919.967 209.803C919.433 210.617 919.16 211.818 919.146 213.406V216.199C919.146 217.82 919.42 219.061 919.967 219.92C920.52 220.779 921.321 221.209 922.369 221.209C923.411 221.209 924.199 220.789 924.732 219.949C925.273 219.109 925.546 217.879 925.553 216.258V213.523ZM937.818 216.072C937.818 218.077 937.451 219.601 936.715 220.643C935.979 221.678 934.895 222.195 933.463 222.195C932.057 222.195 930.979 221.688 930.23 220.672C929.482 219.65 929.098 218.165 929.078 216.219V213.67C929.078 211.671 929.449 210.158 930.191 209.129C930.934 208.1 932.018 207.586 933.443 207.586C934.85 207.586 935.924 208.084 936.666 209.08C937.408 210.07 937.792 211.531 937.818 213.465V216.072ZM936.646 213.523C936.646 211.896 936.38 210.665 935.846 209.832C935.318 208.999 934.518 208.582 933.443 208.582C932.389 208.582 931.594 208.989 931.061 209.803C930.527 210.617 930.253 211.818 930.24 213.406V216.199C930.24 217.82 930.514 219.061 931.061 219.92C931.614 220.779 932.415 221.209 933.463 221.209C934.505 221.209 935.292 220.789 935.826 219.949C936.367 219.109 936.64 217.879 936.646 216.258V213.523ZM948.912 216.072C948.912 218.077 948.544 219.601 947.809 220.643C947.073 221.678 945.989 222.195 944.557 222.195C943.15 222.195 942.073 221.688 941.324 220.672C940.576 219.65 940.191 218.165 940.172 216.219V213.67C940.172 211.671 940.543 210.158 941.285 209.129C942.027 208.1 943.111 207.586 944.537 207.586C945.943 207.586 947.018 208.084 947.76 209.08C948.502 210.07 948.886 211.531 948.912 213.465V216.072ZM947.74 213.523C947.74 211.896 947.473 210.665 946.939 209.832C946.412 208.999 945.611 208.582 944.537 208.582C943.482 208.582 942.688 208.989 942.154 209.803C941.62 210.617 941.347 211.818 941.334 213.406V216.199C941.334 217.82 941.607 219.061 942.154 219.92C942.708 220.779 943.508 221.209 944.557 221.209C945.598 221.209 946.386 220.789 946.92 219.949C947.46 219.109 947.734 217.879 947.74 216.258V213.523ZM951.373 224.656L950.68 224.148C951.272 223.354 951.578 222.531 951.598 221.678V220.164H952.74V221.385C952.74 222.739 952.285 223.829 951.373 224.656ZM963.834 216.072C963.834 218.077 963.466 219.601 962.73 220.643C961.995 221.678 960.911 222.195 959.479 222.195C958.072 222.195 956.995 221.688 956.246 220.672C955.497 219.65 955.113 218.165 955.094 216.219V213.67C955.094 211.671 955.465 210.158 956.207 209.129C956.949 208.1 958.033 207.586 959.459 207.586C960.865 207.586 961.939 208.084 962.682 209.08C963.424 210.07 963.808 211.531 963.834 213.465V216.072ZM962.662 213.523C962.662 211.896 962.395 210.665 961.861 209.832C961.334 208.999 960.533 208.582 959.459 208.582C958.404 208.582 957.61 208.989 957.076 209.803C956.542 210.617 956.269 211.818 956.256 213.406V216.199C956.256 217.82 956.529 219.061 957.076 219.92C957.63 220.779 958.43 221.209 959.479 221.209C960.52 221.209 961.308 220.789 961.842 219.949C962.382 219.109 962.656 217.879 962.662 216.258V213.523ZM974.928 216.072C974.928 218.077 974.56 219.601 973.824 220.643C973.089 221.678 972.005 222.195 970.572 222.195C969.166 222.195 968.089 221.688 967.34 220.672C966.591 219.65 966.207 218.165 966.188 216.219V213.67C966.188 211.671 966.559 210.158 967.301 209.129C968.043 208.1 969.127 207.586 970.553 207.586C971.959 207.586 973.033 208.084 973.775 209.08C974.518 210.07 974.902 211.531 974.928 213.465V216.072ZM973.756 213.523C973.756 211.896 973.489 210.665 972.955 209.832C972.428 208.999 971.627 208.582 970.553 208.582C969.498 208.582 968.704 208.989 968.17 209.803C967.636 210.617 967.363 211.818 967.35 213.406V216.199C967.35 217.82 967.623 219.061 968.17 219.92C968.723 220.779 969.524 221.209 970.572 221.209C971.614 221.209 972.402 220.789 972.936 219.949C973.476 219.109 973.749 217.879 973.756 216.258V213.523ZM986.021 216.072C986.021 218.077 985.654 219.601 984.918 220.643C984.182 221.678 983.098 222.195 981.666 222.195C980.26 222.195 979.182 221.688 978.434 220.672C977.685 219.65 977.301 218.165 977.281 216.219V213.67C977.281 211.671 977.652 210.158 978.395 209.129C979.137 208.1 980.221 207.586 981.646 207.586C983.053 207.586 984.127 208.084 984.869 209.08C985.611 210.07 985.995 211.531 986.021 213.465V216.072ZM984.85 213.523C984.85 211.896 984.583 210.665 984.049 209.832C983.521 208.999 982.721 208.582 981.646 208.582C980.592 208.582 979.798 208.989 979.264 209.803C978.73 210.617 978.456 211.818 978.443 213.406V216.199C978.443 217.82 978.717 219.061 979.264 219.92C979.817 220.779 980.618 221.209 981.666 221.209C982.708 221.209 983.495 220.789 984.029 219.949C984.57 219.109 984.843 217.879 984.85 216.258V213.523Z" fill="#18181A"/>
<rect x="525" width="65" height="33" fill="#565555"/>
<path d="M553.945 24H551.123V13.1211L547.754 14.166V11.8711L553.643 9.76172H553.945V24ZM558.252 18.6387C558.252 16.9915 558.62 15.6797 559.355 14.7031C560.098 13.7266 561.11 13.2383 562.393 13.2383C563.421 13.2383 564.271 13.6224 564.941 14.3906V9H567.773V24H565.225L565.088 22.877C564.385 23.7559 563.48 24.1953 562.373 24.1953C561.13 24.1953 560.13 23.707 559.375 22.7305C558.626 21.7474 558.252 20.3835 558.252 18.6387ZM561.074 18.8438C561.074 19.8333 561.247 20.5918 561.592 21.1191C561.937 21.6465 562.438 21.9102 563.096 21.9102C563.968 21.9102 564.583 21.5423 564.941 20.8066V16.6367C564.59 15.901 563.981 15.5332 563.115 15.5332C561.755 15.5332 561.074 16.6367 561.074 18.8438Z" fill="#D2F400"/>
<path d="M621.758 11.3633L616.26 24H613.281L618.789 12.0664H611.719V9.78125H621.758V11.3633ZM623.252 18.6387C623.252 16.9915 623.62 15.6797 624.355 14.7031C625.098 13.7266 626.11 13.2383 627.393 13.2383C628.421 13.2383 629.271 13.6224 629.941 14.3906V9H632.773V24H630.225L630.088 22.877C629.385 23.7559 628.48 24.1953 627.373 24.1953C626.13 24.1953 625.13 23.707 624.375 22.7305C623.626 21.7474 623.252 20.3835 623.252 18.6387ZM626.074 18.8438C626.074 19.8333 626.247 20.5918 626.592 21.1191C626.937 21.6465 627.438 21.9102 628.096 21.9102C628.968 21.9102 629.583 21.5423 629.941 20.8066V16.6367C629.59 15.901 628.981 15.5332 628.115 15.5332C626.755 15.5332 626.074 16.6367 626.074 18.8438Z" fill="#565555"/>
<path d="M680.918 24H678.096V13.1211L674.727 14.166V11.8711L680.615 9.76172H680.918V24ZM688.311 13.4336L688.398 14.6152C689.147 13.6973 690.16 13.2383 691.436 13.2383C692.796 13.2383 693.73 13.7754 694.238 14.8496C694.98 13.7754 696.038 13.2383 697.412 13.2383C698.558 13.2383 699.411 13.5736 699.971 14.2441C700.531 14.9082 700.811 15.9108 700.811 17.252V24H697.979V17.2617C697.979 16.6628 697.861 16.2266 697.627 15.9531C697.393 15.6732 696.979 15.5332 696.387 15.5332C695.54 15.5332 694.954 15.9368 694.629 16.7441L694.639 24H691.816V17.2715C691.816 16.6595 691.696 16.2168 691.455 15.9434C691.214 15.6699 690.804 15.5332 690.225 15.5332C689.424 15.5332 688.844 15.8652 688.486 16.5293V24H685.664V13.4336H688.311Z" fill="#565555"/>
<path d="M741.934 15.6406H743.438C744.154 15.6406 744.684 15.4616 745.029 15.1035C745.374 14.7454 745.547 14.2702 745.547 13.6777C745.547 13.1048 745.374 12.6589 745.029 12.3398C744.691 12.0208 744.222 11.8613 743.623 11.8613C743.083 11.8613 742.63 12.0111 742.266 12.3105C741.901 12.6035 741.719 12.9876 741.719 13.4629H738.896C738.896 12.7207 739.095 12.0566 739.492 11.4707C739.896 10.8783 740.456 10.416 741.172 10.084C741.895 9.75195 742.689 9.58594 743.555 9.58594C745.059 9.58594 746.237 9.94727 747.09 10.6699C747.943 11.3861 748.369 12.3757 748.369 13.6387C748.369 14.2897 748.171 14.8887 747.773 15.4355C747.376 15.9824 746.855 16.4023 746.211 16.6953C747.012 16.9818 747.607 17.4115 747.998 17.9844C748.395 18.5573 748.594 19.2344 748.594 20.0156C748.594 21.2786 748.132 22.291 747.207 23.0527C746.289 23.8145 745.072 24.1953 743.555 24.1953C742.135 24.1953 740.973 23.821 740.068 23.0723C739.17 22.3236 738.721 21.334 738.721 20.1035H741.543C741.543 20.6374 741.742 21.0736 742.139 21.4121C742.542 21.7507 743.037 21.9199 743.623 21.9199C744.294 21.9199 744.818 21.7441 745.195 21.3926C745.579 21.0345 745.771 20.5625 745.771 19.9766C745.771 18.5573 744.99 17.8477 743.428 17.8477H741.934V15.6406ZM753.311 13.4336L753.398 14.6152C754.147 13.6973 755.16 13.2383 756.436 13.2383C757.796 13.2383 758.73 13.7754 759.238 14.8496C759.98 13.7754 761.038 13.2383 762.412 13.2383C763.558 13.2383 764.411 13.5736 764.971 14.2441C765.531 14.9082 765.811 15.9108 765.811 17.252V24H762.979V17.2617C762.979 16.6628 762.861 16.2266 762.627 15.9531C762.393 15.6732 761.979 15.5332 761.387 15.5332C760.54 15.5332 759.954 15.9368 759.629 16.7441L759.639 24H756.816V17.2715C756.816 16.6595 756.696 16.2168 756.455 15.9434C756.214 15.6699 755.804 15.5332 755.225 15.5332C754.424 15.5332 753.844 15.8652 753.486 16.5293V24H750.664V13.4336H753.311Z" fill="#565555"/>
<path d="M814.561 24H811.738V13.1211L808.369 14.166V11.8711L814.258 9.76172H814.561V24ZM823.252 20.0059L825.205 13.4336H828.232L823.984 25.6406L823.75 26.1973C823.118 27.5775 822.077 28.2676 820.625 28.2676C820.215 28.2676 819.798 28.2057 819.375 28.082V25.9434L819.805 25.9531C820.339 25.9531 820.736 25.8717 820.996 25.709C821.263 25.5462 821.471 25.276 821.621 24.8984L821.953 24.0293L818.252 13.4336H821.289L823.252 20.0059Z" fill="#565555"/>
<path d="M874.229 21.0703H869.092L868.115 24H865L870.293 9.78125H873.008L878.33 24H875.215L874.229 21.0703ZM869.883 18.6973H873.438L871.65 13.375L869.883 18.6973ZM882.588 21.6465H888.809V24H879.658V9.78125H882.588V21.6465ZM893.428 21.6465H899.648V24H890.498V9.78125H893.428V21.6465Z" fill="#565555"/>
<line x1="1062" y1="241" x2="1062" y2="581" stroke="white" stroke-width="2"/>
<path d="M1440 196H1430.86L1399.51 208.295L1377.96 224.16L1332.24 208.295L1294.37 229.713L1268.24 259.063L1219.27 283.257L1204.24 270.565L1180.08 287.62L1157.88 310.624L1133.06 299.915L1116.73 295.553L1097.8 301.899L1082.78 307.055L1060.57 325.299L1050.12 314.987L1035.76 312.607L1024 305.072L1009.63 299.915L996.571 307.055L973.714 314.987L961.959 303.485L949.551 310.624L933.878 314.987L925.388 307.055L911.02 299.915L880.327 314.987L857.469 307.055L850.939 353.856L833.306 314.987L783.02 303.485L745.143 307.055L722.939 287.62L714.449 263.426L696.816 244.388L677.878 236.456H645.878L621.714 251.131L610.612 229.713H583.837L542.694 259.063L505.469 270.565L482.612 259.063L469.551 229.713L454.531 303.485L441.469 322.92L409.469 338.785L385.306 328.472L359.184 338.785L338.286 314.987L317.388 270.565L299.102 251.131L256 294.363L222.041 277.308L201.143 294.363L188.082 270.565L160 322.92L137.796 314.987L105.796 386.776L80.9796 349.097L52.898 357.029L17.6327 322.92L8.16327 330.852H0" stroke="#D2F400" stroke-width="5"/>
<rect x="1062.14" y="310" width="20" height="20" transform="rotate(45 1062.14 310)" fill="white"/>
</svg>
