<svg width="570" height="808" viewBox="0 0 570 808" fill="none" xmlns="http://www.w3.org/2000/svg">
<rect x="165" width="40" height="20" fill="#565555"/>
<path d="M182.334 15H180.217V6.84082L177.69 7.62451V5.90332L182.107 4.32129H182.334V15ZM185.564 10.979C185.564 9.74365 185.84 8.75977 186.392 8.02734C186.948 7.29492 187.708 6.92871 188.669 6.92871C189.441 6.92871 190.078 7.2168 190.581 7.79297V3.75H192.705V15H190.793L190.691 14.1577C190.164 14.8169 189.485 15.1465 188.655 15.1465C187.722 15.1465 186.973 14.7803 186.406 14.0479C185.845 13.3105 185.564 12.2876 185.564 10.979ZM187.681 11.1328C187.681 11.875 187.81 12.4438 188.069 12.8394C188.328 13.2349 188.704 13.4326 189.197 13.4326C189.851 13.4326 190.312 13.1567 190.581 12.605V9.47754C190.317 8.92578 189.861 8.6499 189.211 8.6499C188.191 8.6499 187.681 9.47754 187.681 11.1328Z" fill="#D2F400"/>
<path d="M224.443 5.52246L220.32 15H218.086L222.217 6.0498H216.914V4.33594H224.443V5.52246ZM225.564 10.979C225.564 9.74365 225.84 8.75977 226.392 8.02734C226.948 7.29492 227.708 6.92871 228.669 6.92871C229.441 6.92871 230.078 7.2168 230.581 7.79297V3.75H232.705V15H230.793L230.691 14.1577C230.164 14.8169 229.485 15.1465 228.655 15.1465C227.722 15.1465 226.973 14.7803 226.406 14.0479C225.845 13.3105 225.564 12.2876 225.564 10.979ZM227.681 11.1328C227.681 11.875 227.81 12.4438 228.069 12.8394C228.328 13.2349 228.704 13.4326 229.197 13.4326C229.851 13.4326 230.312 13.1567 230.581 12.605V9.47754C230.317 8.92578 229.861 8.6499 229.211 8.6499C228.191 8.6499 227.681 9.47754 227.681 11.1328Z" fill="#565555"/>
<path d="M260.063 15H257.947V6.84082L255.42 7.62451V5.90332L259.836 4.32129H260.063V15ZM265.608 7.0752L265.674 7.96143C266.235 7.27295 266.995 6.92871 267.952 6.92871C268.972 6.92871 269.673 7.33154 270.054 8.13721C270.61 7.33154 271.404 6.92871 272.434 6.92871C273.293 6.92871 273.933 7.18018 274.353 7.68311C274.773 8.18115 274.983 8.93311 274.983 9.93896V15H272.859V9.94629C272.859 9.49707 272.771 9.16992 272.595 8.96484C272.419 8.75488 272.109 8.6499 271.665 8.6499C271.03 8.6499 270.591 8.95264 270.347 9.55811L270.354 15H268.237V9.95361C268.237 9.49463 268.147 9.1626 267.966 8.95752C267.786 8.75244 267.478 8.6499 267.043 8.6499C266.443 8.6499 266.008 8.89893 265.74 9.39697V15H263.623V7.0752H265.608Z" fill="#565555"/>
<path d="M297.075 8.73047H298.203C298.74 8.73047 299.138 8.59619 299.397 8.32764C299.656 8.05908 299.785 7.70264 299.785 7.2583C299.785 6.82861 299.656 6.49414 299.397 6.25488C299.143 6.01562 298.792 5.896 298.342 5.896C297.937 5.896 297.598 6.0083 297.324 6.23291C297.051 6.45264 296.914 6.74072 296.914 7.09717H294.797C294.797 6.54053 294.946 6.04248 295.244 5.60303C295.547 5.15869 295.967 4.81201 296.504 4.56299C297.046 4.31396 297.642 4.18945 298.291 4.18945C299.419 4.18945 300.303 4.46045 300.942 5.00244C301.582 5.53955 301.902 6.28174 301.902 7.229C301.902 7.71729 301.753 8.1665 301.455 8.57666C301.157 8.98682 300.767 9.30176 300.283 9.52148C300.884 9.73633 301.331 10.0586 301.624 10.4883C301.921 10.918 302.07 11.4258 302.07 12.0117C302.07 12.959 301.724 13.7183 301.03 14.2896C300.342 14.8608 299.429 15.1465 298.291 15.1465C297.227 15.1465 296.355 14.8657 295.676 14.3042C295.002 13.7427 294.666 13.0005 294.666 12.0776H296.782C296.782 12.478 296.931 12.8052 297.229 13.0591C297.532 13.313 297.903 13.4399 298.342 13.4399C298.845 13.4399 299.238 13.3081 299.521 13.0444C299.81 12.7759 299.954 12.4219 299.954 11.9824C299.954 10.918 299.368 10.3857 298.196 10.3857H297.075V8.73047ZM305.608 7.0752L305.674 7.96143C306.235 7.27295 306.995 6.92871 307.952 6.92871C308.972 6.92871 309.673 7.33154 310.054 8.13721C310.61 7.33154 311.404 6.92871 312.434 6.92871C313.293 6.92871 313.933 7.18018 314.353 7.68311C314.773 8.18115 314.983 8.93311 314.983 9.93896V15H312.859V9.94629C312.859 9.49707 312.771 9.16992 312.595 8.96484C312.419 8.75488 312.109 8.6499 311.665 8.6499C311.03 8.6499 310.591 8.95264 310.347 9.55811L310.354 15H308.237V9.95361C308.237 9.49463 308.147 9.1626 307.966 8.95752C307.786 8.75244 307.478 8.6499 307.043 8.6499C306.443 8.6499 306.008 8.89893 305.74 9.39697V15H303.623V7.0752H305.608Z" fill="#565555"/>
<path d="M342.795 15H340.679V6.84082L338.152 7.62451V5.90332L342.568 4.32129H342.795V15ZM349.314 12.0044L350.779 7.0752H353.049L349.863 16.2305L349.688 16.6479C349.214 17.6831 348.433 18.2007 347.344 18.2007C347.036 18.2007 346.724 18.1543 346.406 18.0615V16.4575L346.729 16.4648C347.129 16.4648 347.427 16.4038 347.622 16.2817C347.822 16.1597 347.979 15.957 348.091 15.6738L348.34 15.022L345.564 7.0752H347.842L349.314 12.0044Z" fill="#565555"/>
<path d="M378.796 12.8027H374.944L374.211 15H371.875L375.845 4.33594H377.881L381.873 15H379.536L378.796 12.8027ZM375.537 11.0229H378.203L376.863 7.03125L375.537 11.0229ZM385.066 13.2349H389.731V15H382.869V4.33594H385.066V13.2349ZM393.196 13.2349H397.861V15H390.999V4.33594H393.196V13.2349Z" fill="#565555"/>
<rect x="1" y="40" width="568" height="40" fill="white"/>
<path d="M217.895 46.3438H215.242V49H214.762V43.3125H218.285V43.7227H215.242V45.9336H217.895V46.3438ZM221.004 45.1719C220.905 45.1536 220.799 45.1445 220.688 45.1445C220.396 45.1445 220.148 45.2266 219.945 45.3906C219.745 45.5521 219.602 45.7878 219.516 46.0977V49H219.051V44.7734H219.508L219.516 45.4453C219.763 44.9453 220.16 44.6953 220.707 44.6953C220.837 44.6953 220.94 44.7122 221.016 44.7461L221.004 45.1719ZM222.27 49H221.801V44.7734H222.27V49ZM221.719 43.5508C221.719 43.4622 221.747 43.388 221.805 43.3281C221.862 43.2656 221.94 43.2344 222.039 43.2344C222.138 43.2344 222.216 43.2656 222.273 43.3281C222.333 43.388 222.363 43.4622 222.363 43.5508C222.363 43.6393 222.333 43.7135 222.273 43.7734C222.216 43.8333 222.138 43.8633 222.039 43.8633C221.94 43.8633 221.862 43.8333 221.805 43.7734C221.747 43.7135 221.719 43.6393 221.719 43.5508ZM223.355 46.8477C223.355 46.1914 223.501 45.6693 223.793 45.2812C224.087 44.8906 224.486 44.6953 224.988 44.6953C225.559 44.6953 225.993 44.9206 226.293 45.3711V43H226.758V49H226.32L226.301 48.4375C226.001 48.8646 225.561 49.0781 224.98 49.0781C224.493 49.0781 224.1 48.8828 223.801 48.4922C223.504 48.099 223.355 47.569 223.355 46.9023V46.8477ZM223.828 46.9297C223.828 47.4688 223.936 47.8945 224.152 48.207C224.368 48.5169 224.673 48.6719 225.066 48.6719C225.642 48.6719 226.051 48.418 226.293 47.9102V45.9258C226.051 45.3763 225.645 45.1016 225.074 45.1016C224.681 45.1016 224.375 45.2565 224.156 45.5664C223.938 45.8737 223.828 46.3281 223.828 46.9297ZM230.656 49C230.609 48.8672 230.579 48.6706 230.566 48.4102C230.402 48.6237 230.193 48.7891 229.938 48.9062C229.685 49.0208 229.417 49.0781 229.133 49.0781C228.727 49.0781 228.397 48.9648 228.145 48.7383C227.895 48.5117 227.77 48.2253 227.77 47.8789C227.77 47.4674 227.94 47.1419 228.281 46.9023C228.625 46.6628 229.103 46.543 229.715 46.543H230.562V46.0625C230.562 45.7604 230.469 45.5234 230.281 45.3516C230.096 45.1771 229.826 45.0898 229.469 45.0898C229.143 45.0898 228.874 45.1732 228.66 45.3398C228.447 45.5065 228.34 45.707 228.34 45.9414L227.871 45.9375C227.871 45.6016 228.027 45.3112 228.34 45.0664C228.652 44.819 229.036 44.6953 229.492 44.6953C229.964 44.6953 230.335 44.8138 230.605 45.0508C230.879 45.2852 231.02 45.6133 231.027 46.0352V48.0352C231.027 48.444 231.07 48.75 231.156 48.9531V49H230.656ZM229.188 48.6641C229.5 48.6641 229.779 48.5885 230.023 48.4375C230.271 48.2865 230.451 48.0846 230.562 47.832V46.9023H229.727C229.26 46.9076 228.896 46.9935 228.633 47.1602C228.37 47.3242 228.238 47.5508 228.238 47.8398C228.238 48.0768 228.326 48.2734 228.5 48.4297C228.677 48.5859 228.906 48.6641 229.188 48.6641ZM233.555 48.3281L234.789 44.7734H235.293L233.488 49.7188L233.395 49.9375C233.163 50.4505 232.805 50.707 232.32 50.707C232.208 50.707 232.089 50.6888 231.961 50.6523L231.957 50.2656L232.199 50.2891C232.428 50.2891 232.613 50.2318 232.754 50.1172C232.897 50.0052 233.018 49.8112 233.117 49.5352L233.324 48.9648L231.73 44.7734H232.242L233.555 48.3281ZM235.5 50.0625L235.223 49.8594C235.46 49.5417 235.582 49.2122 235.59 48.8711V48.2656H236.047V48.7539C236.047 49.2956 235.865 49.7318 235.5 50.0625ZM242.562 49H239V48.6406L240.949 46.4297C241.272 46.0573 241.496 45.75 241.621 45.5078C241.746 45.2656 241.809 45.0299 241.809 44.8008C241.809 44.4414 241.703 44.1576 241.492 43.9492C241.281 43.7383 240.991 43.6328 240.621 43.6328C240.238 43.6328 239.928 43.7552 239.691 44C239.457 44.2448 239.34 44.5625 239.34 44.9531H238.875C238.875 44.6328 238.947 44.3411 239.09 44.0781C239.236 43.8151 239.441 43.6094 239.707 43.4609C239.975 43.3099 240.28 43.2344 240.621 43.2344C241.142 43.2344 241.548 43.3711 241.84 43.6445C242.134 43.918 242.281 44.2904 242.281 44.7617C242.281 45.0273 242.198 45.3177 242.031 45.6328C241.867 45.9479 241.577 46.3411 241.16 46.8125L239.574 48.6055H242.562V49ZM245.613 49H245.145V43.875L243.598 44.4492V44.0117L245.535 43.293H245.613V49ZM250.004 49V43.3125H251.594C252.06 43.3125 252.478 43.4193 252.848 43.6328C253.217 43.8438 253.505 44.1471 253.711 44.543C253.919 44.9388 254.023 45.3893 254.023 45.8945V46.418C254.023 46.9258 253.921 47.3763 253.715 47.7695C253.509 48.1628 253.219 48.4661 252.844 48.6797C252.471 48.8932 252.043 49 251.559 49H250.004ZM250.484 43.7227V48.5938H251.562C252.161 48.5938 252.642 48.3958 253.004 48C253.366 47.6016 253.547 47.0638 253.547 46.3867V45.8867C253.547 45.2331 253.368 44.7096 253.012 44.3164C252.655 43.9232 252.185 43.7253 251.602 43.7227H250.484ZM256.773 49.0781C256.414 49.0781 256.089 48.9896 255.797 48.8125C255.508 48.6354 255.283 48.3893 255.121 48.0742C254.96 47.7565 254.879 47.401 254.879 47.0078V46.8398C254.879 46.4336 254.957 46.0677 255.113 45.7422C255.272 45.4167 255.492 45.1615 255.773 44.9766C256.055 44.7891 256.359 44.6953 256.688 44.6953C257.201 44.6953 257.607 44.8711 257.906 45.2227C258.208 45.5716 258.359 46.0495 258.359 46.6562V46.918H255.344V47.0078C255.344 47.487 255.48 47.8867 255.754 48.207C256.03 48.5247 256.376 48.6836 256.793 48.6836C257.043 48.6836 257.263 48.638 257.453 48.5469C257.646 48.4557 257.82 48.3099 257.977 48.1094L258.27 48.332C257.926 48.8294 257.427 49.0781 256.773 49.0781ZM256.688 45.0938C256.336 45.0938 256.039 45.2227 255.797 45.4805C255.557 45.7383 255.411 46.0846 255.359 46.5195H257.895V46.4688C257.882 46.0625 257.766 45.7318 257.547 45.4766C257.328 45.2214 257.042 45.0938 256.688 45.0938ZM260.832 48.6836C261.158 48.6836 261.43 48.5924 261.648 48.4102C261.87 48.2253 261.99 47.987 262.008 47.6953H262.457C262.444 47.9531 262.363 48.1888 262.215 48.4023C262.066 48.6133 261.868 48.7786 261.621 48.8984C261.376 49.0182 261.113 49.0781 260.832 49.0781C260.277 49.0781 259.837 48.8854 259.512 48.5C259.189 48.1146 259.027 47.5964 259.027 46.9453V46.8047C259.027 46.388 259.1 46.0195 259.246 45.6992C259.392 45.3789 259.6 45.1315 259.871 44.957C260.145 44.7826 260.464 44.6953 260.828 44.6953C261.292 44.6953 261.673 44.8333 261.973 45.1094C262.275 45.3854 262.436 45.7487 262.457 46.1992H262.008C261.987 45.8685 261.867 45.6016 261.648 45.3984C261.432 45.1953 261.159 45.0938 260.828 45.0938C260.406 45.0938 260.078 45.2461 259.844 45.5508C259.612 45.8555 259.496 46.2826 259.496 46.832V46.9688C259.496 47.5078 259.612 47.9284 259.844 48.2305C260.078 48.5326 260.408 48.6836 260.832 48.6836ZM268.828 49H265.266V48.6406L267.215 46.4297C267.538 46.0573 267.762 45.75 267.887 45.5078C268.012 45.2656 268.074 45.0299 268.074 44.8008C268.074 44.4414 267.969 44.1576 267.758 43.9492C267.547 43.7383 267.257 43.6328 266.887 43.6328C266.504 43.6328 266.194 43.7552 265.957 44C265.723 44.2448 265.605 44.5625 265.605 44.9531H265.141C265.141 44.6328 265.212 44.3411 265.355 44.0781C265.501 43.8151 265.707 43.6094 265.973 43.4609C266.241 43.3099 266.546 43.2344 266.887 43.2344C267.408 43.2344 267.814 43.3711 268.105 43.6445C268.4 43.918 268.547 44.2904 268.547 44.7617C268.547 45.0273 268.464 45.3177 268.297 45.6328C268.133 45.9479 267.842 46.3411 267.426 46.8125L265.84 48.6055H268.828V49ZM273.133 46.6289C273.133 47.431 272.986 48.0404 272.691 48.457C272.397 48.8711 271.964 49.0781 271.391 49.0781C270.828 49.0781 270.397 48.875 270.098 48.4688C269.798 48.0599 269.645 47.4661 269.637 46.6875V45.668C269.637 44.8685 269.785 44.263 270.082 43.8516C270.379 43.4401 270.812 43.2344 271.383 43.2344C271.945 43.2344 272.375 43.4336 272.672 43.832C272.969 44.2279 273.122 44.8125 273.133 45.5859V46.6289ZM272.664 45.6094C272.664 44.9583 272.557 44.4661 272.344 44.1328C272.133 43.7995 271.812 43.6328 271.383 43.6328C270.961 43.6328 270.643 43.7956 270.43 44.1211C270.216 44.4466 270.107 44.9271 270.102 45.5625V46.6797C270.102 47.3281 270.211 47.8242 270.43 48.168C270.651 48.5117 270.971 48.6836 271.391 48.6836C271.807 48.6836 272.122 48.5156 272.336 48.1797C272.552 47.8438 272.661 47.3516 272.664 46.7031V45.6094ZM276.316 49H275.848V43.875L274.301 44.4492V44.0117L276.238 43.293H276.316V49ZM281.93 44.7773C281.93 45.0716 281.844 45.3359 281.672 45.5703C281.5 45.8021 281.273 45.9727 280.992 46.082C281.32 46.194 281.583 46.375 281.781 46.625C281.979 46.875 282.078 47.1641 282.078 47.4922C282.078 47.9792 281.913 48.3659 281.582 48.6523C281.251 48.9362 280.814 49.0781 280.27 49.0781C279.72 49.0781 279.28 48.9362 278.949 48.6523C278.621 48.3685 278.457 47.9818 278.457 47.4922C278.457 47.1693 278.552 46.8815 278.742 46.6289C278.932 46.3763 279.193 46.194 279.523 46.082C279.242 45.9727 279.018 45.8021 278.852 45.5703C278.685 45.3359 278.602 45.0716 278.602 44.7773C278.602 44.306 278.753 43.931 279.055 43.6523C279.359 43.3737 279.762 43.2344 280.262 43.2344C280.762 43.2344 281.164 43.375 281.469 43.6562C281.776 43.9375 281.93 44.3112 281.93 44.7773ZM281.609 47.4961C281.609 47.1419 281.483 46.8516 281.23 46.625C280.978 46.3958 280.655 46.2812 280.262 46.2812C279.868 46.2812 279.547 46.3932 279.297 46.6172C279.047 46.8411 278.922 47.1341 278.922 47.4961C278.922 47.8581 279.043 48.1471 279.285 48.3633C279.527 48.5768 279.855 48.6836 280.27 48.6836C280.673 48.6836 280.997 48.5768 281.242 48.3633C281.487 48.1497 281.609 47.8607 281.609 47.4961ZM281.461 44.7734C281.461 44.4479 281.348 44.1771 281.121 43.9609C280.897 43.7422 280.611 43.6328 280.262 43.6328C279.908 43.6328 279.62 43.7383 279.398 43.9492C279.18 44.1576 279.07 44.4323 279.07 44.7734C279.07 45.1068 279.18 45.375 279.398 45.5781C279.62 45.7812 279.909 45.8828 280.266 45.8828C280.617 45.8828 280.904 45.7812 281.125 45.5781C281.349 45.3724 281.461 45.1042 281.461 44.7734ZM282.992 50.0625L282.715 49.8594C282.952 49.5417 283.074 49.2122 283.082 48.8711V48.2656H283.539V48.7539C283.539 49.2956 283.357 49.7318 282.992 50.0625ZM288.668 49H288.199V43.875L286.652 44.4492V44.0117L288.59 43.293H288.668V49ZM294.281 44.7773C294.281 45.0716 294.195 45.3359 294.023 45.5703C293.852 45.8021 293.625 45.9727 293.344 46.082C293.672 46.194 293.935 46.375 294.133 46.625C294.331 46.875 294.43 47.1641 294.43 47.4922C294.43 47.9792 294.264 48.3659 293.934 48.6523C293.603 48.9362 293.165 49.0781 292.621 49.0781C292.072 49.0781 291.632 48.9362 291.301 48.6523C290.973 48.3685 290.809 47.9818 290.809 47.4922C290.809 47.1693 290.904 46.8815 291.094 46.6289C291.284 46.3763 291.544 46.194 291.875 46.082C291.594 45.9727 291.37 45.8021 291.203 45.5703C291.036 45.3359 290.953 45.0716 290.953 44.7773C290.953 44.306 291.104 43.931 291.406 43.6523C291.711 43.3737 292.113 43.2344 292.613 43.2344C293.113 43.2344 293.516 43.375 293.82 43.6562C294.128 43.9375 294.281 44.3112 294.281 44.7773ZM293.961 47.4961C293.961 47.1419 293.835 46.8516 293.582 46.625C293.329 46.3958 293.007 46.2812 292.613 46.2812C292.22 46.2812 291.898 46.3932 291.648 46.6172C291.398 46.8411 291.273 47.1341 291.273 47.4961C291.273 47.8581 291.395 48.1471 291.637 48.3633C291.879 48.5768 292.207 48.6836 292.621 48.6836C293.025 48.6836 293.349 48.5768 293.594 48.3633C293.839 48.1497 293.961 47.8607 293.961 47.4961ZM293.812 44.7734C293.812 44.4479 293.699 44.1771 293.473 43.9609C293.249 43.7422 292.962 43.6328 292.613 43.6328C292.259 43.6328 291.971 43.7383 291.75 43.9492C291.531 44.1576 291.422 44.4323 291.422 44.7734C291.422 45.1068 291.531 45.375 291.75 45.5781C291.971 45.7812 292.26 45.8828 292.617 45.8828C292.969 45.8828 293.255 45.7812 293.477 45.5781C293.701 45.3724 293.812 45.1042 293.812 44.7734ZM295.328 48.7188C295.328 48.6276 295.357 48.5508 295.414 48.4883C295.474 48.4232 295.556 48.3906 295.66 48.3906C295.764 48.3906 295.846 48.4232 295.906 48.4883C295.966 48.5508 295.996 48.6276 295.996 48.7188C295.996 48.8099 295.966 48.8854 295.p    p                    Ðf            Àf    xp            0p     @      0p            53C295.357 48.8854 295.328 48.8099 295.328 48.7188ZM295.336 45.1133C295.336 45.0221 295.365 44.9453 295.422 44.8828C295.482 44.8177 295.564 44.7852 295.668 44.7852C295.772 44.7852 295.854 44.8177 295.914 44.8828C295.974 44.9453 296.004 45.0221 296.004 45.1133C296.004 45.2044 295.974 45.2799 295.914 45.3398C295.854 45.3971 295.772 45.4258 295.668 45.4258C295.564 45.4258 295.482 45.3971 295.422 45.3398C295.365 45.2799 295.336 45.2044 295.336 45.1133ZM300.477 46.6289C300.477 47.431 300.329 48.0404 300.035 48.457C299.741 48.8711 299.307 49.0781 298.734 49.0781C298.172 49.0781 297.741 48.875 297.441 48.4688C297.142 48.0599 296.988 47.4661 296.98 46.6875V45.668C296.98 44.8685 297.129 44.263 297.426 43.8516C297.723 43.4401 298.156 43.2344 298.727 43.2344C299.289 43.2344 299.719 43.4336 300.016 43.832C300.312 44.2279 300.466 44.8125 300.477 45.5859V46.6289ZM300.008 45.6094C300.008 44.9583 299.901 44.4661 299.688 44.1328C299.477 43.7995 299.156 43.6328 298.727 43.6328C298.305 43.6328 297.987 43.7956 297.773 44.1211C297.56 44.4466 297.451 44.9271 297.445 45.5625V46.6797C297.445 47.3281 297.555 47.8242 297.773 48.168C297.995 48.5117 298.315 48.6836 298.734 48.6836C299.151 48.6836 299.466 48.5156 299.68 48.1797C299.896 47.8438 300.005 47.3516 300.008 46.7031V45.6094ZM304.914 46.6289C304.914 47.431 304.767 48.0404 304.473 48.457C304.178 48.8711 303.745 49.0781 303.172 49.0781C302.609 49.0781 302.178 48.875 301.879 48.4688C301.579 48.0599 301.426 47.4661 301.418 46.6875V45.668C301.418 44.8685 301.566 44.263 301.863 43.8516C302.16 43.4401 302.594 43.2344 303.164 43.2344C303.727 43.2344 304.156 43.4336 304.453 43.832C304.75 44.2279 304.904 44.8125 304.914 45.5859V46.6289ZM304.445 45.6094C304.445 44.9583 304.339 44.4661 304.125 44.1328C303.914 43.7995 303.594 43.6328 303.164 43.6328C302.742 43.6328 302.424 43.7956 302.211 44.1211C301.997 44.4466 301.888 44.9271 301.883 45.5625V46.6797C301.883 47.3281 301.992 47.8242 302.211 48.168C302.432 48.5117 302.753 48.6836 303.172 48.6836C303.589 48.6836 303.904 48.5156 304.117 48.1797C304.333 47.8438 304.443 47.3516 304.445 46.7031V45.6094ZM305.883 48.7188C305.883 48.6276 305.911 48.5508 305.969 48.4883C306.029 48.4232 306.111 48.3906 306.215 48.3906C306.319 48.3906 306.401 48.4232 306.461 48.4883C306.521 48.5508 306.551 48.6276 306.551 48.7188C306.551 48.8099 306.521 48.8854 306.461 48.9453C306.401 49.0026 306.319 49.0312 306.215 49.0312C306.111 49.0312 306.029 49.0026 305.969 48.9453C305.911 48.8854 305.883 48.8099 305.883 48.7188ZM305.891 45.1133C305.891 45.0221 305.919 44.9453 305.977 44.8828C306.036 44.8177 306.118 44.7852 306.223 44.7852C306.327 44.7852 306.409 44.8177 306.469 44.8828C306.529 44.9453 306.559 45.0221 306.559 45.1133C306.559 45.2044 306.529 45.2799 306.469 45.3398C306.409 45.3971 306.327 45.4258 306.223 45.4258C306.118 45.4258 306.036 45.3971 305.977 45.3398C305.919 45.2799 305.891 45.2044 305.891 45.1133ZM311.031 46.6289C311.031 47.431 310.884 48.0404 310.59 48.457C310.296 48.8711 309.862 49.0781 309.289 49.0781C308.727 49.0781 308.296 48.875 307.996 48.4688C307.697 48.0599 307.543 47.4661 307.535 46.6875V45.668C307.535 44.8685 307.684 44.263 307.98 43.8516C308.277 43.4401 308.711 43.2344 309.281 43.2344C309.844 43.2344 310.273 43.4336 310.57 43.832C310.867 44.2279 311.021 44.8125 311.031 45.5859V46.6289ZM310.562 45.6094C310.562 44.9583 310.456 44.4661 310.242 44.1328C310.031 43.7995 309.711 43.6328 309.281 43.6328C308.859 43.6328 308.542 43.7956 308.328 44.1211C308.115 44.4466 308.005 44.9271 308 45.5625V46.6797C308 47.3281 308.109 47.8242 308.328 48.168C308.549 48.5117 308.87 48.6836 309.289 48.6836C309.706 48.6836 310.021 48.5156 310.234 48.1797C310.451 47.8438 310.56 47.3516 310.562 46.7031V45.6094ZM315.469 46.6289C315.469 47.431 315.322 48.0404 315.027 48.457C314.733 48.8711 314.299 49.0781 313.727 49.0781C313.164 49.0781 312.733 48.875 312.434 48.4688C312.134 48.0599 311.98 47.4661 311.973 46.6875V45.668C311.973 44.8685 312.121 44.263 312.418 43.8516C312.715 43.4401 313.148 43.2344 313.719 43.2344C314.281 43.2344 314.711 43.4336 315.008 43.832C315.305 44.2279 315.458 44.8125 315.469 45.5859V46.6289ZM315 45.6094C315 44.9583 314.893 44.4661 314.68 44.1328C314.469 43.7995 314.148 43.6328 313.719 43.6328C313.297 43.6328 312.979 43.7956 312.766 44.1211C312.552 44.4466 312.443 44.9271 312.438 45.5625V46.6797C312.438 47.3281 312.547 47.8242 312.766 48.168C312.987 48.5117 313.307 48.6836 313.727 48.6836C314.143 48.6836 314.458 48.5156 314.672 48.1797C314.888 47.8438 314.997 47.3516 315 46.7031V45.6094ZM322.523 43.3125V47.1953C322.521 47.5781 322.436 47.9115 322.27 48.1953C322.103 48.4792 321.867 48.6979 321.562 48.8516C321.26 49.0026 320.913 49.0781 320.52 49.0781C319.921 49.0781 319.44 48.9154 319.078 48.5898C318.719 48.2617 318.533 47.8086 318.52 47.2305V43.3125H318.996V47.1602C318.996 47.6393 319.133 48.0117 319.406 48.2773C319.68 48.5404 320.051 48.6719 320.52 48.6719C320.988 48.6719 321.358 48.5391 321.629 48.2734C321.902 48.0078 322.039 47.638 322.039 47.1641V43.3125H322.523ZM327.723 43.7227H325.773V49H325.293V43.7227H323.348V43.3125H327.723V43.7227ZM332.562 47.2266C332.497 47.8255 332.283 48.2839 331.918 48.6016C331.556 48.9193 331.073 49.0781 330.469 49.0781C330.047 49.0781 329.673 48.9727 329.348 48.7617C329.025 48.5508 328.775 48.2526 328.598 47.8672C328.421 47.4792 328.331 47.0365 328.328 46.5391V45.8008C328.328 45.2956 328.417 44.8477 328.594 44.457C328.771 44.0664 329.025 43.7656 329.355 43.5547C329.689 43.3411 330.072 43.2344 330.504 43.2344C331.113 43.2344 331.594 43.3997 331.945 43.7305C332.299 44.0586 332.505 44.513 332.562 45.0938H332.078C331.958 44.1276 331.434 43.6445 330.504 43.6445C329.988 43.6445 329.577 43.8372 329.27 44.2227C328.965 44.6081 328.812 45.1406 328.812 45.8203V46.5156C328.812 47.1719 328.961 47.6953 329.258 48.0859C329.557 48.4766 329.961 48.6719 330.469 48.6719C330.971 48.6719 331.35 48.5521 331.605 48.3125C331.861 48.0703 332.018 47.7083 332.078 47.2266H332.562ZM335.473 46.1094H337.203V46.5469H335.473V48.4297H335V46.5469H333.305V46.1094H335V44.2891H335.473V46.1094ZM341.492 46.6289C341.492 47.431 341.345 48.0404 341.051 48.457C340.757 48.8711 340.323 49.0781 339.75 49.0781C339.188 49.0781 338.757 48.875 338.457 48.4688C338.158 48.0599 338.004 47.4661 337.996 46.6875V45.668C337.996 44.8685 338.145 44.263 338.441 43.8516C338.738 43.4401 339.172 43.2344 339.742 43.2344C340.305 43.2344 340.734 43.4336 341.031 43.832C341.328 44.2279 341.482 44.8125 341.492 45.5859V46.6289ZM341.023 45.6094C341.023 44.9583 340.917 44.4661 340.703 44.1328C340.492 43.7995 340.172 43.6328 339.742 43.6328C339.32 43.6328 339.003 43.7956 338.789 44.1211C338.576 44.4466 338.466 44.9271 338.461 45.5625V46.6797C338.461 47.3281 338.57 47.8242 338.789 48.168C339.01 48.5117 339.331 48.6836 339.75 48.6836C340.167 48.6836 340.482 48.5156 340.695 48.1797C340.911 47.8438 341.021 47.3516 341.023 46.7031V45.6094ZM343.539 45.9023H344.023C344.292 45.9023 344.526 45.8555 344.727 45.7617C344.927 45.6654 345.079 45.5352 345.184 45.3711C345.29 45.2044 345.344 45.013 345.344 44.7969C345.344 44.4323 345.241 44.1471 345.035 43.9414C344.829 43.7357 344.534 43.6328 344.148 43.6328C343.784 43.6328 343.484 43.7409 343.25 43.957C343.018 44.1706 342.902 44.4531 342.902 44.8047H342.434C342.434 44.5104 342.508 44.2422 342.656 44C342.805 43.7552 343.01 43.5664 343.273 43.4336C343.536 43.3008 343.828 43.2344 344.148 43.2344C344.664 43.2344 345.07 43.375 345.367 43.6562C345.664 43.9375 345.812 44.3229 345.812 44.8125C345.812 45.0859 345.725 45.3385 345.551 45.5703C345.379 45.7995 345.142 45.9714 344.84 46.0859C345.194 46.1849 345.462 46.3555 345.645 46.5977C345.827 46.8372 345.918 47.1237 345.918 47.457C345.918 47.944 345.759 48.3359 345.441 48.6328C345.124 48.9297 344.699 49.0781 344.168 49.0781C343.829 49.0781 343.518 49.0104 343.234 48.875C342.953 48.7396 342.734 48.5508 342.578 48.3086C342.424 48.0638 342.348 47.7799 342.348 47.457H342.816C342.816 47.819 342.943 48.1146 343.195 48.3438C343.448 48.5703 343.772 48.6836 344.168 48.6836C344.572 48.6836 344.885 48.5807 345.109 48.375C345.336 48.1667 345.449 47.8659 345.449 47.4727C345.449 47.0924 345.327 46.8021 345.082 46.6016C344.84 46.401 344.482 46.3008 344.008 46.3008H343.539V45.9023ZM346.898 48.7188C346.898 48.6276 346.927 48.5508 346.984 48.4883C347.044 48.4232 347.126 48.3906 347.23 48.3906C347.335 48.3906 347.417 48.4232 347.477 48.4883C347.536 48.5508 347.566 48.6276 347.566 48.7188C347.566 48.8099 347.536 48.8854 347.477 48.9453C347.417 49.0026 347.335 49.0312 347.23 49.0312C347.126 49.0312 347.044 49.0026 346.984 48.9453C346.927 48.8854 346.898 48.8099 346.898 48.7188ZM346.906 45.1133C346.906 45.0221 346.935 44.9453 346.992 44.8828C347.052 44.8177 347.134 44.7852 347.238 44.7852C347.342 44.7852 347.424 44.8177 347.484 44.8828C347.544 44.9453 347.574 45.0221 347.574 45.1133C347.574 45.2044 347.544 45.2799 347.484 45.3398C347.424 45.3971 347.342 45.4258 347.238 45.4258C347.134 45.4258 347.052 45.3971 346.992 45.3398C346.935 45.2799 346.906 45.2044 346.906 45.1133ZM352.047 46.6289C352.047 47.431 351.9 48.0404 351.605 48.457C351.311 48.8711 350.878 49.0781 350.305 49.0781C349.742 49.0781 349.311 48.875 349.012 48.4688C348.712 48.0599 348.559 47.4661 348.551 46.6875V45.668C348.551 44.8685 348.699 44.263 348.996 43.8516C349.293 43.4401 349.727 43.2344 350.297 43.2344C350.859 43.2344 351.289 43.4336 351.586 43.832C351.883 44.2279 352.036 44.8125 352.047 45.5859V46.6289ZM351.578 45.6094C351.578 44.9583 351.471 44.4661 351.258 44.1328C351.047 43.7995 350.727 43.6328 350.297 43.6328C349.875 43.6328 349.557 43.7956 349.344 44.1211C349.13 44.4466 349.021 44.9271 349.016 45.5625V46.6797C349.016 47.3281 349.125 47.8242 349.344 48.168C349.565 48.5117 349.885 48.6836 350.305 48.6836C350.721 48.6836 351.036 48.5156 351.25 48.1797C351.466 47.8438 351.576 47.3516 351.578 46.7031V45.6094ZM356.484 46.6289C356.484 47.431 356.337 48.0404 356.043 48.457C355.749 48.8711 355.315 49.0781 354.742 49.0781C354.18 49.0781 353.749 48.875 353.449 48.4688C353.15 48.0599 352.996 47.4661 352.988 46.6875V45.668C352.988 44.8685 353.137 44.263 353.434 43.8516C353.73 43.4401 354.164 43.2344 354.734 43.2344C355.297 43.2344 355.727 43.4336 356.023 43.832C356.32 44.2279 356.474 44.8125 356.484 45.5859V46.6289ZM356.016 45.6094C356.016 44.9583 355.909 44.4661 355.695 44.1328C355.484 43.7995 355.164 43.6328 354.734 43.6328C354.312 43.6328 353.995 43.7956 353.781 44.1211C353.568 44.4466 353.458 44.9271 353.453 45.5625V46.6797C353.453 47.3281 353.562 47.8242 353.781 48.168C354.003 48.5117 354.323 48.6836 354.742 48.6836C355.159 48.6836 355.474 48.5156 355.688 48.1797C355.904 47.8438 356.013 47.3516 356.016 46.7031V45.6094ZM211.191 53.4688L214.338 60.998L217.496 53.4688H218.457V62H217.736V58.2852L217.795 54.4766L214.619 62H214.062L210.898 54.5059L210.957 58.2617V62H210.236V53.4688H211.191ZM224.457 62C224.387 61.8008 224.342 61.5059 224.322 61.1152C224.076 61.4355 223.762 61.6836 223.379 61.8594C223 62.0312 222.598 62.1172 222.172 62.1172C221.562 62.1172 221.068 61.9473 220.689 61.6074C220.314 61.2676 220.127 60.8379 220.127 60.3184C220.127 59.7012 220.383 59.2129 220.895 58.8535C221.41 58.4941 222.127 58.3145 223.045 58.3145H224.316V57.5938C224.316 57.1406 224.176 56.7852 223.895 56.5273C223.617 56.2656 223.211 56.1348 222.676 56.1348C222.188 56.1348 221.783 56.2598 221.463 56.5098C221.143 56.7598 220.982 57.0605 220.982 57.4121L220.279 57.4062C220.279 56.9023 220.514 56.4668 220.982 56.0996C221.451 55.7285 222.027 55.543 222.711 55.543C223.418 55.543 223.975 55.7207 224.381 56.0762C224.791 56.4277 225.002 56.9199 225.014 57.5527V60.5527C225.014 61.166 225.078 61.625 225.207 61.9297V62H224.457ZM222.254 61.4961C222.723 61.4961 223.141 61.3828 223.508 61.1562C223.879 60.9297 224.148 60.627 224.316 60.248V58.8535H223.062C222.363 58.8613 221.816 58.9902 221.422 59.2402C221.027 59.4863 220.83 59.8262 220.83 60.2598C220.83 60.6152 220.961 60.9102 221.223 61.1445C221.488 61.3789 221.832 61.4961 222.254 61.4961ZM229.818 56.2578C229.67 56.2305 229.512 56.2168 229.344 56.2168C228.906 56.2168 228.535 56.3398 228.23 56.5859C227.93 56.8281 227.715 57.1816 227.586 57.6465V62H226.889V55.6602H227.574L227.586 56.668C227.957 55.918 228.553 55.543 229.373 55.543C229.568 55.543 229.723 55.5684 229.836 55.6191L229.818 56.2578ZM232.438 58.8066L231.635 59.5801V62H230.932V53H231.635V58.7598L232.297 58.0449L234.723 55.6602H235.607L232.918 58.332L235.842 62H235.004L232.438 58.8066ZM239.152 62.1172C238.613 62.1172 238.125 61.9844 237.688 61.7188C237.254 61.4531 236.916 61.084 236.674 60.6113C236.432 60.1348 236.311 59.6016 236.311 59.0117V58.7598C236.311 58.1504 236.428 57.6016 236.662 57.1133C236.9 56.625 237.23 56.2422 237.652 55.9648C238.074 55.6836 238.531 55.543 239.023 55.543C239.793 55.543 240.402 55.8066 240.852 56.334C241.305 56.8574 241.531 57.5742 241.531 58.4844V58.877H237.008V59.0117C237.008 59.7305 237.213 60.3301 237.623 60.8105C238.037 61.2871 238.557 61.5254 239.182 61.5254C239.557 61.5254 239.887 61.457 240.172 61.3203C240.461 61.1836 240.723 60.9648 240.957 60.6641L241.396 60.998C240.881 61.7441 240.133 62.1172 239.152 62.1172ZM239.023 56.1406C238.496 56.1406 238.051 56.334 237.688 56.7207C237.328 57.1074 237.109 57.627 237.031 58.2793H240.834V58.2031C240.814 57.5938 240.641 57.0977 240.312 56.7148C239.984 56.332 239.555 56.1406 239.023 56.1406ZM243.986 54.0371V55.6602H245.299V56.2344H243.986V60.459C243.986 60.8105 244.049 61.0723 244.174 61.2441C244.303 61.416 244.516 61.502 244.812 61.502C244.93 61.502 245.119 61.4824 245.381 61.4434L245.41 62.0176C245.227 62.084 244.977 62.1172 244.66 62.1172C244.18 62.1172 243.83 61.9785 243.611 61.7012C243.393 61.4199 243.283 61.0078 243.283 60.4648V56.2344H242.117V55.6602H243.283V54.0371H243.986ZM255.875 59.3398C255.777 60.2383 255.455 60.9258 254.908 61.4023C254.365 61.8789 253.641 62.1172 252.734 62.1172C252.102 62.1172 251.541 61.959 251.053 61.6426C250.568 61.3262 250.193 60.8789 249.928 60.3008C249.662 59.7188 249.527 59.0547 249.523 58.3086V57.2012C249.523 56.4434 249.656 55.7715 249.922 55.1855C250.188 54.5996 250.568 54.1484 251.064 53.832C251.564 53.5117 252.139 53.3516 252.787 53.3516C253.701 53.3516 254.422 53.5996 254.949 54.0957C255.48 54.5879 255.789 55.2695 255.875 56.1406H255.148C254.969 54.6914 254.182 53.9668 252.787 53.9668C252.014 53.9668 251.396 54.2559 250.936 54.834C250.479 55.4121 250.25 56.2109 250.25 57.2305V58.2734C250.25 59.2578 250.473 60.043 250.918 60.6289C251.367 61.2148 251.973 61.5078 252.734 61.5078C253.488 61.5078 254.057 61.3281 254.439 60.9688C254.822 60.6055 255.059 60.0625 255.148 59.3398H255.875ZM261.465 62C261.395 61.8008 261.35 61.5059 261.33 61.1152C261.084 61.4355 260.77 61.6836 260.387 61.8594C260.008 62.0312 259.605 62.1172 259.18 62.1172C258.57 62.1172 258.076 61.9473 257.697 61.6074C257.322 61.2676 257.135 60.8379 257.135 60.3184C257.135 59.7012 257.391 59.2129 257.902 58.8535C258.418 58.4941 259.135 58.3145 260.053 58.3145H261.324V57.5938C261.324 57.1406 261.184 56.7852 260.902 56.5273C260.625 56.2656 260.219 56.1348 259.684 56.1348C259.195 56.1348 258.791 56.2598 258.471 56.5098C258.15 56.7598 257.99 57.0605 257.99 57.4121L257.287 57.4062C257.287 56.9023 257.521 56.4668 257.99 56.0996C258.459 55.7285 259.035 55.543 259.719 55.543C260.426 55.543 260.982 55.7207 261.389 56.0762C261.799 56.4277 262.01 56.9199 262.021 57.5527V60.5527C262.021 61.166 262.086 61.625 262.215 61.9297V62H261.465ZM259.262 61.4961C259.73 61.4961 260.148 61.3828 260.516 61.1562C260.887 60.9297 261.156 60.627 261.324 60.248V58.8535H260.07C259.371 58.8613 258.824 58.9902 258.43 59.2402C258.035 59.4863 257.838 59.8262 257.838 60.2598C257.838 60.6152 257.969 60.9102 258.23 61.1445C258.496 61.3789 258.84 61.4961 259.262 61.4961ZM268.994 58.8945C268.994 59.8828 268.775 60.668 268.338 61.25C267.9 61.8281 267.314 62.1172 266.58 62.1172C265.713 62.1172 265.049 61.8125 264.588 61.2031V64.4375H263.891V55.6602H264.541L264.576 56.5566C265.033 55.8809 265.695 55.543 266.562 55.543C267.32 55.543 267.914 55.8301 268.344 56.4043C268.777 56.9785 268.994 57.7754 268.994 58.7949V58.8945ZM268.291 58.7715C268.291 57.9629 268.125 57.3242 267.793 56.8555C267.461 56.3867 266.998 56.1523 266.404 56.1523C265.975 56.1523 265.605 56.2559 265.297 56.4629C264.988 56.6699 264.752 56.9707 264.588 57.3652V60.4062C2p    p                    Ðf            Àf    xp            0p     @      0p            .5254 267.465 61.291 267.793 60.8223C268.125 60.3496 268.291 59.666 268.291 58.7715ZM270.383 61.5781C270.383 61.4414 270.426 61.3262 270.512 61.2324C270.602 61.1348 270.725 61.0859 270.881 61.0859C271.037 61.0859 271.16 61.1348 271.25 61.2324C271.34 61.3262 271.385 61.4414 271.385 61.5781C271.385 61.7148 271.34 61.8281 271.25 61.918C271.16 62.0039 271.037 62.0469 270.881 62.0469C270.725 62.0469 270.602 62.0039 270.512 61.918C270.426 61.8281 270.383 61.7148 270.383 61.5781ZM270.395 56.1699C270.395 56.0332 270.438 55.918 270.523 55.8242C270.613 55.7266 270.736 55.6777 270.893 55.6777C271.049 55.6777 271.172 55.7266 271.262 55.8242C271.352 55.918 271.396 56.0332 271.396 56.1699C271.396 56.3066 271.352 56.4199 271.262 56.5098C271.172 56.5957 271.049 56.6387 270.893 56.6387C270.736 56.6387 270.613 56.5957 270.523 56.5098C270.438 56.4199 270.395 56.3066 270.395 56.1699ZM281.023 58.4434C281.023 59.6465 280.803 60.5605 280.361 61.1855C279.92 61.8066 279.27 62.1172 278.41 62.1172C277.566 62.1172 276.92 61.8125 276.471 61.2031C276.021 60.5898 275.791 59.6992 275.779 58.5312V57.002C275.779 55.8027 276.002 54.8945 276.447 54.2773C276.893 53.6602 277.543 53.3516 278.398 53.3516C279.242 53.3516 279.887 53.6504 280.332 54.248C280.777 54.8418 281.008 55.7188 281.023 56.8789V58.4434ZM280.32 56.9141C280.32 55.9375 280.16 55.1992 279.84 54.6992C279.523 54.1992 279.043 53.9492 278.398 53.9492C277.766 53.9492 277.289 54.1934 276.969 54.6816C276.648 55.1699 276.484 55.8906 276.477 56.8438V58.5195C276.477 59.4922 276.641 60.2363 276.969 60.752C277.301 61.2676 277.781 61.5254 278.41 61.5254C279.035 61.5254 279.508 61.2734 279.828 60.7695C280.152 60.2656 280.316 59.5273 280.32 58.5547V56.9141ZM287.68 58.4434C287.68 59.6465 287.459 60.5605 287.018 61.1855C286.576 61.8066 285.926 62.1172 285.066 62.1172C284.223 62.1172 283.576 61.8125 283.127 61.2031C282.678 60.5898 282.447 59.6992 282.436 58.5312V57.002C282.436 55.8027 282.658 54.8945 283.104 54.2773C283.549 53.6602 284.199 53.3516 285.055 53.3516C285.898 53.3516 286.543 53.6504 286.988 54.248C287.434 54.8418 287.664 55.7188 287.68 56.8789V58.4434ZM286.977 56.9141C286.977 55.9375 286.816 55.1992 286.496 54.6992C286.18 54.1992 285.699 53.9492 285.055 53.9492C284.422 53.9492 283.945 54.1934 283.625 54.6816C283.305 55.1699 283.141 55.8906 283.133 56.8438V58.5195C283.133 59.4922 283.297 60.2363 283.625 60.752C283.957 61.2676 284.438 61.5254 285.066 61.5254C285.691 61.5254 286.164 61.2734 286.484 60.7695C286.809 60.2656 286.973 59.5273 286.977 58.5547V56.9141ZM294.336 58.4434C294.336 59.6465 294.115 60.5605 293.674 61.1855C293.232 61.8066 292.582 62.1172 291.723 62.1172C290.879 62.1172 290.232 61.8125 289.783 61.2031C289.334 60.5898 289.104 59.6992 289.092 58.5312V57.002C289.092 55.8027 289.314 54.8945 289.76 54.2773C290.205 53.6602 290.855 53.3516 291.711 53.3516C292.555 53.3516 293.199 53.6504 293.645 54.248C294.09 54.8418 294.32 55.7188 294.336 56.8789V58.4434ZM293.633 56.9141C293.633 55.9375 293.473 55.1992 293.152 54.6992C292.836 54.1992 292.355 53.9492 291.711 53.9492C291.078 53.9492 290.602 54.1934 290.281 54.6816C289.961 55.1699 289.797 55.8906 289.789 56.8438V58.5195C289.789 59.4922 289.953 60.2363 290.281 60.752C290.613 61.2676 291.094 61.5254 291.723 61.5254C292.348 61.5254 292.82 61.2734 293.141 60.7695C293.465 60.2656 293.629 59.5273 293.633 58.5547V56.9141ZM295.812 63.5938L295.396 63.2891C295.752 62.8125 295.936 62.3184 295.947 61.8066V60.8984H296.633V61.6309C296.633 62.4434 296.359 63.0977 295.812 63.5938ZM303.289 58.4434C303.289 59.6465 303.068 60.5605 302.627 61.1855C302.186 61.8066 301.535 62.1172 300.676 62.1172C299.832 62.1172 299.186 61.8125 298.736 61.2031C298.287 60.5898 298.057 59.6992 298.045 58.5312V57.002C298.045 55.8027 298.268 54.8945 298.713 54.2773C299.158 53.6602 299.809 53.3516 300.664 53.3516C301.508 53.3516 302.152 53.6504 302.598 54.248C303.043 54.8418 303.273 55.7188 303.289 56.8789V58.4434ZM302.586 56.9141C302.586 55.9375 302.426 55.1992 302.105 54.6992C301.789 54.1992 301.309 53.9492 300.664 53.9492C300.031 53.9492 299.555 54.1934 299.234 54.6816C298.914 55.1699 298.75 55.8906 298.742 56.8438V58.5195C298.742 59.4922 298.906 60.2363 299.234 60.752C299.566 61.2676 300.047 61.5254 300.676 61.5254C301.301 61.5254 301.773 61.2734 302.094 60.7695C302.418 60.2656 302.582 59.5273 302.586 58.5547V56.9141ZM309.945 58.4434C309.945 59.6465 309.725 60.5605 309.283 61.1855C308.842 61.8066 308.191 62.1172 307.332 62.1172C306.488 62.1172 305.842 61.8125 305.393 61.2031C304.943 60.5898 304.713 59.6992 304.701 58.5312V57.002C304.701 55.8027 304.924 54.8945 305.369 54.2773C305.814 53.6602 306.465 53.3516 307.32 53.3516C308.164 53.3516 308.809 53.6504 309.254 54.248C309.699 54.8418 309.93 55.7188 309.945 56.8789V58.4434ZM309.242 56.9141C309.242 55.9375 309.082 55.1992 308.762 54.6992C308.445 54.1992 307.965 53.9492 307.32 53.9492C306.688 53.9492 306.211 54.1934 305.891 54.6816C305.57 55.1699 305.406 55.8906 305.398 56.8438V58.5195C305.398 59.4922 305.562 60.2363 305.891 60.752C306.223 61.2676 306.703 61.5254 307.332 61.5254C307.957 61.5254 308.43 61.2734 308.75 60.7695C309.074 60.2656 309.238 59.5273 309.242 58.5547V56.9141ZM316.602 58.4434C316.602 59.6465 316.381 60.5605 315.939 61.1855C315.498 61.8066 314.848 62.1172 313.988 62.1172C313.145 62.1172 312.498 61.8125 312.049 61.2031C311.6 60.5898 311.369 59.6992 311.357 58.5312V57.002C311.357 55.8027 311.58 54.8945 312.025 54.2773C312.471 53.6602 313.121 53.3516 313.977 53.3516C314.82 53.3516 315.465 53.6504 315.91 54.248C316.355 54.8418 316.586 55.7188 316.602 56.8789V58.4434ZM315.898 56.9141C315.898 55.9375 315.738 55.1992 315.418 54.6992C315.102 54.1992 314.621 53.9492 313.977 53.9492C313.344 53.9492 312.867 54.1934 312.547 54.6816C312.227 55.1699 312.062 55.8906 312.055 56.8438V58.5195C312.055 59.4922 312.219 60.2363 312.547 60.752C312.879 61.2676 313.359 61.5254 313.988 61.5254C314.613 61.5254 315.086 61.2734 315.406 60.7695C315.73 60.2656 315.895 59.5273 315.898 58.5547V56.9141ZM318.078 63.5938L317.662 63.2891C318.018 62.8125 318.201 62.3184 318.213 61.8066V60.8984H318.898V61.6309C318.898 62.4434 318.625 63.0977 318.078 63.5938ZM325.555 58.4434C325.555 59.6465 325.334 60.5605 324.893 61.1855C324.451 61.8066 323.801 62.1172 322.941 62.1172C322.098 62.1172 321.451 61.8125 321.002 61.2031C320.553 60.5898 320.322 59.6992 320.311 58.5312V57.002C320.311 55.8027 320.533 54.8945 320.979 54.2773C321.424 53.6602 322.074 53.3516 322.93 53.3516C323.773 53.3516 324.418 53.6504 324.863 54.248C325.309 54.8418 325.539 55.7188 325.555 56.8789V58.4434ZM324.852 56.9141C324.852 55.9375 324.691 55.1992 324.371 54.6992C324.055 54.1992 323.574 53.9492 322.93 53.9492C322.297 53.9492 321.82 54.1934 321.5 54.6816C321.18 55.1699 321.016 55.8906 321.008 56.8438V58.5195C321.008 59.4922 321.172 60.2363 321.5 60.752C321.832 61.2676 322.312 61.5254 322.941 61.5254C323.566 61.5254 324.039 61.2734 324.359 60.7695C324.684 60.2656 324.848 59.5273 324.852 58.5547V56.9141ZM332.211 58.4434C332.211 59.6465 331.99 60.5605 331.549 61.1855C331.107 61.8066 330.457 62.1172 329.598 62.1172C328.754 62.1172 328.107 61.8125 327.658 61.2031C327.209 60.5898 326.979 59.6992 326.967 58.5312V57.002C326.967 55.8027 327.189 54.8945 327.635 54.2773C328.08 53.6602 328.73 53.3516 329.586 53.3516C330.43 53.3516 331.074 53.6504 331.52 54.248C331.965 54.8418 332.195 55.7188 332.211 56.8789V58.4434ZM331.508 56.9141C331.508 55.9375 331.348 55.1992 331.027 54.6992C330.711 54.1992 330.23 53.9492 329.586 53.9492C328.953 53.9492 328.477 54.1934 328.156 54.6816C327.836 55.1699 327.672 55.8906 327.664 56.8438V58.5195C327.664 59.4922 327.828 60.2363 328.156 60.752C328.488 61.2676 328.969 61.5254 329.598 61.5254C330.223 61.5254 330.695 61.2734 331.016 60.7695C331.34 60.2656 331.504 59.5273 331.508 58.5547V56.9141ZM338.867 58.4434C338.867 59.6465 338.646 60.5605 338.205 61.1855C337.764 61.8066 337.113 62.1172 336.254 62.1172C335.41 62.1172 334.764 61.8125 334.314 61.2031C333.865 60.5898 333.635 59.6992 333.623 58.5312V57.002C333.623 55.8027 333.846 54.8945 334.291 54.2773C334.736 53.6602 335.387 53.3516 336.242 53.3516C337.086 53.3516 337.73 53.6504 338.176 54.248C338.621 54.8418 338.852 55.7188 338.867 56.8789V58.4434ZM338.164 56.9141C338.164 55.9375 338.004 55.1992 337.684 54.6992C337.367 54.1992 336.887 53.9492 336.242 53.9492C335.609 53.9492 335.133 54.1934 334.812 54.6816C334.492 55.1699 334.328 55.8906 334.32 56.8438V58.5195C334.32 59.4922 334.484 60.2363 334.812 60.752C335.145 61.2676 335.625 61.5254 336.254 61.5254C336.879 61.5254 337.352 61.2734 337.672 60.7695C337.996 60.2656 338.16 59.5273 338.164 58.5547V56.9141ZM340.344 63.5938L339.928 63.2891C340.283 62.8125 340.467 62.3184 340.479 61.8066V60.8984H341.164V61.6309C341.164 62.4434 340.891 63.0977 340.344 63.5938ZM347.82 58.4434C347.82 59.6465 347.6 60.5605 347.158 61.1855C346.717 61.8066 346.066 62.1172 345.207 62.1172C344.363 62.1172 343.717 61.8125 343.268 61.2031C342.818 60.5898 342.588 59.6992 342.576 58.5312V57.002C342.576 55.8027 342.799 54.8945 343.244 54.2773C343.689 53.6602 344.34 53.3516 345.195 53.3516C346.039 53.3516 346.684 53.6504 347.129 54.248C347.574 54.8418 347.805 55.7188 347.82 56.8789V58.4434ZM347.117 56.9141C347.117 55.9375 346.957 55.1992 346.637 54.6992C346.32 54.1992 345.84 53.9492 345.195 53.9492C344.562 53.9492 344.086 54.1934 343.766 54.6816C343.445 55.1699 343.281 55.8906 343.273 56.8438V58.5195C343.273 59.4922 343.438 60.2363 343.766 60.752C344.098 61.2676 344.578 61.5254 345.207 61.5254C345.832 61.5254 346.305 61.2734 346.625 60.7695C346.949 60.2656 347.113 59.5273 347.117 58.5547V56.9141ZM354.477 58.4434C354.477 59.6465 354.256 60.5605 353.814 61.1855C353.373 61.8066 352.723 62.1172 351.863 62.1172C351.02 62.1172 350.373 61.8125 349.924 61.2031C349.475 60.5898 349.244 59.6992 349.232 58.5312V57.002C349.232 55.8027 349.455 54.8945 349.9 54.2773C350.346 53.6602 350.996 53.3516 351.852 53.3516C352.695 53.3516 353.34 53.6504 353.785 54.248C354.23 54.8418 354.461 55.7188 354.477 56.8789V58.4434ZM353.773 56.9141C353.773 55.9375 353.613 55.1992 353.293 54.6992C352.977 54.1992 352.496 53.9492 351.852 53.9492C351.219 53.9492 350.742 54.1934 350.422 54.6816C350.102 55.1699 349.938 55.8906 349.93 56.8438V58.5195C349.93 59.4922 350.094 60.2363 350.422 60.752C350.754 61.2676 351.234 61.5254 351.863 61.5254C352.488 61.5254 352.961 61.2734 353.281 60.7695C353.605 60.2656 353.77 59.5273 353.773 58.5547V56.9141ZM361.133 58.4434C361.133 59.6465 360.912 60.5605 360.471 61.1855C360.029 61.8066 359.379 62.1172 358.52 62.1172C357.676 62.1172 357.029 61.8125 356.58 61.2031C356.131 60.5898 355.9 59.6992 355.889 58.5312V57.002C355.889 55.8027 356.111 54.8945 356.557 54.2773C357.002 53.6602 357.652 53.3516 358.508 53.3516C359.352 53.3516 359.996 53.6504 360.441 54.248C360.887 54.8418 361.117 55.7188 361.133 56.8789V58.4434ZM360.43 56.9141C360.43 55.9375 360.27 55.1992 359.949 54.6992C359.633 54.1992 359.152 53.9492 358.508 53.9492C357.875 53.9492 357.398 54.1934 357.078 54.6816C356.758 55.1699 356.594 55.8906 356.586 56.8438V58.5195C356.586 59.4922 356.75 60.2363 357.078 60.752C357.41 61.2676 357.891 61.5254 358.52 61.5254C359.145 61.5254 359.617 61.2734 359.938 60.7695C360.262 60.2656 360.426 59.5273 360.43 58.5547V56.9141ZM229.186 76H223.842V75.4609L226.766 72.1445C227.25 71.5859 227.586 71.125 227.773 70.7617C227.961 70.3984 228.055 70.0449 228.055 69.7012C228.055 69.1621 227.896 68.7363 227.58 68.4238C227.264 68.1074 226.828 67.9492 226.273 67.9492C225.699 67.9492 225.234 68.1328 224.879 68.5C224.527 68.8672 224.352 69.3438 224.352 69.9297H223.654C223.654 69.4492 223.762 69.0117 223.977 68.6172C224.195 68.2227 224.504 67.9141 224.902 67.6914C225.305 67.4648 225.762 67.3516 226.273 67.3516C227.055 67.3516 227.664 67.5566 228.102 67.9668C228.543 68.377 228.764 68.9355 228.764 69.6426C228.764 70.041 228.639 70.4766 228.389 70.9492C228.143 71.4219 227.707 72.0117 227.082 72.7188L224.703 75.4082H229.186V76ZM234.805 73.252H236.135V73.8438H234.805V76H234.102V73.8438H230.088V73.4453L234.037 67.4688H234.805V73.252ZM230.949 73.252H234.102V68.377L233.791 68.916L230.949 73.252ZM237.963 70.7324C238.193 70.3535 238.488 70.0605 238.848 69.8535C239.207 69.6465 239.6 69.543 240.025 69.543C240.705 69.543 241.211 69.7344 241.543 70.1172C241.875 70.5 242.043 71.0742 242.047 71.8398V76H241.35V71.834C241.346 71.2676 241.225 70.8457 240.986 70.5684C240.752 70.291 240.375 70.1523 239.855 70.1523C239.422 70.1523 239.037 70.2891 238.701 70.5625C238.369 70.832 238.123 71.1973 237.963 71.6582V76H237.266V67H237.963V70.7324ZM249.506 74.9453L249.553 75.127L249.605 74.9453L252.289 67.4688H253.08L249.904 76H249.213L246.037 67.4688H246.822L249.506 74.9453ZM253.52 72.7363C253.52 72.127 253.637 71.5781 253.871 71.0898C254.109 70.6016 254.443 70.2227 254.873 69.9531C255.307 69.6797 255.797 69.543 256.344 69.543C257.188 69.543 257.871 69.8398 258.395 70.4336C258.918 71.0234 259.18 71.8066 259.18 72.7832V72.9297C259.18 73.543 259.061 74.0957 258.822 74.5879C258.588 75.0762 258.256 75.4531 257.826 75.7188C257.396 75.9844 256.906 76.1172 256.355 76.1172C255.516 76.1172 254.832 75.8223 254.305 75.2324C253.781 74.6387 253.52 73.8535 253.52 72.877V72.7363ZM254.223 72.9297C254.223 73.6875 254.418 74.3105 254.809 74.7988C255.203 75.2832 255.719 75.5254 256.355 75.5254C256.988 75.5254 257.5 75.2832 257.891 74.7988C258.285 74.3105 258.482 73.668 258.482 72.8711V72.7363C258.482 72.252 258.393 71.8086 258.213 71.4062C258.033 71.0039 257.781 70.6934 257.457 70.4746C257.133 70.252 256.762 70.1406 256.344 70.1406C255.719 70.1406 255.209 70.3867 254.814 70.8789C254.42 71.3672 254.223 72.0078 254.223 72.8008V72.9297ZM261.418 76H260.715V67H261.418V76ZM263.158 75.5781C263.158 75.4414 263.201 75.3262 263.287 75.2324C263.377 75.1348 263.5 75.0859 263.656 75.0859C263.812 75.0859 263.936 75.1348 264.025 75.2324C264.115 75.3262 264.16 75.4414 264.16 75.5781C264.16 75.7148 264.115 75.8281 264.025 75.918C263.936 76.0039 263.812 76.0469 263.656 76.0469C263.5 76.0469 263.377 76.0039 263.287 75.918C263.201 75.8281 263.158 75.7148 263.158 75.5781ZM263.17 70.1699C263.17 70.0332 263.213 69.918 263.299 69.8242C263.389 69.7266 263.512 69.6777 263.668 69.6777C263.824 69.6777 263.947 69.7266 264.037 69.8242C264.127 69.918 264.172 70.0332 264.172 70.1699C264.172 70.3066 264.127 70.4199 264.037 70.5098C263.947 70.5957 263.824 70.6387 263.668 70.6387C263.512 70.6387 263.389 70.5957 263.299 70.5098C263.213 70.4199 263.17 70.3066 263.17 70.1699ZM273.799 72.4434C273.799 73.6465 273.578 74.5605 273.137 75.1855C272.695 75.8066 272.045 76.1172 271.186 76.1172C270.342 76.1172 269.695 75.8125 269.246 75.2031C268.797 74.5898 268.566 73.6992 268.555 72.5312V71.002C268.555 69.8027 268.777 68.8945 269.223 68.2773C269.668 67.6602 270.318 67.3516 271.174 67.3516C272.018 67.3516 272.662 67.6504 273.107 68.248C273.553 68.8418 273.783 69.7188 273.799 70.8789V72.4434ZM273.096 70.9141C273.096 69.9375 272.936 69.1992 272.615 68.6992C272.299 68.1992 271.818 67.9492 271.174 67.9492C270.541 67.9492 270.064 68.1934 269.744 68.6816C269.424 69.1699 269.26 69.8906 269.252 70.8438V72.5195C269.252 73.4922 269.416 74.2363 269.744 74.752C270.076 75.2676 270.557 75.5254 271.186 75.5254C271.811 75.5254 272.283 75.2734 272.604 74.7695C272.928 74.2656 273.092 73.5273 273.096 72.5547V70.9141ZM280.455 72.4434C280.455 73.6465 280.234 74.5605 279.793 75.1855C279.352 75.8066 278.701 76.1172 277.842 76.1172C276.998 76.1172 276.352 75.8125 275.902 75.2031C275.453 74.5898 275.223 73.6992 275.211 72.5312V71.002C275.211 69.8027 275.434 68.8945 275.879 68.2773C276.324 67.6602 276.975 67.3516 277.83 67.3516C278.674 67.3516 279.318 67.6504 279.764 68.248C280.209 68.8418 280.439 69.7188 280.455 70.8789V72.4434ZM279.752 70.9141C279.752 69.9375 279.592 69.1992 279.271 68.6992C278.955 68.1992 278.475 67.9492 277.83 67.9492C277.197 67.9492 276.721 68.1934 276.4 68.6816C276.08 69.1699 275.916 69.8906 275.908 70.8438V72.5195C275.908 73.4922 276.072 74.2363 276.4 74.752C276.732 75.2676 277.213 75.5254 277.842 75.5254C278.467 75.5254 278.939 75.2734 279.26 74.7695C279.584 74.2656 279.748 73.5273 279.752 72.5547V70.9141ZM281.932 77.5938L281.516 77.2891C281.871 76.8125 282.055 76.3184 282.066 75.8066V74.8984H282.752V75.6309C282.752 76.4434 282.479 77.0977 281.932 77.5938ZM289.408 72.4434C289.408 73.6465 289.188 74.5605 288.746 75.1855C288.305 75.8066 287.654 76.1172 286.795 76.1172C285.951 76.1172 285.305 75.8125 284.855 75.2031C284.406 74.5898 284.176 73.6992 284.164 72.5312V71.002C284.164 69.8027 284.387 68.8945 284.832 68.2773C285.277 67.6602 285.928 67.3516 286.783 67.3516C287.627 67.3516 288.271 67.6504 288.717 68.248C289.162 68.8418 289.393 69.7188 289.408 70.8789V72.4434ZM288.705 70.9141C288.705 69.9375 288.545 69.1992 288.225 68.6992C287.908 68.1992 287.428 67.9492 286.783 67.9492C286.15 67.9492 285.674 68.1934 285.354 68.6816C285.033 69.1699 284.869 69.8906 284.861 70.8438V72.5195C284.861 73.4922 285.025 74.2363 285.354 74.752C285.686 75.2676 286.166 75.5254 286.795 75.5254C287.42 75.5254 287.893 75.2734 288.213 74.7695C288.537 74.2656 288.701 73.5273 288.705 72.5547V70.9141ZM296.064 72.4434C296.064 73.6465 295.844 74.5605 295.402 75.1855C294.961 75.8066 294.311 76.1172 293.451 76.1172C292.607 76.1172 291.961 75.8125 291.512 75.2031C291.062 74.5898 290.832 73.6992 290.82 72.5312V71.002C290.82 69.8027 291.043 68.8945 291.488 68.2773C291.934 67.6602 292.584 67.3516 293.439 67.3516C294.283 67.3516 294.928 67.6504 295.373 68.248C295.818 68.8418 296.049 69.7188 296.064 70.8789V72.4434ZM295.361 70.9141C295.361 69.9375 295.201 69.1992 294.881 68.6992C294.564 68.1992 294.084 67.9492 293.439 67.9492C292.807 67.9492 292.33 68.1934 292.01 68.6816C291.689 69.1699 291.525 69.8906 291.518 70.8438V72.5195C291.518 73.4922 291.682 74.2363 292.01 74.752C292.342 75.2676 292.822 75.5254 293.451 75.5254C294.076 75.5254 294.549 75.2734 294.869 74.7695C295.193 74.2656 295.357 73.5273 295.361 72.5547V70.9141ZM302.721 72.4434C302.721 73.6465 302.5 74.5605 302.059 75.1855C301.617 75.8066 300.967 76.1172 300.107 76.1172C299.264 76.1172 298.617 75.8125 298.168 75.2031C297.719 74.5898 297.488 73.6992 297.477 72.5312V71.002C297.477 69.8027 297.699 68.8945 298.145 68.2773C298.59 67.6602 299.24 67.3516 300.096 67.3516C300.939 67.3516 301.584 67.6504 302.029 68.248C302.475 68.8418 302.705 69.7188 302.721 70.8789V72.4434ZM302.018 70.9141C302.018 69.9375 301.857 69.1992 301.537 68.6992C301.221 68.1992 300.74 67.9492 300.096 67.9492C299.463 67.9492 298.986 68.1934 298.666 68.6816C298.346 69.1699 298.182 69.8906 298.174 70.8438V72.5195C298.174 73.4922 298.338 74.2363 298.666 74.752C298.998 75.2676 299.479 75.5254 300.107 75.5254C300.732 75.5254 301.205 75.2734 301.525 74.7695C301.85 74.2656 302.014 73.5273 302.018 72.5547V70.9141ZM304.197 77.5938L303.781 77.2891C304.137 76.8125 304.32 76.3184 304.332 75.8066V74.8984H305.018V75.6309C305.018 76.4434 304.744 77.0977 304.197 77.5938ZM311.674 72.4434C311.674 73.6465 311.453 74.5605 311.012 75.1855C310.57 75.8066 309.92 76.1172 309.061 76.1172C308.217 76.1172 307.57 75.8125 307.121 75.2031C306.672 74.5898 306.441 73.6992 306.43 72.5312V71.002C306.43 69.8027 306.652 68.8945 307.098 68.2773C307.543 67.6602 308.193 67.3516 309.049 67.3516C309.893 67.3516 310.537 67.6504 310.982 68.248C311.428 68.8418 311.658 69.7188 311.674 70.8789V72.4434ZM310.971 70.9141C310.971 69.9375 310.811 69.1992 310.49 68.6992C310.174 68.1992 309.693 67.9492 309.049 67.9492C308.416 67.9492 307.939 68.1934 307.619 68.6816C307.299 69.1699 307.135 69.8906 307.127 70.8438V72.5195C307.127 73.4922 307.291 74.2363 307.619 74.752C307.951 75.2676 308.432 75.5254 309.061 75.5254C309.686 75.5254 310.158 75.2734 310.479 74.7695C310.803 74.2656 310.967 73.5273 310.971 72.5547V70.9141ZM318.33 72.4434C318.33 73.6465 318.109 74.5605 317.668 75.1855C317.227 75.8066 316.576 76.1172 315.717 76.1172C314.873 76.1172 314.227 75.8125 313.777 75.2031C313.328 74.5898 313.098 73.6992 313.086 72.5312V71.002C313.086 69.8027 313.309 68.8945 313.754 68.2773C314.199 67.6602 314.85 67.3516 315.705 67.3516C316.549 67.3516 317.193 67.6504 317.639 68.248C318.084 68.8418 318.314 69.7188 318.33 70.8789V72.4434ZM317.627 70.9141C317.627 69.9375 317.467 69.1992 317.146 68.6992C316.83 68.1992 316.35 67.9492 315.705 67.9492C315.072 67.9492 314.596 68.1934 314.275 68.6816C313.955 69.1699 313.791 69.8906 313.783 70.8438V72.5195C313.783 73.4922 313.947 74.2363 314.275 74.752C314.607 75.2676 315.088 75.5254 315.717 75.5254C316.342 75.5254 316.814 75.2734 317.135 74.7695C317.459 74.2656 317.623 73.5273 317.627 72.5547V70.9141ZM324.986 72.4434C324.986 73.6465 324.766 74.5605 324.324 75.1855C323.883 75.8066 323.232 76.1172 322.373 76.1172C321.529 76.1172 320.883 75.8125 320.434 75.2031C319.984 74.5898 319.754 73.6992 319.742 72.5312V71.002C319.742 69.8027 319.965 68.8945 320.41 68.2773C320.855 67.6602 321.506 67.3516 322.361 67.3516C323.205 67.3516 323.85 67.6504 324.295 68.248C324.74 68.8418 324.971 69.7188 324.986 70.8789V72.4434ZM324.283 70.9141C324.283 69.9375 324.123 69.1992 323.803 68.6992C323.486 68.1992 323.006 67.9492 322.361 67.9492C321.729 67.9492 321.252 68.1934 320.932 68.6816C320.611 69.1699 320.447 69.8906 320.439 70.8438V72.5195C320.439 73.4922 320.604 74.2363 320.932 74.752C321.264 75.2676 321.744 75.5254 322.373 75.5254C322.998 75.5254 323.471 75.2734 323.791 74.7695C324.115 74.2656 324.279 73.5273 324.283 72.5547V70.9141ZM326.463 77.5938L326.047 77.2891C326.402 76.8125 326.586 76.3184 326.598 75.8066V74.8984H327.283V75.6309C327.283 76.4434 327.01 77.0977 326.463 77.5938ZM333.939 72.4434C333.939 73.6465 333.719 74.5605 333.277 75.1855C332.836 75.8066 332.186 76.1172 331.326 76.1172C330.482 76.1172 329.836 75.8125 329.387 75.2031C328.938 74.5898 328.707 73.6992 328.695 72.5312V71.002C328.695 69.8027 328.918 68.8945 329.363 68.2773C329.809 67.6602 330.459 67.3516 331.314 67.3516C332.158 67.3516 332.803 67.6504 333.248 68.248C333.693 68.8418 333.924 69.7188 333.939 70.8789V72.4434ZM333.236 70.9141C333.236 69.9375 333.076 69.1992 332.756 68.6992C332.439 68.1992 331.959 67.9492 331.314 67.9492C330.682 67.9492 330.205 68.1934 329.885 68.6816C329.564 69.1699 329.4 69.8906 329.393 70.8438V72.5195C329.393 73.4922 329.557 74.2363 329.885 74.752C330.217 75.2676 330.697 75.5254 331.326 75.5254C331.951 75.5254 332.424 75.2734 332.744 74.7695C333.068 74.2656 333.232 73.5273 333.236 72.5547V70.9141ZM340.596 72.4434C340.596 73.6465 340.375 74.5605 339.934 75.1855C339.492 75.8066 338.842 76.1172 337.982 76.1172C337.139 76.1172 336.492 75.8125 336.043 75.2031C335.594 74.5898 335.363 73.6992 335.352 72.5312V71.002C335.352 69.8027 335.574 68.8945 336.02 68.2773C336.465 67.6602 337.115 67.3516 337.971 67.3516C338.814 67.3516 339.459 67.6504 339.904 68.248C340.35 68.8418 340.58 69.7188 340.596 70.8789V72.4434ZM339.893 70.9141C339.893 69.9375 339.732 69.1992 339.412 68.6992C339.096 68.1992 338.615 67.9492 337.971 67.9492C337.338 67.9492 336.861 68.1934 336.541 68.6816C336.221 69.1699 336.057 69.8906 336.049 70.8438V72.5195C336.049 73.4922 336.213 74.2363 336.541 74.752C336.873 75.2676 337.354 75.5254 337.982 75.5254C338.607 75.5254 339.08 75.2734 339.4 74.7695C339.725 74.2656 339.889 73.5273 339.893 72.5547V70.9141ZM347.252 72.4434C347.252 73.6465 347.031 74.5605 346.59 75.1855C346.148 75.8066 345.498 76.1172 344.639 76.1172C343.795 76.1172 343.148 75.8125 342.699 75.2031C342.25 74.5898 342.02 73.6992 342.008 72.5312V71.002C342.008 69.8027 342.23 68.8945 342.676 68.2773C343.121 67.6602 343.771 67.3516 344.627 67.3516C345.471 67.3516 346.115 67.6504 346.561 68.248C347.006 68.8418 347.236 69.7188 347.252 70.8789V72.4434ZM346.549 70.9141C346.549 69.9375 346.389 69.1992 346.068 68.6992C345.752 68.1992 345.271 67.9492 344.627 67.9492C343.994 67.9492 343.518 68.1934 343.197 68.6816C342.877 69.1699 342.713 69.8906 342.705 70.8438V72.5195C342.705 73.4922 342.869 74.2363 343.197 74.752C343.529 75.2676 344.01 75.5254 344.639 75.5254C345.264 75.5254 345.736 75.2734 346.057 74.7695C346.381 74.2656 346.545 73.5273 346.549 72.5547V70.9141Z" fill="#18181A"/>
<path d="M21.8653 138.48L7.95511 130.329L4.21996 132.224H1.00001L0.999994 192H569L569 100H565.394L553.029 102.938L544.528 106.729L526.497 102.938L511.556 108.056L501.252 115.07L481.932 120.851L476.008 117.818L466.477 121.894L457.718 127.391L447.93 124.832L441.49 123.789L434.019 125.306L428.095 126.538L419.336 130.898L415.215 128.433L409.548 127.865L404.911 126.064L399.244 124.832L394.092 126.538L385.076 128.433L380.439 125.685L375.545 127.391L369.363 128.433L366.014 126.538L360.347 124.832L348.24 128.433L339.224 126.538L336.648 137.722L329.693 128.433L309.858 125.685L294.917 126.538L286.159 121.894L282.81 116.112L275.855 111.563L268.385 109.667H255.763L246.232 113.174L241.853 108.056H231.291L215.063 115.07L200.38 117.818L191.364 115.07L186.212 108.056L180.287 125.685L175.135 130.329L162.513 134.12L152.982 131.656L142.678 134.12L134.435 128.433L126.192 117.818L118.979 113.174L101.978 123.505L88.5828 119.429L80.3397 123.505L75.1878 117.818L64.1111 130.329L55.3529 128.433L42.7306 145.588L32.942 136.584L21.8653 138.48Z" stroke="#D2F400"/>
<path d="M548.824 166.382L562.771 169.113L566.516 168.478H569V194H1V179.276H3.87134L16.2684 178.292L24.7914 177.021L42.8704 178.292L57.8501 176.577L68.181 174.226L87.5513 172.289L93.4916 173.305L103.048 171.94L111.829 170.098L121.643 170.955L128.1 171.305L135.59 170.796L141.53 170.384L150.311 168.923L154.444 169.748L160.126 169.939L164.775 170.542L170.457 170.955L175.622 170.384L184.661 169.748L189.31 170.669L194.218 170.098L200.416 169.748L203.774 170.384L209.456 170.955L221.594 169.748L230.634 170.384L233.217 166.636L240.19 169.748L260.077 170.669L275.057 170.384L283.838 171.94L287.195 173.877L294.169 175.401L301.659 176.037H314.314L323.87 174.862L328.26 176.577H338.85L355.121 174.226L369.842 173.305L378.882 174.226L384.047 176.577L389.987 170.669L395.153 169.113L407.808 167.843L417.364 168.669L427.695 167.843L435.96 169.748L444.224 173.305L451.456 174.862L468.502 171.4L481.932 172.765L490.197 171.4L495.362 173.305L506.468 169.113L515.249 169.748L527.904 164L537.719 167.017L548.824 166.382Z" fill="#565555"/>
</svg>
