<svg width="320" height="432" viewBox="0 0 320 432" fill="none" xmlns="http://www.w3.org/2000/svg">
<rect x="40" width="40" height="20" fill="#565555"/>
<path d="M57.334 15H55.2173V6.84082L52.6904 7.62451V5.90332L57.1069 4.32129H57.334V15ZM60.564 10.979C60.564 9.74365 60.8398 8.75977 61.3916 8.02734C61.9482 7.29492 62.7075 6.92871 63.6694 6.92871C64.4409 6.92871 65.0781 7.2168 65.5811 7.79297V3.75H67.7051V15H65.7935L65.6909 14.1577C65.1636 14.8169 64.4849 15.1465 63.6548 15.1465C62.7222 15.1465 61.9727 14.7803 61.4062 14.0479C60.8447 13.3105 60.564 12.2876 60.564 10.979ZM62.6807 11.1328C62.6807 11.875 62.8101 12.4438 63.0688 12.8394C63.3276 13.2349 63.7036 13.4326 64.1968 13.4326C64.8511 13.4326 65.3125 13.1567 65.5811 12.605V9.47754C65.3174 8.92578 64.8608 8.6499 64.2114 8.6499C63.1909 8.6499 62.6807 9.47754 62.6807 11.1328Z" fill="#D2F400"/>
<path d="M99.4434 5.52246L95.3198 15H93.0859L97.2168 6.0498H91.9141V4.33594H99.4434V5.52246ZM100.564 10.979C100.564 9.74365 100.84 8.75977 101.392 8.02734C101.948 7.29492 102.708 6.92871 103.669 6.92871C104.441 6.92871 105.078 7.2168 105.581 7.79297V3.75H107.705V15H105.793L105.691 14.1577C105.164 14.8169 104.485 15.1465 103.655 15.1465C102.722 15.1465 101.973 14.7803 101.406 14.0479C100.845 13.3105 100.564 12.2876 100.564 10.979ZM102.681 11.1328C102.681 11.875 102.81 12.4438 103.069 12.8394C103.328 13.2349 103.704 13.4326 104.197 13.4326C104.851 13.4326 105.312 13.1567 105.581 12.605V9.47754C105.317 8.92578 104.861 8.6499 104.211 8.6499C103.191 8.6499 102.681 9.47754 102.681 11.1328Z" fill="#565555"/>
<path d="M135.063 15H132.947V6.84082L130.42 7.62451V5.90332L134.836 4.32129H135.063V15ZM140.608 7.0752L140.674 7.96143C141.235 7.27295 141.995 6.92871 142.952 6.92871C143.972 6.92871 144.673 7.33154 145.054 8.13721C145.61 7.33154 146.404 6.92871 147.434 6.92871C148.293 6.92871 148.933 7.18018 149.353 7.68311C149.773 8.18115 149.983 8.93311 149.983 9.93896V15H147.859V9.94629C147.859 9.49707 147.771 9.16992 147.595 8.96484C147.419 8.75488 147.109 8.6499 146.665 8.6499C146.03 8.6499 145.591 8.95264 145.347 9.55811L145.354 15H143.237V9.95361C143.237 9.49463 143.147 9.1626 142.966 8.95752C142.786 8.75244 142.478 8.6499 142.043 8.6499C141.443 8.6499 141.008 8.89893 140.74 9.39697V15H138.623V7.0752H140.608Z" fill="#565555"/>
<path d="M172.075 8.73047H173.203C173.74 8.73047 174.138 8.59619 174.397 8.32764C174.656 8.05908 174.785 7.70264 174.785 7.2583C174.785 6.82861 174.656 6.49414 174.397 6.25488C174.143 6.01562 173.792 5.896 173.342 5.896C172.937 5.896 172.598 6.0083 172.324 6.23291C172.051 6.45264 171.914 6.74072 171.914 7.09717H169.797C169.797 6.54053 169.946 6.04248 170.244 5.60303C170.547 5.15869 170.967 4.81201 171.504 4.56299C172.046 4.31396 172.642 4.18945 173.291 4.18945C174.419 4.18945 175.303 4.46045 175.942 5.00244C176.582 5.53955 176.902 6.28174 176.902 7.229C176.902 7.71729 176.753 8.1665 176.455 8.57666C176.157 8.98682 175.767 9.30176 175.283 9.52148C175.884 9.73633 176.331 10.0586 176.624 10.4883C176.921 10.918 177.07 11.4258 177.07 12.0117C177.07 12.959 176.724 13.7183 176.03 14.2896C175.342 14.8608 174.429 15.1465 173.291 15.1465C172.227 15.1465 171.355 14.8657 170.676 14.3042C170.002 13.7427 169.666 13.0005 169.666 12.0776H171.782C171.782 12.478 171.931 12.8052 172.229 13.0591C172.532 13.313 172.903 13.4399 173.342 13.4399C173.845 13.4399 174.238 13.3081 174.521 13.0444C174.81 12.7759 174.954 12.4219 174.954 11.9824C174.954 10.918 174.368 10.3857 173.196 10.3857H172.075V8.73047ZM180.608 7.0752L180.674 7.96143C181.235 7.27295 181.995 6.92871 182.952 6.92871C183.972 6.92871 184.673 7.33154 185.054 8.13721C185.61 7.33154 186.404 6.92871 187.434 6.92871C188.293 6.92871 188.933 7.18018 189.353 7.68311C189.773 8.18115 189.983 8.93311 189.983 9.93896V15H187.859V9.94629C187.859 9.49707 187.771 9.16992 187.595 8.96484C187.419 8.75488 187.109 8.6499 186.665 8.6499C186.03 8.6499 185.591 8.95264 185.347 9.55811L185.354 15H183.237V9.95361C183.237 9.49463 183.147 9.1626 182.966 8.95752C182.786 8.75244 182.478 8.6499 182.043 8.6499C181.443 8.6499 181.008 8.89893 180.74 9.39697V15H178.623V7.0752H180.608Z" fill="#565555"/>
<path d="M217.795 15H215.679V6.84082L213.152 7.62451V5.90332L217.568 4.32129H217.795V15ZM224.314 12.0044L225.779 7.0752H228.049L224.863 16.2305L224.688 16.6479C224.214 17.6831 223.433 18.2007 222.344 18.2007C222.036 18.2007 221.724 18.1543 221.406 18.0615V16.4575L221.729 16.4648C222.129 16.4648 222.427 16.4038 222.622 16.2817C222.822 16.1597 222.979 15.957 223.091 15.6738L223.34 15.022L220.564 7.0752H222.842L224.314 12.0044Z" fill="#565555"/>
<path d="M253.796 12.8027H249.944L249.211 15H246.875L250.845 4.33594H252.881L256.873 15H254.536L253.796 12.8027ZM250.537 11.0229H253.203L251.863 7.03125L250.537 11.0229ZM260.066 13.2349H264.731V15H257.869V4.33594H260.066V13.2349ZM268.196 13.2349H272.861V15H265.999V4.33594H268.196V13.2349Z" fill="#565555"/>
<path d="M8.93878 311.906L0.979595 293.921L-1.15759 298.104H-3L-3 430H322L322 227H319.936L312.862 233.483L307.998 241.848L297.68 233.483L289.132 244.776L283.236 260.252L272.181 273.008L268.791 266.316L263.338 275.309L258.327 287.438L252.726 281.792L249.041 279.491L244.766 282.837L241.376 285.556L236.365 295.176L234.007 289.739L230.764 288.484L228.111 284.51L224.868 281.792L221.921 285.556L216.762 289.739L214.109 283.674L211.308 287.438L207.771 289.739L205.855 285.556L202.612 281.792L195.685 289.739L190.526 285.556L189.052 310.233L185.073 289.739L173.723 283.674L165.175 285.556L160.163 275.309L158.247 262.552L154.268 252.514L149.993 248.331H142.771L137.317 256.069L134.812 244.776H128.769L119.483 260.252L111.082 266.316L105.923 260.252L102.975 244.776L99.585 283.674L96.6372 293.921L89.415 302.286L83.9614 296.849L78.0658 302.286L73.3492 289.739L68.6327 266.316L64.5057 256.069L54.7778 278.864L47.1134 269.871L42.3968 278.864L39.449 266.316L33.1111 293.921L28.0998 289.739L20.8776 327.591L15.2766 307.724L8.93878 311.906Z" stroke="#D2F400" stroke-width="3"/>
<path d="M308.633 384.97L316.491 389.522L318.601 388.463H320V431H0V406.46H1.61768L8.60193 404.819L13.4036 402.702L23.5889 404.819L32.0282 401.961L37.8484 398.044L48.7613 394.815L52.1079 396.509L57.4916 394.233L62.4388 391.163L67.968 392.592L71.6056 393.174L75.8253 392.327L79.1719 391.639L84.1191 389.204L86.4472 390.581L89.6483 390.898L92.2674 391.904L95.4685 392.592L98.3786 391.639L103.471 390.581L106.09 392.116L108.855 391.163L112.347 390.581L114.239 391.639L117.44 392.592L124.278 390.581L129.371 391.639L130.826 385.393L134.755 390.581L145.959 392.116L154.398 391.639L159.345 394.233L161.237 397.462L165.165 400.002L169.385 401.061H176.515L181.899 399.103L184.372 401.961H190.338L199.505 398.044L207.798 396.509L212.891 398.044L215.801 401.961L219.148 392.116L222.058 389.522L229.188 387.405L234.571 388.781L240.392 387.405L245.048 390.581L249.704 396.509L253.778 399.103L263.381 393.333L270.948 395.609L275.604 393.333L278.514 396.509L284.771 389.522L289.718 390.581L296.848 381L302.377 386.029L308.633 384.97Z" fill="#565555"/>
<rect y="50" width="320" height="60" fill="white"/>
<path d="M59.0918 63.0156H55.1133V67H54.3926V58.4688H59.6777V59.084H55.1133V62.4004H59.0918V63.0156ZM63.7559 61.2578C63.6074 61.2305 63.4492 61.2168 63.2812 61.2168C62.8438 61.2168 62.4727 61.3398 62.168 61.5859C61.8672 61.8281 61.6523 62.1816 61.5234 62.6465V67H60.8262V60.6602H61.5117L61.5234 61.668C61.8945 60.918 62.4902 60.543 63.3105 60.543C63.5059 60.543 63.6602 60.5684 63.7734 60.6191L63.7559 61.2578ZM65.6543 67H64.9512V60.6602H65.6543V67ZM64.8281 58.8262C64.8281 58.6934 64.8711 58.582 64.957 58.4922C65.043 58.3984 65.1602 58.3516 65.3086 58.3516C65.457 58.3516 65.5742 58.3984 65.6602 58.4922C65.75 58.582 65.7949 58.6934 65.7949 58.8262C65.7949 58.959 65.75 59.0703 65.6602 59.1602C65.5742 59.25 65.457 59.2949 65.3086 59.2949C65.1602 59.2949 65.043 59.25 64.957 59.1602C64.8711 59.0703 64.8281 58.959 64.8281 58.8262ZM67.2832 63.7715C67.2832 62.7871 67.502 62.0039 67.9395 61.4219C68.3809 60.8359 68.9785 60.543 69.7324 60.543C70.5879 60.543 71.2402 60.8809 71.6895 61.5566V58H72.3867V67H71.7305L71.7012 66.1562C71.252 66.7969 70.5918 67.1172 69.7207 67.1172C68.9902 67.1172 68.4004 66.8242 67.9512 66.2383C67.5059 65.6484 67.2832 64.8535 67.2832 63.8535V63.7715ZM67.9922 63.8945C67.9922 64.7031 68.1543 65.3418 68.4785 65.8105C68.8027 66.2754 69.2598 66.5078 69.8496 66.5078C70.7129 66.5078 71.3262 66.127 71.6895 65.3652V62.3887C71.3262 61.5645 70.7168 61.1523 69.8613 61.1523C69.2715 61.1523 68.8125 61.3848 68.4844 61.8496C68.1562 62.3105 67.9922 62.9922 67.9922 63.8945ZM78.2344 67C78.1641 66.8008 78.1191 66.5059 78.0996 66.1152C77.8535 66.4355 77.5391 66.6836 77.1562 66.8594C76.7773 67.0312 76.375 67.1172 75.9492 67.1172C75.3398 67.1172 74.8457 66.9473 74.4668 66.6074C74.0918 66.2676 73.9043 65.8379 73.9043 65.3184C73.9043 64.7012 74.1602 64.2129 74.6719 63.8535C75.1875 63.4941 75.9043 63.3145 76.8223 63.3145H78.0938V62.5938C78.0938 62.1406 77.9531 61.7852 77.6719 61.5273C77.3945 61.2656 76.9883 61.1348 76.4531 61.1348C75.9648 61.1348 75.5605 61.2598 75.2402 61.5098C74.9199 61.7598 74.7598 62.0605 74.7598 62.4121L74.0566 62.4062C74.0566 61.9023 74.291 61.4668 74.7598 61.0996C75.2285 60.7285 75.8047 60.543 76.4883 60.543C77.1953 60.543 77.752 60.7207 78.1582 61.0762C78.5684 61.4277 78.7793 61.9199 78.791 62.5527V65.5527C78.791 66.166 78.8555 66.625 78.9844 66.9297V67H78.2344ZM76.0312 66.4961C76.5 66.4961 76.918 66.3828 77.2852 66.1562C77.6562 65.9297 77.9258 65.627 78.0938 65.248V63.8535H76.8398C76.1406 63.8613 75.5938 63.9902 75.1992 64.2402C74.8047 64.4863 74.6074 64.8262 74.6074 65.2598C74.6074 65.6152 74.7383 65.9102 75 66.1445C75.2656 66.3789 75.6094 66.4961 76.0312 66.4961ZM82.582 65.9922L84.4336 60.6602H85.1895L82.4824 68.0781L82.3418 68.4062C81.9941 69.1758 81.457 69.5605 80.7305 69.5605C80.5625 69.5605 80.3828 69.5332 80.1914 69.4785L80.1855 68.8984L80.5488 68.9336C80.8926 68.9336 81.1699 68.8477 81.3809 68.6758C81.5957 68.5078 81.7773 68.2168 81.9258 67.8027L82.2363 66.9473L79.8457 60.6602H80.6133L82.582 65.9922ZM85.5 68.5938L85.084 68.2891C85.4395 67.8125 85.623 67.3184 85.6348 66.8066V65.8984H86.3203V66.6309C86.3203 67.4434 86.0469 68.0977 85.5 68.5938ZM96.0938 67H90.75V66.4609L93.6738 63.1445C94.1582 62.5859 94.4941 62.125 94.6816 61.7617C94.8691 61.3984 94.9629 61.0449 94.9629 60.7012C94.9629 60.1621 94.8047 59.7363 94.4883 59.4238C94.1719 59.1074 93.7363 58.9492 93.1816 58.9492C92.6074 58.9492 92.1426 59.1328 91.7871 59.5C91.4355 59.8672 91.2598 60.3438 91.2598 60.9297H90.5625C90.5625 60.4492 90.6699 60.0117 90.8848 59.6172C91.1035 59.2227 91.4121 58.9141 91.8105 58.6914C92.2129 58.4648 92.6699 58.3516 93.1816 58.3516C93.9629 58.3516 94.5723 58.5566 95.0098 58.9668C95.4512 59.377 95.6719 59.9355 95.6719 60.6426C95.6719 61.041 95.5469 61.4766 95.2969 61.9492C95.0508 62.4219 94.6152 63.0117 93.9902 63.7188L91.6113 66.4082H96.0938V67ZM100.67 67H99.9668V59.3125L97.6465 60.1738V59.5176L100.553 58.4395H100.67V67ZM107.256 67V58.4688H109.641C110.34 58.4688 110.967 58.6289 111.521 58.9492C112.076 59.2656 112.508 59.7207 112.816 60.3145C113.129 60.9082 113.285 61.584 113.285 62.3418V63.127C113.285 63.8887 113.131 64.5645 112.822 65.1543C112.514 65.7441 112.078 66.1992 111.516 66.5195C110.957 66.8398 110.314 67 109.588 67H107.256ZM107.977 59.084V66.3906H109.594C110.492 66.3906 111.213 66.0938 111.756 65.5C112.299 64.9023 112.57 64.0957 112.57 63.0801V62.3301C112.57 61.3496 112.303 60.5645 111.768 59.9746C111.232 59.3848 110.527 59.0879 109.652 59.084H107.977ZM117.41 67.1172C116.871 67.1172 116.383 66.9844 115.945 66.7188C115.512 66.4531 115.174 66.084 114.932 65.6113C114.689 65.1348 114.568 64.6016 114.568 64.0117V63.7598C114.568 63.1504 114.686 62.6016 114.92 62.1133C115.158 61.625 115.488 61.2422 115.91 60.9648C116.332 60.6836 116.789 60.543 117.281 60.543C118.051 60.543 118.66 60.8066 119.109 61.334C119.562 61.8574 119.789 62.5742 119.789 63.4844V63.877H115.266V64.0117C115.266 64.7305 115.471 65.3301 115.881 65.8105C116.295 66.2871 116.814 66.5254 117.439 66.5254C117.814 66.5254 118.145 66.457 118.43 66.3203C118.719 66.1836 118.98 65.9648 119.215 65.6641L119.654 65.998C119.139 66.7441 118.391 67.1172 117.41 67.1172ZM117.281 61.1406C116.754 61.1406 116.309 61.334 115.945 61.7207C115.586 62.1074 115.367 62.627 115.289 63.2793H119.092V63.2031C119.072 62.5938 118.898 62.0977 118.57 61.7148C118.242 61.332 117.812 61.1406 117.281 61.1406ZM123.498 66.5254C123.986 66.5254 124.395 66.3887 124.723 66.1152C125.055 65.8379 125.234 65.4805 125.262 65.043H125.936C125.916 65.4297 125.795 65.7832 125.572 66.1035C125.35 66.4199 125.053 66.668 124.682 66.8477C124.314 67.0273 123.92 67.1172 123.498 67.1172C122.666 67.1172 122.006 66.8281 121.518 66.25C121.033 65.6719 120.791 64.8945 120.791 63.918V63.707C120.791 63.082 120.9 62.5293 121.119 62.0488C121.338 61.5684 121.65 61.1973 122.057 60.9355C122.467 60.6738 122.945 60.543 123.492 60.543C124.188 60.543 124.76 60.75 125.209 61.1641C125.662 61.5781 125.904 62.123 125.936 62.7988H125.262C125.23 62.3027 125.051 61.9023 124.723 61.5977C124.398 61.293 123.988 61.1406 123.492 61.1406C122.859 61.1406 122.367 61.3691 122.016 61.8262C121.668 62.2832 121.494 62.9238 121.494 63.748V63.9531C121.494 64.7617 121.668 65.3926 122.016 65.8457C122.367 66.2988 122.861 66.5254 123.498 66.5254ZM135.492 67H130.148V66.4609L133.072 63.1445C133.557 62.5859 133.893 62.125 134.08 61.7617C134.268 61.3984 134.361 61.0449 134.361 60.7012C134.361 60.1621 134.203 59.7363 133.887 59.4238C133.57 59.1074 133.135 58.9492 132.58 58.9492C132.006 58.9492 131.541 59.1328 131.186 59.5C130.834 59.8672 130.658 60.3438 130.658 60.9297H129.961C129.961 60.4492 130.068 60.0117 130.283 59.6172C130.502 59.2227 130.811 58.9141 131.209 58.6914C131.611 58.4648 132.068 58.3516 132.58 58.3516C133.361 58.3516 133.971 58.5566 134.408 58.9668C134.85 59.377 135.07 59.9355 135.07 60.6426C135.07 61.041 134.945 61.4766 134.695 61.9492C134.449 62.4219 134.014 63.0117 133.389 63.7188L131.01 66.4082H135.492V67ZM141.949 63.4434C141.949 64.6465 141.729 65.5605 141.287 66.1855C140.846 66.8066 140.195 67.1172 139.336 67.1172C138.492 67.1172 137.846 66.8125 137.396 66.2031C136.947 65.5898 136.717 64.6992 136.705 63.5312V62.002C136.705 60.8027 136.928 59.8945 137.373 59.2773C137.818 58.6602 138.469 58.3516 139.324 58.3516C140.168 58.3516 140.812 58.6504 141.258 59.248C141.703 59.8418 141.934 60.7188 141.949 61.8789V63.4434ZM141.246 61.9141C141.246 60.9375 141.086 60.1992 140.766 59.6992C140.449 59.1992 139.969 58.9492 139.324 58.9492C138.691 58.9492 138.215 59.1934 137.895 59.6816C137.574 60.1699 137.41 60.8906 137.402 61.8438V63.5195C137.402 64.4922 137.566 65.2363 137.895 65.752C138.227 66.2676 138.707 66.5254 139.336 66.5254C139.961 66.5254 140.434 66.2734 140.754 65.7695C141.078 65.2656 141.242 64.5273 141.246 63.5547V61.9141ZM146.725 67H146.021V59.3125L143.701 60.1738V59.5176L146.607 58.4395H146.725V67ZM155.145 60.666C155.145 61.1074 155.016 61.5039 154.758 61.8555C154.5 62.2031 154.16 62.459 153.738 62.623C154.23 62.791 154.625 63.0625 154.922 63.4375C155.219 63.8125 155.367 64.2461 155.367 64.7383C155.367 65.4688 155.119 66.0488 154.623 66.4785C154.127 66.9043 153.471 67.1172 152.654 67.1172C151.83 67.1172 151.17 66.9043 150.674 66.4785C150.182 66.0527 149.936 65.4727 149.936 64.7383C149.936 64.2539 150.078 63.8223 150.363 63.4434C150.648 63.0645 151.039 62.791 151.535 62.623C151.113 62.459 150.777 62.2031 150.527 61.8555C150.277 61.5039 150.152 61.1074 150.152 60.666C150.152 59.959 150.379 59.3965 150.832 58.9785C151.289 58.5605 151.893 58.3516 152.643 58.3516C153.393 58.3516 153.996 58.5625 154.453 58.9844C154.914 59.4062 155.145 59.9668 155.145 60.666ZM154.664 64.7441C154.664 64.2129 154.475 63.7773 154.096 63.4375C153.717 63.0938 153.232 62.9219 152.643 62.9219C152.053 62.9219 151.57 63.0898 151.195 63.4258C150.82 63.7617 150.633 64.2012 150.633 64.7441C150.633 65.2871 150.814 65.7207 151.178 66.0449C151.541 66.3652 152.033 66.5254 152.654 66.5254C153.26 66.5254 153.746 66.3652 154.113 66.0449C154.48 65.7246 154.664 65.291 154.664 64.7441ZM154.441 60.6602C154.441 60.1719 154.271 59.7656 153.932 59.4414C153.596 59.1133 153.166 58.9492 152.643 58.9492C152.111 58.9492 151.68 59.1074 151.348 59.4238C151.02 59.7363 150.855 60.1484 150.855 60.6602C150.855 61.1602 151.02 61.5625 151.348 61.8672C151.68 62.1719 152.113 62.3242 152.648 62.3242C153.176 62.3242 153.605 62.1719 153.938 61.8672C154.2€Zq    €Zq                    Ð
f            €ûe    èZq             Zq     @       Zq            184 156.873 66.8066V65.8984H157.559V66.6309C157.559 67.4434 157.285 68.0977 156.738 68.5938ZM165.252 67H164.549V59.3125L162.229 60.1738V59.5176L165.135 58.4395H165.252V67ZM173.672 60.666C173.672 61.1074 173.543 61.5039 173.285 61.8555C173.027 62.2031 172.688 62.459 172.266 62.623C172.758 62.791 173.152 63.0625 173.449 63.4375C173.746 63.8125 173.895 64.2461 173.895 64.7383C173.895 65.4688 173.646 66.0488 173.15 66.4785C172.654 66.9043 171.998 67.1172 171.182 67.1172C170.357 67.1172 169.697 66.9043 169.201 66.4785C168.709 66.0527 168.463 65.4727 168.463 64.7383C168.463 64.2539 168.605 63.8223 168.891 63.4434C169.176 63.0645 169.566 62.791 170.062 62.623C169.641 62.459 169.305 62.2031 169.055 61.8555C168.805 61.5039 168.68 61.1074 168.68 60.666C168.68 59.959 168.906 59.3965 169.359 58.9785C169.816 58.5605 170.42 58.3516 171.17 58.3516C171.92 58.3516 172.523 58.5625 172.98 58.9844C173.441 59.4062 173.672 59.9668 173.672 60.666ZM173.191 64.7441C173.191 64.2129 173.002 63.7773 172.623 63.4375C172.244 63.0938 171.76 62.9219 171.17 62.9219C170.58 62.9219 170.098 63.0898 169.723 63.4258C169.348 63.7617 169.16 64.2012 169.16 64.7441C169.16 65.2871 169.342 65.7207 169.705 66.0449C170.068 66.3652 170.561 66.5254 171.182 66.5254C171.787 66.5254 172.273 66.3652 172.641 66.0449C173.008 65.7246 173.191 65.291 173.191 64.7441ZM172.969 60.6602C172.969 60.1719 172.799 59.7656 172.459 59.4414C172.123 59.1133 171.693 58.9492 171.17 58.9492C170.639 58.9492 170.207 59.1074 169.875 59.4238C169.547 59.7363 169.383 60.1484 169.383 60.6602C169.383 61.1602 169.547 61.5625 169.875 61.8672C170.207 62.1719 170.641 62.3242 171.176 62.3242C171.703 62.3242 172.133 62.1719 172.465 61.8672C172.801 61.5586 172.969 61.1562 172.969 60.6602ZM175.242 66.5781C175.242 66.4414 175.285 66.3262 175.371 66.2324C175.461 66.1348 175.584 66.0859 175.74 66.0859C175.896 66.0859 176.02 66.1348 176.109 66.2324C176.199 66.3262 176.244 66.4414 176.244 66.5781C176.244 66.7148 176.199 66.8281 176.109 66.918C176.02 67.0039 175.896 67.0469 175.74 67.0469C175.584 67.0469 175.461 67.0039 175.371 66.918C175.285 66.8281 175.242 66.7148 175.242 66.5781ZM175.254 61.1699C175.254 61.0332 175.297 60.918 175.383 60.8242C175.473 60.7266 175.596 60.6777 175.752 60.6777C175.908 60.6777 176.031 60.7266 176.121 60.8242C176.211 60.918 176.256 61.0332 176.256 61.1699C176.256 61.3066 176.211 61.4199 176.121 61.5098C176.031 61.5957 175.908 61.6387 175.752 61.6387C175.596 61.6387 175.473 61.5957 175.383 61.5098C175.297 61.4199 175.254 61.3066 175.254 61.1699ZM182.965 63.4434C182.965 64.6465 182.744 65.5605 182.303 66.1855C181.861 66.8066 181.211 67.1172 180.352 67.1172C179.508 67.1172 178.861 66.8125 178.412 66.2031C177.963 65.5898 177.732 64.6992 177.721 63.5312V62.002C177.721 60.8027 177.943 59.8945 178.389 59.2773C178.834 58.6602 179.484 58.3516 180.34 58.3516C181.184 58.3516 181.828 58.6504 182.273 59.248C182.719 59.8418 182.949 60.7188 182.965 61.8789V63.4434ZM182.262 61.9141C182.262 60.9375 182.102 60.1992 181.781 59.6992C181.465 59.1992 180.984 58.9492 180.34 58.9492C179.707 58.9492 179.23 59.1934 178.91 59.6816C178.59 60.1699 178.426 60.8906 178.418 61.8438V63.5195C178.418 64.4922 178.582 65.2363 178.91 65.752C179.242 66.2676 179.723 66.5254 180.352 66.5254C180.977 66.5254 181.449 66.2734 181.77 65.7695C182.094 65.2656 182.258 64.5273 182.262 63.5547V61.9141ZM189.621 63.4434C189.621 64.6465 189.4 65.5605 188.959 66.1855C188.518 66.8066 187.867 67.1172 187.008 67.1172C186.164 67.1172 185.518 66.8125 185.068 66.2031C184.619 65.5898 184.389 64.6992 184.377 63.5312V62.002C184.377 60.8027 184.6 59.8945 185.045 59.2773C185.49 58.6602 186.141 58.3516 186.996 58.3516C187.84 58.3516 188.484 58.6504 188.93 59.248C189.375 59.8418 189.605 60.7188 189.621 61.8789V63.4434ZM188.918 61.9141C188.918 60.9375 188.758 60.1992 188.438 59.6992C188.121 59.1992 187.641 58.9492 186.996 58.9492C186.363 58.9492 185.887 59.1934 185.566 59.6816C185.246 60.1699 185.082 60.8906 185.074 61.8438V63.5195C185.074 64.4922 185.238 65.2363 185.566 65.752C185.898 66.2676 186.379 66.5254 187.008 66.5254C187.633 66.5254 188.105 66.2734 188.426 65.7695C188.75 65.2656 188.914 64.5273 188.918 63.5547V61.9141ZM191.074 66.5781C191.074 66.4414 191.117 66.3262 191.203 66.2324C191.293 66.1348 191.416 66.0859 191.572 66.0859C191.729 66.0859 191.852 66.1348 191.941 66.2324C192.031 66.3262 192.076 66.4414 192.076 66.5781C192.076 66.7148 192.031 66.8281 191.941 66.918C191.852 67.0039 191.729 67.0469 191.572 67.0469C191.416 67.0469 191.293 67.0039 191.203 66.918C191.117 66.8281 191.074 66.7148 191.074 66.5781ZM191.086 61.1699C191.086 61.0332 191.129 60.918 191.215 60.8242C191.305 60.7266 191.428 60.6777 191.584 60.6777C191.74 60.6777 191.863 60.7266 191.953 60.8242C192.043 60.918 192.088 61.0332 192.088 61.1699C192.088 61.3066 192.043 61.4199 191.953 61.5098C191.863 61.5957 191.74 61.6387 191.584 61.6387C191.428 61.6387 191.305 61.5957 191.215 61.5098C191.129 61.4199 191.086 61.3066 191.086 61.1699ZM198.797 63.4434C198.797 64.6465 198.576 65.5605 198.135 66.1855C197.693 66.8066 197.043 67.1172 196.184 67.1172C195.34 67.1172 194.693 66.8125 194.244 66.2031C193.795 65.5898 193.564 64.6992 193.553 63.5312V62.002C193.553 60.8027 193.775 59.8945 194.221 59.2773C194.666 58.6602 195.316 58.3516 196.172 58.3516C197.016 58.3516 197.66 58.6504 198.105 59.248C198.551 59.8418 198.781 60.7188 198.797 61.8789V63.4434ZM198.094 61.9141C198.094 60.9375 197.934 60.1992 197.613 59.6992C197.297 59.1992 196.816 58.9492 196.172 58.9492C195.539 58.9492 195.062 59.1934 194.742 59.6816C194.422 60.1699 194.258 60.8906 194.25 61.8438V63.5195C194.25 64.4922 194.414 65.2363 194.742 65.752C195.074 66.2676 195.555 66.5254 196.184 66.5254C196.809 66.5254 197.281 66.2734 197.602 65.7695C197.926 65.2656 198.09 64.5273 198.094 63.5547V61.9141ZM205.453 63.4434C205.453 64.6465 205.232 65.5605 204.791 66.1855C204.35 66.8066 203.699 67.1172 202.84 67.1172C201.996 67.1172 201.35 66.8125 200.9 66.2031C200.451 65.5898 200.221 64.6992 200.209 63.5312V62.002C200.209 60.8027 200.432 59.8945 200.877 59.2773C201.322 58.6602 201.973 58.3516 202.828 58.3516C203.672 58.3516 204.316 58.6504 204.762 59.248C205.207 59.8418 205.438 60.7188 205.453 61.8789V63.4434ZM204.75 61.9141C204.75 60.9375 204.59 60.1992 204.27 59.6992C203.953 59.1992 203.473 58.9492 202.828 58.9492C202.195 58.9492 201.719 59.1934 201.398 59.6816C201.078 60.1699 200.914 60.8906 200.906 61.8438V63.5195C200.906 64.4922 201.07 65.2363 201.398 65.752C201.73 66.2676 202.211 66.5254 202.84 66.5254C203.465 66.5254 203.938 66.2734 204.258 65.7695C204.582 65.2656 204.746 64.5273 204.75 63.5547V61.9141ZM216.035 58.4688V64.293C216.031 64.8672 215.904 65.3672 215.654 65.793C215.404 66.2188 215.051 66.5469 214.594 66.7773C214.141 67.0039 213.619 67.1172 213.029 67.1172C212.131 67.1172 211.41 66.873 210.867 66.3848C210.328 65.8926 210.049 65.2129 210.029 64.3457V58.4688H210.744V64.2402C210.744 64.959 210.949 65.5176 211.359 65.916C211.77 66.3105 212.326 66.5078 213.029 66.5078C213.732 66.5078 214.287 66.3086 214.693 65.9102C215.104 65.5117 215.309 64.957 215.309 64.2461V58.4688H216.035ZM223.834 59.084H220.91V67H220.189V59.084H217.271V58.4688H223.834V59.084ZM231.094 64.3398C230.996 65.2383 230.674 65.9258 230.127 66.4023C229.584 66.8789 228.859 67.1172 227.953 67.1172C227.32 67.1172 226.76 66.959 226.271 66.6426C225.787 66.3262 225.412 65.8789 225.146 65.3008C224.881 64.7188 224.746 64.0547 224.742 63.3086V62.2012C224.742 61.4434 224.875 60.7715 225.141 60.1855C225.406 59.5996 225.787 59.1484 226.283 58.832C226.783 58.5117 227.357 58.3516 228.006 58.3516C228.92 58.3516 229.641 58.5996 230.168 59.0957C230.699 59.5879 231.008 60.2695 231.094 61.1406H230.367C230.188 59.6914 229.4 58.9668 228.006 58.9668C227.232 58.9668 226.615 59.2559 226.154 59.834C225.697 60.4121 225.469 61.2109 225.469 62.2305V63.2734C225.469 64.2578 225.691 65.043 226.137 65.6289C226.586 66.2148 227.191 66.5078 227.953 66.5078C228.707 66.5078 229.275 66.3281 229.658 65.9688C230.041 65.6055 230.277 65.0625 230.367 64.3398H231.094ZM235.459 62.6641H238.055V63.3203H235.459V66.1445H234.75V63.3203H232.207V62.6641H234.75V59.9336H235.459V62.6641ZM244.488 63.4434C244.488 64.6465 244.268 65.5605 243.826 66.1855C243.385 66.8066 242.734 67.1172 241.875 67.1172C241.031 67.1172 240.385 66.8125 239.936 66.2031C239.486 65.5898 239.256 64.6992 239.244 63.5312V62.002C239.244 60.8027 239.467 59.8945 239.912 59.2773C240.357 58.6602 241.008 58.3516 241.863 58.3516C242.707 58.3516 243.352 58.6504 243.797 59.248C244.242 59.8418 244.473 60.7188 244.488 61.8789V63.4434ZM243.785 61.9141C243.785 60.9375 243.625 60.1992 243.305 59.6992C242.988 59.1992 242.508 58.9492 241.863 58.9492C241.23 58.9492 240.754 59.1934 240.434 59.6816C240.113 60.1699 239.949 60.8906 239.941 61.8438V63.5195C239.941 64.4922 240.105 65.2363 240.434 65.752C240.766 66.2676 241.246 66.5254 241.875 66.5254C242.5 66.5254 242.973 66.2734 243.293 65.7695C243.617 65.2656 243.781 64.5273 243.785 63.5547V61.9141ZM247.559 62.3535H248.285C248.688 62.3535 249.039 62.2832 249.34 62.1426C249.641 61.998 249.869 61.8027 250.025 61.5566C250.186 61.3066 250.266 61.0195 250.266 60.6953C250.266 60.1484 250.111 59.7207 249.803 59.4121C249.494 59.1035 249.051 58.9492 248.473 58.9492C247.926 58.9492 247.477 59.1113 247.125 59.4355C246.777 59.7559 246.604 60.1797 246.604 60.707H245.9C245.9 60.2656 246.012 59.8633 246.234 59.5C246.457 59.1328 246.766 58.8496 247.16 58.6504C247.555 58.4512 247.992 58.3516 248.473 58.3516C249.246 58.3516 249.855 58.5625 250.301 58.9844C250.746 59.4062 250.969 59.9844 250.969 60.7188C250.969 61.1289 250.838 61.5078 250.576 61.8555C250.318 62.1992 249.963 62.457 249.51 62.6289C250.041 62.7773 250.443 63.0332 250.717 63.3965C250.99 63.7559 251.127 64.1855 251.127 64.6855C251.127 65.416 250.889 66.0039 250.412 66.4492C249.936 66.8945 249.299 67.1172 248.502 67.1172C247.994 67.1172 247.527 67.0156 247.102 66.8125C246.68 66.6094 246.352 66.3262 246.117 65.9629C245.887 65.5957 245.771 65.1699 245.771 64.6855H246.475C246.475 65.2285 246.664 65.6719 247.043 66.0156C247.422 66.3555 247.908 66.5254 248.502 66.5254C249.107 66.5254 249.578 66.3711 249.914 66.0625C250.254 65.75 250.424 65.2988 250.424 64.709C250.424 64.1387 250.24 63.7031 249.873 63.4023C249.51 63.1016 248.973 62.9512 248.262 62.9512H247.559V62.3535ZM252.598 66.5781C252.598 66.4414 252.641 66.3262 252.727 66.2324C252.816 66.1348 252.939 66.0859 253.096 66.0859C253.252 66.0859 253.375 66.1348 253.465 66.2324C253.555 66.3262 253.6 66.4414 253.6 66.5781C253.6 66.7148 253.555 66.8281 253.465 66.918C253.375 67.0039 253.252 67.0469 253.096 67.0469C252.939 67.0469 252.816 67.0039 252.727 66.918C252.641 66.8281 252.598 66.7148 252.598 66.5781ZM252.609 61.1699C252.609 61.0332 252.652 60.918 252.738 60.8242C252.828 60.7266 252.951 60.6777 253.107 60.6777C253.264 60.6777 253.387 60.7266 253.477 60.8242C253.566 60.918 253.611 61.0332 253.611 61.1699C253.611 61.3066 253.566 61.4199 253.477 61.5098C253.387 61.5957 253.264 61.6387 253.107 61.6387C252.951 61.6387 252.828 61.5957 252.738 61.5098C252.652 61.4199 252.609 61.3066 252.609 61.1699ZM260.32 63.4434C260.32 64.6465 260.1 65.5605 259.658 66.1855C259.217 66.8066 258.566 67.1172 257.707 67.1172C256.863 67.1172 256.217 66.8125 255.768 66.2031C255.318 65.5898 255.088 64.6992 255.076 63.5312V62.002C255.076 60.8027 255.299 59.8945 255.744 59.2773C256.189 58.6602 256.84 58.3516 257.695 58.3516C258.539 58.3516 259.184 58.6504 259.629 59.248C260.074 59.8418 260.305 60.7188 260.32 61.8789V63.4434ZM259.617 61.9141C259.617 60.9375 259.457 60.1992 259.137 59.6992C258.82 59.1992 258.34 58.9492 257.695 58.9492C257.062 58.9492 256.586 59.1934 256.266 59.6816C255.945 60.1699 255.781 60.8906 255.773 61.8438V63.5195C255.773 64.4922 255.938 65.2363 256.266 65.752C256.598 66.2676 257.078 66.5254 257.707 66.5254C258.332 66.5254 258.805 66.2734 259.125 65.7695C259.449 65.2656 259.613 64.5273 259.617 63.5547V61.9141ZM266.977 63.4434C266.977 64.6465 266.756 65.5605 266.314 66.1855C265.873 66.8066 265.223 67.1172 264.363 67.1172C263.52 67.1172 262.873 66.8125 262.424 66.2031C261.975 65.5898 261.744 64.6992 261.732 63.5312V62.002C261.732 60.8027 261.955 59.8945 262.4 59.2773C262.846 58.6602 263.496 58.3516 264.352 58.3516C265.195 58.3516 265.84 58.6504 266.285 59.248C266.73 59.8418 266.961 60.7188 266.977 61.8789V63.4434ZM266.273 61.9141C266.273 60.9375 266.113 60.1992 265.793 59.6992C265.477 59.1992 264.996 58.9492 264.352 58.9492C263.719 58.9492 263.242 59.1934 262.922 59.6816C262.602 60.1699 262.438 60.8906 262.43 61.8438V63.5195C262.43 64.4922 262.594 65.2363 262.922 65.752C263.254 66.2676 263.734 66.5254 264.363 66.5254C264.988 66.5254 265.461 66.2734 265.781 65.7695C266.105 65.2656 266.27 64.5273 266.273 63.5547V61.9141ZM67.6143 72.3359L71.5474 81.7476L75.4951 72.3359H76.6963V83H75.7954V78.3564L75.8687 73.5957L71.8989 83H71.2031L67.248 73.6323L67.3213 78.3271V83H66.4204V72.3359H67.6143ZM84.1963 83C84.1084 82.751 84.0522 82.3823 84.0278 81.894C83.7202 82.2944 83.3271 82.6045 82.8486 82.8242C82.375 83.0391 81.8721 83.1465 81.3398 83.1465C80.5781 83.1465 79.9604 82.9341 79.4868 82.5093C79.0181 82.0845 78.7837 81.5474 78.7837 80.8979C78.7837 80.1265 79.1035 79.5161 79.7432 79.0669C80.3877 78.6177 81.2837 78.3931 82.4312 78.3931H84.0205V77.4922C84.0205 76.9258 83.8447 76.4814 83.4932 76.1592C83.1465 75.832 82.6387 75.6685 81.9697 75.6685C81.3594 75.6685 80.854 75.8247 80.4536 76.1372C80.0532 76.4497 79.853 76.8257 79.853 77.2651L78.9741 77.2578C78.9741 76.6279 79.2671 76.0835 79.853 75.6245C80.439 75.1606 81.1592 74.9287 82.0137 74.9287C82.8975 74.9287 83.5933 75.1509 84.1011 75.5952C84.6138 76.0347 84.8774 76.6499 84.8921 77.4409V81.1909C84.8921 81.9575 84.9727 82.5312 85.1338 82.9121V83H84.1963ZM81.4424 82.3701C82.0283 82.3701 82.5508 82.2285 83.0098 81.9453C83.4736 81.6621 83.8105 81.2837 84.0205 80.8101V79.0669H82.4531C81.5791 79.0767 80.8955 79.2378 80.4023 79.5503C79.9092 79.8579 79.6626 80.2827 79.6626 80.8247C79.6626 81.269 79.8262 81.6377 80.1533 81.9307C80.4854 82.2236 80.915 82.3701 81.4424 82.3701ZM90.8979 75.8223C90.7124 75.7881 90.5146 75.771 90.3047 75.771C89.7578 75.771 89.2939 75.9248 88.9131 76.2324C88.5371 76.5352 88.2686 76.9771 88.1074 77.5581V83H87.2358V75.0752H88.0928L88.1074 76.335C88.5713 75.3975 89.3159 74.9287 90.3413 74.9287C90.5854 74.9287 90.7783 74.9604 90.9199 75.0239L90.8979 75.8223ZM94.1719 79.0083L93.1685 79.9751V83H92.2896V71.75H93.1685V78.9497L93.9961 78.0562L97.0283 75.0752H98.1343L94.7725 78.415L98.4272 83H97.3799L94.1719 79.0083ZM102.565 83.1465C101.892 83.1465 101.281 82.9805 100.734 82.6484C100.192 82.3164 99.77 81.855 99.4673 81.2642C99.1646 80.6685 99.0132 80.002 99.0132 79.2646V78.9497C99.0132 78.188 99.1597 77.502 99.4526 76.8916C99.7505 76.2812 100.163 75.8027 100.69 75.4561C101.218 75.1045 101.789 74.9287 102.404 74.9287C103.366 74.9287 104.128 75.2583 104.689 75.9175C105.256 76.5718 105.539 77.4678 105.539 78.6055V79.0962H99.8848V79.2646C99.8848 80.1631 100.141 80.9126 100.654 81.5132C101.171 82.1089 101.821 82.4067 102.602 82.4067C103.071 82.4067 103.483 82.3213 103.84 82.1504C104.201 81.9795 104.528 81.7061 104.821 81.3301L105.371 81.7476C104.726 82.6802 103.791 83.1465 102.565 83.1465ZM102.404 75.6758C101.745 75.6758 101.188 75.9175 100.734 76.4009C100.285 76.8843 100.012 77.5337 99.9141 78.3491H104.667V78.2539C104.643 77.4922 104.426 76.8721 104.016 76.3936C103.605 75.915 103.068 75.6758 102.404 75.6758ZM108.608 73.0464V75.0752H110.249V75.793H108.608V81.0737C108.608 81.5132 108.686 81.8403 108.842 82.0552C109.003 82.27 109.27 82.3774 109.641 82.3774C109.787 82.3774 110.024 82.353 110.351 82.3042L110.388 83.022C110.158 83.105 109.846 83.1465 109.45 83.1465C108.85 83.1465 108.413 82.9731 108.139 82.6265C107.866 82.2749 107.729 81.7598 107.729 81.0811V75.793H106.271V75.0752H107.729V73.0464H108.608ZM123.469 79.6748C123.347 80.7979 122.944 81.6572 122.26 82.2529C121.582 82.8486 120.676 83.1465 119.543 83.1465C118.752 83.1465 118.051 82.9487 117.441 82.5532C116.835 82.1577 116.367 81.5986 116.035 80.876C115.703 80.1484 115.534 79.3184 115.529 78.3857V77.0015C115.529 76.0542 115.695 75.2144 116.027 74.4819C116.359 73.7495 116.835 73.1855 117.456 72.79C118.081 72.3896 118.798 72.1895 119.609 72.1895C120.751 72.1895 121.652 72.4995 122.312 73.1196C122.97€Zq    €Zq                    Ð
f            €ûe    èZq             Zq     @       Zq            2 72.9585 117.871 73.3198 117.294 74.0425C116.723 74.7651 116.438 75.7637 116.438 77.0381V78.3418C116.438 79.5723 116.716 80.5537 117.272 81.2861C117.834 82.0186 118.591 82.3848 119.543 82.3848C120.485 82.3848 121.196 82.1602 121.674 81.7109C122.153 81.2568 122.448 80.5781 122.561 79.6748H123.469ZM130.456 83C130.368 82.751 130.312 82.3823 130.288 81.894C129.98 82.2944 129.587 82.6045 129.108 82.8242C128.635 83.0391 128.132 83.1465 127.6 83.1465C126.838 83.1465 126.22 82.9341 125.747 82.5093C125.278 82.0845 125.043 81.5474 125.043 80.8979C125.043 80.1265 125.363 79.5161 126.003 79.0669C126.647 78.6177 127.543 78.3931 128.691 78.3931H130.28V77.4922C130.28 76.9258 130.104 76.4814 129.753 76.1592C129.406 75.832 128.898 75.6685 128.229 75.6685C127.619 75.6685 127.114 75.8247 126.713 76.1372C126.313 76.4497 126.113 76.8257 126.113 77.2651L125.234 77.2578C125.234 76.6279 125.527 76.0835 126.113 75.6245C126.699 75.1606 127.419 74.9287 128.273 74.9287C129.157 74.9287 129.853 75.1509 130.361 75.5952C130.874 76.0347 131.137 76.6499 131.152 77.4409V81.1909C131.152 81.9575 131.232 82.5312 131.394 82.9121V83H130.456ZM127.702 82.3701C128.288 82.3701 128.811 82.2285 129.27 81.9453C129.733 81.6621 130.07 81.2837 130.28 80.8101V79.0669H128.713C127.839 79.0767 127.155 79.2378 126.662 79.5503C126.169 79.8579 125.922 80.2827 125.922 80.8247C125.922 81.269 126.086 81.6377 126.413 81.9307C126.745 82.2236 127.175 82.3701 127.702 82.3701ZM139.868 79.1182C139.868 80.3535 139.594 81.335 139.047 82.0625C138.5 82.7852 137.768 83.1465 136.85 83.1465C135.766 83.1465 134.936 82.7656 134.36 82.0039V86.0469H133.488V75.0752H134.301L134.345 76.1958C134.917 75.3511 135.744 74.9287 136.828 74.9287C137.775 74.9287 138.518 75.2876 139.055 76.0054C139.597 76.7231 139.868 77.7192 139.868 78.9937V79.1182ZM138.989 78.9644C138.989 77.9536 138.781 77.1553 138.366 76.5693C137.951 75.9834 137.373 75.6904 136.63 75.6904C136.093 75.6904 135.632 75.8198 135.246 76.0786C134.86 76.3374 134.565 76.7134 134.36 77.2065V81.0078C134.57 81.4619 134.87 81.8086 135.261 82.0479C135.651 82.2871 136.113 82.4067 136.645 82.4067C137.382 82.4067 137.956 82.1138 138.366 81.5278C138.781 80.937 138.989 80.0825 138.989 78.9644ZM141.604 82.4727C141.604 82.3018 141.657 82.1577 141.765 82.0405C141.877 81.9185 142.031 81.8574 142.226 81.8574C142.421 81.8574 142.575 81.9185 142.688 82.0405C142.8 82.1577 142.856 82.3018 142.856 82.4727C142.856 82.6436 142.8 82.7852 142.688 82.8975C142.575 83.0049 142.421 83.0586 142.226 83.0586C142.031 83.0586 141.877 83.0049 141.765 82.8975C141.657 82.7852 141.604 82.6436 141.604 82.4727ZM141.618 75.7124C141.618 75.5415 141.672 75.3975 141.779 75.2803C141.892 75.1582 142.045 75.0972 142.241 75.0972C142.436 75.0972 142.59 75.1582 142.702 75.2803C142.814 75.3975 142.871 75.5415 142.871 75.7124C142.871 75.8833 142.814 76.0249 142.702 76.1372C142.59 76.2446 142.436 76.2983 142.241 76.2983C142.045 76.2983 141.892 76.2446 141.779 76.1372C141.672 76.0249 141.618 75.8833 141.618 75.7124ZM154.904 78.5542C154.904 80.0581 154.628 81.2007 154.077 81.9819C153.525 82.7583 152.712 83.1465 151.638 83.1465C150.583 83.1465 149.775 82.7656 149.213 82.0039C148.652 81.2373 148.364 80.124 148.349 78.6641V76.7524C148.349 75.2534 148.627 74.1182 149.184 73.3467C149.741 72.5752 150.554 72.1895 151.623 72.1895C152.678 72.1895 153.483 72.563 154.04 73.3101C154.597 74.0522 154.885 75.1484 154.904 76.5986V78.5542ZM154.025 76.6426C154.025 75.4219 153.825 74.499 153.425 73.874C153.029 73.249 152.429 72.9365 151.623 72.9365C150.832 72.9365 150.236 73.2417 149.836 73.8521C149.436 74.4624 149.23 75.3633 149.221 76.5547V78.6494C149.221 79.8652 149.426 80.7954 149.836 81.4399C150.251 82.0845 150.852 82.4067 151.638 82.4067C152.419 82.4067 153.01 82.0918 153.41 81.4619C153.815 80.832 154.021 79.9092 154.025 78.6934V76.6426ZM163.225 78.5542C163.225 80.0581 162.949 81.2007 162.397 81.9819C161.845 82.7583 161.032 83.1465 159.958 83.1465C158.903 83.1465 158.095 82.7656 157.534 82.0039C156.972 81.2373 156.684 80.124 156.669 78.6641V76.7524C156.669 75.2534 156.948 74.1182 157.504 73.3467C158.061 72.5752 158.874 72.1895 159.943 72.1895C160.998 72.1895 161.804 72.563 162.36 73.3101C162.917 74.0522 163.205 75.1484 163.225 76.5986V78.5542ZM162.346 76.6426C162.346 75.4219 162.146 74.499 161.745 73.874C161.35 73.249 160.749 72.9365 159.943 72.9365C159.152 72.9365 158.557 73.2417 158.156 73.8521C157.756 74.4624 157.551 75.3633 157.541 76.5547V78.6494C157.541 79.8652 157.746 80.7954 158.156 81.4399C158.571 82.0845 159.172 82.4067 159.958 82.4067C160.739 82.4067 161.33 82.0918 161.73 81.4619C162.136 80.832 162.341 79.9092 162.346 78.6934V76.6426ZM171.545 78.5542C171.545 80.0581 171.269 81.2007 170.717 81.9819C170.166 82.7583 169.353 83.1465 168.278 83.1465C167.224 83.1465 166.416 82.7656 165.854 82.0039C165.292 81.2373 165.004 80.124 164.99 78.6641V76.7524C164.99 75.2534 165.268 74.1182 165.825 73.3467C166.381 72.5752 167.194 72.1895 168.264 72.1895C169.318 72.1895 170.124 72.563 170.681 73.3101C171.237 74.0522 171.525 75.1484 171.545 76.5986V78.5542ZM170.666 76.6426C170.666 75.4219 170.466 74.499 170.065 73.874C169.67 73.249 169.069 72.9365 168.264 72.9365C167.473 72.9365 166.877 73.2417 166.477 73.8521C166.076 74.4624 165.871 75.3633 165.861 76.5547V78.6494C165.861 79.8652 166.066 80.7954 166.477 81.4399C166.892 82.0845 167.492 82.4067 168.278 82.4067C169.06 82.4067 169.65 82.0918 170.051 81.4619C170.456 80.832 170.661 79.9092 170.666 78.6934V76.6426ZM173.391 84.9922L172.871 84.6113C173.315 84.0156 173.544 83.3979 173.559 82.7583V81.623H174.416V82.5386C174.416 83.5542 174.074 84.3721 173.391 84.9922ZM182.736 78.5542C182.736 80.0581 182.46 81.2007 181.909 81.9819C181.357 82.7583 180.544 83.1465 179.47 83.1465C178.415 83.1465 177.607 82.7656 177.045 82.0039C176.484 81.2373 176.196 80.124 176.181 78.6641V76.7524C176.181 75.2534 176.459 74.1182 177.016 73.3467C177.573 72.5752 178.386 72.1895 179.455 72.1895C180.51 72.1895 181.315 72.563 181.872 73.3101C182.429 74.0522 182.717 75.1484 182.736 76.5986V78.5542ZM181.857 76.6426C181.857 75.4219 181.657 74.499 181.257 73.874C180.861 73.249 180.261 72.9365 179.455 72.9365C178.664 72.9365 178.068 73.2417 177.668 73.8521C177.268 74.4624 177.062 75.3633 177.053 76.5547V78.6494C177.053 79.8652 177.258 80.7954 177.668 81.4399C178.083 82.0845 178.684 82.4067 179.47 82.4067C180.251 82.4067 180.842 82.0918 181.242 81.4619C181.647 80.832 181.853 79.9092 181.857 78.6934V76.6426ZM191.057 78.5542C191.057 80.0581 190.781 81.2007 190.229 81.9819C189.677 82.7583 188.864 83.1465 187.79 83.1465C186.735 83.1465 185.927 82.7656 185.366 82.0039C184.804 81.2373 184.516 80.124 184.501 78.6641V76.7524C184.501 75.2534 184.78 74.1182 185.336 73.3467C185.893 72.5752 186.706 72.1895 187.775 72.1895C188.83 72.1895 189.636 72.563 190.192 73.3101C190.749 74.0522 191.037 75.1484 191.057 76.5986V78.5542ZM190.178 76.6426C190.178 75.4219 189.978 74.499 189.577 73.874C189.182 73.249 188.581 72.9365 187.775 72.9365C186.984 72.9365 186.389 73.2417 185.988 73.8521C185.588 74.4624 185.383 75.3633 185.373 76.5547V78.6494C185.373 79.8652 185.578 80.7954 185.988 81.4399C186.403 82.0845 187.004 82.4067 187.79 82.4067C188.571 82.4067 189.162 82.0918 189.562 81.4619C189.968 80.832 190.173 79.9092 190.178 78.6934V76.6426ZM199.377 78.5542C199.377 80.0581 199.101 81.2007 198.549 81.9819C197.998 82.7583 197.185 83.1465 196.11 83.1465C195.056 83.1465 194.248 82.7656 193.686 82.0039C193.125 81.2373 192.836 80.124 192.822 78.6641V76.7524C192.822 75.2534 193.1 74.1182 193.657 73.3467C194.213 72.5752 195.026 72.1895 196.096 72.1895C197.15 72.1895 197.956 72.563 198.513 73.3101C199.069 74.0522 199.357 75.1484 199.377 76.5986V78.5542ZM198.498 76.6426C198.498 75.4219 198.298 74.499 197.897 73.874C197.502 73.249 196.901 72.9365 196.096 72.9365C195.305 72.9365 194.709 73.2417 194.309 73.8521C193.908 74.4624 193.703 75.3633 193.693 76.5547V78.6494C193.693 79.8652 193.898 80.7954 194.309 81.4399C194.724 82.0845 195.324 82.4067 196.11 82.4067C196.892 82.4067 197.482 82.0918 197.883 81.4619C198.288 80.832 198.493 79.9092 198.498 78.6934V76.6426ZM201.223 84.9922L200.703 84.6113C201.147 84.0156 201.376 83.3979 201.391 82.7583V81.623H202.248V82.5386C202.248 83.5542 201.906 84.3721 201.223 84.9922ZM210.568 78.5542C210.568 80.0581 210.292 81.2007 209.741 81.9819C209.189 82.7583 208.376 83.1465 207.302 83.1465C206.247 83.1465 205.439 82.7656 204.877 82.0039C204.316 81.2373 204.028 80.124 204.013 78.6641V76.7524C204.013 75.2534 204.292 74.1182 204.848 73.3467C205.405 72.5752 206.218 72.1895 207.287 72.1895C208.342 72.1895 209.147 72.563 209.704 73.3101C210.261 74.0522 210.549 75.1484 210.568 76.5986V78.5542ZM209.689 76.6426C209.689 75.4219 209.489 74.499 209.089 73.874C208.693 73.249 208.093 72.9365 207.287 72.9365C206.496 72.9365 205.9 73.2417 205.5 73.8521C205.1 74.4624 204.895 75.3633 204.885 76.5547V78.6494C204.885 79.8652 205.09 80.7954 205.5 81.4399C205.915 82.0845 206.516 82.4067 207.302 82.4067C208.083 82.4067 208.674 82.0918 209.074 81.4619C209.479 80.832 209.685 79.9092 209.689 78.6934V76.6426ZM218.889 78.5542C218.889 80.0581 218.613 81.2007 218.061 81.9819C217.509 82.7583 216.696 83.1465 215.622 83.1465C214.567 83.1465 213.759 82.7656 213.198 82.0039C212.636 81.2373 212.348 80.124 212.333 78.6641V76.7524C212.333 75.2534 212.612 74.1182 213.168 73.3467C213.725 72.5752 214.538 72.1895 215.607 72.1895C216.662 72.1895 217.468 72.563 218.024 73.3101C218.581 74.0522 218.869 75.1484 218.889 76.5986V78.5542ZM218.01 76.6426C218.01 75.4219 217.81 74.499 217.409 73.874C217.014 73.249 216.413 72.9365 215.607 72.9365C214.816 72.9365 214.221 73.2417 213.82 73.8521C213.42 74.4624 213.215 75.3633 213.205 76.5547V78.6494C213.205 79.8652 213.41 80.7954 213.82 81.4399C214.235 82.0845 214.836 82.4067 215.622 82.4067C216.403 82.4067 216.994 82.0918 217.395 81.4619C217.8 80.832 218.005 79.9092 218.01 78.6934V76.6426ZM227.209 78.5542C227.209 80.0581 226.933 81.2007 226.381 81.9819C225.83 82.7583 225.017 83.1465 223.942 83.1465C222.888 83.1465 222.08 82.7656 221.518 82.0039C220.957 81.2373 220.668 80.124 220.654 78.6641V76.7524C220.654 75.2534 220.932 74.1182 221.489 73.3467C222.045 72.5752 222.858 72.1895 223.928 72.1895C224.982 72.1895 225.788 72.563 226.345 73.3101C226.901 74.0522 227.189 75.1484 227.209 76.5986V78.5542ZM226.33 76.6426C226.33 75.4219 226.13 74.499 225.729 73.874C225.334 73.249 224.733 72.9365 223.928 72.9365C223.137 72.9365 222.541 73.2417 222.141 73.8521C221.74 74.4624 221.535 75.3633 221.525 76.5547V78.6494C221.525 79.8652 221.73 80.7954 222.141 81.4399C222.556 82.0845 223.156 82.4067 223.942 82.4067C224.724 82.4067 225.314 82.0918 225.715 81.4619C226.12 80.832 226.325 79.9092 226.33 78.6934V76.6426ZM229.055 84.9922L228.535 84.6113C228.979 84.0156 229.208 83.3979 229.223 82.7583V81.623H230.08V82.5386C230.08 83.5542 229.738 84.3721 229.055 84.9922ZM238.4 78.5542C238.4 80.0581 238.125 81.2007 237.573 81.9819C237.021 82.7583 236.208 83.1465 235.134 83.1465C234.079 83.1465 233.271 82.7656 232.709 82.0039C232.148 81.2373 231.86 80.124 231.845 78.6641V76.7524C231.845 75.2534 232.124 74.1182 232.68 73.3467C233.237 72.5752 234.05 72.1895 235.119 72.1895C236.174 72.1895 236.979 72.563 237.536 73.3101C238.093 74.0522 238.381 75.1484 238.4 76.5986V78.5542ZM237.521 76.6426C237.521 75.4219 237.321 74.499 236.921 73.874C236.525 73.249 235.925 72.9365 235.119 72.9365C234.328 72.9365 233.732 73.2417 233.332 73.8521C232.932 74.4624 232.727 75.3633 232.717 76.5547V78.6494C232.717 79.8652 232.922 80.7954 233.332 81.4399C233.747 82.0845 234.348 82.4067 235.134 82.4067C235.915 82.4067 236.506 82.0918 236.906 81.4619C237.312 80.832 237.517 79.9092 237.521 78.6934V76.6426ZM246.721 78.5542C246.721 80.0581 246.445 81.2007 245.893 81.9819C245.341 82.7583 244.528 83.1465 243.454 83.1465C242.399 83.1465 241.591 82.7656 241.03 82.0039C240.468 81.2373 240.18 80.124 240.166 78.6641V76.7524C240.166 75.2534 240.444 74.1182 241 73.3467C241.557 72.5752 242.37 72.1895 243.439 72.1895C244.494 72.1895 245.3 72.563 245.856 73.3101C246.413 74.0522 246.701 75.1484 246.721 76.5986V78.5542ZM245.842 76.6426C245.842 75.4219 245.642 74.499 245.241 73.874C244.846 73.249 244.245 72.9365 243.439 72.9365C242.648 72.9365 242.053 73.2417 241.652 73.8521C241.252 74.4624 241.047 75.3633 241.037 76.5547V78.6494C241.037 79.8652 241.242 80.7954 241.652 81.4399C242.067 82.0845 242.668 82.4067 243.454 82.4067C244.235 82.4067 244.826 82.0918 245.227 81.4619C245.632 80.832 245.837 79.9092 245.842 78.6934V76.6426ZM255.041 78.5542C255.041 80.0581 254.765 81.2007 254.213 81.9819C253.662 82.7583 252.849 83.1465 251.774 83.1465C250.72 83.1465 249.912 82.7656 249.35 82.0039C248.789 81.2373 248.5 80.124 248.486 78.6641V76.7524C248.486 75.2534 248.764 74.1182 249.321 73.3467C249.877 72.5752 250.69 72.1895 251.76 72.1895C252.814 72.1895 253.62 72.563 254.177 73.3101C254.733 74.0522 255.021 75.1484 255.041 76.5986V78.5542ZM254.162 76.6426C254.162 75.4219 253.962 74.499 253.562 73.874C253.166 73.249 252.565 72.9365 251.76 72.9365C250.969 72.9365 250.373 73.2417 249.973 73.8521C249.572 74.4624 249.367 75.3633 249.357 76.5547V78.6494C249.357 79.8652 249.562 80.7954 249.973 81.4399C250.388 82.0845 250.988 82.4067 251.774 82.4067C252.556 82.4067 253.146 82.0918 253.547 81.4619C253.952 80.832 254.157 79.9092 254.162 78.6934V76.6426ZM90.1069 101H83.4272V100.326L87.082 96.1807C87.6875 95.4824 88.1074 94.9062 88.3418 94.4521C88.5762 93.998 88.6934 93.5562 88.6934 93.1265C88.6934 92.4526 88.4956 91.9204 88.1001 91.5298C87.7046 91.1343 87.1602 90.9365 86.4668 90.9365C85.749 90.9365 85.168 91.166 84.7236 91.625C84.2842 92.084 84.0645 92.6797 84.0645 93.4121H83.1929C83.1929 92.8115 83.3271 92.2646 83.5957 91.7715C83.8691 91.2783 84.2549 90.8926 84.7529 90.6143C85.2559 90.3311 85.8271 90.1895 86.4668 90.1895C87.4434 90.1895 88.2051 90.4458 88.752 90.9585C89.3037 91.4712 89.5796 92.1694 89.5796 93.0532C89.5796 93.5513 89.4233 94.0957 89.1108 94.6865C88.8032 95.2773 88.2588 96.0146 87.4775 96.8984L84.5039 100.26H90.1069V101ZM97.1309 97.5649H98.7935V98.3047H97.1309V101H96.252V98.3047H91.2349V97.8066L96.1714 90.3359H97.1309V97.5649ZM92.3115 97.5649H96.252V91.4712L95.8638 92.145L92.3115 97.5649ZM101.079 94.4155C101.367 93.9419 101.735 93.5757 102.185 93.3169C102.634 93.0581 103.125 92.9287 103.657 92.9287C104.506 92.9287 105.139 93.168 105.554 93.6465C105.969 94.125 106.179 94.8428 106.184 95.7998V101H105.312V95.7925C105.307 95.0845 105.156 94.5571 104.858 94.2104C104.565 93.8638 104.094 93.6904 103.444 93.6904C102.902 93.6904 102.421 93.8613 102.001 94.2031C101.586 94.54 101.279 94.9966 101.079 95.5728V101H100.207V89.75H101.079V94.4155ZM115.507 99.6816L115.566 99.9087L115.632 99.6816L118.986 90.3359H119.975L116.005 101H115.141L111.171 90.3359H112.153L115.507 99.6816ZM120.524 96.9204C120.524 96.1587 120.671 95.4727 120.964 94.8623C121.262 94.252 121.679 93.7783 122.216 93.4414C122.758 93.0996 123.371 92.9287 124.055 92.9287C125.109 92.9287 125.964 93.2998 126.618 94.042C127.272 94.7793 127.6 95.7583 127.6 96.979V97.1621C127.6 97.9287 127.451 98.6196 127.153 99.2349C126.86 99.8452 126.445 100.316 125.908 100.648C125.371 100.98 124.758 101.146 124.069 101.146C123.02 101.146 122.165 100.778 121.506 100.041C120.852 99.2983 120.524 98.3169 120.524 97.0962V96.9204ZM121.403 97.1621C121.403 98.1094 121.647 98.8882 122.136 99.4985C122.629 100.104 123.273 100.407 124.069 100.407C124.86 100.407 125.5 100.104 125.988 99.4985C126.481 98.8882 126.728 98.085 126.728 97.0889V96.9204C126.728 96.3149 126.616 95.7607 126.391 95.2578C126.167 94.7549 125.852 94.3667 125.446 94.0933C125.041 93.8149 124.577 93.6758 124.055 93.6758C123.273 93.6758 122.636 93.9834 122.143 94.5986C121.65 95.209 121.403 96.0098 121.403 97.001V97.1621ZM130.397 101H129.519V89.75H130.397V101ZM132.573 100.473C132.573 100.302 132.626 100.158 132.734 100.041C132.846 99.9185 133 99.8574 133.195 99.8574C133.391 99.8574 133.544 99.9185 133.657 100.041C133.769 100.158 133.825 100.302 133.825 100.473C133.825 100.644 133.769 100.785 133.657 100.897C133.544 101.005 133.391 101.059 133.195 101.059C133 101.059 132.846 101.005 132.734 100.897C132.626 100.785 132.573 100.644 132.573 100.473ZM132.587 93.7124C132.587 93.5415 132.641 93.3975 132.749 93.2803C132.861 93.1582 133.015 93.0972 133.21 93.0972C133.405 93.0972 133.559 93.1582 133.671 93.2803C133.784 93.3975 133.84 93.5415 133.84 93.7124C133.84 93.8833 133.784 94.0249 133.671 94.1372C133.559 94.2446 133.405 94.2983 133.21 94.2983C133.015 94.2983 132.861 94.2446 132.749 94.1372C132.641 94.0249 132.587 93.8833 132.587 93.7124ZM145.874 96.5542C145.874 98.0581 145.598 99.2007 145.046 99.9819C144.494 100.758 143.681 101.146 142.607 101.146C141.552 101.146 140.744 100.766 140.183 100.004C139.621 99.2373 139.333 98.124 139.318 96.6641V94.7524C139.318 93.2534 139.597 92.1182 140.153 91.3467C140.71 90.5752 141.523 90.1895 142.592 90.1895C143.647 90.1895 144.453 90.563 145.009 91.3101C145.566 92.0522 145.854 93.1484 145.874 94.5986V96.5542ZM144.995 94.6426C144.995 93.4219 144.794 92.499 144.394 91.874C143.999 91.249 143.398 90.9365 142.592 90.9365C141.801 90.9365 141.206 91.2417 140.805 91.8521C140.405 92.4624 140.2 93.3633 140.19 94.5547V96.6494C140.19 97.8652 140.395 98.7954 140.805 99.4399C141.22 100.084 141.821 100.407 142.607 100.407C143.388 100.407 143.979 100.092 144.379 99.4619C144.785 98.832 144.99 97.9092 144.995 96.6934V94.6426ZM154.194 96.5542C154.194 98.0581 153.918 99.2007 153.366 99.9819C152.814 100.758 152.001 101.146 150.927 101.146C149.873 101.146 149.064 100.766 148.503 100.004C147.941 99.2373 147.653 98.124 147.639 96.6641V94.7524C147.639 93.2534 147.917 92.1182 148.474 91.3467C149.03 90.5752 149.843 90.1895 150.913 90.1895C151.967 90.1895 152.773 90.563 153.33 91.3101C153.886 92.0522 154.174 93.1484 154.194 94.5986V96.5542ZM153.315 94.6426C153.315 93.4219 153.115 92.499 152.714 91.874C152.319 91.249 151.718 90.9365 150.913 90.9365C150.122 90.9365 149.526 91.2417 149.125 91.8521C148.725 92.4624 148.52 93.3633 148.51 94.5547V96.6494C148.51 97.8652 148.715 98.7954 149.125 99.4399C149.541 100.084 150.141 100.407 150.927 100.407C151.708 100.407 152.299 100.092 152.7 99.4619C153.105 98.832 153.31 97.9092 153.315 96.6934V94.6426ZM156.04 102.992L155.52 102.611C155.964 102.016 156.193 101.398 156.208 100.758V99.623H157.065V100.539C157.065 101.554 156.723 102.372 156.04 102.992ZM165.385 96.5542C165.385 98.0581 165.109 99.2007 164.558 99.9819C164.006 100.758 163.193 101.146 162.119 101.146C161.064 101.146 160.256 100.766 159.694 100.004C159.133 99.2373 158.845 98.124 158.83 96.6641V94.7524C158.83 93.2534 159.108 92.1182 159.665 91.3467C160.222 90.5752 161.035 90.1895 162.104 90.1895C163.159 90.1895 163.964 90.563 164.521 91.3101C165.078 92.0522 165.366 93.1484 165.385 94.5986V96.5542ZM164.506 94.6426C164.506 93.4219 164.306 92.499 163.906 91.874C163.51 91.249 162.91 90.9365 162.104 90.9365C161.313 90.9365 160.717 91.2417 160.317 91.8521C159.917 92.4624 159.711 93.3633 159.702 94.5547V96.6494C159.702 97.8652 159.907 98.7954 160.317 99.4399C160.732 100.084 161.333 100.407 162.119 100.407C162.9 100.407 163.491 100.092 163.891 99.4619C164.296 98.832 164.501 97.9092 164.506 96.6934V94.6426ZM173.706 96.5542C173.706 98.0581 173.43 99.2007 172.878 99.9819C172.326 100.758 171.513 101.146 170.439 101.146C169.384 101.146 168.576 100.766 168.015 100.004C167.453 99.2373 167.165 98.124 167.15 96.6641V94.7524C167.15 93.2534 167.429 92.1182 167.985 91.3467C168.542 90.5752 169.355 90.1895 170.424 90.1895C171.479 90.1895 172.285 90.563 172.841 91.3101C173.398 92.0522 173.686 93.1484 173.706 94.5986V96.5542ZM172.827 94.6426C172.827 93.4219 172.626 92.499 172.226 91.874C171.831 91.249 171.23 90.9365 170.424 90.9365C169.633 90.9365 169.038 91.2417 168.637 91.8521C168.237 92.4624 168.032 93.3633 168.022 94.5547V96.6494C168.022 97.8652 168.227 98.7954 168.637 99.4399C169.052 100.084 169.653 100.407 170.439 100.407C171.22 100.407 171.811 100.092 172.211 99.4619C172.617 98.832 172.822 97.9092 172.827 96.6934V94.6426ZM182.026 96.5542C182.026 98.0581 181.75 99.2007 181.198 99.9819C180.646 100.758 179.833 101.146 178.759 101.146C177.705 101.146 176.896 100.766 176.335 100.004C175.773 99.2373 175.485 98.124 175.471 96.6641V94.7524C175.471 93.2534 175.749 92.1182 176.306 91.3467C176.862 90.5752 177.675 90.1895 178.745 90.1895C179.799 90.1895 180.605 90.563 181.162 91.3101C181.718 92.0522 182.006 93.1484 182.026 94.5986V96.5542ZM181.147 94.6426C181.147 93.4219 180.947 92.499 180.546 91.874C180.151 91.249 179.55 90.9365 178.745 90.9365C177.954 90.9365 177.358 91.2417 176.958 91.8521C176.557 92.4624 176.352 93.3633 176.342 94.5547V96.6494C176.342 97.8652 176.547 98.7954 176.958 99.4399C177.373 100.084 177.973 100.407 178.759 100.407C179.541 100.407 180.131 100.092 180.532 99.4619C180.937 98.832 181.142 97.9092 181.147 96.6934V94.6426ZM183.872 102.992L183.352 102.611C183.796 102.016 184.025 101.398 184.04 100.758V99.623H184.897V100.539C184.897 101.554 184.555 102.372 183.872 102.992ZM193.217 96.5542C193.217 98.0581 192.941 99.2007 192.39 99.9819C191.838 100.758 191.025 101.146 189.951 101.146C188.896 101.146 188.088 100.766 187.526 100.004C186.965 99.2373 186.677 98.124 186.662 96.6641V94.7524C186.662 93.2534 186.94 92.1182 187.497 91.3467C188.054 90.5752 188.867 90.1895 189.936 90.1895C190.991 90.1895 191.796 90.563 192.353 91.3101C192.91 92.0522 193.198 93.1484 193.217 94.5986V96.5542ZM192.338 94.6426C192.338 93.4219 192.138 92.499 191.738 91.874C191.342 91.249 190.742 90.9365 189.936 90.9365C189.145 90.9365 188.549 91.2417 188.149 91.8521C187.749 92.4624 187.543 93.3633 187.534 94.5547V96.6494C187.534 97.8652 187.739 98.7954 188.149 99.4399C188.564 100.084 189.165 100.407 189.951 100.407C190.732 100.407 191.323 100.092 191.723 99.4619C192.128 98.832 192.333 97.9092 192.338 96.6934V94.6426ZM201.538 96.5542C201.538 98.0581 201.262 99.2007 200.71 99.9819C200.158 100.758 199.345 101.146 198.271 101.146C197.216 101.146 196.408 100.766 195.847 100.004C195.285 99.2373 194.997 98.124 194.982 96.6641V94.7524C194.982 93.2534 195.261 92.1182 195.817 91.3467C196.374 90.5752 197.187 90.1895 198.256 90.1895C199.311 90.1895 200.117 90.563 200.673 91.3101C201.23 92.0522 201.518 93.1484 201.538 94.5986V96.5542ZM200.659 94.6426C200.659 93.4219 200.458 92.499 200.058 91.874C199.663 91.249 199.062 90.9365 198.256 90.9365C197.465 90.9365 196.87 91.2417 196.469 91.8521C196.069 92.4624 195.864 93.3633 195.854 94.5547V96.6494C195.854 97.8652 196.059 98.7954 196.469 99.4399C196.884 100.084 197.485 100.407 198.271 100.407C199.052 100.407 199.643 100.092 200.043 99.4619C200.449 98.832 200.654 97.9092 200.659 96.6934V94.6426ZM209.858 96.5542C209.858 98.0581 209.582 99.2007 209.03 99.9819C208.479 100.758 207.666 101.146 206.591 101.146C205.537 101.146 204.729 100.766 204.167 100.004C203.605 99.2373 203.317 98.124 203.303 96.6641V94.7524C203.303 93.2534 203.581 92.1182 204.138 91.3467C204.694 90.5752 205.507 90.1895 206.577 90.1895C207.631 90.1895 208.437 90.563 208.994 91.3101C209.55 92.0522 209.838 93.1484 209.858 94.5986V96.5542ZM208.979 94.6426C208.979 93.4219 208.779 92.499 208.378 91.874C207.983 91.249 207.382 90.9365 206.577 90.9365C205.786 90.9365 205.19 91.2417 204.79 91.8521C204.389 92.4624 204.184 93.3633 204.174 94.5547V96.6494C204.174 97.8652 204.379 98.7954 204.79 99.4399C205.205 100.084 205.805 100.407 206.591 100.407C207.373 100.407 207.963 100.092 208.364 99.4619C208.769 98.832 208.974 97.9092 208.979 96.6934V94.6426ZM211.704 102.992L211.184 102.611C211.628 102.016 211.857 101.398 211.872 100.758V99.623H212.729V100.539C212.729 101.554 212.387 102.372 211.704 102.992ZM221.049 96.5542C221.049 98.0581 220.773 99.2007 220.222 99.9819C219.67 100.758 218.857 101.146 217.783 101.146C216.728 101.146 215.92 100.766 215.358 100.004C214.797 99.2373 214.509 98.124 214.494 96.6641V94.7524C214.494 93.2534 214.772 92.1182 215.329 91.3467C215.886 90.5752 216.699 90.1895 217.768 90.1895C218.823 90.1895 219.628 90.563 220.185 91.3101C220.742 92.0522 221.03 93.1484 221.049 94.5986V96.5542ZM220.17 94.6426C220.17 93.4219 219.97 92.499 219.57 91.874C219.174 91.249 218.574 90.9365 217.768 90.9365C216.977 90.9365 216.381 91.2417 215.981 91.8521C215.581 92.4624 215.375 93.3633 215.366 94.5547V96.6494C215.366 97.8652 215.571 98.7954 215.981 99.4399C216.396 100.084 216.997 100.407 217.783 100.407C218.564 100.407 219.155 100.092 219.555 99.4619C219.96 98.832 220.166 97.9092 220.17 96.6934V94.6426ZM229.37 96.5542C229.37 98.0581 229.094 99.2007 228.542 99.9819C227.99 100.758 227.177 101.146 226.103 101.146C225.048 101.146 224.24 100.766 223.679 100.004C223.117 99.2373 222.829 98.124 222.814 96.6641V94.7524C222.814 93.2534 223.093 92.1182 223.649 91.3467C224.206 90.5752 225.019 90.1895 226.088 90.1895C227.143 90.1895 227.949 90.563 228.505 91.3101C229.062 92.0522 229.35 93.1484 229.37 94.5986V96.5542ZM228.491 94.6426C228.491 93.4219 228.291 92.499 227.89 91.874C227.495 91.249 226.894 90.9365 226.088 90.9365C225.297 90.9365 224.702 91.2417 224.301 91.8521C223.901 92.4624 223.696 93.3633 223.686 94.5547V96.6494C223.686 97.8652 223.891 98.7954 224.301 99.4399C224.716 100.084 225.317 100.407 226.103 100.407C226.884 100.407 227.475 100.092 227.875 99.4619C228.281 98.832 228.486 97.9092 228.491 96.6934V94.6426ZM237.69 96.5542C237.69 98.0581 237.414 99.2007 236.862 99.9819C236.311 100.758 235.498 101.146 234.423 101.146C233.369 101.146 232.561 100.766 231.999 100.004C231.438 99.2373 231.149 98.124 231.135 96.6641V94.7524C231.135 93.2534 231.413 92.1182 231.97 91.3467C232.526 90.5752 233.339 90.1895 234.409 90.1895C235.463 90.1895 236.269 90.563 236.826 91.3101C237.382 92.0522 237.67 93.1484 237.69 94.5986V96.5542ZM236.811 94.6426C236.811 93.4219 236.611 92.499 236.21 91.874C235.815 91.249 235.214 90.9365 234.409 90.9365C233.618 90.9365 233.022 91.2417 232.622 91.8521C232.221 92.4624 232.016 93.3633 232.006 94.5547V96.6494C232.006 97.8652 232.211 98.7954 232.622 99.4399C233.037 100.084 233.637 100.407 234.423 100.407C235.205 100.407 235.795 100.092 236.196 99.4619C236.601 98.832 236.806 97.9092 236.811 96.6934V94.6426Z" fill="#18181A"/>
<rect x="319.607" y="219" width="15" height="15" transform="rotate(45 319.607 219)" fill="white"/>
<line x1="319" y1="110" x2="319" y2="430" stroke="white" stroke-width="2"/>
</svg>
