<svg width="55" height="64" viewBox="0 0 55 64" fill="none" xmlns="http://www.w3.org/2000/svg">
<path d="M5.95855 34.4368V35.4368H6.95855V34.4368H5.95855ZM5.95855 30.5885H6.95855V30.588L5.95855 30.5885ZM8.04181 28.2934V27.2934H7.99317L7.94476 27.2981L8.04181 28.2934ZM10.7661 28.2934V29.2934H11.7661V28.2934H10.7661ZM10.7661 26.1304L9.76711 26.0849L9.76608 26.1076V26.1304H10.7661ZM31.8056 23.5988L30.9699 24.1479L31.8056 25.4199L32.6414 24.1479L31.8056 23.5988ZM38.507 13.3998L39.3427 13.949L39.3435 13.9477L38.507 13.3998ZM37.0631 2.96664L37.7194 2.21214V2.21214L37.0631 2.96664ZM26.5304 2.9821L25.8719 2.22953L25.8719 2.22953L26.5304 2.9821ZM25.1043 13.3998L25.94 12.8507L25.9392 12.8495L25.1043 13.3998ZM21.8855 25.8543H22.8855V25.8021L22.88 25.7501L21.8855 25.8543ZM21.8855 27.8859H20.8855V28.8859H21.8855V27.8859ZM30.4514 27.8859L31.1843 27.2055L30.8875 26.8859H30.4514V27.8859ZM36.4339 34.3307L35.701 35.011L35.9977 35.3307H36.4339V34.3307ZM40.1791 34.3307V35.3307H40.6422L40.9417 34.9775L40.1791 34.3307ZM41.2989 33.0103V32.0103H40.8358L40.5363 32.3634L41.2989 33.0103ZM43.8101 33.0103L44.6202 32.4239L44.3208 32.0103H43.8101V33.0103ZM46.5588 36.8079L45.7488 37.3942L46.0482 37.8079H46.5588V36.8079ZM30.8957 34.5815L31.5708 33.8438L31.2842 33.5815H30.8957V34.5815ZM23.9862 34.5815V33.5815H23.5862L23.2966 33.8574L23.9862 34.5815ZM20.5043 37.8976L19.8146 37.1734L19.5043 37.469V37.8976H20.5043ZM20.5043 43.0619H19.5043V44.0619H20.5043V43.0619ZM25.4551 43.0619L26.0795 42.2807L25.8057 42.0619H25.4551V43.0619ZM28.1754 45.2363H29.1754V44.7554L28.7998 44.4552L28.1754 45.2363ZM28.1754 54.9669H27.1754V55.9669H28.1754V54.9669ZM32.2014 54.9669V55.9669H32.6118L32.9039 55.6786L32.2014 54.9669ZM36.717 50.5093L37.4195 51.221L37.717 50.9273V50.5093H36.717ZM36.717 39.9089H37.717V39.4685L37.3921 39.1712L36.717 39.9089ZM8.55715 54.399L7.84753 55.1036L7.84873 55.1048L8.55715 54.399ZM53.3436 36.8081L52.3441 36.7766L52.344 36.7799L53.3436 36.8081ZM11.0264 45.298L10.3248 44.5855L10.0264 44.8793V45.298H11.0264ZM13.3519 43.0081L14.0535 43.7206L14.3519 43.4268V43.0081H13.3519ZM13.3519 40.112H14.3519V39.6449L13.9937 39.3451L13.3519 40.112ZM10.6557 37.8558L11.2975 37.0889L11.0189 36.8558H10.6557V37.8558ZM34.6291 8.99677L35.6291 8.99677V8.99677H34.6291ZM31.8056 11.8202L31.8056 10.8202H31.8056V11.8202ZM4.42799 35.4368H5.95855V33.4368H4.42799V35.4368ZM6.95855 34.4368V30.5885H4.95855V34.4368H6.95855ZM6.95855 30.588C6.9582 29.9176 7.46904 29.354 8.13886 29.2887L7.94476 27.2981C6.25263 27.4631 4.95767 28.8862 4.95855 30.589L6.95855 30.588ZM8.04181 29.2934H10.7661V27.2934H8.04181V29.2934ZM11.7661 28.2934V26.1304H9.76608V28.2934H11.7661ZM11.765 26.1758C11.8516 24.274 10.9713 22.4581 9.42276 21.3493L8.25843 22.9754C9.25565 23.6894 9.82291 24.8589 9.76711 26.0849L11.765 26.1758ZM32.6414 24.1479L39.3427 13.949L37.6712 12.8507L30.9699 23.0497L32.6414 24.1479ZM39.3435 13.9477C41.8114 10.1798 41.1178 5.16826 37.7194 2.21214L36.4068 3.72114C39.0509 6.02113 39.5905 9.92031 37.6704 12.8519L39.3435 13.9477ZM37.7194 2.21214C34.3209 -0.743977 29.2617 -0.736554 25.8719 2.22953L27.189 3.73467C29.8263 1.42693 33.7626 1.42115 36.4068 3.72114L37.7194 2.21214ZM25.8719 2.22953C22.4849 5.19321 21.7884 10.1864 24.2694 13.9502L25.9392 12.8495C24.0125 9.92653 24.5489 6.04481 27.189 3.73467L25.8719 2.22953ZM24.2686 13.949L30.9699 24.1479L32.6414 23.0497L25.94 12.8507L24.2686 13.949ZM25.0688 20.1749C22.4071 20.759 20.6066 23.2458 20.8909 25.9585L22.88 25.7501C22.7021 24.0526 23.828 22.4948 25.4976 22.1284L25.0688 20.1749ZM20.8855 25.8543V27.8859H22.8855V25.8543H20.8855ZM21.8855 28.8859H30.4514V26.8859H21.8855V28.8859ZM29.7185 28.5662L35.701 35.011L37.1668 33.6503L31.1843 27.2055L29.7185 28.5662ZM36.4339 35.3307H40.1791V33.3307H36.4339V35.3307ZM40.9417 34.9775L42.0616 33.6571L40.5363 32.3634L39.4164 33.6838L40.9417 34.9775ZM41.2989 34.0103H43.8101V32.0103H41.2989V34.0103ZM43 33.5966L45.7488 37.3942L47.3689 36.2215L44.6202 32.4239L43 33.5966ZM46.5588 37.8079H49.5544V35.8079H46.5588V37.8079ZM30.8957 33.5815H23.9862V35.5815H30.8957V33.5815ZM23.2966 33.8574L19.8146 37.1734L21.1939 38.6217L24.6758 35.3057L23.2966 33.8574ZM19.5043 37.8976V43.0619H21.5043V37.8976H19.5043ZM20.5043 44.0619H25.4551V42.0619H20.5043V44.0619ZM24.8308 43.843L27.551 46.0174L28.7998 44.4552L26.0795 42.2807L24.8308 43.843ZM27.1754 45.2363V54.9669H29.1754V45.2363H27.1754ZM28.1754 55.9669H32.2014V53.9669H28.1754V55.9669ZM32.9039 55.6786L37.4195 51.221L36.0145 49.7976L31.4989 54.2552L32.9039 55.6786ZM37.717 50.5093V39.9089H35.717V50.5093H37.717ZM37.3921 39.1712L31.5708 33.8438L30.2205 35.3193L36.0419 40.6466L37.3921 39.1712ZM20.2652 9.67439C10.8663 12.1642 3.50868 19.4774 0.962061 28.8611L2.89224 29.3849C5.25178 20.6906 12.0689 13.9146 20.7774 11.6077L20.2652 9.67439ZM0.962061 28.8611C-1.58345 38.2407 0.993876 48.2009 7.84753 55.1036L9.26677 53.6944C2.92231 47.3045 0.531598 38.0833 2.89224 29.3849L0.962061 28.8611ZM7.84873 55.1048C15.5283 62.8131 27.0602 65.2084 37.1743 61.196L36.4368 59.337C27.0657 63.0546 16.381 60.8352 9.26558 53.6932L7.84873 55.1048ZM37.1743 61.196C47.2811 57.1866 54.0362 47.7207 54.3432 36.8363L52.344 36.7799C52.06 46.8497 45.8152 55.6165 36.4368 59.337L37.1743 61.196ZM54.3431 36.8395C54.6331 27.6236 50.2417 18.8936 42.6634 13.6399L41.5239 15.2836C48.5442 20.1504 52.6128 28.2377 52.3441 36.7766L54.3431 36.8395ZM12.0264 51.5616V45.298H10.0264V51.5616H12.0264ZM11.7281 46.0105L14.0535 43.7206L12.6503 42.2956L10.3248 44.5855L11.7281 46.0105ZM14.3519 43.0081V40.112H12.3519V43.0081H14.3519ZM13.9937 39.3451L11.2975 37.0889L10.0139 38.6227L12.7101 40.8789L13.9937 39.3451ZM10.6557 36.8558H4.45446V38.8558H10.6557V36.8558ZM35.6291 8.99677C35.6291 6.88514 33.9173 5.17332 31.8056 5.17332V7.17332C32.8127 7.17332 33.6291 7.9897 33.6291 8.99677H35.6291ZM31.8056 5.17332C29.694 5.17332 27.9822 6.88512 27.9822 8.99676H29.9822C29.9822 7.9897 30.7986 7.17332 31.8056 7.17332V5.17332ZM27.9822 8.99676C27.9822 11.1084 29.694 12.8202 31.8056 12.8202V10.8202C30.7986 10.8202 29.9822 10.0038 29.9822 8.99676H27.9822ZM31.8056 12.8202C33.9173 12.8202 35.6291 11.1084 35.6291 8.99677L33.6291 8.99676C33.6291 10.0038 32.8127 10.8202 31.8056 10.8202L31.8056 12.8202Z" fill="black"/>
</svg>
