<svg width="52" height="53" viewBox="0 0 52 53" fill="none" xmlns="http://www.w3.org/2000/svg">
<path fill-rule="evenodd" clip-rule="evenodd" d="M48.1024 15.1836C48.1024 9.02508 43.0636 3.98633 36.9051 3.98633C30.7467 3.98633 25.8945 9.02508 25.8945 15.1836C25.8945 21.1554 30.7467 26.1942 36.9051 26.1942C43.0636 26.1942 48.1024 21.1554 48.1024 15.1836Z" stroke="#18181A" stroke-width="2" stroke-miterlimit="22.9256"/>
<path fill-rule="evenodd" clip-rule="evenodd" d="M25.8953 37.3906C25.8953 31.2321 20.8566 26.1934 14.6981 26.1934C8.53963 26.1934 3.6875 31.2321 3.6875 37.3906C3.6875 43.3624 8.53963 48.4012 14.6981 48.4012C20.8566 48.4012 25.8953 43.3624 25.8953 37.3906Z" stroke="#18181A" stroke-width="2" stroke-miterlimit="22.9256"/>
<path d="M28.134 1.5602C22.722 1.00034 17.1234 2.30668 12.6445 5.29261" stroke="#18181A" stroke-width="2" stroke-miterlimit="22.9256"/>
<path d="M23.6553 51.0147C29.0673 51.388 34.4793 50.0816 39.1448 47.0957" stroke="#18181A" stroke-width="2" stroke-miterlimit="22.9256"/>
<path d="M35.7861 42.4297L43.4376 43.736L42.1312 51.3875" stroke="#18181A" stroke-width="2" stroke-miterlimit="22.9256"/>
<path d="M15.8174 9.95778L8.35254 8.65144L9.65888 1" stroke="#18181A" stroke-width="2" stroke-miterlimit="22.9256"/>
<path d="M40.8243 11.0781H35.2257C34.4792 11.0781 33.9193 11.4514 33.5461 12.1978C33.3316 12.7578 33.274 13.5199 33.5461 14.0641C33.9193 14.8105 34.4792 15.1838 35.2257 15.1838H38.7715C39.3313 15.1838 40.0778 15.557 40.451 16.1169C40.8243 16.6767 40.8243 17.4389 40.451 18.1697C40.0811 18.8541 39.3313 19.1028 38.7715 19.1028H33.1729" stroke="#18181A" stroke-width="2" stroke-miterlimit="22.9256"/>
<path d="M36.9053 9.02539V11.0782" stroke="#18181A" stroke-width="2" stroke-miterlimit="22.9256"/>
<path d="M36.9053 19.1016V21.1544" stroke="#18181A" stroke-width="2" stroke-miterlimit="22.9256"/>
<path d="M8.35269 8.65234C3.12731 13.8777 0.514627 21.1559 1.07449 28.4341" stroke="#18181A" stroke-width="2" stroke-miterlimit="22.9256"/>
<path d="M43.4375 43.7368C48.6629 38.5115 51.2756 31.2333 50.5291 23.9551" stroke="#18181A" stroke-width="2" stroke-miterlimit="22.9256"/>
<path d="M15.5244 31.2324V33.2852" stroke="#18181A" stroke-width="2" stroke-miterlimit="22.9256"/>
<path d="M15.5244 41.3105V43.3634" stroke="#18181A" stroke-width="2" stroke-miterlimit="22.9256"/>
<path d="M12.1465 31.2324V33.2852" stroke="#18181A" stroke-width="2" stroke-miterlimit="22.9256"/>
<path d="M12.1465 41.3105V43.3634" stroke="#18181A" stroke-width="2" stroke-miterlimit="22.9256"/>
<path d="M10.9658 33.2852V32.2852H9.96582V33.2852H10.9658ZM18.244 36.2711L19.1384 36.7183L19.1506 36.6939L19.1615 36.6689L18.244 36.2711ZM18.244 38.3239L19.1364 37.8726L19.1093 37.8191L19.0761 37.7692L18.244 38.3239ZM18.244 40.3767L19.0761 40.9314L19.1106 40.8796L19.1384 40.8239L18.244 40.3767ZM10.9658 41.3098H9.96582V42.3098H10.9658V41.3098ZM10.9658 34.2852H16.5644V32.2852H10.9658V34.2852ZM16.5644 34.2852C16.7627 34.2852 16.8916 34.3318 16.9895 34.3971C17.0937 34.4666 17.2223 34.5975 17.3496 34.8521L19.1384 33.9577C18.8925 33.4658 18.5546 33.0368 18.0989 32.733C17.637 32.4251 17.1127 32.2852 16.5644 32.2852V34.2852ZM17.3496 34.8521C17.384 34.9208 17.4304 35.0732 17.435 35.2842C17.4395 35.4885 17.4033 35.6962 17.3266 35.8732L19.1615 36.6689C19.5591 35.7519 19.4997 34.6802 19.1384 33.9577L17.3496 34.8521ZM17.3496 35.8239C17.2223 36.0785 17.0937 36.2094 16.9895 36.2788C16.8916 36.3441 16.7627 36.3908 16.5644 36.3908V38.3908C17.1127 38.3908 17.637 38.2509 18.0989 37.9429C18.5546 37.6391 18.8925 37.2102 19.1384 36.7183L17.3496 35.8239ZM16.5644 38.3908C16.923 38.3908 17.1924 38.5492 17.412 38.8786L19.0761 37.7692C18.5492 36.9789 17.6988 36.3908 16.5644 36.3908V38.3908ZM17.3516 38.7752C17.5128 39.0938 17.562 39.5047 17.3496 39.9295L19.1384 40.8239C19.6725 39.7558 19.5416 38.6739 19.1364 37.8726L17.3516 38.7752ZM17.412 39.822C17.1924 40.1514 16.923 40.3098 16.5644 40.3098V42.3098C17.6988 42.3098 18.5492 41.7218 19.0761 40.9314L17.412 39.822ZM16.5644 40.3098H10.9658V42.3098H16.5644V40.3098ZM9.96582 33.2852V41.3098H11.9658V33.2852H9.96582ZM16.5644 36.3913H10.9658V38.3913H16.5644V36.3913Z" fill="#18181A"/>
</svg>
