<svg width="65" height="41" viewBox="0 0 65 41" fill="none" xmlns="http://www.w3.org/2000/svg">
<path d="M44.0074 35.3659L43.384 34.584L43.3407 34.6185L43.3015 34.6576L44.0074 35.3659ZM14.7158 27.9513L14.0444 27.2102L13.9351 27.3092L13.8591 27.4355L14.7158 27.9513ZM17.273 25.6342L17.9445 26.3752L18.0149 26.3114L18.0721 26.2354L17.273 25.6342ZM18.2029 31.4268L17.497 30.7186L17.4097 30.8055L17.3462 30.9111L18.2029 31.4268ZM23.3173 26.3293L22.6114 25.621L23.3173 26.3293ZM22.3875 34.439L21.6672 33.7453L21.6359 33.7778L21.6076 33.813L22.3875 34.439ZM27.9668 28.6463L28.6871 29.34L28.7184 29.3075L28.7467 29.2722L27.9668 28.6463ZM31.6864 31.8902L32.4094 32.581L32.4859 32.5009L32.5431 32.4059L31.6864 31.8902ZM34.2435 35.8292L33.6448 35.0282L33.573 35.0819L33.5119 35.1475L34.2435 35.8292ZM20.5277 25.4024L19.8217 26.1107L19.9089 26.1975L20.0144 26.2606L20.5277 25.4024ZM26.5719 25.866L27.018 24.971L26.9808 24.9525L26.9423 24.9371L26.5719 25.866ZM30.9889 28.6464L30.3655 29.4283L30.418 29.4702L30.4757 29.5046L30.9889 28.6464ZM34.2435 32.8172L33.4445 33.4185L33.4872 33.4753L33.5376 33.5255L34.2435 32.8172ZM34.2435 39.7683L33.8732 38.8394L33.8346 38.8548L33.7975 38.8733L34.2435 39.7683ZM39.1255 37.6828L38.7551 36.7539L38.6325 36.8028L38.5267 36.8819L39.1255 37.6828ZM36.1033 37.2194L36.9024 36.6181L36.8828 36.5921L36.8615 36.5674L36.1033 37.2194ZM15.4133 31.4268L14.7898 32.2087L14.8021 32.2184L14.8146 32.2278L15.4133 31.4268ZM23.7823 36.7561L24.4057 35.9742L24.3935 35.9645L24.381 35.9551L23.7823 36.7561ZM28.4317 39.3048L27.833 40.1058L27.9051 40.1597L27.9857 40.1998L28.4317 39.3048ZM24.0147 8.71945L24.4608 9.61446L24.5032 9.59331L24.5435 9.56823L24.0147 8.71945ZM25.8745 7.56091L25.3901 6.68608L25.3676 6.69853L25.3458 6.71213L25.8745 7.56091ZM46.3321 8.25602L45.8295 7.39152L44.9498 7.90297L45.4765 8.77362L46.3321 8.25602ZM55.8635 24.0121L55.0079 24.5297L55.5228 25.381L56.3767 24.8704L55.8635 24.0121ZM54.7011 3.39017L55.5666 2.88921L55.0647 2.02206L54.1985 2.52567L54.7011 3.39017ZM43.7749 9.64638L44.3736 8.84543L44.3238 8.8082L44.2698 8.77743L43.7749 9.64638ZM38.893 6.86589L38.3395 7.69878L38.3682 7.71782L38.3981 7.73484L38.893 6.86589ZM34.2435 6.86589L34.7472 7.7298L34.7725 7.71502L34.797 7.69878L34.2435 6.86589ZM21.9225 14.0488L21.4188 13.1849L21.3695 13.2137L21.3237 13.2479L21.9225 14.0488ZM26.5719 17.5244L26.1259 16.6294L26.1011 16.6418L26.077 16.6555L26.5719 17.5244ZM34.476 13.5854L35.2138 12.9104L34.7049 12.354L34.03 12.6904L34.476 13.5854ZM19.1328 7.32915L19.9736 7.87054L20.5108 7.03628L19.6808 6.49261L19.1328 7.32915ZM9.13653 22.8535L8.58863 23.6901L9.4317 24.2423L9.97731 23.3949L9.13653 22.8535ZM10.9963 2L11.5442 1.16346L10.701 0.611166L10.1554 1.45878L10.9963 2ZM48.8893 29.3415L48.1514 30.0165L48.167 30.0335L48.1833 30.0498L48.8893 29.3415ZM48.8893 32.8171L48.1094 32.1912L48.0996 32.2034L48.0902 32.2159L48.8893 32.8171ZM45.6347 32.8171L44.8937 33.4886L44.9585 33.5602L45.0359 33.6181L45.6347 32.8171ZM43.8481 32.1743C44.2915 32.9109 44.147 33.9756 43.384 34.584L44.6309 36.1478C46.1926 34.9025 46.513 32.7233 45.5616 31.1428L43.8481 32.1743ZM43.3015 34.6576C43.149 34.8096 42.8301 34.929 42.3115 34.8428C41.8026 34.7583 41.2999 34.4993 40.9938 34.1942L39.5819 35.6107C40.2057 36.2325 41.0978 36.6686 41.9838 36.8158C42.86 36.9613 43.936 36.849 44.7134 36.0742L43.3015 34.6576ZM41.0795 34.2915L36.4301 28.2671L34.8468 29.4891L39.4962 35.5134L41.0795 34.2915ZM54.2732 21.8711L50.3212 25.3468L51.6419 26.8486L55.594 23.373L54.2732 21.8711ZM15.3873 28.6923L17.9445 26.3752L16.6016 24.8931L14.0444 27.2102L15.3873 28.6923ZM18.9089 32.1351L24.0233 27.0375L22.6114 25.621L17.497 30.7186L18.9089 32.1351ZM23.1077 35.1327L28.6871 29.34L27.2466 27.9526L21.6672 33.7453L23.1077 35.1327ZM27.7599 37.4469L32.4094 32.581L30.9634 31.1994L26.3139 36.0652L27.7599 37.4469ZM31.9531 39.7547L34.9752 36.5108L33.5119 35.1475L30.4897 38.3914L31.9531 39.7547ZM18.0721 26.2354C18.2251 26.0321 18.5298 25.8546 18.9077 25.8187C19.2748 25.7838 19.6027 25.8923 19.8217 26.1107L21.2336 24.6941C20.5228 23.9857 19.5721 23.7466 18.7187 23.8276C17.876 23.9077 17.0184 24.3095 16.474 25.0329L18.0721 26.2354ZM20.0144 26.2606C20.2681 26.4123 20.4136 26.6612 20.4296 27.012C20.4464 27.382 20.3088 27.8428 19.9803 28.2521L21.54 29.504C22.1414 28.7547 22.4687 27.8252 22.4275 26.9209C22.3854 25.9972 21.9497 25.0876 21.0409 24.5442L20.0144 26.2606ZM24.0233 27.0375C24.5685 26.4941 25.2545 26.4173 26.2016 26.7949L26.9423 24.9371C25.5646 24.3878 23.9259 24.3108 22.6114 25.621L24.0233 27.0375ZM26.1259 26.761C26.7023 27.0483 27.1193 27.7872 26.9864 28.4496L28.9473 28.843C29.2793 27.1884 28.3013 25.6105 27.018 24.971L26.1259 26.761ZM32.5431 32.4059C33.4792 30.8509 33.2137 28.8117 31.5022 27.7882L30.4757 29.5046C31.0888 29.8713 31.2884 30.6124 30.8296 31.3745L32.5431 32.4059ZM31.6124 27.8645C30.9989 27.3754 30.2686 26.9141 29.4493 26.8661C28.5284 26.812 27.7795 27.2821 27.1869 28.0203L28.7467 29.2722C29.084 28.852 29.265 28.8587 29.3321 28.8626C29.5007 28.8725 29.8165 28.9906 30.3655 29.4283L31.6124 27.8645ZM34.8423 36.6301C36.3728 35.486 36.2059 33.3612 34.9495 32.1089L33.5376 33.5255C34.141 34.1269 33.9741 34.7821 33.6448 35.0282L34.8423 36.6301ZM35.0426 32.2159C34.0509 30.898 32.2742 30.4921 30.8551 31.5528L32.0526 33.1547C32.4933 32.8252 33.0413 32.8827 33.4445 33.4185L35.0426 32.2159ZM34.8708 36.9878C34.8708 37.9235 34.5076 38.5865 33.8732 38.8394L34.6139 40.6972C36.3042 40.0233 36.8708 38.3692 36.8708 36.9878H34.8708ZM33.7975 38.8733C33.2601 39.1411 32.4024 38.9795 32.0204 38.4718L30.4223 39.6744C31.4352 41.0203 33.3672 41.3224 34.6896 40.6633L33.7975 38.8733ZM39.3598 35.2749C39.505 35.6366 39.4867 35.944 39.3927 36.1714C39.3 36.3957 39.1045 36.6146 38.7551 36.7539L39.4958 38.6117C40.3088 38.2876 40.9269 37.6956 41.2411 36.9352C41.554 36.178 41.5357 35.3269 41.2159 34.53L39.3598 35.2749ZM38.5267 36.8819C38.0595 37.2312 37.2846 37.1262 36.9024 36.6181L35.3043 37.8207C36.3168 39.1663 38.3317 39.5247 39.7242 38.4838L38.5267 36.8819ZM36.8615 36.5674L35.4667 34.9454L33.9503 36.2495L35.3451 37.8714L36.8615 36.5674ZM13.8591 27.4355C12.893 29.0404 13.2505 30.9813 14.7898 32.2087L16.0367 30.645C15.2513 30.0187 15.1439 29.1792 15.5726 28.467L13.8591 27.4355ZM14.8146 32.2278C15.323 32.6078 16.0194 33.0261 16.7788 33.1151C17.1801 33.1622 17.6193 33.1193 18.0437 32.9113C18.4683 32.7031 18.805 32.3656 19.0597 31.9426L17.3462 30.9111C17.2521 31.0673 17.182 31.1063 17.1634 31.1154C17.1447 31.1246 17.1045 31.1396 17.0118 31.1288C16.7832 31.102 16.4335 30.9409 16.012 30.6259L14.8146 32.2278ZM18.0436 30.4476C17.0157 32.1551 17.7583 34.1333 19.317 35.0655L20.3435 33.349C19.5775 32.8909 19.3901 32.0886 19.7571 31.4791L18.0436 30.4476ZM19.317 35.0655C19.5857 35.2262 19.7842 35.368 20.0423 35.5367C20.2641 35.6816 20.5649 35.8706 20.9028 35.9743C21.29 36.093 21.7257 36.1015 22.1704 35.9008C22.5693 35.7207 22.891 35.4092 23.1673 35.0649L21.6076 33.813C21.419 34.048 21.3338 34.0841 21.3477 34.0778C21.3631 34.0709 21.3956 34.0604 21.4373 34.0588C21.4764 34.0573 21.4969 34.0645 21.4893 34.0622C21.4494 34.05 21.3579 34.0073 21.1365 33.8626C20.9514 33.7416 20.6559 33.5358 20.3435 33.349L19.317 35.0655ZM22.6114 32.8039C21.8544 33.5583 21.7084 34.5623 21.8702 35.4087C22.0291 36.2406 22.5019 37.0475 23.1835 37.557L24.381 35.9551C24.1327 35.7695 23.9081 35.4178 23.8346 35.0333C23.7639 34.6633 23.8503 34.3928 24.0233 34.2204L22.6114 32.8039ZM23.1588 37.5379C23.8616 38.0983 24.656 38.4512 25.4968 38.4512C26.3557 38.4512 27.1226 38.0825 27.7428 37.4643L26.331 36.0478C26.0213 36.3564 25.7421 36.4512 25.4968 36.4512C25.2332 36.4512 24.8653 36.3407 24.4057 35.9742L23.1588 37.5379ZM26.0369 36.7561C26.0369 38.0372 26.6835 39.2465 27.833 40.1058L29.0305 38.5039C28.3202 37.9729 28.0369 37.3285 28.0369 36.7561H26.0369ZM27.9857 40.1998C28.5697 40.4909 29.21 40.6638 29.8888 40.6215C30.5737 40.5788 31.2214 40.3216 31.8201 39.874L30.6226 38.2721C30.2915 38.5197 30.0093 38.6101 29.7644 38.6253C29.5133 38.641 29.2237 38.5822 28.8778 38.4098L27.9857 40.1998ZM16.523 26.0284L13.5008 23.4796L12.2114 25.0084L15.2336 27.5572L16.523 26.0284ZM17.7569 9.61446C19.8976 10.6813 22.3201 10.6813 24.4608 9.61446L23.5687 7.82443C21.9898 8.61128 20.2279 8.61128 18.649 7.82443L17.7569 9.61446ZM24.5435 9.56823L26.4033 8.40969L25.3458 6.71213L23.486 7.87067L24.5435 9.56823ZM26.3589 8.43575C28.1182 7.46159 30.2184 7.68826 31.5017 8.78464L32.8008 7.26401C30.8295 5.5799 27.8153 5.34316 25.3901 6.68608L26.3589 8.43575ZM45.4765 8.77362L55.0079 24.5297L56.7191 23.4945L47.1877 7.73843L45.4765 8.77362ZM54.1985 2.52567L45.8295 7.39152L46.8347 9.12052L55.2037 4.25467L54.1985 2.52567ZM63.4868 18.2881L55.3502 23.1539L56.3767 24.8704L64.5132 20.0046L63.4868 18.2881ZM53.8356 3.89113L60.8098 15.9399L62.5408 14.938L55.5666 2.88921L53.8356 3.89113ZM51.2871 9.00355L53.3794 12.4792L55.0929 11.4477L53.0006 7.97206L51.2871 9.00355ZM46.4308 8.61372C45.7149 9.14887 44.825 9.18287 44.3736 8.84543L43.1762 10.4473C44.5845 11.5001 46.4843 11.0707 47.6282 10.2156L46.4308 8.61372ZM44.2698 8.77743L39.3879 5.99694L38.3981 7.73484L43.28 10.5153L44.2698 8.77743ZM39.4464 6.033C37.7162 4.88336 35.4202 4.88336 33.6901 6.033L34.797 7.69878C35.8565 6.99476 37.28 6.99476 38.3395 7.69878L39.4464 6.033ZM33.7399 6.00198L21.4188 13.1849L22.4261 14.9127L34.7472 7.7298L33.7399 6.00198ZM21.3237 13.2479C19.8807 14.3266 19.8769 16.434 20.9841 17.5376L22.3959 16.121C22.1083 15.8344 22.1045 15.1613 22.5212 14.8498L21.3237 13.2479ZM20.9841 17.5376C22.6932 19.2411 25.0434 19.5458 27.0668 18.3934L26.077 16.6555C24.8458 17.3567 23.4765 17.198 22.3959 16.121L20.9841 17.5376ZM27.018 18.4194L34.922 14.4804L34.03 12.6904L26.1259 16.6294L27.018 18.4194ZM18.2921 6.78777L8.29576 22.3122L9.97731 23.3949L19.9736 7.87054L18.2921 6.78777ZM10.1554 1.45878L2.25139 13.7393L3.93315 14.8217L11.8372 2.54122L10.1554 1.45878ZM10.4484 2.83654L18.5849 8.16569L19.6808 6.49261L11.5442 1.16346L10.4484 2.83654ZM0.452097 18.361L8.58863 23.6901L9.68444 22.017L1.5479 16.6879L0.452097 18.361ZM12.7223 6.54167L10.3976 10.0173L12.06 11.1292L14.3847 7.6536L12.7223 6.54167ZM33.7381 14.2604L48.1514 30.0165L49.6271 28.6666L35.2138 12.9104L33.7381 14.2604ZM48.1833 30.0498C48.6834 30.5482 48.7835 31.3513 48.1094 32.1912L49.6691 33.4431C50.8548 31.9659 50.9549 29.9885 49.5952 28.6333L48.1833 30.0498ZM48.0902 32.2159C48.012 32.3198 47.8161 32.4464 47.3966 32.4265C46.9831 32.4069 46.5363 32.2426 46.2334 32.0162L45.0359 33.6181C45.6629 34.0868 46.4948 34.3859 47.3017 34.4243C48.1027 34.4623 49.0691 34.2413 49.6883 33.4184L48.0902 32.2159ZM46.3757 32.1456L39.8664 24.9627L38.3844 26.3057L44.8937 33.4886L46.3757 32.1456Z" fill="#18181A"/>
</svg>
