<svg width="85" height="84" viewBox="0 0 85 84" fill="none" xmlns="http://www.w3.org/2000/svg">
<path d="M1 81.9989H16.8504V51.0469H2.88233V74.939" stroke="#E9EAEA" stroke-width="4" stroke-miterlimit="22.9256"/>
<path fill-rule="evenodd" clip-rule="evenodd" d="M82.8812 10.0158C82.8812 5.57139 79.3098 2 74.8654 2C70.421 2 66.8496 5.57139 66.8496 10.0158C66.8496 14.3808 70.421 17.9522 74.8654 17.9522C79.3098 17.9522 82.8812 14.3808 82.8812 10.0158Z" stroke="#E9EAEA" stroke-width="4" stroke-miterlimit="22.9256"/>
<path fill-rule="evenodd" clip-rule="evenodd" d="M57.2461 18.9826C57.2461 14.5382 53.6748 10.9668 49.2304 10.9668C44.8653 10.9668 41.2939 14.5382 41.2939 18.9826C41.2939 23.427 44.8653 26.9984 49.2304 26.9984C53.6748 26.9984 57.2461 23.427 57.2461 18.9826Z" stroke="#E9EAEA" stroke-width="4" stroke-miterlimit="22.9256"/>
<path fill-rule="evenodd" clip-rule="evenodd" d="M77.722 35.5724C77.722 31.128 74.0712 27.5566 69.7062 27.5566C65.2618 27.5566 61.6904 31.128 61.6904 35.5724C61.6904 40.0168 65.2618 43.5882 69.7062 43.5882C74.0712 43.5882 77.722 40.0168 77.722 35.5724Z" stroke="#E9EAEA" stroke-width="4" stroke-miterlimit="22.9256"/>
<path d="M9.86523 56.3652V61.762" stroke="#E9EAEA" stroke-width="4" stroke-miterlimit="22.9256"/>
<path d="M23.5978 52.9506C24.5293 50.9402 25.7406 50.2522 27.4073 49.6966L50.0261 41.9983C51.6927 41.3634 53.6768 42.0777 54.6292 43.6649C55.5816 45.2522 55.1054 47.3951 53.6768 48.5855L44.2325 54.7759C43.4388 55.3315 42.9626 56.2045 42.9626 57.0775C42.8833 58.0299 43.2801 58.9029 43.9944 59.4584C51.2959 65.4107 61.8513 65.0139 68.756 58.5854L73.9147 53.3474C75.5813 51.6807 78.0416 51.0458 80.2638 51.6014C81.2162 51.9188 81.9305 52.5537 82.2479 53.5061C82.5654 54.4585 82.3273 55.4902 81.6924 56.2045L71.6925 67.871C70.3433 69.4583 68.5973 70.6488 66.6132 71.363L51.0578 77.1566C48.915 77.9503 46.6134 78.3471 44.3912 78.2677L17 75.881" stroke="#E9EAEA" stroke-width="4" stroke-miterlimit="22.9256"/>
</svg>
