<svg width="1440" height="394" viewBox="0 0 1440 394" fill="none" xmlns="http://www.w3.org/2000/svg">
<rect x="950" y="160" width="10" height="160" transform="rotate(-180 950 160)" fill="#E9EAEA"/>
<rect width="490" height="10" transform="matrix(-1 -8.74228e-08 -8.74228e-08 1 1440 0)" fill="#E9EAEA"/>
<rect width="10" height="160" transform="matrix(1 -9.16381e-08 -8.34013e-08 -1 490 160)" fill="#E9EAEA"/>
<rect width="490" height="10" fill="#E9EAEA"/>
<rect width="440" height="10" transform="matrix(1 0 0 -1 500 160)" fill="#E9EAEA"/>
<rect x="490" y="234" width="10" height="160" fill="#E9EAEA"/>
<rect width="490" height="10" transform="matrix(1 1.74846e-07 1.74846e-07 -1 0 394)" fill="#E9EAEA"/>
<rect width="10" height="160" transform="matrix(-1 4.21535e-09 -4.02144e-09 1 950 234)" fill="#E9EAEA"/>
<rect x="1440" y="394" width="490" height="10" transform="rotate(-180 1440 394)" fill="#E9EAEA"/>
<rect width="440" height="10" transform="matrix(-1 -8.74228e-08 -8.74228e-08 1 940 234)" fill="#E9EAEA"/>
</svg>
