<svg width="458" height="70" viewBox="0 0 458 70" fill="none" xmlns="http://www.w3.org/2000/svg">
<path fill-rule="evenodd" clip-rule="evenodd" d="M458 10.295V0H374.349L374.24 39.9788H447.708V59.6181H374.354V69.908L458 69.7904V29.6838H384.651V10.295H458ZM320.092 59.6181H256.917V0H246.619V69.9131H330.265V0H320.092V59.6181ZM133.604 10.295H196.785V29.6838H133.604V10.295ZM123.312 69.8262L133.604 70V39.9737L183.444 40.1066L195.917 69.7853H205.904L194.051 40.1015H206.953V0H123.312V69.8262ZM0 10.295H73.3486V29.6838H0V69.7853H10.2924V39.9788H73.3486V69.7853H83.641V0H0V10.295Z" fill="white"/>
</svg>
