<svg width="451" height="423" viewBox="0 0 451 423" fill="none" xmlns="http://www.w3.org/2000/svg">
<rect x="240.239" width="297.279" height="300.151" transform="rotate(45 240.239 0)" fill="#18181A"/>
<rect x="212.239" width="297.279" height="300.151" transform="rotate(45 212.239 0)" fill="#E9EAEA"/>
<path d="M147.148 212.989H151.68V201.596C151.678 198.083 154.351 195.142 157.847 194.801H165.912V188.398C166.123 183.768 163.98 179.349 160.212 176.65" stroke="black" stroke-width="6" stroke-miterlimit="22.9256" stroke-linejoin="bevel"/>
<path fill-rule="evenodd" clip-rule="evenodd" d="M228.199 180.903L248.038 150.709C254.533 140.792 252.708 127.602 243.763 119.822C234.819 112.042 221.504 112.061 212.582 119.868C203.661 127.674 201.836 140.811 208.36 150.709L228.199 180.903H228.199Z" stroke="black" stroke-width="6" stroke-miterlimit="22.9256" stroke-linejoin="bevel"/>
<path d="M208.89 173.658C202.478 175.065 198.147 181.052 198.831 187.58V193.595H224.19L241.901 212.674H252.988L256.304 208.765H263.738L271.875 220.008H280.744" stroke="black" stroke-width="6" stroke-miterlimit="22.9256" stroke-linejoin="bevel"/>
<path fill-rule="evenodd" clip-rule="evenodd" d="M225.505 213.418H205.05L194.742 223.235V238.524H209.399L217.452 244.961V273.768H229.371L242.739 260.572V229.189L225.505 213.418Z" stroke="black" stroke-width="6" stroke-miterlimit="22.9256" stroke-linejoin="bevel"/>
<path d="M194.792 142.541C167.989 149.641 147.007 170.497 139.745 197.256C132.483 224.016 139.836 252.409 159.373 272.085C181.273 294.067 214.158 300.898 243.001 289.455C271.844 278.013 291.087 251.025 291.961 220.008C292.788 193.726 280.266 168.833 258.656 153.852" stroke="black" stroke-width="6" stroke-miterlimit="22.9256" stroke-linejoin="bevel"/>
<path d="M166.683 263.685V245.142L173.567 238.363V229.789L165.585 223.109H147.227" stroke="black" stroke-width="6" stroke-miterlimit="22.9256" stroke-linejoin="bevel"/>
<path fill-rule="evenodd" clip-rule="evenodd" d="M236.558 137.673C236.558 133.057 232.815 129.314 228.199 129.314C223.583 129.314 219.84 133.057 219.84 137.673C219.84 142.29 223.583 146.032 228.199 146.032C232.815 146.032 236.558 142.29 236.558 137.673L236.558 137.673Z" stroke="black" stroke-width="6" stroke-miterlimit="22.9256" stroke-linejoin="bevel"/>
</svg>
