<svg width="451" height="423" viewBox="0 0 451 423" fill="none" xmlns="http://www.w3.org/2000/svg">
<rect x="210.208" y="422.447" width="297.279" height="300.151" transform="rotate(-135 210.208 422.447)" fill="#18181A"/>
<rect x="238.208" y="422.447" width="297.279" height="300.151" transform="rotate(-135 238.208 422.447)" fill="#E9EAEA"/>
<path fill-rule="evenodd" clip-rule="evenodd" d="M305.447 177.989C305.447 159.757 290.53 144.84 272.298 144.84C254.066 144.84 239.701 159.757 239.701 177.989C239.701 195.668 254.066 210.585 272.298 210.585C290.53 210.585 305.447 195.668 305.447 177.989Z" stroke="#18181A" stroke-width="6" stroke-miterlimit="22.9256"/>
<path fill-rule="evenodd" clip-rule="evenodd" d="M239.701 243.735C239.701 225.503 224.784 210.586 206.552 210.586C188.32 210.586 173.955 225.503 173.955 243.735C173.955 261.414 188.32 276.331 206.552 276.331C224.784 276.331 239.701 261.414 239.701 243.735Z" stroke="#18181A" stroke-width="6" stroke-miterlimit="22.9256"/>
<path d="M246.331 137.656C230.309 135.999 213.734 139.866 200.475 148.706" stroke="#18181A" stroke-width="6" stroke-miterlimit="22.9256"/>
<path d="M233.071 284.065C249.093 285.17 265.115 281.303 278.927 272.463" stroke="#18181A" stroke-width="6" stroke-miterlimit="22.9256"/>
<path d="M268.982 258.652L291.634 262.52L287.767 285.172" stroke="#18181A" stroke-width="6" stroke-miterlimit="22.9256"/>
<path d="M209.867 162.519L187.768 158.652L191.635 136" stroke="#18181A" stroke-width="6" stroke-miterlimit="22.9256"/>
<path d="M283.9 165.834H267.325C265.115 165.834 263.458 166.939 262.353 169.149C261.718 170.807 261.547 173.063 262.353 174.674C263.458 176.884 265.115 177.989 267.325 177.989H277.823C279.48 177.989 281.69 179.094 282.795 180.751C283.9 182.408 283.9 184.665 282.795 186.828C281.7 188.854 279.48 189.591 277.823 189.591H261.248" stroke="#18181A" stroke-width="6" stroke-miterlimit="22.9256"/>
<path d="M272.297 159.758V165.835" stroke="#18181A" stroke-width="6" stroke-miterlimit="22.9256"/>
<path d="M272.297 189.592V195.669" stroke="#18181A" stroke-width="6" stroke-miterlimit="22.9256"/>
<path d="M187.767 158.652C172.298 174.122 164.563 195.669 166.221 217.216" stroke="#18181A" stroke-width="6" stroke-miterlimit="22.9256"/>
<path d="M291.634 262.52C307.103 247.051 314.838 225.504 312.628 203.957" stroke="#18181A" stroke-width="6" stroke-miterlimit="22.9256"/>
<path d="M209 225.502V231.579" stroke="#18181A" stroke-width="6" stroke-miterlimit="22.9256"/>
<path d="M209 255.338V261.415" stroke="#18181A" stroke-width="6" stroke-miterlimit="22.9256"/>
<path d="M199 225.502V231.579" stroke="#18181A" stroke-width="6" stroke-miterlimit="22.9256"/>
<path d="M199 255.338V261.415" stroke="#18181A" stroke-width="6" stroke-miterlimit="22.9256"/>
<path d="M195.502 231.58V228.58H192.502V231.58H195.502ZM217.049 240.42L219.732 241.761L219.769 241.688L219.801 241.613L217.049 240.42ZM217.049 246.497L219.726 245.143L219.645 244.983L219.545 244.833L217.049 246.497ZM217.049 252.574L219.545 254.239L219.649 254.083L219.732 253.916L217.049 252.574ZM195.502 255.337H192.502V258.337H195.502V255.337ZM195.502 234.58H212.076V228.58H195.502V234.58ZM212.076 234.58C212.656 234.58 213.03 234.716 213.313 234.905C213.614 235.106 213.991 235.488 214.366 236.237L219.732 233.553C219.002 232.092 217.997 230.817 216.641 229.913C215.266 228.996 213.706 228.58 212.076 228.58V234.58ZM214.366 236.237C214.464 236.434 214.601 236.879 214.614 237.499C214.627 238.099 214.521 238.708 214.296 239.226L219.801 241.613C220.983 238.888 220.807 235.703 219.732 233.553L214.366 236.237ZM214.366 239.078C213.991 239.827 213.614 240.209 213.313 240.41C213.03 240.598 212.656 240.735 212.076 240.735V246.735C213.706 246.735 215.266 246.319 216.641 245.402C217.997 244.498 219.002 243.222 219.732 241.761L214.366 239.078ZM212.076 246.735C213.123 246.735 213.909 247.195 214.553 248.161L219.545 244.833C217.979 242.484 215.45 240.735 212.076 240.735V246.735ZM214.372 247.851C214.844 248.785 214.988 249.988 214.366 251.233L219.732 253.916C221.32 250.741 220.93 247.525 219.726 245.143L214.372 247.851ZM214.553 250.91C213.909 251.876 213.123 252.337 212.076 252.337V258.337C215.45 258.337 217.979 256.587 219.545 254.239L214.553 250.91ZM212.076 252.337H195.502V258.337H212.076V252.337ZM192.502 231.58V255.337H198.502V231.58H192.502ZM212.076 240.736H195.502V246.736H212.076V240.736Z" fill="#18181A"/>
</svg>
