<svg width="451" height="423" viewBox="0 0 451 423" fill="none" xmlns="http://www.w3.org/2000/svg">
<rect x="240.239" width="297.279" height="300.151" transform="rotate(45 240.239 0)" fill="#18181A"/>
<rect x="212.239" width="297.279" height="300.151" transform="rotate(45 212.239 0)" fill="#E9EAEA"/>
<path d="M244.974 267.22L243.096 264.881L242.966 264.985L242.849 265.102L244.974 267.22ZM158.494 245.171L156.472 242.955L156.146 243.253L155.919 243.632L158.494 245.171ZM166.044 238.281L168.067 240.496L168.277 240.304L168.448 240.076L166.044 238.281ZM168.79 255.506L166.664 253.389L166.404 253.65L166.214 253.967L168.79 255.506ZM183.889 240.348L181.764 238.23L183.889 240.348ZM181.144 264.463L178.976 262.39L178.882 262.488L178.798 262.594L181.144 264.463ZM197.616 247.238L199.784 249.311L199.878 249.213L199.962 249.107L197.616 247.238ZM208.598 256.884L210.774 258.949L211.003 258.708L211.173 258.423L208.598 256.884ZM216.148 268.597L214.343 266.201L214.128 266.363L213.945 266.56L216.148 268.597ZM175.653 237.591L173.528 239.709L173.789 239.97L174.105 240.161L175.653 237.591ZM193.498 238.97L194.844 236.289L194.732 236.233L194.616 236.186L193.498 238.97ZM206.539 247.238L204.66 249.577L204.818 249.704L204.991 249.808L206.539 247.238ZM216.148 259.641L213.744 261.436L213.872 261.607L214.022 261.758L216.148 259.641ZM216.148 280.311L215.03 277.527L214.914 277.574L214.802 277.63L216.148 280.311ZM230.561 274.109L229.443 271.325L229.074 271.474L228.756 271.713L230.561 274.109ZM221.638 272.731L224.042 270.936L223.983 270.858L223.92 270.783L221.638 272.731ZM160.554 255.506L158.675 257.845L158.712 257.874L158.749 257.903L160.554 255.506ZM185.262 271.354L187.14 269.014L187.104 268.985L187.066 268.957L185.262 271.354ZM198.989 278.933L197.184 281.329L197.401 281.492L197.643 281.614L198.989 278.933ZM185.948 187.982L187.294 190.663L187.422 190.599L187.543 190.523L185.948 187.982ZM191.439 184.536L189.978 181.916L189.91 181.954L189.845 181.995L191.439 184.536ZM251.838 186.603L250.322 184.015L247.704 185.548L249.266 188.148L251.838 186.603ZM279.978 233.457L277.406 235.002L278.953 237.577L281.526 236.027L279.978 233.457ZM276.546 172.134L279.147 170.639L277.64 168.017L275.03 169.545L276.546 172.134ZM244.288 190.738L246.092 188.341L245.943 188.229L245.781 188.136L244.288 190.738ZM229.874 182.47L228.206 184.963L228.292 185.02L228.382 185.072L229.874 182.47ZM216.148 182.47L217.667 185.057L217.743 185.012L217.816 184.963L216.148 182.47ZM179.771 203.829L178.252 201.242L178.104 201.329L177.967 201.433L179.771 203.829ZM193.498 214.165L192.152 211.484L192.078 211.521L192.005 211.563L193.498 214.165ZM216.834 202.451L219.055 200.434L217.523 198.748L215.488 199.77L216.834 202.451ZM171.535 183.847L174.063 185.463L175.656 182.972L173.187 181.343L171.535 183.847ZM142.022 230.012L140.37 232.516L142.911 234.192L144.55 231.628L142.022 230.012ZM147.513 168L149.165 165.496L146.624 163.82L144.985 166.385L147.513 168ZM259.387 249.305L257.167 251.322L257.213 251.373L257.262 251.422L259.387 249.305ZM259.387 259.64L257.041 257.771L257.012 257.807L256.984 257.845L259.387 259.64ZM249.779 259.64L247.548 261.647L247.742 261.863L247.974 262.037L249.779 259.64ZM244.458 257.734C245.766 259.922 245.334 263.083 243.096 264.881L246.853 269.559C251.478 265.844 252.419 259.358 249.608 254.656L244.458 257.734ZM242.849 265.102C242.413 265.54 241.495 265.892 239.979 265.639C238.49 265.39 237.016 264.625 236.118 263.724L231.867 267.959C233.715 269.814 236.359 271.117 238.988 271.557C241.59 271.992 244.79 271.656 247.1 269.337L242.849 265.102ZM236.374 264.017L222.647 246.102L217.884 249.752L231.611 267.666L236.374 264.017ZM275.243 227.078L263.575 237.413L267.554 241.905L279.222 231.569L275.243 227.078ZM160.517 247.387L168.067 240.496L164.022 236.065L156.472 242.955L160.517 247.387ZM170.915 257.623L186.015 242.465L181.764 238.23L166.664 253.389L170.915 257.623ZM183.312 266.537L199.784 249.311L195.448 245.164L178.976 262.39L183.312 266.537ZM197.047 273.418L210.774 258.949L206.421 254.819L192.694 269.289L197.047 273.418ZM209.427 280.281L218.35 270.634L213.945 266.56L205.023 276.207L209.427 280.281ZM168.448 240.076C168.893 239.48 169.779 238.96 170.877 238.855C171.942 238.753 172.891 239.07 173.528 239.709L177.779 235.474C175.67 233.357 172.844 232.64 170.306 232.883C167.8 233.122 165.254 234.325 163.641 236.485L168.448 240.076ZM174.105 240.161C174.838 240.603 175.269 241.333 175.316 242.378C175.366 243.478 174.959 244.845 173.993 246.057L178.686 249.796C180.465 247.563 181.431 244.796 181.31 242.107C181.185 239.362 179.9 236.647 177.201 235.022L174.105 240.161ZM186.015 242.465C187.605 240.868 189.6 240.637 192.38 241.754L194.616 236.186C190.533 234.546 185.664 234.315 181.764 238.23L186.015 242.465ZM192.152 241.651C193.832 242.494 195.067 244.68 194.674 246.652L200.558 247.824C201.538 242.905 198.655 238.201 194.844 236.289L192.152 241.651ZM211.173 258.423C213.937 253.799 213.162 247.725 208.087 244.668L204.991 249.808C206.779 250.885 207.377 253.079 206.023 255.345L211.173 258.423ZM208.417 244.899C206.606 243.445 204.438 242.062 201.997 241.918C199.248 241.755 197.022 243.17 195.27 245.368L199.962 249.107C200.956 247.86 201.475 247.897 201.643 247.907C202.119 247.935 203.039 248.275 204.66 249.577L208.417 244.899ZM217.952 270.994C222.487 267.58 221.989 261.254 218.273 257.523L214.022 261.758C215.797 263.539 215.299 265.481 214.343 266.201L217.952 270.994ZM218.551 257.845C215.613 253.912 210.328 252.688 206.107 255.866L209.716 260.659C210.985 259.703 212.564 259.856 213.744 261.436L218.551 257.845ZM217.952 272.043C217.952 274.831 216.876 276.786 215.03 277.527L217.265 283.095C222.283 281.08 223.952 276.144 223.952 272.043H217.952ZM214.802 277.63C213.244 278.412 210.745 277.942 209.628 276.448L204.822 280.039C207.824 284.057 213.561 284.966 217.493 282.992L214.802 277.63ZM231.206 266.952C231.634 268.025 231.579 268.938 231.303 269.612C231.031 270.275 230.459 270.917 229.443 271.325L231.679 276.893C234.094 275.923 235.925 274.154 236.854 271.889C237.779 269.635 237.725 267.103 236.78 264.731L231.206 266.952ZM228.756 271.713C227.407 272.729 225.159 272.431 224.042 270.936L219.235 274.527C222.236 278.544 228.224 279.624 232.365 276.506L228.756 271.713ZM223.92 270.783L219.802 265.96L215.239 269.856L219.357 274.679L223.92 270.783ZM155.919 243.632C153.065 248.407 154.116 254.184 158.675 257.845L162.432 253.167C160.127 251.316 159.805 248.825 161.069 246.71L155.919 243.632ZM158.749 257.903C160.251 259.034 162.317 260.286 164.577 260.552C165.773 260.694 167.083 260.565 168.348 259.94C169.613 259.316 170.612 258.305 171.365 257.045L166.214 253.967C165.938 254.429 165.736 254.539 165.692 254.56C165.649 254.581 165.544 254.625 165.281 254.594C164.624 254.516 163.601 254.046 162.358 253.109L158.749 257.903ZM168.274 252.589C165.238 257.668 167.423 263.559 172.046 266.344L175.142 261.204C172.901 259.855 172.341 257.478 173.424 255.667L168.274 252.589ZM172.046 266.344C172.838 266.821 173.422 267.241 174.186 267.744C174.84 268.175 175.734 268.741 176.741 269.052C177.897 269.409 179.201 269.435 180.53 268.831C181.719 268.29 182.674 267.357 183.49 266.333L178.798 262.594C178.242 263.292 177.995 263.392 178.047 263.369C178.099 263.345 178.204 263.312 178.336 263.307C178.461 263.302 178.529 263.325 178.512 263.319C178.403 263.286 178.139 263.163 177.485 262.733C176.94 262.374 176.066 261.761 175.142 261.204L172.046 266.344ZM181.764 259.59C179.521 261.842 179.092 264.832 179.569 267.348C180.039 269.822 181.436 272.228 183.457 273.75L187.066 268.957C186.343 268.412 185.681 267.373 185.464 266.23C185.255 265.128 185.512 264.329 186.015 263.824L181.764 259.59ZM183.383 273.693C185.463 275.363 187.821 276.421 190.324 276.421C192.882 276.421 195.16 275.314 196.996 273.471L192.745 269.236C191.837 270.149 191.026 270.421 190.324 270.421C189.566 270.421 188.493 270.101 187.14 269.014L183.383 273.693ZM191.871 271.354C191.871 275.164 193.78 278.766 197.184 281.329L200.793 276.536C198.707 274.965 197.871 273.056 197.871 271.354H191.871ZM197.643 281.614C199.374 282.483 201.276 283.001 203.295 282.874C205.333 282.746 207.256 281.976 209.03 280.64L205.421 275.847C204.449 276.579 203.627 276.842 202.919 276.886C202.193 276.932 201.349 276.761 200.335 276.252L197.643 281.614ZM163.868 239.439L154.946 231.86L151.062 236.433L159.984 244.012L163.868 239.439ZM167.444 190.663C173.781 193.844 180.956 193.844 187.294 190.663L184.602 185.3C179.959 187.631 174.779 187.631 170.135 185.3L167.444 190.663ZM187.543 190.523L193.034 187.078L189.845 181.995L184.354 185.44L187.543 190.523ZM192.9 187.156C198.073 184.272 204.243 184.943 208.014 188.188L211.927 183.64C206.089 178.617 197.16 177.911 189.978 181.916L192.9 187.156ZM249.266 188.148L277.406 235.002L282.55 231.912L254.409 185.059L249.266 188.148ZM275.03 169.545L250.322 184.015L253.354 189.192L278.062 174.723L275.03 169.545ZM302.452 216.418L278.43 230.887L281.526 236.027L305.548 221.558L302.452 216.418ZM273.945 173.629L294.536 209.458L299.738 206.468L279.147 170.639L273.945 173.629ZM266.421 188.832L272.598 199.167L277.748 196.089L271.571 185.754L266.421 188.832ZM252.092 187.652C249.989 189.236 247.396 189.323 246.092 188.341L242.483 193.135C246.67 196.287 252.313 194.996 255.701 192.446L252.092 187.652ZM245.781 188.136L231.367 179.867L228.382 185.072L242.795 193.34L245.781 188.136ZM231.543 179.976C226.415 176.545 219.607 176.545 214.479 179.976L217.816 184.963C220.924 182.882 225.098 182.882 228.206 184.963L231.543 179.976ZM214.628 179.883L178.252 201.242L181.29 206.416L217.667 185.057L214.628 179.883ZM177.967 201.433C173.691 204.652 173.683 210.926 176.959 214.215L181.21 209.98C180.368 209.135 180.361 207.141 181.576 206.226L177.967 201.433ZM176.959 214.215C182.02 219.295 188.991 220.209 194.991 216.767L192.005 211.563C188.397 213.633 184.386 213.169 181.21 209.98L176.959 214.215ZM194.844 216.846L218.18 205.133L215.488 199.77L192.152 211.484L194.844 216.846ZM169.007 182.231L139.495 228.396L144.55 231.628L174.063 185.463L169.007 182.231ZM144.985 166.385L121.649 202.903L126.705 206.134L150.041 169.615L144.985 166.385ZM145.861 170.504L169.883 186.351L173.187 181.343L149.165 165.496L145.861 170.504ZM116.348 216.669L140.37 232.516L143.674 227.508L119.652 211.661L116.348 216.669ZM152.564 181.499L145.7 191.835L150.698 195.154L157.562 184.818L152.564 181.499ZM214.613 204.468L257.167 251.322L261.608 247.288L219.055 200.434L214.613 204.468ZM257.262 251.422C258.729 252.895 259.027 255.279 257.041 257.771L261.734 261.51C265.239 257.112 265.537 251.227 261.513 247.188L257.262 251.422ZM256.984 257.845C256.763 258.14 256.205 258.511 254.984 258.453C253.777 258.395 252.47 257.911 251.583 257.244L247.974 262.037C249.833 263.437 252.3 264.331 254.697 264.446C257.079 264.56 259.953 263.897 261.791 261.436L256.984 257.845ZM252.009 257.634L232.791 236.274L228.331 240.287L247.548 261.647L252.009 257.634Z" fill="#18181A"/>
</svg>
