<svg width="568" height="148" viewBox="0 0 568 148" fill="none" xmlns="http://www.w3.org/2000/svg">
<rect width="6" height="54" transform="matrix(1 0 -4.29898e-06 1 174.001 0)" fill="#E9EAEA"/>
<rect width="6" height="54" transform="matrix(1 0 -4.29898e-06 1 174.001 94)" fill="#E9EAEA"/>
<rect width="6" height="208" transform="matrix(1.19249e-08 -1 1 4.3109e-06 180 54)" fill="#E9EAEA"/>
<rect width="6" height="208" transform="matrix(1.19249e-08 -1 1 4.3109e-06 180 100)" fill="#E9EAEA"/>
<rect width="174" height="6" transform="matrix(1 0 -4.29898e-06 1 0 0)" fill="#E9EAEA"/>
<rect width="174" height="6" transform="matrix(1 0 -4.29898e-06 1 0 142)" fill="#E9EAEA"/>
<rect width="6" height="54" transform="matrix(-1 -8.74228e-08 4.3864e-06 -1 394 148)" fill="#E9EAEA"/>
<rect width="6" height="54" transform="matrix(-1 -8.74228e-08 4.3864e-06 -1 394 54)" fill="#E9EAEA"/>
<rect width="174" height="6" transform="matrix(-1 -8.74228e-08 4.3864e-06 -1 568.001 148)" fill="#E9EAEA"/>
<rect width="174" height="6" transform="matrix(-1 -8.74228e-08 4.3864e-06 -1 568.001 6)" fill="#E9EAEA"/>
</svg>
