<svg width="1024" height="996" viewBox="0 0 1024 996" fill="none" xmlns="http://www.w3.org/2000/svg">
<rect width="811" height="9.99996" transform="matrix(4.37114e-08 1 1 -4.37114e-08 441 93)" fill="#E9EAEA"/>
<rect width="441" height="10" transform="matrix(-1 -8.74228e-08 -8.74228e-08 1 441 93)" fill="#E9EAEA"/>
<rect width="441" height="10" transform="matrix(1 1.74846e-07 1.74846e-07 -1 0 904)" fill="#E9EAEA"/>
<rect width="811" height="9.99996" transform="matrix(4.37114e-08 -1 -1 -4.37114e-08 583 904)" fill="#E9EAEA"/>
<rect width="441" height="10" transform="matrix(1 1.74846e-07 1.74846e-07 -1 583 904)" fill="#E9EAEA"/>
<rect width="441" height="10" transform="matrix(-1 -2.62268e-07 -2.62268e-07 1 1024 93)" fill="#E9EAEA"/>
<rect width="155" height="155" transform="matrix(1 0 -4.29898e-06 1 734 841)" fill="#E9EAEA"/>
<rect width="155" height="155" transform="matrix(1 0 -4.29898e-06 1 135 841)" fill="#E9EAEA"/>
<rect width="155" height="155" transform="matrix(1 0 -4.29898e-06 1 734 0)" fill="#E9EAEA"/>
<rect width="155" height="155" transform="matrix(1 0 -4.29898e-06 1 135 0)" fill="#E9EAEA"/>
<rect width="270" height="270" transform="matrix(1 0 -4.29898e-06 1 377 363)" fill="#E9EAEA"/>
<rect width="230" height="230" transform="matrix(1 0 -4.29898e-06 1 397 383)" fill="#18181A"/>
<rect width="155" height="155" transform="matrix(1 0 -4.29898e-06 1 155 20)" fill="#18181A"/>
<rect width="155" height="155" transform="matrix(1 0 -4.29898e-06 1 714 20)" fill="#18181A"/>
<rect width="155" height="155" transform="matrix(-1 -8.74228e-08 4.3864e-06 -1 869 976)" fill="#18181A"/>
<rect width="155" height="155" transform="matrix(-1 -8.74228e-08 4.3864e-06 -1 310 976)" fill="#18181A"/>
<path fill-rule="evenodd" clip-rule="evenodd" d="M561.288 573.791H552.789C551.13 568.785 548.674 563.224 544.957 557.6C530.317 535.453 506.5 527.953 497.296 525.587C501.459 521.162 505.574 518.359 508.491 516.717C517.833 511.459 530.017 508.898 545.726 508.898H561.288V573.791ZM472.545 577.508H463.542C464.047 558.985 467.937 542.887 475.123 529.588C482.881 515.265 493.232 507.349 500.54 503.242C515.326 494.913 532.434 493.578 547.838 493.407V500.592H545.726C528.492 500.592 514.936 503.519 504.257 509.52C494.012 515.296 470.996 533.262 472.545 577.508ZM561.288 485V500.592H556.345V485.086H552.092C537.199 485.086 520.364 485.697 504.64 492.045L496.977 495.68L496.965 495.688C488.648 500.245 476.554 509.209 467.63 525.708C463.436 533.437 460.306 541.984 458.185 551.302L456.427 560.997C455.481 567.556 455 574.452 455 581.657V585H491.714V577.508H481.04C480.228 555.817 485.746 541.241 492.4 531.647C499.168 533.079 508.723 536.014 518.543 542.432C523.624 545.756 532.047 551.392 538.595 562.029C542.671 568.649 544.571 574.845 545.517 579.068L546.396 582.093H569.783V485H561.288Z" fill="#E9EAEA"/>
<path d="M428.807 433.754V443H424.483V418.117H434.002C436.782 418.117 438.986 418.841 440.616 420.288C442.256 421.735 443.077 423.649 443.077 426.03C443.077 428.468 442.273 430.365 440.667 431.721C439.072 433.076 436.833 433.754 433.951 433.754H428.807ZM428.807 430.285H434.002C435.54 430.285 436.714 429.926 437.522 429.208C438.331 428.479 438.736 427.431 438.736 426.064C438.736 424.72 438.326 423.649 437.505 422.851C436.685 422.042 435.557 421.626 434.122 421.604H428.807V430.285ZM451.194 439.548H462.491V443H446.871V418.117H451.194V439.548ZM480.076 437.207H470.438L468.421 443H463.926L473.326 418.117H477.205L486.622 443H482.11L480.076 437.207ZM471.651 433.72H478.863L475.257 423.398L471.651 433.72ZM505.386 421.604H497.627V443H493.338V421.604H485.647V418.117H505.386V421.604ZM523.006 432.456H512.991V443H508.667V418.117H524.476V421.604H512.991V429.003H523.006V432.456ZM547.769 431.208C547.769 433.646 547.347 435.788 546.504 437.634C545.661 439.468 544.454 440.881 542.881 441.872C541.32 442.852 539.52 443.342 537.481 443.342C535.464 443.342 533.664 442.852 532.081 441.872C530.508 440.881 529.289 439.474 528.423 437.651C527.569 435.828 527.136 433.726 527.125 431.345V429.943C527.125 427.517 527.552 425.375 528.406 423.518C529.272 421.66 530.486 420.242 532.046 419.262C533.619 418.271 535.419 417.775 537.447 417.775C539.475 417.775 541.269 418.265 542.83 419.245C544.402 420.214 545.616 421.615 546.47 423.449C547.325 425.272 547.758 427.397 547.769 429.824V431.208ZM543.445 429.909C543.445 427.152 542.921 425.039 541.873 423.569C540.836 422.099 539.361 421.364 537.447 421.364C535.578 421.364 534.114 422.099 533.055 423.569C532.007 425.027 531.471 427.095 531.448 429.772V431.208C531.448 433.942 531.978 436.056 533.038 437.548C534.109 439.041 535.59 439.787 537.481 439.787C539.395 439.787 540.865 439.058 541.89 437.6C542.927 436.141 543.445 434.011 543.445 431.208V429.909ZM561.219 433.413H556.399V443H552.076V418.117H560.826C563.697 418.117 565.913 418.761 567.474 420.048C569.035 421.336 569.815 423.199 569.815 425.637C569.815 427.3 569.41 428.696 568.602 429.824C567.804 430.94 566.688 431.8 565.252 432.404L570.84 442.778V443H566.209L561.219 433.413ZM556.399 429.943H560.843C562.301 429.943 563.44 429.579 564.261 428.85C565.081 428.109 565.491 427.101 565.491 425.825C565.491 424.492 565.11 423.461 564.346 422.731C563.594 422.002 562.466 421.626 560.962 421.604H556.399V429.943ZM579.522 418.117L586.7 437.189L593.86 418.117H599.449V443H595.142V434.797L595.569 423.825L588.221 443H585.127L577.796 423.842L578.223 434.797V443H573.917V418.117H579.522Z" fill="#E9EAEA"/>
<path fill-rule="evenodd" clip-rule="evenodd" d="M805.236 917.807H753V953.664H805.236V917.807Z" stroke="#E9EAEA" stroke-width="3" stroke-miterlimit="22.9256"/>
<path d="M789.3 925.775V953.664" stroke="#E9EAEA" stroke-width="3" stroke-miterlimit="22.9256"/>
<path d="M815.162 937.809L828 915.675L782.846 890L770.294 911.545" stroke="#E9EAEA" stroke-width="3" stroke-miterlimit="22.9256"/>
<path d="M772.891 930.282H769.349V926.74H772.891V930.282Z" fill="#E9EAEA"/>
<path d="M765.808 930.282H762.267V926.741H765.808L765.808 930.282L769.349 930.282H772.891V933.823H769.349H765.808V930.282Z" fill="#E9EAEA"/>
<path d="M762.267 937.808H769.349V933.823H765.808L762.267 933.824V937.808Z" fill="#E9EAEA"/>
<path d="M772.891 937.808H776.432V933.824L772.891 933.823L772.891 937.808Z" fill="#E9EAEA"/>
<path d="M772.891 937.808L772.891 944.89H762.267V941.349H769.349L769.349 937.808H772.891Z" fill="#E9EAEA"/>
<path d="M776.432 930.282H779.974V926.74H776.432V930.282Z" fill="#E9EAEA"/>
<path d="M779.974 933.823L776.432 933.824L776.432 930.282H779.974V933.823Z" fill="#E9EAEA"/>
<path d="M779.974 937.808L776.432 937.808L776.432 944.89H779.974V937.808Z" fill="#E9EAEA"/>
<path fill-rule="evenodd" clip-rule="evenodd" d="M787.279 908.026L784.19 906.294L785.922 903.205L789.011 904.937L787.279 908.026Z" fill="#E9EAEA"/>
<path fill-rule="evenodd" clip-rule="evenodd" d="M793.457 911.491L790.368 909.759L792.1 906.67L795.189 908.402L793.457 911.491Z" fill="#E9EAEA"/>
<path fill-rule="evenodd" clip-rule="evenodd" d="M788.635 912.848L782.439 909.374L784.171 906.285L790.367 909.759L788.635 912.848Z" fill="#E9EAEA"/>
<path d="M739.936 858.873C739.936 857.998 739.626 857.324 739.006 856.85C738.395 856.376 737.288 855.897 735.684 855.414C734.079 854.931 732.803 854.393 731.855 853.801C730.042 852.661 729.135 851.176 729.135 849.344C729.135 847.74 729.786 846.418 731.09 845.379C732.402 844.34 734.102 843.82 736.189 843.82C737.575 843.82 738.81 844.076 739.895 844.586C740.979 845.096 741.831 845.826 742.451 846.773C743.071 847.712 743.381 848.756 743.381 849.904H739.936C739.936 848.865 739.607 848.054 738.951 847.471C738.304 846.878 737.374 846.582 736.162 846.582C735.032 846.582 734.152 846.824 733.523 847.307C732.904 847.79 732.594 848.464 732.594 849.33C732.594 850.059 732.931 850.67 733.605 851.162C734.28 851.645 735.392 852.119 736.941 852.584C738.491 853.04 739.735 853.564 740.674 854.156C741.613 854.74 742.301 855.414 742.738 856.18C743.176 856.936 743.395 857.825 743.395 858.846C743.395 860.505 742.757 861.826 741.48 862.811C740.214 863.786 738.491 864.273 736.312 864.273C734.872 864.273 733.546 864.009 732.334 863.48C731.131 862.943 730.192 862.204 729.518 861.266C728.852 860.327 728.52 859.233 728.52 857.984H731.979C731.979 859.115 732.352 859.99 733.1 860.609C733.847 861.229 734.918 861.539 736.312 861.539C737.516 861.539 738.418 861.298 739.02 860.814C739.63 860.322 739.936 859.675 739.936 858.873ZM758.064 855.113H749.889V861.238H759.445V864H746.43V844.094H759.35V846.883H749.889V852.379H758.064V855.113ZM769.576 856.33H765.721V864H762.262V844.094H769.262C771.559 844.094 773.331 844.609 774.58 845.639C775.829 846.669 776.453 848.159 776.453 850.109C776.453 851.44 776.13 852.557 775.482 853.459C774.844 854.352 773.951 855.04 772.803 855.523L777.273 863.822V864H773.568L769.576 856.33ZM765.721 853.555H769.275C770.442 853.555 771.354 853.263 772.01 852.68C772.666 852.087 772.994 851.281 772.994 850.26C772.994 849.193 772.689 848.368 772.078 847.785C771.477 847.202 770.574 846.901 769.371 846.883H765.721V853.555ZM786.475 859.666L791.533 844.094H795.334L788.17 864H784.82L777.684 844.094H781.471L786.475 859.666ZM801.24 864H797.795V844.094H801.24V864ZM820.682 857.52C820.481 859.643 819.697 861.302 818.33 862.496C816.963 863.681 815.145 864.273 812.875 864.273C811.289 864.273 809.89 863.9 808.678 863.152C807.475 862.396 806.545 861.325 805.889 859.939C805.232 858.554 804.891 856.945 804.863 855.113V853.254C804.863 851.376 805.196 849.722 805.861 848.291C806.527 846.86 807.479 845.757 808.719 844.982C809.967 844.208 811.408 843.82 813.039 843.82C815.236 843.82 817.004 844.417 818.344 845.611C819.684 846.805 820.463 848.492 820.682 850.67H817.236C817.072 849.239 816.653 848.209 815.979 847.58C815.313 846.942 814.333 846.623 813.039 846.623C811.535 846.623 810.378 847.174 809.566 848.277C808.764 849.371 808.354 850.98 808.336 853.104V854.867C808.336 857.018 808.719 858.659 809.484 859.789C810.259 860.919 811.389 861.484 812.875 861.484C814.233 861.484 815.254 861.179 815.938 860.568C816.621 859.958 817.054 858.941 817.236 857.52H820.682ZM835.42 855.113H827.244V861.238H836.801V864H823.785V844.094H836.705V846.883H827.244V852.379H835.42V855.113ZM850.021 858.873C850.021 857.998 849.712 857.324 849.092 856.85C848.481 856.376 847.374 855.897 845.77 855.414C844.165 854.931 842.889 854.393 841.941 853.801C840.128 852.661 839.221 851.176 839.221 849.344C839.221 847.74 839.872 846.418 841.176 845.379C842.488 844.34 844.188 843.82 846.275 843.82C847.661 843.82 848.896 844.076 849.98 844.586C851.065 845.096 851.917 845.826 852.537 846.773C853.157 847.712 853.467 848.756 853.467 849.904H850.021C850.021 848.865 849.693 848.054 849.037 847.471C848.39 846.878 847.46 846.582 846.248 846.582C845.118 846.582 844.238 846.824 843.609 847.307C842.99 847.79 842.68 848.464 842.68 849.33C842.68 850.059 843.017 850.67 843.691 851.162C844.366 851.645 845.478 852.119 847.027 852.584C848.577 853.04 849.821 853.564 850.76 854.156C851.699 854.74 852.387 855.414 852.824 856.18C853.262 856.936 853.48 857.825 853.48 858.846C853.48 860.505 852.842 861.826 851.566 862.811C850.299 863.786 848.577 864.273 846.398 864.273C844.958 864.273 843.632 864.009 842.42 863.48C841.217 862.943 840.278 862.204 839.604 861.266C838.938 860.327 838.605 859.233 838.605 857.984H842.064C842.064 859.115 842.438 859.99 843.186 860.609C843.933 861.229 845.004 861.539 846.398 861.539C847.602 861.539 848.504 861.298 849.105 860.814C849.716 860.322 850.021 859.675 850.021 858.873Z" fill="#E9EAEA"/>
<path d="M194 140.013L207.458 143.365L214.004 117.085L202.144 114.131L197.091 134.417" stroke="#E9EAEA" stroke-width="3" stroke-miterlimit="22.9256"/>
<path fill-rule="evenodd" clip-rule="evenodd" d="M272.022 90.6051C271.311 86.7818 267.667 84.2806 263.844 84.9914C260.021 85.7022 257.519 89.3458 258.23 93.1692C258.928 96.9243 262.572 99.4254 266.395 98.7146C270.219 98.0038 272.72 94.3602 272.022 90.6051Z" stroke="#E9EAEA" stroke-width="3" stroke-miterlimit="22.9256"/>
<path fill-rule="evenodd" clip-rule="evenodd" d="M251.402 98.4186C250.691 94.5952 247.047 92.0941 243.224 92.8049C239.469 93.503 236.968 97.1466 237.678 100.97C238.389 104.793 242.033 107.294 245.788 106.596C249.611 105.886 252.112 102.242 251.402 98.4186Z" stroke="#E9EAEA" stroke-width="3" stroke-miterlimit="22.9256"/>
<path fill-rule="evenodd" clip-rule="evenodd" d="M271.67 113.603C270.959 109.78 267.248 107.291 263.492 107.989C259.669 108.7 257.168 112.344 257.879 116.167C258.59 119.991 262.233 122.492 266.056 121.781C269.812 121.083 272.381 117.427 271.67 113.603Z" stroke="#E9EAEA" stroke-width="3" stroke-miterlimit="22.9256"/>
<path d="M206.948 120.123L205.807 124.705" stroke="#E9EAEA" stroke-width="3" stroke-miterlimit="22.9256"/>
<path d="M219.33 120.127C220.546 118.617 221.72 118.289 223.252 118.17L244.085 116.417C245.635 116.23 247.168 117.256 247.641 118.805C248.114 120.355 247.257 122.073 245.792 122.782L236.464 126.041C235.673 126.344 235.084 126.985 234.899 127.726C234.63 128.518 234.782 129.343 235.271 129.966C240.212 136.564 249.258 138.46 256.48 134.462L261.968 131.105C263.736 130.042 265.959 130.024 267.728 130.965C268.47 131.436 268.942 132.126 269.01 133.002C269.078 133.878 268.658 134.704 267.968 135.176L257.01 142.967C255.529 144.029 253.794 144.671 251.959 144.857L237.526 146.487C235.539 146.707 233.5 146.558 231.63 146.02L208.878 138.201" stroke="#E9EAEA" stroke-width="3" stroke-miterlimit="22.9256"/>
<path d="M221.936 53.5645H213.924V62H210.465V42.0938H223.111V44.8828H213.924V50.8027H221.936V53.5645ZM229.51 62H226.064V42.0938H229.51V62ZM245.15 57.3652H237.439L235.826 62H232.23L239.75 42.0938H242.854L250.387 62H246.777L245.15 57.3652ZM238.41 54.5762H244.18L241.295 46.3184L238.41 54.5762ZM265.398 44.8828H259.191V62H255.76V44.8828H249.607V42.0938H265.398V44.8828Z" fill="#E9EAEA"/>
<path d="M807.976 122.5H827.152L837 133.384L825.079 144.787" stroke="#E9EAEA" stroke-width="3" stroke-miterlimit="22.9256"/>
<path d="M777.915 122.5H759.774L790.872 98.6582H807.976L785.689 117.317L791.39 137.53H752L756.665 129.237" stroke="#E9EAEA" stroke-width="3" stroke-miterlimit="22.9256"/>
<path d="M813.158 104.879L818.86 111.617L798.128 131.83H809.012" stroke="#E9EAEA" stroke-width="3" stroke-miterlimit="22.9256"/>
<path d="M790.872 87.7744V80" stroke="#E9EAEA" stroke-width="3" stroke-miterlimit="22.9256"/>
<path d="M775.842 98.6582H767.549" stroke="#E9EAEA" stroke-width="3" stroke-miterlimit="22.9256"/>
<path d="M782.58 91.4012L775.842 85.1816" stroke="#E9EAEA" stroke-width="3" stroke-miterlimit="22.9256"/>
<path d="M763.921 147.378H817.823V131.829L827.153 122.5" stroke="#E9EAEA" stroke-width="3" stroke-miterlimit="22.9256"/>
<path d="M799.165 91.4012L805.385 85.1816" stroke="#E9EAEA" stroke-width="3" stroke-miterlimit="22.9256"/>
<path d="M756.609 39.0938L762.352 54.3516L768.08 39.0938H772.551V59H769.105V52.4375L769.447 43.6602L763.568 59H761.094L755.229 43.6738L755.57 52.4375V59H752.125V39.0938H756.609ZM788.287 50.1133H780.111V56.2383H789.668V59H776.652V39.0938H789.572V41.8828H780.111V47.3789H788.287V50.1133ZM807.141 41.8828H800.934V59H797.502V41.8828H791.35V39.0938H807.141V41.8828ZM819.268 54.3652H811.557L809.943 59H806.348L813.867 39.0938H816.971L824.504 59H820.895L819.268 54.3652ZM812.527 51.5762H818.297L815.412 43.3184L812.527 51.5762ZM830.232 56.2383H839.27V59H826.773V39.0938H830.232V56.2383Z" fill="#E9EAEA"/>
<path d="M235.5 881L235.5 887.125" stroke="#E9EAEA" stroke-width="4" stroke-miterlimit="22.9256"/>
<path d="M235.5 944.875L235.5 951" stroke="#E9EAEA" stroke-width="4" stroke-miterlimit="22.9256"/>
<path d="M218 892.666H235.76C239.989 892.666 243.795 894.958 245.909 898.499C248.023 902.041 248.023 906.624 245.909 910.166" stroke="#E9EAEA" stroke-width="4" stroke-miterlimit="22.9256"/>
<path d="M223.92 881V951" stroke="#E9EAEA" stroke-width="4" stroke-miterlimit="22.9256"/>
<path d="M223.92 916H241.68C245.697 916 249.715 918.083 251.829 921.833C253.943 925.375 253.943 929.75 251.829 933.292C249.715 937.042 245.697 939.125 241.68 939.125H218" stroke="#E9EAEA" stroke-width="4" stroke-miterlimit="22.9256"/>
<path d="M200.193 854.52C199.993 856.643 199.209 858.302 197.842 859.496C196.475 860.681 194.656 861.273 192.387 861.273C190.801 861.273 189.402 860.9 188.189 860.152C186.986 859.396 186.057 858.325 185.4 856.939C184.744 855.554 184.402 853.945 184.375 852.113V850.254C184.375 848.376 184.708 846.722 185.373 845.291C186.038 843.86 186.991 842.757 188.23 841.982C189.479 841.208 190.919 840.82 192.551 840.82C194.747 840.82 196.516 841.417 197.855 842.611C199.195 843.805 199.975 845.492 200.193 847.67H196.748C196.584 846.239 196.165 845.209 195.49 844.58C194.825 843.942 193.845 843.623 192.551 843.623C191.047 843.623 189.889 844.174 189.078 845.277C188.276 846.371 187.866 847.98 187.848 850.104V851.867C187.848 854.018 188.23 855.659 188.996 856.789C189.771 857.919 190.901 858.484 192.387 858.484C193.745 858.484 194.766 858.179 195.449 857.568C196.133 856.958 196.566 855.941 196.748 854.52H200.193ZM210.611 853.33H206.756V861H203.297V841.094H210.297C212.594 841.094 214.367 841.609 215.615 842.639C216.864 843.669 217.488 845.159 217.488 847.109C217.488 848.44 217.165 849.557 216.518 850.459C215.88 851.352 214.986 852.04 213.838 852.523L218.309 860.822V861H214.604L210.611 853.33ZM206.756 850.555H210.311C211.477 850.555 212.389 850.263 213.045 849.68C213.701 849.087 214.029 848.281 214.029 847.26C214.029 846.193 213.724 845.368 213.113 844.785C212.512 844.202 211.609 843.901 210.406 843.883H206.756V850.555ZM226.607 850.527L231.188 841.094H235.016L228.344 853.672V861H224.871V853.672L218.186 841.094H222.027L226.607 850.527ZM240.635 853.604V861H237.176V841.094H244.791C247.015 841.094 248.779 841.673 250.082 842.83C251.395 843.988 252.051 845.519 252.051 847.424C252.051 849.374 251.408 850.892 250.123 851.977C248.847 853.061 247.056 853.604 244.75 853.604H240.635ZM240.635 850.828H244.791C246.021 850.828 246.96 850.541 247.607 849.967C248.255 849.383 248.578 848.545 248.578 847.451C248.578 846.376 248.25 845.519 247.594 844.881C246.938 844.234 246.035 843.901 244.887 843.883H240.635V850.828ZM269.469 843.883H263.262V861H259.83V843.883H253.678V841.094H269.469V843.883ZM287.598 851.566C287.598 853.517 287.26 855.23 286.586 856.707C285.911 858.174 284.945 859.305 283.688 860.098C282.439 860.882 280.999 861.273 279.367 861.273C277.754 861.273 276.314 860.882 275.047 860.098C273.789 859.305 272.814 858.179 272.121 856.721C271.438 855.262 271.091 853.581 271.082 851.676V850.555C271.082 848.613 271.424 846.9 272.107 845.414C272.8 843.928 273.771 842.794 275.02 842.01C276.277 841.217 277.717 840.82 279.34 840.82C280.962 840.82 282.398 841.212 283.646 841.996C284.904 842.771 285.875 843.892 286.559 845.359C287.242 846.818 287.589 848.518 287.598 850.459V851.566ZM284.139 850.527C284.139 848.322 283.719 846.631 282.881 845.455C282.051 844.279 280.871 843.691 279.34 843.691C277.845 843.691 276.674 844.279 275.826 845.455C274.988 846.622 274.559 848.276 274.541 850.418V851.566C274.541 853.754 274.965 855.445 275.812 856.639C276.669 857.833 277.854 858.43 279.367 858.43C280.898 858.43 282.074 857.846 282.895 856.68C283.724 855.513 284.139 853.809 284.139 851.566V850.527Z" fill="#E9EAEA"/>
</svg>
