<svg width="1366" height="776" viewBox="0 0 1366 776" fill="none" xmlns="http://www.w3.org/2000/svg">
<rect width="478" height="10" transform="matrix(1 0 4.29898e-06 -1 444 353)" fill="#E9EAEA"/>
<rect width="478" height="10" transform="matrix(1 0 -4.29898e-06 1 444 424)" fill="#E9EAEA"/>
<rect width="434" height="10.0001" transform="matrix(1 1.74846e-07 1.74846e-07 -1 0 103)" fill="#E9EAEA"/>
<rect width="260" height="9.99999" transform="matrix(4.37114e-08 1 1 -4.37114e-08 434 93)" fill="#E9EAEA"/>
<rect width="434" height="10.0001" transform="matrix(-1 -2.62268e-07 -2.62268e-07 1 434 674)" fill="#E9EAEA"/>
<rect width="260" height="9.99999" transform="matrix(4.37114e-08 -1 -1 -4.37114e-08 444 684)" fill="#E9EAEA"/>
<rect width="434" height="10.0001" transform="matrix(-1 -2.62268e-07 -2.62268e-07 1 1366 674)" fill="#E9EAEA"/>
<rect width="260" height="9.99999" transform="matrix(4.37114e-08 -1 -1 -4.37114e-08 932 684)" fill="#E9EAEA"/>
<rect width="434" height="10.0001" transform="matrix(1 3.49691e-07 3.49691e-07 -1 932 103)" fill="#E9EAEA"/>
<rect width="260" height="9.99999" transform="matrix(-1.31134e-07 1 1 1.31134e-07 922 93)" fill="#E9EAEA"/>
<rect width="155" height="155" transform="matrix(1 0 -4.29898e-06 1 1076 621)" fill="#E9EAEA"/>
<rect width="155" height="155" transform="matrix(1 0 -4.29898e-06 1 135 621)" fill="#E9EAEA"/>
<rect width="155" height="155" transform="matrix(1 0 -4.29898e-06 1 1076 0)" fill="#E9EAEA"/>
<rect width="155" height="155" transform="matrix(1 0 -4.29898e-06 1 135 0)" fill="#E9EAEA"/>
<rect width="155" height="155" transform="matrix(1 0 -4.29898e-06 1 155.001 20)" fill="#18181A"/>
<rect width="155" height="155" transform="matrix(1 0 -4.29898e-06 1 1056 20)" fill="#18181A"/>
<rect width="155" height="155" transform="matrix(-1 -8.74228e-08 4.3864e-06 -1 1211 756)" fill="#18181A"/>
<rect width="155" height="155" transform="matrix(-1 -8.74228e-08 4.3864e-06 -1 310 756)" fill="#18181A"/>
<path d="M232.5 664L232.5 670.125" stroke="#E9EAEA" stroke-width="4" stroke-miterlimit="22.9256"/>
<path d="M232.5 727.875L232.5 734" stroke="#E9EAEA" stroke-width="4" stroke-miterlimit="22.9256"/>
<path d="M215 675.666H232.76C236.989 675.666 240.795 677.958 242.909 681.499C245.023 685.041 245.023 689.624 242.909 693.166" stroke="#E9EAEA" stroke-width="4" stroke-miterlimit="22.9256"/>
<path d="M220.92 664V734" stroke="#E9EAEA" stroke-width="4" stroke-miterlimit="22.9256"/>
<path d="M220.92 699H238.68C242.697 699 246.715 701.083 248.829 704.833C250.943 708.375 250.943 712.75 248.829 716.292C246.715 720.042 242.697 722.125 238.68 722.125H215" stroke="#E9EAEA" stroke-width="4" stroke-miterlimit="22.9256"/>
<path d="M197.193 637.52C196.993 639.643 196.209 641.302 194.842 642.496C193.475 643.681 191.656 644.273 189.387 644.273C187.801 644.273 186.402 643.9 185.189 643.152C183.986 642.396 183.057 641.325 182.4 639.939C181.744 638.554 181.402 636.945 181.375 635.113V633.254C181.375 631.376 181.708 629.722 182.373 628.291C183.038 626.86 183.991 625.757 185.23 624.982C186.479 624.208 187.919 623.82 189.551 623.82C191.747 623.82 193.516 624.417 194.855 625.611C196.195 626.805 196.975 628.492 197.193 630.67H193.748C193.584 629.239 193.165 628.209 192.49 627.58C191.825 626.942 190.845 626.623 189.551 626.623C188.047 626.623 186.889 627.174 186.078 628.277C185.276 629.371 184.866 630.98 184.848 633.104V634.867C184.848 637.018 185.23 638.659 185.996 639.789C186.771 640.919 187.901 641.484 189.387 641.484C190.745 641.484 191.766 641.179 192.449 640.568C193.133 639.958 193.566 638.941 193.748 637.52H197.193ZM207.611 636.33H203.756V644H200.297V624.094H207.297C209.594 624.094 211.367 624.609 212.615 625.639C213.864 626.669 214.488 628.159 214.488 630.109C214.488 631.44 214.165 632.557 213.518 633.459C212.88 634.352 211.986 635.04 210.838 635.523L215.309 643.822V644H211.604L207.611 636.33ZM203.756 633.555H207.311C208.477 633.555 209.389 633.263 210.045 632.68C210.701 632.087 211.029 631.281 211.029 630.26C211.029 629.193 210.724 628.368 210.113 627.785C209.512 627.202 208.609 626.901 207.406 626.883H203.756V633.555ZM223.607 633.527L228.188 624.094H232.016L225.344 636.672V644H221.871V636.672L215.186 624.094H219.027L223.607 633.527ZM237.635 636.604V644H234.176V624.094H241.791C244.015 624.094 245.779 624.673 247.082 625.83C248.395 626.988 249.051 628.519 249.051 630.424C249.051 632.374 248.408 633.892 247.123 634.977C245.847 636.061 244.056 636.604 241.75 636.604H237.635ZM237.635 633.828H241.791C243.021 633.828 243.96 633.541 244.607 632.967C245.255 632.383 245.578 631.545 245.578 630.451C245.578 629.376 245.25 628.519 244.594 627.881C243.938 627.234 243.035 626.901 241.887 626.883H237.635V633.828ZM266.469 626.883H260.262V644H256.83V626.883H250.678V624.094H266.469V626.883ZM284.598 634.566C284.598 636.517 284.26 638.23 283.586 639.707C282.911 641.174 281.945 642.305 280.688 643.098C279.439 643.882 277.999 644.273 276.367 644.273C274.754 644.273 273.314 643.882 272.047 643.098C270.789 642.305 269.814 641.179 269.121 639.721C268.438 638.262 268.091 636.581 268.082 634.676V633.555C268.082 631.613 268.424 629.9 269.107 628.414C269.8 626.928 270.771 625.794 272.02 625.01C273.277 624.217 274.717 623.82 276.34 623.82C277.962 623.82 279.398 624.212 280.646 624.996C281.904 625.771 282.875 626.892 283.559 628.359C284.242 629.818 284.589 631.518 284.598 633.459V634.566ZM281.139 633.527C281.139 631.322 280.719 629.631 279.881 628.455C279.051 627.279 277.871 626.691 276.34 626.691C274.845 626.691 273.674 627.279 272.826 628.455C271.988 629.622 271.559 631.276 271.541 633.418V634.566C271.541 636.754 271.965 638.445 272.812 639.639C273.669 640.833 274.854 641.43 276.367 641.43C277.898 641.43 279.074 640.846 279.895 639.68C280.724 638.513 281.139 636.809 281.139 634.566V633.527Z" fill="#E9EAEA"/>
<rect width="270" height="270" transform="matrix(1 0 -4.29898e-06 1 548.001 245)" fill="#E9EAEA"/>
<rect width="230" height="230" transform="matrix(1 0 -4.29898e-06 1 568.001 265)" fill="#18181A"/>
<path fill-rule="evenodd" clip-rule="evenodd" d="M732.289 445.791H723.79C722.131 440.785 719.675 435.224 715.958 429.6C701.318 407.453 677.501 399.953 668.297 397.587C672.46 393.162 676.575 390.359 679.492 388.717C688.834 383.459 701.018 380.898 716.726 380.898H732.289V445.791ZM643.546 449.508H634.543C635.048 430.985 638.938 414.887 646.124 401.588C653.882 387.265 664.233 379.349 671.541 375.242C686.327 366.913 703.435 365.578 718.839 365.407V372.592H716.726C699.493 372.592 685.937 375.519 675.258 381.52C665.013 387.296 641.997 405.262 643.546 449.508ZM732.289 357V372.592H727.346V357.086H723.093C708.2 357.086 691.365 357.697 675.641 364.045L667.978 367.68L667.966 367.688C659.649 372.245 647.555 381.209 638.631 397.708C634.437 405.437 631.307 413.984 629.186 423.302L627.428 432.997C626.482 439.556 626.001 446.452 626.001 453.657V457H662.715V449.508H652.041C651.229 427.817 656.747 413.241 663.401 403.647C670.169 405.079 679.724 408.014 689.544 414.432C694.625 417.756 703.048 423.392 709.596 434.029C713.672 440.649 715.572 446.845 716.518 451.068L717.397 454.093H740.784V357H732.289Z" fill="#E9EAEA"/>
<path d="M599.808 305.754V315H595.484V290.117H605.003C607.783 290.117 609.987 290.841 611.617 292.288C613.257 293.735 614.078 295.649 614.078 298.03C614.078 300.468 613.274 302.365 611.668 303.721C610.073 305.076 607.834 305.754 604.952 305.754H599.808ZM599.808 302.285H605.003C606.541 302.285 607.715 301.926 608.523 301.208C609.332 300.479 609.737 299.431 609.737 298.064C609.737 296.72 609.327 295.649 608.506 294.851C607.686 294.042 606.558 293.626 605.123 293.604H599.808V302.285ZM622.195 311.548H633.492V315H617.872V290.117H622.195V311.548ZM651.077 309.207H641.438L639.422 315H634.927L644.327 290.117H648.206L657.623 315H653.111L651.077 309.207ZM642.652 305.72H649.864L646.258 295.398L642.652 305.72ZM676.387 293.604H668.628V315H664.339V293.604H656.648V290.117H676.387V293.604ZM694.007 304.456H683.992V315H679.668V290.117H695.477V293.604H683.992V301.003H694.007V304.456ZM718.77 303.208C718.77 305.646 718.348 307.788 717.505 309.634C716.662 311.468 715.455 312.881 713.882 313.872C712.321 314.852 710.521 315.342 708.482 315.342C706.465 315.342 704.665 314.852 703.082 313.872C701.509 312.881 700.29 311.474 699.424 309.651C698.57 307.828 698.137 305.726 698.125 303.345V301.943C698.125 299.517 698.553 297.375 699.407 295.518C700.273 293.66 701.486 292.242 703.047 291.262C704.62 290.271 706.42 289.775 708.448 289.775C710.476 289.775 712.27 290.265 713.831 291.245C715.403 292.214 716.617 293.615 717.471 295.449C718.326 297.272 718.759 299.397 718.77 301.824V303.208ZM714.446 301.909C714.446 299.152 713.922 297.039 712.874 295.569C711.837 294.099 710.362 293.364 708.448 293.364C706.579 293.364 705.115 294.099 704.056 295.569C703.007 297.027 702.472 299.095 702.449 301.772V303.208C702.449 305.942 702.979 308.056 704.039 309.548C705.11 311.041 706.591 311.787 708.482 311.787C710.396 311.787 711.866 311.058 712.891 309.6C713.928 308.141 714.446 306.011 714.446 303.208V301.909ZM732.22 305.413H727.4V315H723.077V290.117H731.827C734.698 290.117 736.914 290.761 738.475 292.048C740.035 293.336 740.816 295.199 740.816 297.637C740.816 299.3 740.411 300.696 739.603 301.824C738.805 302.94 737.688 303.8 736.253 304.404L741.841 314.778V315H737.21L732.22 305.413ZM727.4 301.943H731.844C733.302 301.943 734.441 301.579 735.262 300.85C736.082 300.109 736.492 299.101 736.492 297.825C736.492 296.492 736.111 295.461 735.347 294.731C734.595 294.002 733.467 293.626 731.963 293.604H727.4V301.943ZM750.523 290.117L757.701 309.189L764.861 290.117H770.45V315H766.143V306.797L766.57 295.825L759.222 315H756.128L748.797 295.842L749.224 306.797V315H744.917V290.117H750.523Z" fill="#E9EAEA"/>
<path d="M191 143.013L204.458 146.365L211.004 120.085L199.144 117.131L194.091 137.417" stroke="#E9EAEA" stroke-width="3" stroke-miterlimit="22.9256"/>
<path fill-rule="evenodd" clip-rule="evenodd" d="M269.022 93.6051C268.311 89.7818 264.667 87.2806 260.844 87.9914C257.021 88.7022 254.519 92.3458 255.23 96.1692C255.928 99.9243 259.572 102.425 263.395 101.715C267.219 101.004 269.72 97.3602 269.022 93.6051Z" stroke="#E9EAEA" stroke-width="3" stroke-miterlimit="22.9256"/>
<path fill-rule="evenodd" clip-rule="evenodd" d="M248.402 101.419C247.691 97.5952 244.047 95.0941 240.224 95.8049C236.469 96.503 233.968 100.147 234.678 103.97C235.389 107.793 239.033 110.294 242.788 109.596C246.611 108.886 249.112 105.242 248.402 101.419Z" stroke="#E9EAEA" stroke-width="3" stroke-miterlimit="22.9256"/>
<path fill-rule="evenodd" clip-rule="evenodd" d="M268.67 116.603C267.959 112.78 264.248 110.291 260.492 110.989C256.669 111.7 254.168 115.344 254.879 119.167C255.59 122.991 259.233 125.492 263.056 124.781C266.812 124.083 269.381 120.427 268.67 116.603Z" stroke="#E9EAEA" stroke-width="3" stroke-miterlimit="22.9256"/>
<path d="M203.948 123.123L202.807 127.705" stroke="#E9EAEA" stroke-width="3" stroke-miterlimit="22.9256"/>
<path d="M216.33 123.127C217.546 121.617 218.72 121.289 220.252 121.17L241.085 119.417C242.635 119.23 244.168 120.256 244.641 121.805C245.114 123.355 244.257 125.073 242.792 125.782L233.464 129.041C232.673 129.344 232.084 129.985 231.899 130.726C231.63 131.518 231.782 132.343 232.271 132.966C237.212 139.564 246.258 141.46 253.48 137.462L258.968 134.105C260.736 133.042 262.959 133.024 264.728 133.965C265.47 134.436 265.942 135.126 266.01 136.002C266.078 136.878 265.658 137.704 264.968 138.176L254.01 145.967C252.529 147.029 250.794 147.671 248.959 147.857L234.526 149.487C232.539 149.707 230.5 149.558 228.63 149.02L205.878 141.201" stroke="#E9EAEA" stroke-width="3" stroke-miterlimit="22.9256"/>
<path d="M218.936 56.5645H210.924V65H207.465V45.0938H220.111V47.8828H210.924V53.8027H218.936V56.5645ZM226.51 65H223.064V45.0938H226.51V65ZM242.15 60.3652H234.439L232.826 65H229.23L236.75 45.0938H239.854L247.387 65H243.777L242.15 60.3652ZM235.41 57.5762H241.18L238.295 49.3184L235.41 57.5762ZM262.398 47.8828H256.191V65H252.76V47.8828H246.607V45.0938H262.398V47.8828Z" fill="#E9EAEA"/>
<path d="M1145.98 127.5H1165.15L1175 138.384L1163.08 149.787" stroke="#E9EAEA" stroke-width="3" stroke-miterlimit="22.9256"/>
<path d="M1115.91 127.5H1097.77L1128.87 103.658H1145.98L1123.69 122.317L1129.39 142.53H1090L1094.66 134.237" stroke="#E9EAEA" stroke-width="3" stroke-miterlimit="22.9256"/>
<path d="M1151.16 109.879L1156.86 116.617L1136.13 136.83H1147.01" stroke="#E9EAEA" stroke-width="3" stroke-miterlimit="22.9256"/>
<path d="M1128.87 92.7744V85" stroke="#E9EAEA" stroke-width="3" stroke-miterlimit="22.9256"/>
<path d="M1113.84 103.658H1105.55" stroke="#E9EAEA" stroke-width="3" stroke-miterlimit="22.9256"/>
<path d="M1120.58 96.4012L1113.84 90.1816" stroke="#E9EAEA" stroke-width="3" stroke-miterlimit="22.9256"/>
<path d="M1101.92 152.378H1155.82V136.829L1165.15 127.5" stroke="#E9EAEA" stroke-width="3" stroke-miterlimit="22.9256"/>
<path d="M1137.17 96.4012L1143.38 90.1816" stroke="#E9EAEA" stroke-width="3" stroke-miterlimit="22.9256"/>
<path d="M1094.61 44.0938L1100.35 59.3516L1106.08 44.0938H1110.55V64H1107.11V57.4375L1107.45 48.6602L1101.57 64H1099.09L1093.23 48.6738L1093.57 57.4375V64H1090.12V44.0938H1094.61ZM1126.29 55.1133H1118.11V61.2383H1127.67V64H1114.65V44.0938H1127.57V46.8828H1118.11V52.3789H1126.29V55.1133ZM1145.14 46.8828H1138.93V64H1135.5V46.8828H1129.35V44.0938H1145.14V46.8828ZM1157.27 59.3652H1149.56L1147.94 64H1144.35L1151.87 44.0938H1154.97L1162.5 64H1158.89L1157.27 59.3652ZM1150.53 56.5762H1156.3L1153.41 48.3184L1150.53 56.5762ZM1168.23 61.2383H1177.27V64H1164.77V44.0938H1168.23V61.2383Z" fill="#E9EAEA"/>
<path fill-rule="evenodd" clip-rule="evenodd" d="M1147.24 696.807H1095V732.664H1147.24V696.807Z" stroke="#E9EAEA" stroke-width="3" stroke-miterlimit="22.9256"/>
<path d="M1131.3 704.775V732.664" stroke="#E9EAEA" stroke-width="3" stroke-miterlimit="22.9256"/>
<path d="M1157.16 716.809L1170 694.675L1124.85 669L1112.29 690.545" stroke="#E9EAEA" stroke-width="3" stroke-miterlimit="22.9256"/>
<path d="M1114.89 709.282H1111.35V705.74H1114.89V709.282Z" fill="#E9EAEA"/>
<path d="M1107.81 709.282H1104.27V705.741H1107.81L1107.81 709.282L1111.35 709.282H1114.89V712.823H1111.35H1107.81V709.282Z" fill="#E9EAEA"/>
<path d="M1104.27 716.808H1111.35V712.823H1107.81L1104.27 712.824V716.808Z" fill="#E9EAEA"/>
<path d="M1114.89 716.808H1118.43V712.824L1114.89 712.823L1114.89 716.808Z" fill="#E9EAEA"/>
<path d="M1114.89 716.808L1114.89 723.89H1104.27V720.349H1111.35L1111.35 716.808H1114.89Z" fill="#E9EAEA"/>
<path d="M1118.43 709.282H1121.97V705.74H1118.43V709.282Z" fill="#E9EAEA"/>
<path d="M1121.97 712.823L1118.43 712.824L1118.43 709.282H1121.97V712.823Z" fill="#E9EAEA"/>
<path d="M1121.97 716.808L1118.43 716.808L1118.43 723.89H1121.97V716.808Z" fill="#E9EAEA"/>
<path fill-rule="evenodd" clip-rule="evenodd" d="M1129.28 687.026L1126.19 685.294L1127.92 682.205L1131.01 683.937L1129.28 687.026Z" fill="#E9EAEA"/>
<path fill-rule="evenodd" clip-rule="evenodd" d="M1135.46 690.491L1132.37 688.759L1134.1 685.67L1137.19 687.402L1135.46 690.491Z" fill="#E9EAEA"/>
<path fill-rule="evenodd" clip-rule="evenodd" d="M1130.63 691.848L1124.44 688.374L1126.17 685.285L1132.37 688.759L1130.63 691.848Z" fill="#E9EAEA"/>
<path d="M1081.94 637.873C1081.94 636.998 1081.63 636.324 1081.01 635.85C1080.4 635.376 1079.29 634.897 1077.68 634.414C1076.08 633.931 1074.8 633.393 1073.86 632.801C1072.04 631.661 1071.13 630.176 1071.13 628.344C1071.13 626.74 1071.79 625.418 1073.09 624.379C1074.4 623.34 1076.1 622.82 1078.19 622.82C1079.57 622.82 1080.81 623.076 1081.89 623.586C1082.98 624.096 1083.83 624.826 1084.45 625.773C1085.07 626.712 1085.38 627.756 1085.38 628.904H1081.94C1081.94 627.865 1081.61 627.054 1080.95 626.471C1080.3 625.878 1079.37 625.582 1078.16 625.582C1077.03 625.582 1076.15 625.824 1075.52 626.307C1074.9 626.79 1074.59 627.464 1074.59 628.33C1074.59 629.059 1074.93 629.67 1075.61 630.162C1076.28 630.645 1077.39 631.119 1078.94 631.584C1080.49 632.04 1081.74 632.564 1082.67 633.156C1083.61 633.74 1084.3 634.414 1084.74 635.18C1085.18 635.936 1085.39 636.825 1085.39 637.846C1085.39 639.505 1084.76 640.826 1083.48 641.811C1082.21 642.786 1080.49 643.273 1078.31 643.273C1076.87 643.273 1075.55 643.009 1074.33 642.48C1073.13 641.943 1072.19 641.204 1071.52 640.266C1070.85 639.327 1070.52 638.233 1070.52 636.984H1073.98C1073.98 638.115 1074.35 638.99 1075.1 639.609C1075.85 640.229 1076.92 640.539 1078.31 640.539C1079.52 640.539 1080.42 640.298 1081.02 639.814C1081.63 639.322 1081.94 638.675 1081.94 637.873ZM1100.06 634.113H1091.89V640.238H1101.45V643H1088.43V623.094H1101.35V625.883H1091.89V631.379H1100.06V634.113ZM1111.58 635.33H1107.72V643H1104.26V623.094H1111.26C1113.56 623.094 1115.33 623.609 1116.58 624.639C1117.83 625.669 1118.45 627.159 1118.45 629.109C1118.45 630.44 1118.13 631.557 1117.48 632.459C1116.84 633.352 1115.95 634.04 1114.8 634.523L1119.27 642.822V643H1115.57L1111.58 635.33ZM1107.72 632.555H1111.28C1112.44 632.555 1113.35 632.263 1114.01 631.68C1114.67 631.087 1114.99 630.281 1114.99 629.26C1114.99 628.193 1114.69 627.368 1114.08 626.785C1113.48 626.202 1112.57 625.901 1111.37 625.883H1107.72V632.555ZM1128.47 638.666L1133.53 623.094H1137.33L1130.17 643H1126.82L1119.68 623.094H1123.47L1128.47 638.666ZM1143.24 643H1139.79V623.094H1143.24V643ZM1162.68 636.52C1162.48 638.643 1161.7 640.302 1160.33 641.496C1158.96 642.681 1157.14 643.273 1154.88 643.273C1153.29 643.273 1151.89 642.9 1150.68 642.152C1149.47 641.396 1148.54 640.325 1147.89 638.939C1147.23 637.554 1146.89 635.945 1146.86 634.113V632.254C1146.86 630.376 1147.2 628.722 1147.86 627.291C1148.53 625.86 1149.48 624.757 1150.72 623.982C1151.97 623.208 1153.41 622.82 1155.04 622.82C1157.24 622.82 1159 623.417 1160.34 624.611C1161.68 625.805 1162.46 627.492 1162.68 629.67H1159.24C1159.07 628.239 1158.65 627.209 1157.98 626.58C1157.31 625.942 1156.33 625.623 1155.04 625.623C1153.54 625.623 1152.38 626.174 1151.57 627.277C1150.76 628.371 1150.35 629.98 1150.34 632.104V633.867C1150.34 636.018 1150.72 637.659 1151.48 638.789C1152.26 639.919 1153.39 640.484 1154.88 640.484C1156.23 640.484 1157.25 640.179 1157.94 639.568C1158.62 638.958 1159.05 637.941 1159.24 636.52H1162.68ZM1177.42 634.113H1169.24V640.238H1178.8V643H1165.79V623.094H1178.71V625.883H1169.24V631.379H1177.42V634.113ZM1192.02 637.873C1192.02 636.998 1191.71 636.324 1191.09 635.85C1190.48 635.376 1189.37 634.897 1187.77 634.414C1186.17 633.931 1184.89 633.393 1183.94 632.801C1182.13 631.661 1181.22 630.176 1181.22 628.344C1181.22 626.74 1181.87 625.418 1183.18 624.379C1184.49 623.34 1186.19 622.82 1188.28 622.82C1189.66 622.82 1190.9 623.076 1191.98 623.586C1193.07 624.096 1193.92 624.826 1194.54 625.773C1195.16 626.712 1195.47 627.756 1195.47 628.904H1192.02C1192.02 627.865 1191.69 627.054 1191.04 626.471C1190.39 625.878 1189.46 625.582 1188.25 625.582C1187.12 625.582 1186.24 625.824 1185.61 626.307C1184.99 626.79 1184.68 627.464 1184.68 628.33C1184.68 629.059 1185.02 629.67 1185.69 630.162C1186.37 630.645 1187.48 631.119 1189.03 631.584C1190.58 632.04 1191.82 632.564 1192.76 633.156C1193.7 633.74 1194.39 634.414 1194.82 635.18C1195.26 635.936 1195.48 636.825 1195.48 637.846C1195.48 639.505 1194.84 640.826 1193.57 641.811C1192.3 642.786 1190.58 643.273 1188.4 643.273C1186.96 643.273 1185.63 643.009 1184.42 642.48C1183.22 641.943 1182.28 641.204 1181.6 640.266C1180.94 639.327 1180.61 638.233 1180.61 636.984H1184.06C1184.06 638.115 1184.44 638.99 1185.19 639.609C1185.93 640.229 1187 640.539 1188.4 640.539C1189.6 640.539 1190.5 640.298 1191.11 639.814C1191.72 639.322 1192.02 638.675 1192.02 637.873Z" fill="#E9EAEA"/>
</svg>
