<svg width="1024" height="1048" viewBox="0 0 1024 1048" fill="none" xmlns="http://www.w3.org/2000/svg">
<rect x="317" width="65" height="33" fill="#565555"/>
<path d="M345.945 24H343.123V13.1211L339.754 14.166V11.8711L345.643 9.76172H345.945V24ZM350.252 18.6387C350.252 16.9915 350.62 15.6797 351.355 14.7031C352.098 13.7266 353.11 13.2383 354.393 13.2383C355.421 13.2383 356.271 13.6224 356.941 14.3906V9H359.773V24H357.225L357.088 22.877C356.385 23.7559 355.48 24.1953 354.373 24.1953C353.13 24.1953 352.13 23.707 351.375 22.7305C350.626 21.7474 350.252 20.3835 350.252 18.6387ZM353.074 18.8438C353.074 19.8333 353.247 20.5918 353.592 21.1191C353.937 21.6465 354.438 21.9102 355.096 21.9102C355.968 21.9102 356.583 21.5423 356.941 20.8066V16.6367C356.59 15.901 355.981 15.5332 355.115 15.5332C353.755 15.5332 353.074 16.6367 353.074 18.8438Z" fill="#D2F400"/>
<path d="M413.758 11.3633L408.26 24H405.281L410.789 12.0664H403.719V9.78125H413.758V11.3633ZM415.252 18.6387C415.252 16.9915 415.62 15.6797 416.355 14.7031C417.098 13.7266 418.11 13.2383 419.393 13.2383C420.421 13.2383 421.271 13.6224 421.941 14.3906V9H424.773V24H422.225L422.088 22.877C421.385 23.7559 420.48 24.1953 419.373 24.1953C418.13 24.1953 417.13 23.707 416.375 22.7305C415.626 21.7474 415.252 20.3835 415.252 18.6387ZM418.074 18.8438C418.074 19.8333 418.247 20.5918 418.592 21.1191C418.937 21.6465 419.438 21.9102 420.096 21.9102C420.968 21.9102 421.583 21.5423 421.941 20.8066V16.6367C421.59 15.901 420.981 15.5332 420.115 15.5332C418.755 15.5332 418.074 16.6367 418.074 18.8438Z" fill="#565555"/>
<path d="M472.918 24H470.096V13.1211L466.727 14.166V11.8711L472.615 9.76172H472.918V24ZM480.311 13.4336L480.398 14.6152C481.147 13.6973 482.16 13.2383 483.436 13.2383C484.796 13.2383 485.73 13.7754 486.238 14.8496C486.98 13.7754 488.038 13.2383 489.412 13.2383C490.558 13.2383 491.411 13.5736 491.971 14.2441C492.531 14.9082 492.811 15.9108 492.811 17.252V24H489.979V17.2617C489.979 16.6628 489.861 16.2266 489.627 15.9531C489.393 15.6732 488.979 15.5332 488.387 15.5332C487.54 15.5332 486.954 15.9368 486.629 16.7441L486.639 24H483.816V17.2715C483.816 16.6595 483.696 16.2168 483.455 15.9434C483.214 15.6699 482.804 15.5332 482.225 15.5332C481.424 15.5332 480.844 15.8652 480.486 16.5293V24H477.664V13.4336H480.311Z" fill="#565555"/>
<path d="M533.934 15.6406H535.438C536.154 15.6406 536.684 15.4616 537.029 15.1035C537.374 14.7454 537.547 14.2702 537.547 13.6777C537.547 13.1048 537.374 12.6589 537.029 12.3398C536.691 12.0208 536.222 11.8613 535.623 11.8613C535.083 11.8613 534.63 12.0111 534.266 12.3105C533.901 12.6035 533.719 12.9876 533.719 13.4629H530.896C530.896 12.7207 531.095 12.0566 531.492 11.4707C531.896 10.8783 532.456 10.416 533.172 10.084C533.895 9.75195 534.689 9.58594 535.555 9.58594C537.059 9.58594 538.237 9.94727 539.09 10.6699C539.943 11.3861 540.369 12.3757 540.369 13.6387C540.369 14.2897 540.171 14.8887 539.773 15.4355C539.376 15.9824 538.855 16.4023 538.211 16.6953C539.012 16.9818 539.607 17.4115 539.998 17.9844C540.395 18.5573 540.594 19.2344 540.594 20.0156C540.594 21.2786 540.132 22.291 539.207 23.0527C538.289 23.8145 537.072 24.1953 535.555 24.1953C534.135 24.1953 532.973 23.821 532.068 23.0723C531.17 22.3236 530.721 21.334 530.721 20.1035H533.543C533.543 20.6374 533.742 21.0736 534.139 21.4121C534.542 21.7507 535.037 21.9199 535.623 21.9199C536.294 21.9199 536.818 21.7441 537.195 21.3926C537.579 21.0345 537.771 20.5625 537.771 19.9766C537.771 18.5573 536.99 17.8477 535.428 17.8477H533.934V15.6406ZM545.311 13.4336L545.398 14.6152C546.147 13.6973 547.16 13.2383 548.436 13.2383C549.796 13.2383 550.73 13.7754 551.238 14.8496C551.98 13.7754 553.038 13.2383 554.412 13.2383C555.558 13.2383 556.411 13.5736 556.971 14.2441C557.531 14.9082 557.811 15.9108 557.811 17.252V24H554.979V17.2617C554.979 16.6628 554.861 16.2266 554.627 15.9531C554.393 15.6732 553.979 15.5332 553.387 15.5332C552.54 15.5332 551.954 15.9368 551.629 16.7441L551.639 24H548.816V17.2715C548.816 16.6595 548.696 16.2168 548.455 15.9434C548.214 15.6699 547.804 15.5332 547.225 15.5332C546.424 15.5332 545.844 15.8652 545.486 16.5293V24H542.664V13.4336H545.311Z" fill="#565555"/>
<path d="M606.561 24H603.738V13.1211L600.369 14.166V11.8711L606.258 9.76172H606.561V24ZM615.252 20.0059L617.205 13.4336H620.232L615.984 25.6406L615.75 26.1973C615.118 27.5775 614.077 28.2676 612.625 28.2676C612.215 28.2676 611.798 28.2057 611.375 28.082V25.9434L611.805 25.9531C612.339 25.9531 612.736 25.8717 612.996 25.709C613.263 25.5462 613.471 25.276 613.621 24.8984L613.953 24.0293L610.252 13.4336H613.289L615.252 20.0059Z" fill="#565555"/>
<path d="M666.229 21.0703H661.092L660.115 24H657L662.293 9.78125H665.008L670.33 24H667.215L666.229 21.0703ZM661.883 18.6973H665.438L663.65 13.375L661.883 18.6973ZM674.588 21.6465H680.809V24H671.658V9.78125H674.588V21.6465ZM685.428 21.6465H691.648V24H682.498V9.78125H685.428V21.6465Z" fill="#565555"/>
<path d="M987.627 826.981L1012.77 848.74L1019.52 843.679H1024V1047H0V929.704H5.17651L27.5261 921.86L42.8914 911.74L75.4846 921.86L102.49 908.198L121.115 889.475L156.036 874.041L166.745 882.137L183.973 871.258L199.804 856.583L217.498 863.414L229.138 866.198L242.641 862.149L253.35 858.86L269.181 847.222L276.631 853.8L286.874 855.318L295.256 860.125L305.499 863.414L314.811 858.86L331.108 853.8L339.489 861.137L348.336 856.583L359.511 853.8L365.564 858.86L375.807 863.414L397.691 853.8L413.988 858.86L418.644 829.005L431.216 853.8L467.068 861.137L494.074 858.86L509.905 871.258L515.958 886.692L528.529 898.836L542.032 903.896H564.847L582.075 894.535L589.991 908.198H609.081L638.415 889.475L664.955 882.137L681.252 889.475L690.564 908.198L701.273 861.137L710.585 848.74L733.401 838.619L750.628 845.198L769.253 838.619L784.153 853.8L799.052 882.137L812.09 894.535L842.82 866.957L867.032 877.836L881.932 866.957L891.245 882.137L911.266 848.74L927.097 853.8L949.912 808.005L967.606 832.041L987.627 826.981Z" fill="#565555"/>
<path d="M14.9028 1034.59C14.9028 1036.07 14.5977 1037.19 13.9873 1037.97C13.377 1038.76 12.4834 1039.15 11.3066 1039.15C10.1445 1039.15 9.25586 1038.76 8.64062 1038C8.02539 1037.23 7.71045 1036.13 7.6958 1034.7V1032.74C7.6958 1031.25 8.00342 1030.12 8.61865 1029.35C9.23877 1028.58 10.1299 1028.19 11.292 1028.19C12.4541 1028.19 13.3428 1028.57 13.958 1029.34C14.5732 1030.1 14.8882 1031.2 14.9028 1032.63V1034.59ZM12.7861 1032.44C12.7861 1031.55 12.6641 1030.91 12.4199 1030.51C12.1807 1030.11 11.8047 1029.9 11.292 1029.9C10.7939 1029.9 10.4253 1030.1 10.186 1030.48C9.95166 1030.86 9.82715 1031.46 9.8125 1032.28V1034.87C9.8125 1035.74 9.92969 1036.39 10.1641 1036.81C10.4033 1037.23 10.7842 1037.44 11.3066 1037.44C11.8242 1037.44 12.1978 1037.24 12.4272 1036.83C12.6567 1036.43 12.7764 1035.81 12.7861 1034.97V1032.44ZM23.5161 1034.59C23.5161 1036.07 23.2109 1037.19 22.6006 1037.97C21.9902 1038.76 21.0967 1039.15 19.9199 1039.15C18.7578 1039.15 17.8691 1038.76 17.2539 1038C16.6387 1037.23 16.3237 1036.13 16.3091 1034.7V1032.74C16.3091 1031.25 16.6167 1030.12 17.2319 1029.35C17.8521 1028.58 18.7432 1028.19 19.9053 1028.19C21.0674 1028.19 21.9561 1028.57 22.5713 1029.34C23.1865 1030.1 23.5015 1031.2 23.5161 1032.63V1034.59ZM21.3994 1032.44C21.3994 1031.55 21.2773 1030.91 21.0332 1030.51C20.7939 1030.11 20.418 1029.9 19.9053 1029.9C19.4072 1029.9 19.0386 1030.1 18.7993 1030.48C18.5649 1030.86 18.4404 1031.46 18.4258 1032.28V1034.87C18.4258 1035.74 18.543 1036.39 18.7773 1036.81C19.0166 1037.23 19.3975 1037.44 19.9199 1037.44C20.4375 1037.44 20.811 1037.24 21.0405 1036.83C21.27 1036.43 21.3896 1035.81 21.3994 1034.97V1032.44ZM25.1421 1037.96C25.1421 1037.62 25.2544 1037.35 25.479 1037.14C25.7085 1036.93 25.9941 1036.82 26.3359 1036.82C26.6826 1036.82 26.9683 1036.93 27.1929 1037.14C27.4224 1037.35 27.5371 1037.62 27.5371 1037.96C27.5371 1038.29 27.4248 1038.56 27.2002 1038.77C26.9756 1038.98 26.6875 1039.08 26.3359 1039.08C25.9893 1039.08 25.7036 1038.98 25.479 1038.77C25.2544 1038.56 25.1421 1038.29 25.1421 1037.96ZM25.1421 1031.96C25.1421 1031.62 25.2544 1031.35 25.479 1031.14C25.7085 1030.93 25.9941 1030.83 26.3359 1030.83C26.6826 1030.83 26.9683 1030.93 27.1929 1031.14C27.4224 1031.35 27.5371 1031.62 27.5371 1031.96C27.5371 1032.29 27.4248 1032.56 27.2002 1032.77C26.9756 1032.98 26.6875 1033.08 26.3359 1033.08C25.9893 1033.08 25.7036 1032.98 25.479 1032.77C25.2544 1032.56 25.1421 1032.29 25.1421 1031.96ZM36.3628 1034.59C36.3628 1036.07 36.0576 1037.19 35.4473 1037.97C34.8369 1038.76 33.9434 1039.15 32.7666 1039.15C31.6045 1039.15 30.7158 1038.76 30.1006 1038C29.4854 1037.23 29.1704 1036.13 29.1558 1034.7V1032.74C29.1558 1031.25 29.4634 1030.12 30.0786 1029.35C30.6987 1028.58 31.5898 1028.19 32.752 1028.19C33.9141 1028.19 34.8027 1028.57 35.418 1029.34C36.0332 1030.1 36.3481 1031.2 36.3628 1032.63V1034.59ZM34.2461 1032.44C34.2461 1031.55 34.124 1030.91 33.8799 1030.51C33.6406 1030.11 33.2646 1029.9 32.752 1029.9C32.2539 1029.9 31.8853 1030.1 31.646 1030.48C31.4116 1030.86 31.2871 1031.46 31.2725 1032.28V1034.87C31.2725 1035.74 31.3896 1036.39 31.624 1036.81C31.8633 1037.23 32.2441 1037.44 32.7666 1037.44C33.2842 1037.44 33.6577 1037.24 33.8872 1036.83C34.1167 1036.43 34.2363 1035.81 34.2461 1034.97V1032.44ZM44.9761 1034.59C44.9761 1036.07 44.6709 1037.19 44.0605 1037.97C43.4502 1038.76 42.5566 1039.15 41.3799 1039.15C40.2178 1039.15 39.3291 1038.76 38.7139 1038C38.0986 1037.23 37.7837 1036.13 37.769 1034.7V1032.74C37.769 1031.25 38.0767 1030.12 38.6919 1029.35C39.312 1028.58 40.2031 1028.19 41.3652 1028.19C42.5273 1028.19 43.416 1028.57 44.0312 1029.34C44.6465 1030.1 44.9614 1031.2 44.9761 1032.63V1034.59ZM42.8594 1032.44C42.8594 1031.55 42.7373 1030.91 42.4932 1030.51C42.2539 1030.11 41.8779 1029.9 41.3652 1029.9C40.8672 1029.9 40.4985 1030.1 40.2593 1030.48C40.0249 1030.86 39.9004 1031.46 39.8857 1032.28V1034.87C39.8857 1035.74 40.0029 1036.39 40.2373 1036.81C40.4766 1037.23 40.8574 1037.44 41.3799 1037.44C41.8975 1037.44 42.271 1037.24 42.5005 1036.83C42.73 1036.43 42.8496 1035.81 42.8594 1034.97V1032.44Z" fill="#B7B8B9"/>
<path d="M194.903 1034.59C194.903 1036.07 194.598 1037.19 193.987 1037.97C193.377 1038.76 192.483 1039.15 191.307 1039.15C190.145 1039.15 189.256 1038.76 188.641 1038C188.025 1037.23 187.71 1036.13 187.696 1034.7V1032.74C187.696 1031.25 188.003 1030.12 188.619 1029.35C189.239 1028.58 190.13 1028.19 191.292 1028.19C192.454 1028.19 193.343 1028.57 193.958 1029.34C194.573 1030.1 194.888 1031.2 194.903 1032.63V1034.59ZM192.786 1032.44C192.786 1031.55 192.664 1030.91 192.42 1030.51C192.181 1030.11 191.805 1029.9 191.292 1029.9C190.794 1029.9 190.425 1030.1 190.186 1030.48C189.952 1030.86 189.827 1031.46 189.812 1032.28V1034.87C189.812 1035.74 189.93 1036.39 190.164 1036.81C190.403 1037.23 190.784 1037.44 191.307 1037.44C191.824 1037.44 192.198 1037.24 192.427 1036.83C192.657 1036.43 192.776 1035.81 192.786 1034.97V1032.44ZM198.492 1032.73H199.62C200.157 1032.73 200.555 1032.6 200.813 1032.33C201.072 1032.06 201.202 1031.7 201.202 1031.26C201.202 1030.83 201.072 1030.49 200.813 1030.25C200.56 1030.02 200.208 1029.9 199.759 1029.9C199.354 1029.9 199.014 1030.01 198.741 1030.23C198.467 1030.45 198.331 1030.74 198.331 1031.1H196.214C196.214 1030.54 196.363 1030.04 196.661 1029.6C196.963 1029.16 197.383 1028.81 197.92 1028.56C198.462 1028.31 199.058 1028.19 199.708 1028.19C200.835 1028.19 201.719 1028.46 202.359 1029C202.999 1029.54 203.318 1030.28 203.318 1031.23C203.318 1031.72 203.169 1032.17 202.872 1032.58C202.574 1032.99 202.183 1033.3 201.7 1033.52C202.3 1033.74 202.747 1034.06 203.04 1034.49C203.338 1034.92 203.487 1035.43 203.487 1036.01C203.487 1036.96 203.14 1037.72 202.447 1038.29C201.758 1038.86 200.845 1039.15 199.708 1039.15C198.643 1039.15 197.771 1038.87 197.093 1038.3C196.419 1037.74 196.082 1037 196.082 1036.08H198.199C198.199 1036.48 198.348 1036.81 198.646 1037.06C198.948 1037.31 199.319 1037.44 199.759 1037.44C200.262 1037.44 200.655 1037.31 200.938 1037.04C201.226 1036.78 201.37 1036.42 201.37 1035.98C201.37 1034.92 200.784 1034.39 199.612 1034.39H198.492V1032.73ZM205.142 1037.96C205.142 1037.62 205.254 1037.35 205.479 1037.14C205.708 1036.93 205.994 1036.82 206.336 1036.82C206.683 1036.82 206.968 1036.93 207.193 1037.14C207.422 1037.35 207.537 1037.62 207.537 1037.96C207.537 1038.29 207.425 1038.56 207.2 1038.77C206.976 1038.98 206.688 1039.08 206.336 1039.08C205.989 1039.08 205.704 1038.98 205.479 1038.77C205.254 1038.56 205.142 1038.29 205.142 1037.96ZM205.142 1031.96C205.142 1031.62 205.254 1031.35 205.479 1031.14C205.708 1030.93 205.994 1030.83 206.336 1030.83C206.683 1030.83 206.968 1030.93 207.193 1031.14C207.422 1031.35 207.537 1031.62 207.537 1031.96C207.537 1032.29 207.425 1032.56 207.2 1032.77C206.976 1032.98 206.688 1033.08 206.336 1033.08C205.989 1033.08 205.704 1032.98 205.479 1032.77C205.254 1032.56 205.142 1032.29 205.142 1031.96ZM216.363 1034.59C216.363 1036.07 216.058 1037.19 215.447 1037.97C214.837 1038.76 213.943 1039.15 212.767 1039.15C211.604 1039.15 210.716 1038.76 210.101 1038C209.485 1037.23 209.17 1036.13 209.156 1034.7V1032.74C209.156 1031.25 209.463 1030.12 210.079 1029.35C210.699 1028.58 211.59 1028.19 212.752 1028.19C213.914 1028.19 214.803 1028.57 215.418 1029.34C216.033 1030.1 216.348 1031.2 216.363 1032.63V1034.59ZM214.246 1032.44C214.246 1031.55 214.124 1030.91 213.88 1030.51C213.641 1030.11 213.265 1029.9 212.752 1029.9C212.254 1029.9 211.885 1030.1 211.646 1030.48C211.412 1030.86 211.287 1031.46 211.272 1032.28V1034.87C211.272 1035.74 211.39 1036.39 211.624 1036.81C211.863 1037.23 212.244 1037.44 212.767 1037.44C213.284 1037.44 213.658 1037.24 213.887 1036.83C214.117 1036.43 214.236 1035.81 214.246 1034.97V1032.44ZM224.976 1034.59C224.976 1036.07 224.671 1037.19 224.061 1037.97C223.45 1038.76 222.557 1039.15 221.38 1039.15C220.218 1039.15 219.329 1038.76 218.714 1038C218.099 1037.23 217.784 1036.13 217.769 1034.7V1032.74C217.769 1031.25 218.077 1030.12 218.692 1029.35C219.312 1028.58 220.203 1028.19 221.365 1028.19C222.527 1028.19 223.416 1028.57 224.031 1029.34C224.646 1030.1 224.961 1031.2 224.976 1032.63V1034.59ZM222.859 1032.44C222.859 1031.55 222.737 1030.91 222.493 1030.51C222.254 1030.11 221.878 1029.9 221.365 1029.9C220.867 1029.9 220.499 1030.1 220.259 1030.48C220.025 1030.86 219.9 1031.46 219.886 1032.28V1034.87C219.886 1035.74 220.003 1036.39 220.237 1036.81C220.477 1037.23 220.857 1037.44 221.38 1037.44C221.897 1037.44 222.271 1037.24 222.5 1036.83C222.73 1036.43 222.85 1035.81 222.859 1034.97V1032.44Z" fill="#B7B8B9"/>
<path d="M374.903 1034.59C374.903 1036.07 374.598 1037.19 373.987 1037.97C373.377 1038.76 372.483 1039.15 371.307 1039.15C370.145 1039.15 369.256 1038.76 368.641 1038C368.025 1037.23 367.71 1036.13 367.696 1034.7V1032.74C367.696 1031.25 368.003 1030.12 368.619 1029.35C369.239 1028.58 370.13 1028.19 371.292 1028.19C372.454 1028.19 373.343 1028.57 373.958 1029.34C374.573 1030.1 374.888 1031.2 374.903 1032.63V1034.59ZM372.786 1032.44C372.786 1031.55 372.664 1030.91 372.42 1030.51C372.181 1030.11 371.805 1029.9 371.292 1029.9C370.794 1029.9 370.425 1030.1 370.186 1030.48C369.952 1030.86 369.827 1031.46 369.812 1032.28V1034.87C369.812 1035.74 369.93 1036.39 370.164 1036.81C370.403 1037.23 370.784 1037.44 371.307 1037.44C371.824 1037.44 372.198 1037.24 372.427 1036.83C372.657 1036.43 372.776 1035.81 372.786 1034.97V1032.44ZM382.081 1028.23V1029.97H381.875C380.918 1029.98 380.147 1030.23 379.561 1030.72C378.98 1031.2 378.631 1031.87 378.514 1032.73C379.08 1032.15 379.795 1031.87 380.66 1031.87C381.587 1031.87 382.325 1032.2 382.872 1032.86C383.418 1033.53 383.692 1034.4 383.692 1035.48C383.692 1036.18 383.541 1036.81 383.238 1037.37C382.94 1037.93 382.515 1038.37 381.963 1038.68C381.417 1038.99 380.796 1039.15 380.103 1039.15C378.98 1039.15 378.072 1038.76 377.378 1037.97C376.69 1037.19 376.346 1036.15 376.346 1034.85V1034.09C376.346 1032.93 376.563 1031.91 376.998 1031.02C377.437 1030.14 378.064 1029.45 378.88 1028.97C379.7 1028.48 380.65 1028.23 381.729 1028.23H382.081ZM380.015 1033.57C379.673 1033.57 379.363 1033.66 379.085 1033.84C378.807 1034.01 378.602 1034.25 378.47 1034.54V1035.18C378.47 1035.89 378.609 1036.45 378.887 1036.85C379.166 1037.24 379.556 1037.44 380.059 1037.44C380.513 1037.44 380.879 1037.26 381.158 1036.91C381.441 1036.54 381.583 1036.08 381.583 1035.51C381.583 1034.93 381.441 1034.46 381.158 1034.1C380.875 1033.74 380.494 1033.57 380.015 1033.57ZM385.142 1037.96C385.142 1037.62 385.254 1037.35 385.479 1037.14C385.708 1036.93 385.994 1036.82 386.336 1036.82C386.683 1036.82 386.968 1036.93 387.193 1037.14C387.422 1037.35 387.537 1037.62 387.537 1037.96C387.537 1038.29 387.425 1038.56 387.2 1038.77C386.976 1038.98 386.688 1039.08 386.336 1039.08C385.989 1039.08 385.704 1038.98 385.479 1038.77C385.254 1038.56 385.142 1038.29 385.142 1037.96ZM385.142 1031.96C385.142 1031.62 385.254 1031.35 385.479 1031.14C385.708 1030.93 385.994 1030.83 386.336 1030.83C386.683 1030.83 386.968 1030.93 387.193 1031.14C387.422 1031.35 387.537 1031.62 387.537 1031.96C387.537 1032.29 387.425 1032.56 387.2 1032.77C386.976 1032.98 386.688 1033.08 386.336 1033.08C385.989 1033.08 385.704 1032.98 385.479 1032.77C385.254 1032.56 385.142 1032.29 385.142 1031.96ZM396.363 1034.59C396.363 1036.07 396.058 1037.19 395.447 1037.97C394.837 1038.76 393.943 1039.15 392.767 1039.15C391.604 1039.15 390.716 1038.76 390.101 1038C389.485 1037.23 389.17 1036.13 389.156 1034.7V1032.74C389.156 1031.25 389.463 1030.12 390.079 1029.35C390.699 1028.58 391.59 1028.19 392.752 1028.19C393.914 1028.19 394.803 1028.57 395.418 1029.34C396.033 1030.1 396.348 1031.2 396.363 1032.63V1034.59ZM394.246 1032.44C394.246 1031.55 394.124 1030.91 393.88 1030.51C393.641 1030.11 393.265 1029.9 392.752 1029.9C392.254 1029.9 391.885 1030.1 391.646 1030.48C391.412 1030.86 391.287 1031.46 391.272 1032.28V1034.87C391.272 1035.74 391.39 1036.39 391.624 1036.81C391.863 1037.23 392.244 1037.44 392.767 1037.44C393.284 1037.44 393.658 1037.24 393.887 1036.83C394.117 1036.43 394.236 1035.81 394.246 1034.97V1032.44ZM404.976 1034.59C404.976 1036.07 404.671 1037.19 404.061 1037.97C403.45 1038.76 402.557 1039.15 401.38 1039.15C400.218 1039.15 399.329 1038.76 398.714 1038C398.099 1037.23 397.784 1036.13 397.769 1034.7V1032.74C397.769 1031.25 398.077 1030.12 398.692 1029.35C399.312 1028.58 400.203 1028.19 401.365 1028.19C402.527 1028.19 403.416 1028.57 404.031 1029.34C404.646 1030.1 404.961 1031.2 404.976 1032.63V1034.59ZM402.859 1032.44C402.859 1031.55 402.737 1030.91 402.493 1030.51C402.254 1030.11 401.878 1029.9 401.365 1029.9C400.867 1029.9 400.499 1030.1 400.259 1030.48C400.025 1030.86 399.9 1031.46 399.886 1032.28V1034.87C399.886 1035.74 400.003 1036.39 400.237 1036.81C400.477 1037.23 400.857 1037.44 401.38 1037.44C401.897 1037.44 402.271 1037.24 402.5 1036.83C402.73 1036.43 402.85 1035.81 402.859 1034.97V1032.44Z" fill="#B7B8B9"/>
<path d="M554.903 1034.59C554.903 1036.07 554.598 1037.19 553.987 1037.97C553.377 1038.76 552.483 1039.15 551.307 1039.15C550.145 1039.15 549.256 1038.76 548.641 1038C548.025 1037.23 547.71 1036.13 547.696 1034.7V1032.74C547.696 1031.25 548.003 1030.12 548.619 1029.35C549.239 1028.58 550.13 1028.19 551.292 1028.19C552.454 1028.19 553.343 1028.57 553.958 1029.34C554.573 1030.1 554.888 1031.2 554.903 1032.63V1034.59ZM552.786 1032.44C552.786 1031.55 552.664 1030.91 552.42 1030.51C552.181 1030.11 551.805 1029.9 551.292 1029.9C550.794 1029.9 550.425 1030.1 550.186 1030.48C549.952 1030.86 549.827 1031.46 549.812 1032.28V1034.87C549.812 1035.74 549.93 1036.39 550.164 1036.81C550.403 1037.23 550.784 1037.44 551.307 1037.44C551.824 1037.44 552.198 1037.24 552.427 1036.83C552.657 1036.43 552.776 1035.81 552.786 1034.97V1032.44ZM561.29 1034.74C560.738 1035.28 560.093 1035.55 559.356 1035.55C558.414 1035.55 557.659 1035.23 557.093 1034.58C556.526 1033.93 556.243 1033.06 556.243 1031.96C556.243 1031.26 556.395 1030.62 556.697 1030.04C557.005 1029.46 557.432 1029 557.979 1028.68C558.526 1028.35 559.141 1028.19 559.825 1028.19C560.528 1028.19 561.153 1028.37 561.7 1028.72C562.247 1029.07 562.671 1029.57 562.974 1030.23C563.277 1030.89 563.431 1031.65 563.436 1032.5V1033.28C563.436 1035.06 562.994 1036.45 562.11 1037.47C561.226 1038.48 559.974 1039.03 558.353 1039.1L557.833 1039.1V1037.34L558.301 1037.33C560.142 1037.25 561.138 1036.38 561.29 1034.74ZM559.876 1033.93C560.218 1033.93 560.511 1033.84 560.755 1033.67C561.004 1033.49 561.192 1033.28 561.319 1033.03V1032.16C561.319 1031.44 561.182 1030.88 560.909 1030.49C560.635 1030.09 560.269 1029.9 559.81 1029.9C559.385 1029.9 559.036 1030.09 558.763 1030.48C558.489 1030.87 558.353 1031.35 558.353 1031.94C558.353 1032.52 558.484 1033 558.748 1033.38C559.017 1033.75 559.393 1033.93 559.876 1033.93ZM565.142 1037.96C565.142 1037.62 565.254 1037.35 565.479 1037.14C565.708 1036.93 565.994 1036.82 566.336 1036.82C566.683 1036.82 566.968 1036.93 567.193 1037.14C567.422 1037.35 567.537 1037.62 567.537 1037.96C567.537 1038.29 567.425 1038.56 567.2 1038.77C566.976 1038.98 566.688 1039.08 566.336 1039.08C565.989 1039.08 565.704 1038.98 565.479 1038.77C565.254 1038.56 565.142 1038.29 565.142 1037.96ZM565.142 1031.96C565.142 1031.62 565.254 1031.35 565.479 1031.14C565.708 1030.93 565.994 1030.83 566.336 1030.83C566.683 1030.83 566.968 1030.93 567.193 1031.14C567.422 1031.35 567.537 1031.62 567.537 1031.96C567.537 1032.29 567.425 1032.56 567.2 1032.77C566.976 1032.98 566.688 1033.08 566.336 1033.08C565.989 1033.08 565.704 1032.98 565.479 1032.77C565.254 1032.56 565.142 1032.29 565.142 1031.96ZM576.363 1034.59C576.363 1036.07 576.058 1037.19 575.447 1037.97C574.837 1038.76 573.943 1039.15 572.767 1039.15C571.604 1039.15 570.716 1038.76 570.101 1038C569.485 1037.23 569.17 1036.13 569.156 1034.7V1032.74C569.156 1031.25 569.463 1030.12 570.079 1029.35C570.699 1028.58 571.59 1028.19 572.752 1028.19C573.914 1028.19 574.803 1028.57 575.418 1029.34C576.033 1030.1 576.348 1031.2 576.363 1032.63V1034.59ZM574.246 1032.44C574.246 1031.55 574.124 1030.91 573.88 1030.51C573.641 1030.11 573.265 1029.9 572.752 1029.9C572.254 1029.9 571.885 1030.1 571.646 1030.48C571.412 1030.86 571.287 1031.46 571.272 1032.28V1034.87C571.272 1035.74 571.39 1036.39 571.624 1036.81C571.863 1037.23 572.244 1037.44 572.767 1037.44C573.284 1037.44 573.658 1037.24 573.887 1036.83C574.117 1036.43 574.236 1035.81 574.246 1034.97V1032.44ZM584.976 1034.59C584.976 1036.07 584.671 1037.19 584.061 1037.97C583.45 1038.76 582.557 1039.15 581.38 1039.15C580.218 1039.15 579.329 1038.76 578.714 1038C578.099 1037.23 577.784 1036.13 577.769 1034.7V1032.74C577.769 1031.25 578.077 1030.12 578.692 1029.35C579.312 1028.58 580.203 1028.19 581.365 1028.19C582.527 1028.19 583.416 1028.57 584.031 1029.34C584.646 1030.1 584.961 1031.2 584.976 1032.63V1034.59ZM582.859 1032.44C582.859 1031.55 582.737 1030.91 582.493 1030.51C582.254 1030.11 581.878 1029.9 581.365 1029.9C580.867 1029.9 580.499 1030.1 580.259 1030.48C580.025 1030.86 579.9 1031.46 579.886 1032.28V1034.87C579.886 1035.74 580.003 1036.39 580.237 1036.81C580.477 1037.23 580.857 1037.44 581.38 1037.44C581.897 1037.44 582.271 1037.24 582.5 1036.83C582.73 1036.43 582.85 1035.81 582.859 1034.97V1032.44Z" fill="#B7B8B9"/>
<path d="M732.867 1039H730.75V1030.84L728.223 1031.62V1029.9L732.64 1028.32H732.867V1039ZM743.648 1039H736.338V1037.55L739.788 1033.87C740.262 1033.36 740.611 1032.9 740.835 1032.52C741.065 1032.13 741.18 1031.77 741.18 1031.42C741.18 1030.95 741.06 1030.57 740.821 1030.31C740.582 1030.03 740.24 1029.9 739.795 1029.9C739.317 1029.9 738.938 1030.06 738.66 1030.39C738.387 1030.72 738.25 1031.15 738.25 1031.69H736.126C736.126 1031.04 736.28 1030.45 736.587 1029.91C736.9 1029.37 737.339 1028.95 737.906 1028.65C738.472 1028.34 739.114 1028.19 739.832 1028.19C740.931 1028.19 741.783 1028.45 742.388 1028.98C742.999 1029.51 743.304 1030.25 743.304 1031.21C743.304 1031.74 743.167 1032.28 742.894 1032.83C742.62 1033.37 742.151 1034.01 741.487 1034.74L739.063 1037.29H743.648V1039ZM745.142 1037.96C745.142 1037.62 745.254 1037.35 745.479 1037.14C745.708 1036.93 745.994 1036.82 746.336 1036.82C746.683 1036.82 746.968 1036.93 747.193 1037.14C747.422 1037.35 747.537 1037.62 747.537 1037.96C747.537 1038.29 747.425 1038.56 747.2 1038.77C746.976 1038.98 746.688 1039.08 746.336 1039.08C745.989 1039.08 745.704 1038.98 745.479 1038.77C745.254 1038.56 745.142 1038.29 745.142 1037.96ZM745.142 1031.96C745.142 1031.62 745.254 1031.35 745.479 1031.14C745.708 1030.93 745.994 1030.83 746.336 1030.83C746.683 1030.83 746.968 1030.93 747.193 1031.14C747.422 1031.35 747.537 1031.62 747.537 1031.96C747.537 1032.29 747.425 1032.56 747.2 1032.77C746.976 1032.98 746.688 1033.08 746.336 1033.08C745.989 1033.08 745.704 1032.98 745.479 1032.77C745.254 1032.56 745.142 1032.29 745.142 1031.96ZM756.363 1034.59C756.363 1036.07 756.058 1037.19 755.447 1037.97C754.837 1038.76 753.943 1039.15 752.767 1039.15C751.604 1039.15 750.716 1038.76 750.101 1038C749.485 1037.23 749.17 1036.13 749.156 1034.7V1032.74C749.156 1031.25 749.463 1030.12 750.079 1029.35C750.699 1028.58 751.59 1028.19 752.752 1028.19C753.914 1028.19 754.803 1028.57 755.418 1029.34C756.033 1030.1 756.348 1031.2 756.363 1032.63V1034.59ZM754.246 1032.44C754.246 1031.55 754.124 1030.91 753.88 1030.51C753.641 1030.11 753.265 1029.9 752.752 1029.9C752.254 1029.9 751.885 1030.1 751.646 1030.48C751.412 1030.86 751.287 1031.46 751.272 1032.28V1034.87C751.272 1035.74 751.39 1036.39 751.624 1036.81C751.863 1037.23 752.244 1037.44 752.767 1037.44C753.284 1037.44 753.658 1037.24 753.887 1036.83C754.117 1036.43 754.236 1035.81 754.246 1034.97V1032.44ZM764.976 1034.59C764.976 1036.07 764.671 1037.19 764.061 1037.97C763.45 1038.76 762.557 1039.15 761.38 1039.15C760.218 1039.15 759.329 1038.76 758.714 1038C758.099 1037.23 757.784 1036.13 757.769 1034.7V1032.74C757.769 1031.25 758.077 1030.12 758.692 1029.35C759.312 1028.58 760.203 1028.19 761.365 1028.19C762.527 1028.19 763.416 1028.57 764.031 1029.34C764.646 1030.1 764.961 1031.2 764.976 1032.63V1034.59ZM762.859 1032.44C762.859 1031.55 762.737 1030.91 762.493 1030.51C762.254 1030.11 761.878 1029.9 761.365 1029.9C760.867 1029.9 760.499 1030.1 760.259 1030.48C760.025 1030.86 759.9 1031.46 759.886 1032.28V1034.87C759.886 1035.74 760.003 1036.39 760.237 1036.81C760.477 1037.23 760.857 1037.44 761.38 1037.44C761.897 1037.44 762.271 1037.24 762.5 1036.83C762.73 1036.43 762.85 1035.81 762.859 1034.97V1032.44Z" fill="#B7B8B9"/>
<path d="M912.867 1039H910.75V1030.84L908.223 1031.62V1029.9L912.64 1028.32H912.867V1039ZM916.653 1033.76L917.269 1028.34H923.245V1030.1H919.004L918.741 1032.39C919.244 1032.12 919.778 1031.99 920.345 1031.99C921.36 1031.99 922.156 1032.31 922.732 1032.94C923.309 1033.57 923.597 1034.45 923.597 1035.58C923.597 1036.27 923.45 1036.89 923.157 1037.43C922.869 1037.97 922.454 1038.4 921.912 1038.7C921.37 1039 920.73 1039.15 919.993 1039.15C919.349 1039.15 918.75 1039.02 918.199 1038.76C917.647 1038.49 917.21 1038.13 916.888 1037.65C916.57 1037.18 916.402 1036.64 916.382 1036.03H918.477C918.521 1036.48 918.675 1036.82 918.938 1037.07C919.207 1037.32 919.556 1037.44 919.986 1037.44C920.464 1037.44 920.833 1037.27 921.092 1036.93C921.351 1036.58 921.48 1036.09 921.48 1035.46C921.48 1034.86 921.331 1034.39 921.033 1034.07C920.735 1033.75 920.313 1033.59 919.766 1033.59C919.263 1033.59 918.855 1033.72 918.543 1033.98L918.338 1034.17L916.653 1033.76ZM925.142 1037.96C925.142 1037.62 925.254 1037.35 925.479 1037.14C925.708 1036.93 925.994 1036.82 926.336 1036.82C926.683 1036.82 926.968 1036.93 927.193 1037.14C927.422 1037.35 927.537 1037.62 927.537 1037.96C927.537 1038.29 927.425 1038.56 927.2 1038.77C926.976 1038.98 926.688 1039.08 926.336 1039.08C925.989 1039.08 925.704 1038.98 925.479 1038.77C925.254 1038.56 925.142 1038.29 925.142 1037.96ZM925.142 1031.96C925.142 1031.62 925.254 1031.35 925.479 1031.14C925.708 1030.93 925.994 1030.83 926.336 1030.83C926.683 1030.83 926.968 1030.93 927.193 1031.14C927.422 1031.35 927.537 1031.62 927.537 1031.96C927.537 1032.29 927.425 1032.56 927.2 1032.77C926.976 1032.98 926.688 1033.08 926.336 1033.08C925.989 1033.08 925.704 1032.98 925.479 1032.77C925.254 1032.56 925.142 1032.29 925.142 1031.96ZM936.363 1034.59C936.363 1036.07 936.058 1037.19 935.447 1037.97C934.837 1038.76 933.943 1039.15 932.767 1039.15C931.604 1039.15 930.716 1038.76 930.101 1038C929.485 1037.23 929.17 1036.13 929.156 1034.7V1032.74C929.156 1031.25 929.463 1030.12 930.079 1029.35C930.699 1028.58 931.59 1028.19 932.752 1028.19C933.914 1028.19 934.803 1028.57 935.418 1029.34C936.033 1030.1 936.348 1031.2 936.363 1032.63V1034.59ZM934.246 1032.44C934.246 1031.55 934.124 1030.91 933.88 1030.51C933.641 1030.11 933.265 1029.9 932.752 1029.9C932.254 1029.9 931.885 1030.1 931.646 1030.48C931.412 1030.86 931.287 1031.46 931.272 1032.28V1034.87C931.272 1035.74 931.39 1036.39 931.624 1036.81C931.863 1037.23 932.244 1037.44 932.767 1037.44C933.284 1037.44 933.658 1037.24 933.887 1036.83C934.117 1036.43 934.236 1035.81 934.246 1034.97V1032.44ZM944.976 1034.59C944.976 1036.07 944.671 1037.19 944.061 1037.97C943.45 1038.76 942.557 1039.15 941.38 1039.15C940.218 1039.15 939.329 1038.76 938.714 1038C938.099 1037.23 937.784 1036.13 937.769 1034.7V1032.74C937.769 1031.25 938.077 1030.12 938.692 1029.35C939.312 1028.58 940.203 1028.19 941.365 1028.19C942.527 1028.19 943.416 1028.57 944.031 1029.34C944.646 1030.1 944.961 1031.2 944.976 1032.63V1034.59ZM942.859 1032.44C942.859 1031.55 942.737 1030.91 942.493 1030.51C942.254 1030.11 941.878 1029.9 941.365 1029.9C940.867 1029.9 940.499 1030.1 940.259 1030.48C940.025 1030.86 939.9 1031.46 939.886 1032.28V1034.87C939.886 1035.74 940.003 1036.39 940.237 1036.81C940.477 1037.23 940.857 1037.44 941.38 1037.44C941.897 1037.44 942.271 1037.24 942.5 1036.83C942.73 1036.43 942.85 1035.81 942.859 1034.97V1032.44Z" fill="#B7B8B9"/>
<path d="M1024 300H1017.5L995.207 316.319L979.882 337.376L947.374 316.319L920.439 344.746L901.863 383.702L867.033 415.814L856.352 398.968L839.169 421.605L823.38 452.138L805.732 437.924L794.122 432.133L780.655 440.556L769.974 447.4L754.184 471.616L746.754 457.928L736.537 454.77L728.178 444.768L717.961 437.924L708.673 447.4L692.419 457.928L684.06 442.662L675.236 452.138L664.091 457.928L658.054 447.4L647.837 437.924L626.01 457.928L609.756 447.4L605.112 509.518L592.573 457.928L556.814 442.662L529.879 447.4L514.09 421.605L508.053 389.493L495.514 364.224L482.046 353.696H459.291L442.108 373.174L434.213 344.746H415.173L385.916 383.702L359.445 398.968L343.191 383.702L333.903 344.746L323.222 442.662L313.934 468.457L291.178 489.514L273.995 475.827L255.419 489.514L240.559 457.928L225.698 398.968L212.695 373.174L182.044 430.554L157.896 407.918L143.035 430.554L133.747 398.968L113.778 468.457L97.9882 457.928L75.2327 553.212L57.5855 503.201L37.6163 513.73L12.5388 468.457L5.80499 478.986H0" stroke="#D2F400" stroke-width="3"/>
<rect x="554" y="253" width="300" height="92" fill="white"/>
<path d="M577.222 276.02H572.249V281H571.348V270.336H577.954V271.105H572.249V275.25H577.222V276.02ZM583.052 273.822C582.866 273.788 582.668 273.771 582.458 273.771C581.912 273.771 581.448 273.925 581.067 274.232C580.691 274.535 580.422 274.977 580.261 275.558V281H579.39V273.075H580.247L580.261 274.335C580.725 273.397 581.47 272.929 582.495 272.929C582.739 272.929 582.932 272.96 583.074 273.024L583.052 273.822ZM585.425 281H584.546V273.075H585.425V281ZM584.392 270.783C584.392 270.617 584.446 270.478 584.553 270.365C584.661 270.248 584.807 270.189 584.993 270.189C585.178 270.189 585.325 270.248 585.432 270.365C585.544 270.478 585.601 270.617 585.601 270.783C585.601 270.949 585.544 271.088 585.432 271.2C585.325 271.312 585.178 271.369 584.993 271.369C584.807 271.369 584.661 271.312 584.553 271.2C584.446 271.088 584.392 270.949 584.392 270.783ZM587.461 276.964C587.461 275.734 587.734 274.755 588.281 274.027C588.833 273.295 589.58 272.929 590.522 272.929C591.592 272.929 592.407 273.351 592.969 274.196V269.75H593.84V281H593.02L592.983 279.945C592.422 280.746 591.597 281.146 590.508 281.146C589.595 281.146 588.857 280.78 588.296 280.048C587.739 279.311 587.461 278.317 587.461 277.067V276.964ZM588.347 277.118C588.347 278.129 588.55 278.927 588.955 279.513C589.36 280.094 589.932 280.385 590.669 280.385C591.748 280.385 592.515 279.909 592.969 278.957V275.236C592.515 274.206 591.753 273.69 590.684 273.69C589.946 273.69 589.373 273.981 588.962 274.562C588.552 275.138 588.347 275.99 588.347 277.118ZM601.15 281C601.062 280.751 601.006 280.382 600.981 279.894C600.674 280.294 600.281 280.604 599.802 280.824C599.329 281.039 598.826 281.146 598.293 281.146C597.532 281.146 596.914 280.934 596.44 280.509C595.972 280.084 595.737 279.547 595.737 278.898C595.737 278.126 596.057 277.516 596.697 277.067C597.341 276.618 598.237 276.393 599.385 276.393H600.974V275.492C600.974 274.926 600.798 274.481 600.447 274.159C600.1 273.832 599.592 273.668 598.923 273.668C598.313 273.668 597.808 273.825 597.407 274.137C597.007 274.45 596.807 274.826 596.807 275.265L595.928 275.258C595.928 274.628 596.221 274.083 596.807 273.625C597.393 273.161 598.113 272.929 598.967 272.929C599.851 272.929 600.547 273.151 601.055 273.595C601.567 274.035 601.831 274.65 601.846 275.441V279.191C601.846 279.958 601.926 280.531 602.087 280.912V281H601.15ZM598.396 280.37C598.982 280.37 599.504 280.229 599.963 279.945C600.427 279.662 600.764 279.284 600.974 278.81V277.067H599.407C598.533 277.077 597.849 277.238 597.356 277.55C596.863 277.858 596.616 278.283 596.616 278.825C596.616 279.269 596.78 279.638 597.107 279.931C597.439 280.224 597.869 280.37 598.396 280.37ZM606.584 279.74L608.899 273.075H609.844L606.46 282.348L606.284 282.758C605.85 283.72 605.178 284.201 604.27 284.201C604.06 284.201 603.835 284.167 603.596 284.098L603.589 283.373L604.043 283.417C604.473 283.417 604.819 283.31 605.083 283.095C605.352 282.885 605.579 282.521 605.764 282.003L606.152 280.934L603.164 273.075H604.124L606.584 279.74ZM610.232 282.992L609.712 282.611C610.156 282.016 610.386 281.398 610.4 280.758V279.623H611.257V280.539C611.257 281.554 610.916 282.372 610.232 282.992ZM623.474 281H616.794V280.326L620.449 276.181C621.055 275.482 621.475 274.906 621.709 274.452C621.943 273.998 622.061 273.556 622.061 273.126C622.061 272.453 621.863 271.92 621.467 271.53C621.072 271.134 620.527 270.937 619.834 270.937C619.116 270.937 618.535 271.166 618.091 271.625C617.651 272.084 617.432 272.68 617.432 273.412H616.56C616.56 272.812 616.694 272.265 616.963 271.771C617.236 271.278 617.622 270.893 618.12 270.614C618.623 270.331 619.194 270.189 619.834 270.189C620.811 270.189 621.572 270.446 622.119 270.958C622.671 271.471 622.947 272.169 622.947 273.053C622.947 273.551 622.791 274.096 622.478 274.687C622.17 275.277 621.626 276.015 620.845 276.898L617.871 280.26H623.474V281ZM629.194 281H628.315V271.391L625.415 272.467V271.647L629.048 270.299H629.194V281ZM637.427 281V270.336H640.408C641.282 270.336 642.065 270.536 642.759 270.937C643.452 271.332 643.992 271.901 644.377 272.643C644.768 273.385 644.963 274.23 644.963 275.177V276.159C644.963 277.111 644.771 277.956 644.385 278.693C643.999 279.43 643.455 279.999 642.751 280.399C642.053 280.8 641.25 281 640.342 281H637.427ZM638.328 271.105V280.238H640.349C641.472 280.238 642.373 279.867 643.052 279.125C643.73 278.378 644.07 277.37 644.07 276.1V275.163C644.07 273.937 643.735 272.956 643.066 272.218C642.397 271.481 641.516 271.11 640.422 271.105H638.328ZM650.12 281.146C649.446 281.146 648.835 280.98 648.289 280.648C647.747 280.316 647.324 279.855 647.021 279.264C646.719 278.668 646.567 278.002 646.567 277.265V276.95C646.567 276.188 646.714 275.502 647.007 274.892C647.305 274.281 647.717 273.803 648.245 273.456C648.772 273.104 649.343 272.929 649.958 272.929C650.92 272.929 651.682 273.258 652.244 273.917C652.81 274.572 653.093 275.468 653.093 276.605V277.096H647.439V277.265C647.439 278.163 647.695 278.913 648.208 279.513C648.726 280.109 649.375 280.407 650.156 280.407C650.625 280.407 651.038 280.321 651.394 280.15C651.755 279.979 652.083 279.706 652.375 279.33L652.925 279.748C652.28 280.68 651.345 281.146 650.12 281.146ZM649.958 273.676C649.299 273.676 648.743 273.917 648.289 274.401C647.839 274.884 647.566 275.534 647.468 276.349H652.222V276.254C652.197 275.492 651.98 274.872 651.57 274.394C651.16 273.915 650.623 273.676 649.958 273.676ZM657.729 280.407C658.34 280.407 658.85 280.236 659.26 279.894C659.675 279.547 659.9 279.101 659.934 278.554H660.776C660.752 279.037 660.601 279.479 660.322 279.879C660.044 280.275 659.673 280.585 659.209 280.81C658.75 281.034 658.257 281.146 657.729 281.146C656.689 281.146 655.864 280.785 655.254 280.062C654.648 279.34 654.346 278.368 654.346 277.147V276.884C654.346 276.103 654.482 275.412 654.756 274.811C655.029 274.21 655.42 273.747 655.928 273.419C656.44 273.092 657.039 272.929 657.722 272.929C658.591 272.929 659.307 273.188 659.868 273.705C660.435 274.223 660.737 274.904 660.776 275.749H659.934C659.895 275.128 659.67 274.628 659.26 274.247C658.855 273.866 658.342 273.676 657.722 273.676C656.931 273.676 656.316 273.961 655.876 274.533C655.442 275.104 655.225 275.905 655.225 276.935V277.191C655.225 278.202 655.442 278.991 655.876 279.557C656.316 280.124 656.934 280.407 657.729 280.407ZM672.722 281H666.042V280.326L669.697 276.181C670.303 275.482 670.723 274.906 670.957 274.452C671.191 273.998 671.309 273.556 671.309 273.126C671.309 272.453 671.111 271.92 670.715 271.53C670.32 271.134 669.775 270.937 669.082 270.937C668.364 270.937 667.783 271.166 667.339 271.625C666.899 272.084 666.68 272.68 666.68 273.412H665.808C665.808 272.812 665.942 272.265 666.211 271.771C666.484 271.278 666.87 270.893 667.368 270.614C667.871 270.331 668.442 270.189 669.082 270.189C670.059 270.189 670.82 270.446 671.367 270.958C671.919 271.471 672.195 272.169 672.195 273.053C672.195 273.551 672.039 274.096 671.726 274.687C671.418 275.277 670.874 276.015 670.093 276.898L667.119 280.26H672.722V281ZM680.793 276.554C680.793 278.058 680.518 279.201 679.966 279.982C679.414 280.758 678.601 281.146 677.527 281.146C676.472 281.146 675.664 280.766 675.103 280.004C674.541 279.237 674.253 278.124 674.238 276.664V274.752C674.238 273.253 674.517 272.118 675.073 271.347C675.63 270.575 676.443 270.189 677.512 270.189C678.567 270.189 679.373 270.563 679.929 271.31C680.486 272.052 680.774 273.148 680.793 274.599V276.554ZM679.915 274.643C679.915 273.422 679.714 272.499 679.314 271.874C678.918 271.249 678.318 270.937 677.512 270.937C676.721 270.937 676.125 271.242 675.725 271.852C675.325 272.462 675.12 273.363 675.11 274.555V276.649C675.11 277.865 675.315 278.795 675.725 279.44C676.14 280.084 676.741 280.407 677.527 280.407C678.308 280.407 678.899 280.092 679.299 279.462C679.705 278.832 679.91 277.909 679.915 276.693V274.643ZM686.763 281H685.884V271.391L682.983 272.467V271.647L686.616 270.299H686.763V281ZM697.288 273.083C697.288 273.634 697.126 274.13 696.804 274.569C696.482 275.004 696.057 275.324 695.53 275.529C696.145 275.739 696.638 276.078 697.009 276.547C697.38 277.016 697.566 277.558 697.566 278.173C697.566 279.086 697.256 279.811 696.636 280.348C696.016 280.88 695.195 281.146 694.175 281.146C693.145 281.146 692.319 280.88 691.699 280.348C691.084 279.816 690.776 279.091 690.776 278.173C690.776 277.567 690.955 277.028 691.311 276.554C691.667 276.081 692.156 275.739 692.776 275.529C692.249 275.324 691.829 275.004 691.516 274.569C691.204 274.13 691.047 273.634 691.047 273.083C691.047 272.199 691.331 271.496 691.897 270.973C692.468 270.451 693.223 270.189 694.16 270.189C695.098 270.189 695.852 270.453 696.423 270.98C697 271.508 697.288 272.208 697.288 273.083ZM696.687 278.18C696.687 277.516 696.45 276.972 695.977 276.547C695.503 276.117 694.897 275.902 694.16 275.902C693.423 275.902 692.82 276.112 692.351 276.532C691.882 276.952 691.648 277.501 691.648 278.18C691.648 278.859 691.875 279.401 692.329 279.806C692.783 280.207 693.398 280.407 694.175 280.407C694.932 280.407 695.54 280.207 695.999 279.806C696.458 279.406 696.687 278.864 696.687 278.18ZM696.409 273.075C696.409 272.465 696.196 271.957 695.771 271.552C695.352 271.142 694.814 270.937 694.16 270.937C693.496 270.937 692.957 271.134 692.542 271.53C692.131 271.92 691.926 272.436 691.926 273.075C691.926 273.7 692.131 274.203 692.542 274.584C692.957 274.965 693.499 275.155 694.167 275.155C694.827 275.155 695.364 274.965 695.779 274.584C696.199 274.198 696.409 273.695 696.409 273.075ZM699.28 282.992L698.76 282.611C699.204 282.016 699.434 281.398 699.448 280.758V279.623H700.305V280.539C700.305 281.554 699.963 282.372 699.28 282.992ZM709.922 281H709.043V271.391L706.143 272.467V271.647L709.775 270.299H709.922V281ZM720.447 273.083C720.447 273.634 720.286 274.13 719.963 274.569C719.641 275.004 719.216 275.324 718.689 275.529C719.304 275.739 719.797 276.078 720.168 276.547C720.54 277.016 720.725 277.558 720.725 278.173C720.725 279.086 720.415 279.811 719.795 280.348C719.175 280.88 718.354 281.146 717.334 281.146C716.304 281.146 715.479 280.88 714.858 280.348C714.243 279.816 713.936 279.091 713.936 278.173C713.936 277.567 714.114 277.028 714.47 276.554C714.827 276.081 715.315 275.739 715.935 275.529C715.408 275.324 714.988 275.004 714.675 274.569C714.363 274.13 714.207 273.634 714.207 273.083C714.207 272.199 714.49 271.496 715.056 270.973C715.627 270.451 716.382 270.189 717.319 270.189C718.257 270.189 719.011 270.453 719.583 270.98C720.159 271.508 720.447 272.208 720.447 273.083ZM719.846 278.18C719.846 277.516 719.609 276.972 719.136 276.547C718.662 276.117 718.057 275.902 717.319 275.902C716.582 275.902 715.979 276.112 715.51 276.532C715.042 276.952 714.807 277.501 714.807 278.18C714.807 278.859 715.034 279.401 715.488 279.806C715.942 280.207 716.558 280.407 717.334 280.407C718.091 280.407 718.699 280.207 719.158 279.806C719.617 279.406 719.846 278.864 719.846 278.18ZM719.568 273.075C719.568 272.465 719.355 271.957 718.931 271.552C718.511 271.142 717.974 270.937 717.319 270.937C716.655 270.937 716.116 271.134 715.701 271.53C715.291 271.92 715.085 272.436 715.085 273.075C715.085 273.7 715.291 274.203 715.701 274.584C716.116 274.965 716.658 275.155 717.327 275.155C717.986 275.155 718.523 274.965 718.938 274.584C719.358 274.198 719.568 273.695 719.568 273.075ZM722.41 280.473C722.41 280.302 722.463 280.158 722.571 280.041C722.683 279.918 722.837 279.857 723.032 279.857C723.228 279.857 723.381 279.918 723.494 280.041C723.606 280.158 723.662 280.302 723.662 280.473C723.662 280.644 723.606 280.785 723.494 280.897C723.381 281.005 723.228 281.059 723.032 281.059C722.837 281.059 722.683 281.005 722.571 280.897C722.463 280.785 722.41 280.644 722.41 280.473ZM722.424 273.712C722.424 273.542 722.478 273.397 722.585 273.28C722.698 273.158 722.852 273.097 723.047 273.097C723.242 273.097 723.396 273.158 723.508 273.28C723.621 273.397 723.677 273.542 723.677 273.712C723.677 273.883 723.621 274.025 723.508 274.137C723.396 274.245 723.242 274.298 723.047 274.298C722.852 274.298 722.698 274.245 722.585 274.137C722.478 274.025 722.424 273.883 722.424 273.712ZM732.063 276.554C732.063 278.058 731.787 279.201 731.235 279.982C730.684 280.758 729.871 281.146 728.796 281.146C727.742 281.146 726.934 280.766 726.372 280.004C725.811 279.237 725.522 278.124 725.508 276.664V274.752C725.508 273.253 725.786 272.118 726.343 271.347C726.899 270.575 727.712 270.189 728.782 270.189C729.836 270.189 730.642 270.563 731.199 271.31C731.755 272.052 732.043 273.148 732.063 274.599V276.554ZM731.184 274.643C731.184 273.422 730.984 272.499 730.583 271.874C730.188 271.249 729.587 270.937 728.782 270.937C727.991 270.937 727.395 271.242 726.995 271.852C726.594 272.462 726.389 273.363 726.379 274.555V276.649C726.379 277.865 726.584 278.795 726.995 279.44C727.41 280.084 728.01 280.407 728.796 280.407C729.578 280.407 730.168 280.092 730.569 279.462C730.974 278.832 731.179 277.909 731.184 276.693V274.643ZM740.383 276.554C740.383 278.058 740.107 279.201 739.556 279.982C739.004 280.758 738.191 281.146 737.117 281.146C736.062 281.146 735.254 280.766 734.692 280.004C734.131 279.237 733.843 278.124 733.828 276.664V274.752C733.828 273.253 734.106 272.118 734.663 271.347C735.22 270.575 736.033 270.189 737.102 270.189C738.157 270.189 738.962 270.563 739.519 271.31C740.076 272.052 740.364 273.148 740.383 274.599V276.554ZM739.504 274.643C739.504 273.422 739.304 272.499 738.904 271.874C738.508 271.249 737.908 270.937 737.102 270.937C736.311 270.937 735.715 271.242 735.315 271.852C734.915 272.462 734.709 273.363 734.7 274.555V276.649C734.7 277.865 734.905 278.795 735.315 279.44C735.73 280.084 736.331 280.407 737.117 280.407C737.898 280.407 738.489 280.092 738.889 279.462C739.294 278.832 739.5 277.909 739.504 276.693V274.643ZM742.2 280.473C742.2 280.302 742.253 280.158 742.361 280.041C742.473 279.918 742.627 279.857 742.822 279.857C743.018 279.857 743.171 279.918 743.284 280.041C743.396 280.158 743.452 280.302 743.452 280.473C743.452 280.644 743.396 280.785 743.284 280.897C743.171 281.005 743.018 281.059 742.822 281.059C742.627 281.059 742.473 281.005 742.361 280.897C742.253 280.785 742.2 280.644 742.2 280.473ZM742.214 273.712C742.214 273.542 742.268 273.397 742.375 273.28C742.488 273.158 742.642 273.097 742.837 273.097C743.032 273.097 743.186 273.158 743.298 273.28C743.411 273.397 743.467 273.542 743.467 273.712C743.467 273.883 743.411 274.025 743.298 274.137C743.186 274.245 743.032 274.298 742.837 274.298C742.642 274.298 742.488 274.245 742.375 274.137C742.268 274.025 742.214 273.883 742.214 273.712ZM751.853 276.554C751.853 278.058 751.577 279.201 751.025 279.982C750.474 280.758 749.661 281.146 748.586 281.146C747.532 281.146 746.724 280.766 746.162 280.004C745.601 279.237 745.312 278.124 745.298 276.664V274.752C745.298 273.253 745.576 272.118 746.133 271.347C746.689 270.575 747.502 270.189 748.572 270.189C749.626 270.189 750.432 270.563 750.989 271.31C751.545 272.052 751.833 273.148 751.853 274.599V276.554ZM750.974 274.643C750.974 273.422 750.774 272.499 750.374 271.874C749.978 271.249 749.377 270.937 748.572 270.937C747.781 270.937 747.185 271.242 746.785 271.852C746.384 272.462 746.179 273.363 746.169 274.555V276.649C746.169 277.865 746.375 278.795 746.785 279.44C747.2 280.084 747.8 280.407 748.586 280.407C749.368 280.407 749.958 280.092 750.359 279.462C750.764 278.832 750.969 277.909 750.974 276.693V274.643ZM760.173 276.554C760.173 278.058 759.897 279.201 759.346 279.982C758.794 280.758 757.981 281.146 756.907 281.146C755.852 281.146 755.044 280.766 754.482 280.004C753.921 279.237 753.633 278.124 753.618 276.664V274.752C753.618 273.253 753.896 272.118 754.453 271.347C755.01 270.575 755.823 270.189 756.892 270.189C757.947 270.189 758.752 270.563 759.309 271.31C759.866 272.052 760.154 273.148 760.173 274.599V276.554ZM759.294 274.643C759.294 273.422 759.094 272.499 758.694 271.874C758.298 271.249 757.698 270.937 756.892 270.937C756.101 270.937 755.505 271.242 755.105 271.852C754.705 272.462 754.5 273.363 754.49 274.555V276.649C754.49 277.865 754.695 278.795 755.105 279.44C755.52 280.084 756.121 280.407 756.907 280.407C757.688 280.407 758.279 280.092 758.679 279.462C759.084 278.832 759.29 277.909 759.294 276.693V274.643ZM773.401 270.336V277.616C773.396 278.334 773.237 278.959 772.925 279.491C772.612 280.023 772.17 280.434 771.599 280.722C771.033 281.005 770.381 281.146 769.644 281.146C768.521 281.146 767.62 280.841 766.941 280.231C766.267 279.616 765.918 278.766 765.894 277.682V270.336H766.787V277.55C766.787 278.449 767.043 279.147 767.556 279.645C768.069 280.138 768.765 280.385 769.644 280.385C770.522 280.385 771.216 280.136 771.724 279.638C772.236 279.14 772.493 278.446 772.493 277.558V270.336H773.401ZM783.149 271.105H779.495V281H778.594V271.105H774.946V270.336H783.149V271.105ZM792.224 277.675C792.102 278.798 791.699 279.657 791.016 280.253C790.337 280.849 789.431 281.146 788.298 281.146C787.507 281.146 786.807 280.949 786.196 280.553C785.591 280.158 785.122 279.599 784.79 278.876C784.458 278.148 784.29 277.318 784.285 276.386V275.001C784.285 274.054 784.451 273.214 784.783 272.482C785.115 271.75 785.591 271.186 786.211 270.79C786.836 270.39 787.554 270.189 788.364 270.189C789.507 270.189 790.408 270.5 791.067 271.12C791.731 271.735 792.117 272.587 792.224 273.676H791.316C791.091 271.864 790.107 270.958 788.364 270.958C787.397 270.958 786.626 271.32 786.05 272.042C785.479 272.765 785.193 273.764 785.193 275.038V276.342C785.193 277.572 785.471 278.554 786.028 279.286C786.589 280.019 787.346 280.385 788.298 280.385C789.241 280.385 789.951 280.16 790.43 279.711C790.908 279.257 791.204 278.578 791.316 277.675H792.224ZM797.681 275.58H800.925V276.4H797.681V279.931H796.794V276.4H793.616V275.58H796.794V272.167H797.681V275.58ZM808.967 276.554C808.967 278.058 808.691 279.201 808.14 279.982C807.588 280.758 806.775 281.146 805.701 281.146C804.646 281.146 803.838 280.766 803.276 280.004C802.715 279.237 802.427 278.124 802.412 276.664V274.752C802.412 273.253 802.69 272.118 803.247 271.347C803.804 270.575 804.617 270.189 805.686 270.189C806.741 270.189 807.546 270.563 808.103 271.31C808.66 272.052 808.948 273.148 808.967 274.599V276.554ZM808.088 274.643C808.088 273.422 807.888 272.499 807.488 271.874C807.092 271.249 806.492 270.937 805.686 270.937C804.895 270.937 804.299 271.242 803.899 271.852C803.499 272.462 803.293 273.363 803.284 274.555V276.649C803.284 277.865 803.489 278.795 803.899 279.44C804.314 280.084 804.915 280.407 805.701 280.407C806.482 280.407 807.073 280.092 807.473 279.462C807.878 278.832 808.083 277.909 808.088 276.693V274.643ZM812.805 275.192H813.713C814.216 275.192 814.656 275.104 815.032 274.928C815.408 274.748 815.693 274.503 815.889 274.196C816.089 273.883 816.189 273.524 816.189 273.119C816.189 272.436 815.996 271.901 815.61 271.515C815.225 271.129 814.67 270.937 813.948 270.937C813.264 270.937 812.703 271.139 812.263 271.544C811.829 271.945 811.611 272.475 811.611 273.134H810.732C810.732 272.582 810.872 272.079 811.15 271.625C811.428 271.166 811.814 270.812 812.307 270.563C812.8 270.314 813.347 270.189 813.948 270.189C814.915 270.189 815.676 270.453 816.233 270.98C816.79 271.508 817.068 272.23 817.068 273.148C817.068 273.661 816.904 274.135 816.577 274.569C816.255 274.999 815.811 275.321 815.244 275.536C815.908 275.722 816.411 276.042 816.753 276.496C817.095 276.945 817.266 277.482 817.266 278.107C817.266 279.02 816.968 279.755 816.372 280.312C815.776 280.868 814.98 281.146 813.984 281.146C813.35 281.146 812.766 281.02 812.234 280.766C811.707 280.512 811.296 280.158 811.003 279.704C810.715 279.245 810.571 278.712 810.571 278.107H811.45C811.45 278.786 811.687 279.34 812.161 279.77C812.634 280.194 813.242 280.407 813.984 280.407C814.741 280.407 815.33 280.214 815.75 279.828C816.174 279.438 816.387 278.874 816.387 278.136C816.387 277.423 816.157 276.879 815.698 276.503C815.244 276.127 814.573 275.939 813.684 275.939H812.805V275.192ZM819.104 280.473C819.104 280.302 819.158 280.158 819.265 280.041C819.377 279.918 819.531 279.857 819.727 279.857C819.922 279.857 820.076 279.918 820.188 280.041C820.3 280.158 820.356 280.302 820.356 280.473C820.356 280.644 820.3 280.785 820.188 280.897C820.076 281.005 819.922 281.059 819.727 281.059C819.531 281.059 819.377 281.005 819.265 280.897C819.158 280.785 819.104 280.644 819.104 280.473ZM819.119 273.712C819.119 273.542 819.172 273.397 819.28 273.28C819.392 273.158 819.546 273.097 819.741 273.097C819.937 273.097 820.09 273.158 820.203 273.28C820.315 273.397 820.371 273.542 820.371 273.712C820.371 273.883 820.315 274.025 820.203 274.137C820.09 274.245 819.937 274.298 819.741 274.298C819.546 274.298 819.392 274.245 819.28 274.137C819.172 274.025 819.119 273.883 819.119 273.712ZM828.757 276.554C828.757 278.058 828.481 279.201 827.93 279.982C827.378 280.758 826.565 281.146 825.491 281.146C824.436 281.146 823.628 280.766 823.066 280.004C822.505 279.237 822.217 278.124 822.202 276.664V274.752C822.202 273.253 822.48 272.118 823.037 271.347C823.594 270.575 824.407 270.189 825.476 270.189C826.531 270.189 827.336 270.563 827.893 271.31C828.45 272.052 828.738 273.148 828.757 274.599V276.554ZM827.878 274.643C827.878 273.422 827.678 272.499 827.278 271.874C826.882 271.249 826.282 270.937 825.476 270.937C824.685 270.937 824.089 271.242 823.689 271.852C823.289 272.462 823.083 273.363 823.074 274.555V276.649C823.074 277.865 823.279 278.795 823.689 279.44C824.104 280.084 824.705 280.407 825.491 280.407C826.272 280.407 826.863 280.092 827.263 279.462C827.668 278.832 827.874 277.909 827.878 276.693V274.643ZM837.078 276.554C837.078 278.058 836.802 279.201 836.25 279.982C835.698 280.758 834.885 281.146 833.811 281.146C832.756 281.146 831.948 280.766 831.387 280.004C830.825 279.237 830.537 278.124 830.522 276.664V274.752C830.522 273.253 830.801 272.118 831.357 271.347C831.914 270.575 832.727 270.189 833.796 270.189C834.851 270.189 835.657 270.563 836.213 271.31C836.77 272.052 837.058 273.148 837.078 274.599V276.554ZM836.199 274.643C836.199 273.422 835.999 272.499 835.598 271.874C835.203 271.249 834.602 270.937 833.796 270.937C833.005 270.937 832.41 271.242 832.009 271.852C831.609 272.462 831.404 273.363 831.394 274.555V276.649C831.394 277.865 831.599 278.795 832.009 279.44C832.424 280.084 833.025 280.407 833.811 280.407C834.592 280.407 835.183 280.092 835.583 279.462C835.989 278.832 836.194 277.909 836.199 276.693V274.643ZM573.389 288.781L578.633 301.33L583.896 288.781H585.498V303H584.297V296.809L584.395 290.461L579.102 303H578.174L572.9 290.51L572.998 296.77V303H571.797V288.781H573.389ZM595.498 303C595.381 302.668 595.306 302.176 595.273 301.525C594.863 302.059 594.339 302.473 593.701 302.766C593.07 303.052 592.399 303.195 591.689 303.195C590.674 303.195 589.85 302.912 589.219 302.346C588.594 301.779 588.281 301.063 588.281 300.197C588.281 299.169 588.708 298.355 589.561 297.756C590.42 297.157 591.615 296.857 593.145 296.857H595.264V295.656C595.264 294.901 595.029 294.309 594.561 293.879C594.098 293.443 593.421 293.225 592.529 293.225C591.715 293.225 591.042 293.433 590.508 293.85C589.974 294.266 589.707 294.768 589.707 295.354L588.535 295.344C588.535 294.504 588.926 293.778 589.707 293.166C590.488 292.548 591.449 292.238 592.588 292.238C593.766 292.238 594.694 292.535 595.371 293.127C596.055 293.713 596.406 294.533 596.426 295.588V300.588C596.426 301.61 596.533 302.375 596.748 302.883V303H595.498ZM591.826 302.16C592.607 302.16 593.304 301.971 593.916 301.594C594.535 301.216 594.984 300.712 595.264 300.08V297.756H593.174C592.008 297.769 591.097 297.984 590.439 298.4C589.782 298.811 589.453 299.377 589.453 300.1C589.453 300.692 589.671 301.184 590.107 301.574C590.55 301.965 591.123 302.16 591.826 302.16ZM604.434 293.43C604.186 293.384 603.923 293.361 603.643 293.361C602.913 293.361 602.295 293.566 601.787 293.977C601.286 294.38 600.928 294.969 600.713 295.744V303H599.551V292.434H600.693L600.713 294.113C601.331 292.863 602.324 292.238 603.691 292.238C604.017 292.238 604.274 292.281 604.463 292.365L604.434 293.43ZM608.799 297.678L607.461 298.967V303H606.289V288H607.461V297.6L608.564 296.408L612.607 292.434H614.082L609.6 296.887L614.473 303H613.076L608.799 297.678ZM619.99 303.195C619.092 303.195 618.278 302.974 617.549 302.531C616.826 302.089 616.263 301.473 615.859 300.686C615.456 299.891 615.254 299.003 615.254 298.02V297.6C615.254 296.584 615.449 295.669 615.84 294.855C616.237 294.042 616.787 293.404 617.49 292.941C618.193 292.473 618.955 292.238 619.775 292.238C621.058 292.238 622.074 292.678 622.822 293.557C623.577 294.429 623.955 295.624 623.955 297.141V297.795H616.416V298.02C616.416 299.217 616.758 300.217 617.441 301.018C618.132 301.812 618.997 302.209 620.039 302.209C620.664 302.209 621.214 302.095 621.689 301.867C622.171 301.639 622.607 301.275 622.998 300.773L623.73 301.33C622.871 302.574 621.624 303.195 619.99 303.195ZM619.775 293.234C618.896 293.234 618.154 293.557 617.549 294.201C616.95 294.846 616.585 295.712 616.455 296.799H622.793V296.672C622.76 295.656 622.471 294.829 621.924 294.191C621.377 293.553 620.661 293.234 619.775 293.234ZM628.047 289.729V292.434H630.234V293.391H628.047V300.432C628.047 301.018 628.151 301.454 628.359 301.74C628.574 302.027 628.929 302.17 629.424 302.17C629.619 302.17 629.935 302.137 630.371 302.072L630.42 303.029C630.114 303.14 629.697 303.195 629.17 303.195C628.369 303.195 627.786 302.964 627.422 302.502C627.057 302.033 626.875 301.346 626.875 300.441V293.391H624.932V292.434H626.875V289.729H628.047ZM647.861 298.566C647.699 300.064 647.161 301.21 646.25 302.004C645.345 302.798 644.137 303.195 642.627 303.195C641.572 303.195 640.638 302.932 639.824 302.404C639.017 301.877 638.392 301.132 637.949 300.168C637.507 299.198 637.282 298.091 637.275 296.848V295.002C637.275 293.739 637.497 292.619 637.939 291.643C638.382 290.666 639.017 289.914 639.844 289.387C640.677 288.853 641.634 288.586 642.715 288.586C644.238 288.586 645.439 288.999 646.318 289.826C647.204 290.646 647.718 291.783 647.861 293.234H646.65C646.351 290.819 645.039 289.611 642.715 289.611C641.426 289.611 640.397 290.093 639.629 291.057C638.867 292.02 638.486 293.352 638.486 295.051V296.789C638.486 298.43 638.857 299.738 639.6 300.715C640.348 301.691 641.357 302.18 642.627 302.18C643.883 302.18 644.831 301.88 645.469 301.281C646.107 300.676 646.501 299.771 646.65 298.566H647.861ZM657.178 303C657.061 302.668 656.986 302.176 656.953 301.525C656.543 302.059 656.019 302.473 655.381 302.766C654.749 303.052 654.079 303.195 653.369 303.195C652.354 303.195 651.53 302.912 650.898 302.346C650.273 301.779 649.961 301.063 649.961 300.197C649.961 299.169 650.387 298.355 651.24 297.756C652.1 297.157 653.294 296.857 654.824 296.857H656.943V295.656C656.943 294.901 656.709 294.309 656.24 293.879C655.778 293.443 655.101 293.225 654.209 293.225C653.395 293.225 652.721 293.433 652.188 293.85C651.654 294.266 651.387 294.768 651.387 295.354L650.215 295.344C650.215 294.504 650.605 293.778 651.387 293.166C652.168 292.548 653.128 292.238 654.268 292.238C655.446 292.238 656.374 292.535 657.051 293.127C657.734 293.713 658.086 294.533 658.105 295.588V300.588C658.105 301.61 658.213 302.375 658.428 302.883V303H657.178ZM653.506 302.16C654.287 302.16 654.984 301.971 655.596 301.594C656.214 301.216 656.663 300.712 656.943 300.08V297.756H654.854C653.688 297.769 652.777 297.984 652.119 298.4C651.462 298.811 651.133 299.377 651.133 300.1C651.133 300.692 651.351 301.184 651.787 301.574C652.23 301.965 652.803 302.16 653.506 302.16ZM669.727 297.824C669.727 299.471 669.362 300.78 668.633 301.75C667.904 302.714 666.927 303.195 665.703 303.195C664.258 303.195 663.151 302.688 662.383 301.672V307.062H661.221V292.434H662.305L662.363 293.928C663.125 292.801 664.229 292.238 665.674 292.238C666.937 292.238 667.926 292.717 668.643 293.674C669.365 294.631 669.727 295.959 669.727 297.658V297.824ZM668.555 297.619C668.555 296.271 668.278 295.207 667.725 294.426C667.171 293.645 666.4 293.254 665.41 293.254C664.694 293.254 664.079 293.426 663.564 293.771C663.05 294.117 662.656 294.618 662.383 295.275V300.344C662.663 300.949 663.063 301.411 663.584 301.73C664.105 302.049 664.72 302.209 665.43 302.209C666.413 302.209 667.178 301.818 667.725 301.037C668.278 300.249 668.555 299.11 668.555 297.619ZM672.041 302.297C672.041 302.069 672.113 301.877 672.256 301.721C672.406 301.558 672.611 301.477 672.871 301.477C673.132 301.477 673.337 301.558 673.486 301.721C673.636 301.877 673.711 302.069 673.711 302.297C673.711 302.525 673.636 302.714 673.486 302.863C673.337 303.007 673.132 303.078 672.871 303.078C672.611 303.078 672.406 303.007 672.256 302.863C672.113 302.714 672.041 302.525 672.041 302.297ZM672.061 293.283C672.061 293.055 672.132 292.863 672.275 292.707C672.425 292.544 672.63 292.463 672.891 292.463C673.151 292.463 673.356 292.544 673.506 292.707C673.656 292.863 673.73 293.055 673.73 293.283C673.73 293.511 673.656 293.7 673.506 293.85C673.356 293.993 673.151 294.064 672.891 294.064C672.63 294.064 672.425 293.993 672.275 293.85C672.132 293.7 672.061 293.511 672.061 293.283ZM689.775 297.072C689.775 299.077 689.408 300.601 688.672 301.643C687.936 302.678 686.852 303.195 685.42 303.195C684.014 303.195 682.936 302.688 682.188 301.672C681.439 300.65 681.055 299.165 681.035 297.219V294.67C681.035 292.671 681.406 291.158 682.148 290.129C682.891 289.1 683.975 288.586 685.4 288.586C686.807 288.586 687.881 289.084 688.623 290.08C689.365 291.07 689.749 292.531 689.775 294.465V297.072ZM688.604 294.523C688.604 292.896 688.337 291.665 687.803 290.832C687.275 289.999 686.475 289.582 685.4 289.582C684.346 289.582 683.551 289.989 683.018 290.803C682.484 291.617 682.21 292.818 682.197 294.406V297.199C682.197 298.82 682.471 300.061 683.018 300.92C683.571 301.779 684.372 302.209 685.42 302.209C686.462 302.209 687.249 301.789 687.783 300.949C688.324 300.109 688.597 298.879 688.604 297.258V294.523ZM700.869 297.072C700.869 299.077 700.501 300.601 699.766 301.643C699.03 302.678 697.946 303.195 696.514 303.195C695.107 303.195 694.03 302.688 693.281 301.672C692.533 300.65 692.148 299.165 692.129 297.219V294.67C692.129 292.671 692.5 291.158 693.242 290.129C693.984 289.1 695.068 288.586 696.494 288.586C697.9 288.586 698.975 289.084 699.717 290.08C700.459 291.07 700.843 292.531 700.869 294.465V297.072ZM699.697 294.523C699.697 292.896 699.43 291.665 698.896 290.832C698.369 289.999 697.568 289.582 696.494 289.582C695.439 289.582 694.645 289.989 694.111 290.803C693.577 291.617 693.304 292.818 693.291 294.406V297.199C693.291 298.82 693.564 300.061 694.111 300.92C694.665 301.779 695.465 302.209 696.514 302.209C697.555 302.209 698.343 301.789 698.877 300.949C699.417 300.109 699.691 298.879 699.697 297.258V294.523ZM711.963 297.072C711.963 299.077 711.595 300.601 710.859 301.643C710.124 302.678 709.04 303.195 707.607 303.195C706.201 303.195 705.124 302.688 704.375 301.672C703.626 300.65 703.242 299.165 703.223 297.219V294.67C703.223 292.671 703.594 291.158 704.336 290.129C705.078 289.1 706.162 288.586 707.588 288.586C708.994 288.586 710.068 289.084 710.811 290.08C711.553 291.07 711.937 292.531 711.963 294.465V297.072ZM710.791 294.523C710.791 292.896 710.524 291.665 709.99 290.832C709.463 289.999 708.662 289.582 707.588 289.582C706.533 289.582 705.739 289.989 705.205 290.803C704.671 291.617 704.398 292.818 704.385 294.406V297.199C704.385 298.82 704.658 300.061 705.205 300.92C705.758 301.779 706.559 302.209 707.607 302.209C708.649 302.209 709.437 301.789 709.971 300.949C710.511 300.109 710.785 298.879 710.791 297.258V294.523ZM714.424 305.656L713.73 305.148C714.323 304.354 714.629 303.531 714.648 302.678V301.164H715.791V302.385C715.791 303.739 715.335 304.829 714.424 305.656ZM726.885 297.072C726.885 299.077 726.517 300.601 725.781 301.643C725.046 302.678 723.962 303.195 722.529 303.195C721.123 303.195 720.046 302.688 719.297 301.672C718.548 300.65 718.164 299.165 718.145 297.219V294.67C718.145 292.671 718.516 291.158 719.258 290.129C720 289.1 721.084 288.586 722.51 288.586C723.916 288.586 724.99 289.084 725.732 290.08C726.475 291.07 726.859 292.531 726.885 294.465V297.072ZM725.713 294.523C725.713 292.896 725.446 291.665 724.912 290.832C724.385 289.999 723.584 289.582 722.51 289.582C721.455 289.582 720.661 289.989 720.127 290.803C719.593 291.617 719.32 292.818 719.307 294.406V297.199C719.307 298.82 719.58 300.061 720.127 300.92C720.68 301.779 721.481 302.209 722.529 302.209C723.571 302.209 724.359 301.789 724.893 300.949C725.433 300.109 725.706 298.879 725.713 297.258V294.523ZM737.979 297.072C737.979 299.077 737.611 300.601 736.875 301.643C736.139 302.678 735.055 303.195 733.623 303.195C732.217 303.195 731.139 302.688 730.391 301.672C729.642 300.65 729.258 299.165 729.238 297.219V294.67C729.238 292.671 729.609 291.158 730.352 290.129C731.094 289.1 732.178 288.586 733.604 288.586C735.01 288.586 736.084 289.084 736.826 290.08C737.568 291.07 737.952 292.531 737.979 294.465V297.072ZM736.807 294.523C736.807 292.896 736.54 291.665 736.006 290.832C735.479 289.999 734.678 289.582 733.604 289.582C732.549 289.582 731.755 289.989 731.221 290.803C730.687 291.617 730.413 292.818 730.4 294.406V297.199C730.4 298.82 730.674 300.061 731.221 300.92C731.774 301.779 732.575 302.209 733.623 302.209C734.665 302.209 735.452 301.789 735.986 300.949C736.527 300.109 736.8 298.879 736.807 297.258V294.523ZM749.072 297.072C749.072 299.077 748.704 300.601 747.969 301.643C747.233 302.678 746.149 303.195 744.717 303.195C743.311 303.195 742.233 302.688 741.484 301.672C740.736 300.65 740.352 299.165 740.332 297.219V294.67C740.332 292.671 740.703 291.158 741.445 290.129C742.188 289.1 743.271 288.586 744.697 288.586C746.104 288.586 747.178 289.084 747.92 290.08C748.662 291.07 749.046 292.531 749.072 294.465V297.072ZM747.9 294.523C747.9 292.896 747.633 291.665 747.1 290.832C746.572 289.999 745.771 289.582 744.697 289.582C743.643 289.582 742.848 289.989 742.314 290.803C741.781 291.617 741.507 292.818 741.494 294.406V297.199C741.494 298.82 741.768 300.061 742.314 300.92C742.868 301.779 743.669 302.209 744.717 302.209C745.758 302.209 746.546 301.789 747.08 300.949C747.62 300.109 747.894 298.879 747.9 297.258V294.523ZM751.533 305.656L750.84 305.148C751.432 304.354 751.738 303.531 751.758 302.678V301.164H752.9V302.385C752.9 303.739 752.445 304.829 751.533 305.656ZM763.994 297.072C763.994 299.077 763.626 300.601 762.891 301.643C762.155 302.678 761.071 303.195 759.639 303.195C758.232 303.195 757.155 302.688 756.406 301.672C755.658 300.65 755.273 299.165 755.254 297.219V294.67C755.254 292.671 755.625 291.158 756.367 290.129C757.109 289.1 758.193 288.586 759.619 288.586C761.025 288.586 762.1 289.084 762.842 290.08C763.584 291.07 763.968 292.531 763.994 294.465V297.072ZM762.822 294.523C762.822 292.896 762.555 291.665 762.021 290.832C761.494 289.999 760.693 289.582 759.619 289.582C758.564 289.582 757.77 289.989 757.236 290.803C756.702 291.617 756.429 292.818 756.416 294.406V297.199C756.416 298.82 756.689 300.061 757.236 300.92C757.79 301.779 758.59 302.209 759.639 302.209C760.68 302.209 761.468 301.789 762.002 300.949C762.542 300.109 762.816 298.879 762.822 297.258V294.523ZM775.088 297.072C775.088 299.077 774.72 300.601 773.984 301.643C773.249 302.678 772.165 303.195 770.732 303.195C769.326 303.195 768.249 302.688 767.5 301.672C766.751 300.65 766.367 299.165 766.348 297.219V294.67C766.348 292.671 766.719 291.158 767.461 290.129C768.203 289.1 769.287 288.586 770.713 288.586C772.119 288.586 773.193 289.084 773.936 290.08C774.678 291.07 775.062 292.531 775.088 294.465V297.072ZM773.916 294.523C773.916 292.896 773.649 291.665 773.115 290.832C772.588 289.999 771.787 289.582 770.713 289.582C769.658 289.582 768.864 289.989 768.33 290.803C767.796 291.617 767.523 292.818 767.51 294.406V297.199C767.51 298.82 767.783 300.061 768.33 300.92C768.883 301.779 769.684 302.209 770.732 302.209C771.774 302.209 772.562 301.789 773.096 300.949C773.636 300.109 773.91 298.879 773.916 297.258V294.523ZM786.182 297.072C786.182 299.077 785.814 300.601 785.078 301.643C784.342 302.678 783.258 303.195 781.826 303.195C780.42 303.195 779.342 302.688 778.594 301.672C777.845 300.65 777.461 299.165 777.441 297.219V294.67C777.441 292.671 777.812 291.158 778.555 290.129C779.297 289.1 780.381 288.586 781.807 288.586C783.213 288.586 784.287 289.084 785.029 290.08C785.771 291.07 786.156 292.531 786.182 294.465V297.072ZM785.01 294.523C785.01 292.896 784.743 291.665 784.209 290.832C783.682 289.999 782.881 289.582 781.807 289.582C780.752 289.582 779.958 289.989 779.424 290.803C778.89 291.617 778.617 292.818 778.604 294.406V297.199C778.604 298.82 778.877 300.061 779.424 300.92C779.977 301.779 780.778 302.209 781.826 302.209C782.868 302.209 783.656 301.789 784.189 300.949C784.73 300.109 785.003 298.879 785.01 297.258V294.523ZM788.643 305.656L787.949 305.148C788.542 304.354 788.848 303.531 788.867 302.678V301.164H790.01V302.385C790.01 303.739 789.554 304.829 788.643 305.656ZM801.104 297.072C801.104 299.077 800.736 300.601 800 301.643C799.264 302.678 798.18 303.195 796.748 303.195C795.342 303.195 794.264 302.688 793.516 301.672C792.767 300.65 792.383 299.165 792.363 297.219V294.67C792.363 292.671 792.734 291.158 793.477 290.129C794.219 289.1 795.303 288.586 796.729 288.586C798.135 288.586 799.209 289.084 799.951 290.08C800.693 291.07 801.077 292.531 801.104 294.465V297.072ZM799.932 294.523C799.932 292.896 799.665 291.665 799.131 290.832C798.604 289.999 797.803 289.582 796.729 289.582C795.674 289.582 794.88 289.989 794.346 290.803C793.812 291.617 793.538 292.818 793.525 294.406V297.199C793.525 298.82 793.799 300.061 794.346 300.92C794.899 301.779 795.7 302.209 796.748 302.209C797.79 302.209 798.577 301.789 799.111 300.949C799.652 300.109 799.925 298.879 799.932 297.258V294.523ZM812.197 297.072C812.197 299.077 811.829 300.601 811.094 301.643C810.358 302.678 809.274 303.195 807.842 303.195C806.436 303.195 805.358 302.688 804.609 301.672C803.861 300.65 803.477 299.165 803.457 297.219V294.67C803.457 292.671 803.828 291.158 804.57 290.129C805.312 289.1 806.396 288.586 807.822 288.586C809.229 288.586 810.303 289.084 811.045 290.08C811.787 291.07 812.171 292.531 812.197 294.465V297.072ZM811.025 294.523C811.025 292.896 810.758 291.665 810.225 290.832C809.697 289.999 808.896 289.582 807.822 289.582C806.768 289.582 805.973 289.989 805.439 290.803C804.906 291.617 804.632 292.818 804.619 294.406V297.199C804.619 298.82 804.893 300.061 805.439 300.92C805.993 301.779 806.794 302.209 807.842 302.209C808.883 302.209 809.671 301.789 810.205 300.949C810.745 300.109 811.019 298.879 811.025 297.258V294.523ZM823.291 297.072C823.291 299.077 822.923 300.601 822.188 301.643C821.452 302.678 820.368 303.195 818.936 303.195C817.529 303.195 816.452 302.688 815.703 301.672C814.954 300.65 814.57 299.165 814.551 297.219V294.67C814.551 292.671 814.922 291.158 815.664 290.129C816.406 289.1 817.49 288.586 818.916 288.586C820.322 288.586 821.396 289.084 822.139 290.08C822.881 291.07 823.265 292.531 823.291 294.465V297.072ZM822.119 294.523C822.119 292.896 821.852 291.665 821.318 290.832C820.791 289.999 819.99 289.582 818.916 289.582C817.861 289.582 817.067 289.989 816.533 290.803C815.999 291.617 815.726 292.818 815.713 294.406V297.199C815.713 298.82 815.986 300.061 816.533 300.92C817.087 301.779 817.887 302.209 818.936 302.209C819.977 302.209 820.765 301.789 821.299 300.949C821.839 300.109 822.113 298.879 822.119 297.258V294.523ZM580.244 326H571.338V325.102L576.211 319.574C577.018 318.643 577.578 317.875 577.891 317.27C578.203 316.664 578.359 316.075 578.359 315.502C578.359 314.604 578.096 313.894 577.568 313.373C577.041 312.846 576.315 312.582 575.391 312.582C574.434 312.582 573.659 312.888 573.066 313.5C572.48 314.112 572.188 314.906 572.188 315.883H571.025C571.025 315.082 571.204 314.353 571.562 313.695C571.927 313.038 572.441 312.523 573.105 312.152C573.776 311.775 574.538 311.586 575.391 311.586C576.693 311.586 577.708 311.928 578.438 312.611C579.173 313.295 579.541 314.226 579.541 315.404C579.541 316.068 579.333 316.794 578.916 317.582C578.506 318.37 577.78 319.353 576.738 320.531L572.773 325.014H580.244V326ZM589.609 321.42H591.826V322.406H589.609V326H588.438V322.406H581.748V321.742L588.33 311.781H589.609V321.42ZM583.184 321.42H588.438V313.295L587.92 314.193L583.184 321.42ZM594.873 317.221C595.257 316.589 595.749 316.101 596.348 315.756C596.947 315.411 597.601 315.238 598.311 315.238C599.443 315.238 600.286 315.557 600.84 316.195C601.393 316.833 601.673 317.79 601.68 319.066V326H600.518V319.057C600.511 318.113 600.309 317.41 599.912 316.947C599.521 316.485 598.893 316.254 598.027 316.254C597.305 316.254 596.663 316.482 596.104 316.938C595.55 317.387 595.14 317.995 594.873 318.764V326H593.711V311H594.873V317.221ZM614.111 324.242L614.189 324.545L614.277 324.242L618.75 311.781H620.068L614.775 326H613.623L608.33 311.781H609.639L614.111 324.242ZM620.801 320.561C620.801 319.545 620.996 318.63 621.387 317.816C621.784 317.003 622.34 316.371 623.057 315.922C623.779 315.466 624.596 315.238 625.508 315.238C626.914 315.238 628.053 315.733 628.926 316.723C629.798 317.706 630.234 319.011 630.234 320.639V320.883C630.234 321.905 630.036 322.826 629.639 323.646C629.248 324.46 628.695 325.089 627.979 325.531C627.262 325.974 626.445 326.195 625.527 326.195C624.128 326.195 622.988 325.704 622.109 324.721C621.237 323.731 620.801 322.423 620.801 320.795V320.561ZM621.973 320.883C621.973 322.146 622.298 323.184 622.949 323.998C623.607 324.805 624.466 325.209 625.527 325.209C626.582 325.209 627.435 324.805 628.086 323.998C628.743 323.184 629.072 322.113 629.072 320.785V320.561C629.072 319.753 628.923 319.014 628.623 318.344C628.324 317.673 627.904 317.156 627.363 316.791C626.823 316.42 626.204 316.234 625.508 316.234C624.466 316.234 623.617 316.645 622.959 317.465C622.301 318.279 621.973 319.346 621.973 320.668V320.883ZM633.965 326H632.793V311H633.965V326ZM636.865 325.297C636.865 325.069 636.937 324.877 637.08 324.721C637.23 324.558 637.435 324.477 637.695 324.477C637.956 324.477 638.161 324.558 638.311 324.721C638.46 324.877 638.535 325.069 638.535 325.297C638.535 325.525 638.46 325.714 638.311 325.863C638.161 326.007 637.956 326.078 637.695 326.078C637.435 326.078 637.23 326.007 637.08 325.863C636.937 325.714 636.865 325.525 636.865 325.297ZM636.885 316.283C636.885 316.055 636.956 315.863 637.1 315.707C637.249 315.544 637.454 315.463 637.715 315.463C637.975 315.463 638.18 315.544 638.33 315.707C638.48 315.863 638.555 316.055 638.555 316.283C638.555 316.511 638.48 316.7 638.33 316.85C638.18 316.993 637.975 317.064 637.715 317.064C637.454 317.064 637.249 316.993 637.1 316.85C636.956 316.7 636.885 316.511 636.885 316.283ZM654.6 320.072C654.6 322.077 654.232 323.601 653.496 324.643C652.76 325.678 651.676 326.195 650.244 326.195C648.838 326.195 647.76 325.688 647.012 324.672C646.263 323.65 645.879 322.165 645.859 320.219V317.67C645.859 315.671 646.23 314.158 646.973 313.129C647.715 312.1 648.799 311.586 650.225 311.586C651.631 311.586 652.705 312.084 653.447 313.08C654.189 314.07 654.574 315.531 654.6 317.465V320.072ZM653.428 317.523C653.428 315.896 653.161 314.665 652.627 313.832C652.1 312.999 651.299 312.582 650.225 312.582C649.17 312.582 648.376 312.989 647.842 313.803C647.308 314.617 647.035 315.818 647.021 317.406V320.199C647.021 321.82 647.295 323.061 647.842 323.92C648.395 324.779 649.196 325.209 650.244 325.209C651.286 325.209 652.074 324.789 652.607 323.949C653.148 323.109 653.421 321.879 653.428 320.258V317.523ZM665.693 320.072C665.693 322.077 665.326 323.601 664.59 324.643C663.854 325.678 662.77 326.195 661.338 326.195C659.932 326.195 658.854 325.688 658.105 324.672C657.357 323.65 656.973 322.165 656.953 320.219V317.67C656.953 315.671 657.324 314.158 658.066 313.129C658.809 312.1 659.893 311.586 661.318 311.586C662.725 311.586 663.799 312.084 664.541 313.08C665.283 314.07 665.667 315.531 665.693 317.465V320.072ZM664.521 317.523C664.521 315.896 664.255 314.665 663.721 313.832C663.193 312.999 662.393 312.582 661.318 312.582C660.264 312.582 659.469 312.989 658.936 313.803C658.402 314.617 658.128 315.818 658.115 317.406V320.199C658.115 321.82 658.389 323.061 658.936 323.92C659.489 324.779 660.29 325.209 661.338 325.209C662.38 325.209 663.167 324.789 663.701 323.949C664.242 323.109 664.515 321.879 664.521 320.258V317.523ZM668.154 328.656L667.461 328.148C668.053 327.354 668.359 326.531 668.379 325.678V324.164H669.521V325.385C669.521 326.739 669.066 327.829 668.154 328.656ZM680.615 320.072C680.615 322.077 680.247 323.601 679.512 324.643C678.776 325.678 677.692 326.195 676.26 326.195C674.854 326.195 673.776 325.688 673.027 324.672C672.279 323.65 671.895 322.165 671.875 320.219V317.67C671.875 315.671 672.246 314.158 672.988 313.129C673.73 312.1 674.814 311.586 676.24 311.586C677.646 311.586 678.721 312.084 679.463 313.08C680.205 314.07 680.589 315.531 680.615 317.465V320.072ZM679.443 317.523C679.443 315.896 679.176 314.665 678.643 313.832C678.115 312.999 677.314 312.582 676.24 312.582C675.186 312.582 674.391 312.989 673.857 313.803C673.324 314.617 673.05 315.818 673.037 317.406V320.199C673.037 321.82 673.311 323.061 673.857 323.92C674.411 324.779 675.212 325.209 676.26 325.209C677.301 325.209 678.089 324.789 678.623 323.949C679.163 323.109 679.437 321.879 679.443 320.258V317.523ZM691.709 320.072C691.709 322.077 691.341 323.601 690.605 324.643C689.87 325.678 688.786 326.195 687.354 326.195C685.947 326.195 684.87 325.688 684.121 324.672C683.372 323.65 682.988 322.165 682.969 320.219V317.67C682.969 315.671 683.34 314.158 684.082 313.129C684.824 312.1 685.908 311.586 687.334 311.586C688.74 311.586 689.814 312.084 690.557 313.08C691.299 314.07 691.683 315.531 691.709 317.465V320.072ZM690.537 317.523C690.537 315.896 690.27 314.665 689.736 313.832C689.209 312.999 688.408 312.582 687.334 312.582C686.279 312.582 685.485 312.989 684.951 313.803C684.417 314.617 684.144 315.818 684.131 317.406V320.199C684.131 321.82 684.404 323.061 684.951 323.92C685.505 324.779 686.305 325.209 687.354 325.209C688.395 325.209 689.183 324.789 689.717 323.949C690.257 323.109 690.531 321.879 690.537 320.258V317.523ZM702.803 320.072C702.803 322.077 702.435 323.601 701.699 324.643C700.964 325.678 699.88 326.195 698.447 326.195C697.041 326.195 695.964 325.688 695.215 324.672C694.466 323.65 694.082 322.165 694.062 320.219V317.67C694.062 315.671 694.434 314.158 695.176 313.129C695.918 312.1 697.002 311.586 698.428 311.586C699.834 311.586 700.908 312.084 701.65 313.08C702.393 314.07 702.777 315.531 702.803 317.465V320.072ZM701.631 317.523C701.631 315.896 701.364 314.665 700.83 313.832C700.303 312.999 699.502 312.582 698.428 312.582C697.373 312.582 696.579 312.989 696.045 313.803C695.511 314.617 695.238 315.818 695.225 317.406V320.199C695.225 321.82 695.498 323.061 696.045 323.92C696.598 324.779 697.399 325.209 698.447 325.209C699.489 325.209 700.277 324.789 700.811 323.949C701.351 323.109 701.624 321.879 701.631 320.258V317.523ZM705.264 328.656L704.57 328.148C705.163 327.354 705.469 326.531 705.488 325.678V324.164H706.631V325.385C706.631 326.739 706.175 327.829 705.264 328.656ZM717.725 320.072C717.725 322.077 717.357 323.601 716.621 324.643C715.885 325.678 714.801 326.195 713.369 326.195C711.963 326.195 710.885 325.688 710.137 324.672C709.388 323.65 709.004 322.165 708.984 320.219V317.67C708.984 315.671 709.355 314.158 710.098 313.129C710.84 312.1 711.924 311.586 713.35 311.586C714.756 311.586 715.83 312.084 716.572 313.08C717.314 314.07 717.699 315.531 717.725 317.465V320.072ZM716.553 317.523C716.553 315.896 716.286 314.665 715.752 313.832C715.225 312.999 714.424 312.582 713.35 312.582C712.295 312.582 711.501 312.989 710.967 313.803C710.433 314.617 710.16 315.818 710.146 317.406V320.199C710.146 321.82 710.42 323.061 710.967 323.92C711.52 324.779 712.321 325.209 713.369 325.209C714.411 325.209 715.199 324.789 715.732 323.949C716.273 323.109 716.546 321.879 716.553 320.258V317.523ZM728.818 320.072C728.818 322.077 728.451 323.601 727.715 324.643C726.979 325.678 725.895 326.195 724.463 326.195C723.057 326.195 721.979 325.688 721.23 324.672C720.482 323.65 720.098 322.165 720.078 320.219V317.67C720.078 315.671 720.449 314.158 721.191 313.129C721.934 312.1 723.018 311.586 724.443 311.586C725.85 311.586 726.924 312.084 727.666 313.08C728.408 314.07 728.792 315.531 728.818 317.465V320.072ZM727.646 317.523C727.646 315.896 727.38 314.665 726.846 313.832C726.318 312.999 725.518 312.582 724.443 312.582C723.389 312.582 722.594 312.989 722.061 313.803C721.527 314.617 721.253 315.818 721.24 317.406V320.199C721.24 321.82 721.514 323.061 722.061 323.92C722.614 324.779 723.415 325.209 724.463 325.209C725.505 325.209 726.292 324.789 726.826 323.949C727.367 323.109 727.64 321.879 727.646 320.258V317.523ZM739.912 320.072C739.912 322.077 739.544 323.601 738.809 324.643C738.073 325.678 736.989 326.195 735.557 326.195C734.15 326.195 733.073 325.688 732.324 324.672C731.576 323.65 731.191 322.165 731.172 320.219V317.67C731.172 315.671 731.543 314.158 732.285 313.129C733.027 312.1 734.111 311.586 735.537 311.586C736.943 311.586 738.018 312.084 738.76 313.08C739.502 314.07 739.886 315.531 739.912 317.465V320.072ZM738.74 317.523C738.74 315.896 738.473 314.665 737.939 313.832C737.412 312.999 736.611 312.582 735.537 312.582C734.482 312.582 733.688 312.989 733.154 313.803C732.62 314.617 732.347 315.818 732.334 317.406V320.199C732.334 321.82 732.607 323.061 733.154 323.92C733.708 324.779 734.508 325.209 735.557 325.209C736.598 325.209 737.386 324.789 737.92 323.949C738.46 323.109 738.734 321.879 738.74 320.258V317.523ZM742.373 328.656L741.68 328.148C742.272 327.354 742.578 326.531 742.598 325.678V324.164H743.74V325.385C743.74 326.739 743.285 327.829 742.373 328.656ZM754.834 320.072C754.834 322.077 754.466 323.601 753.73 324.643C752.995 325.678 751.911 326.195 750.479 326.195C749.072 326.195 747.995 325.688 747.246 324.672C746.497 323.65 746.113 322.165 746.094 320.219V317.67C746.094 315.671 746.465 314.158 747.207 313.129C747.949 312.1 749.033 311.586 750.459 311.586C751.865 311.586 752.939 312.084 753.682 313.08C754.424 314.07 754.808 315.531 754.834 317.465V320.072ZM753.662 317.523C753.662 315.896 753.395 314.665 752.861 313.832C752.334 312.999 751.533 312.582 750.459 312.582C749.404 312.582 748.61 312.989 748.076 313.803C747.542 314.617 747.269 315.818 747.256 317.406V320.199C747.256 321.82 747.529 323.061 748.076 323.92C748.63 324.779 749.43 325.209 750.479 325.209C751.52 325.209 752.308 324.789 752.842 323.949C753.382 323.109 753.656 321.879 753.662 320.258V317.523ZM765.928 320.072C765.928 322.077 765.56 323.601 764.824 324.643C764.089 325.678 763.005 326.195 761.572 326.195C760.166 326.195 759.089 325.688 758.34 324.672C757.591 323.65 757.207 322.165 757.188 320.219V317.67C757.188 315.671 757.559 314.158 758.301 313.129C759.043 312.1 760.127 311.586 761.553 311.586C762.959 311.586 764.033 312.084 764.775 313.08C765.518 314.07 765.902 315.531 765.928 317.465V320.072ZM764.756 317.523C764.756 315.896 764.489 314.665 763.955 313.832C763.428 312.999 762.627 312.582 761.553 312.582C760.498 312.582 759.704 312.989 759.17 313.803C758.636 314.617 758.363 315.818 758.35 317.406V320.199C758.35 321.82 758.623 323.061 759.17 323.92C759.723 324.779 760.524 325.209 761.572 325.209C762.614 325.209 763.402 324.789 763.936 323.949C764.476 323.109 764.749 321.879 764.756 320.258V317.523ZM777.021 320.072C777.021 322.077 776.654 323.601 775.918 324.643C775.182 325.678 774.098 326.195 772.666 326.195C771.26 326.195 770.182 325.688 769.434 324.672C768.685 323.65 768.301 322.165 768.281 320.219V317.67C768.281 315.671 768.652 314.158 769.395 313.129C770.137 312.1 771.221 311.586 772.646 311.586C774.053 311.586 775.127 312.084 775.869 313.08C776.611 314.07 776.995 315.531 777.021 317.465V320.072ZM775.85 317.523C775.85 315.896 775.583 314.665 775.049 313.832C774.521 312.999 773.721 312.582 772.646 312.582C771.592 312.582 770.798 312.989 770.264 313.803C769.73 314.617 769.456 315.818 769.443 317.406V320.199C769.443 321.82 769.717 323.061 770.264 323.92C770.817 324.779 771.618 325.209 772.666 325.209C773.708 325.209 774.495 324.789 775.029 323.949C775.57 323.109 775.843 321.879 775.85 320.258V317.523Z" fill="#18181A"/>
<line x1="853" y1="345" x2="853" y2="1047" stroke="white" stroke-width="2"/>
<rect x="853.143" y="389" width="20" height="20" transform="rotate(45 853.143 389)" fill="white"/>
</svg>
