<svg width="459" height="32" viewBox="0 0 459 32" fill="none" xmlns="http://www.w3.org/2000/svg">
<path d="M15.4839 18.877H5.65479L3.44727 25H0.256836L9.21582 1.53906H11.9229L20.8979 25H17.7236L15.4839 18.877ZM6.58936 16.3311H14.5654L10.5693 5.35791L6.58936 16.3311ZM34.1592 23.2759C32.999 24.6401 31.2964 25.3223 29.0513 25.3223C27.1929 25.3223 25.7749 24.7852 24.7974 23.7109C23.8306 22.626 23.3418 21.0254 23.3311 18.9092V7.56543H26.312V18.8286C26.312 21.4712 27.3862 22.7925 29.5347 22.7925C31.812 22.7925 33.3267 21.9438 34.0786 20.2466V7.56543H37.0596V25H34.2236L34.1592 23.2759ZM45.6479 3.34375V7.56543H48.9028V9.86963H45.6479V20.6816C45.6479 21.3799 45.793 21.9062 46.083 22.2607C46.373 22.6045 46.8672 22.7764 47.5654 22.7764C47.9092 22.7764 48.3818 22.7119 48.9834 22.583V25C48.1992 25.2148 47.4365 25.3223 46.6953 25.3223C45.3633 25.3223 44.3589 24.9194 43.6821 24.1138C43.0054 23.3081 42.667 22.1641 42.667 20.6816V9.86963H39.4927V7.56543H42.667V3.34375H45.6479ZM55.3804 9.67627C56.7017 8.0542 58.4204 7.24316 60.5366 7.24316C64.2212 7.24316 66.0796 9.32178 66.1118 13.479V25H63.1309V13.4629C63.1201 12.2061 62.8301 11.2769 62.2607 10.6753C61.7021 10.0737 60.8267 9.77295 59.6343 9.77295C58.6675 9.77295 57.8188 10.0308 57.0884 10.5464C56.3579 11.062 55.7886 11.7388 55.3804 12.5767V25H52.3994V0.25H55.3804V9.67627ZM69.7856 16.1216C69.7856 14.4136 70.1187 12.8774 70.7847 11.5132C71.4614 10.1489 72.396 9.09619 73.5884 8.35498C74.7915 7.61377 76.1611 7.24316 77.6973 7.24316C80.0713 7.24316 81.9888 8.06494 83.4497 9.7085C84.9214 11.3521 85.6572 13.5381 85.6572 16.2666V16.4761C85.6572 18.1733 85.3296 19.6987 84.6743 21.0522C84.0298 22.395 83.1006 23.4424 81.8867 24.1943C80.6836 24.9463 79.2979 25.3223 77.7295 25.3223C75.3662 25.3223 73.4487 24.5005 71.9771 22.8569C70.5161 21.2134 69.7856 19.0381 69.7856 16.3311V16.1216ZM72.7827 16.4761C72.7827 18.4097 73.2285 19.9619 74.1201 21.1328C75.0225 22.3037 76.2256 22.8892 77.7295 22.8892C79.2441 22.8892 80.4473 22.2983 81.3389 21.1167C82.2305 19.9243 82.6763 18.2593 82.6763 16.1216C82.6763 14.2095 82.2197 12.6626 81.3066 11.481C80.4043 10.2886 79.2012 9.69238 77.6973 9.69238C76.2256 9.69238 75.0386 10.2778 74.1362 11.4487C73.2339 12.6196 72.7827 14.2954 72.7827 16.4761ZM97.8228 10.2402C97.3716 10.165 96.8828 10.1274 96.3564 10.1274C94.4014 10.1274 93.0747 10.96 92.3765 12.625V25H89.3955V7.56543H92.2959L92.3442 9.57959C93.3218 8.02197 94.7075 7.24316 96.5015 7.24316C97.0815 7.24316 97.522 7.31836 97.8228 7.46875V10.2402ZM103.817 25H100.836V7.56543H103.817V25ZM100.594 2.94092C100.594 2.45752 100.739 2.04932 101.029 1.71631C101.33 1.3833 101.771 1.2168 102.351 1.2168C102.931 1.2168 103.371 1.3833 103.672 1.71631C103.973 2.04932 104.123 2.45752 104.123 2.94092C104.123 3.42432 103.973 3.82715 103.672 4.14941C103.371 4.47168 102.931 4.63281 102.351 4.63281C101.771 4.63281 101.33 4.47168 101.029 4.14941C100.739 3.82715 100.594 3.42432 100.594 2.94092ZM111.406 22.5669H121.606V25H107.765V22.8086L117.384 10.0308H107.91V7.56543H121.123V9.67627L111.406 22.5669ZM131.951 25.3223C129.587 25.3223 127.665 24.5488 126.182 23.002C124.7 21.4443 123.958 19.3657 123.958 16.7661V16.2183C123.958 14.4888 124.286 12.9473 124.941 11.5938C125.607 10.2295 126.531 9.16602 127.713 8.40332C128.905 7.62988 130.194 7.24316 131.58 7.24316C133.847 7.24316 135.608 7.98975 136.865 9.48291C138.122 10.9761 138.75 13.1138 138.75 15.896V17.1367H126.939C126.982 18.8555 127.482 20.2466 128.438 21.3101C129.405 22.3628 130.629 22.8892 132.112 22.8892C133.165 22.8892 134.056 22.6743 134.787 22.2446C135.517 21.8149 136.156 21.2456 136.704 20.5366L138.525 21.9546C137.064 24.1997 134.873 25.3223 131.951 25.3223ZM131.58 9.69238C130.377 9.69238 129.367 10.1328 128.551 11.0137C127.734 11.8838 127.229 13.1084 127.036 14.6875H135.77V14.4619C135.684 12.9473 135.275 11.7764 134.545 10.9492C133.814 10.1113 132.826 9.69238 131.58 9.69238ZM141.49 16.1377C141.49 13.4629 142.124 11.3145 143.391 9.69238C144.659 8.05957 146.318 7.24316 148.37 7.24316C150.411 7.24316 152.028 7.94141 153.22 9.33789V0.25H156.201V25H153.462L153.317 23.1309C152.125 24.5918 150.465 25.3223 148.338 25.3223C146.318 25.3223 144.669 24.4951 143.391 22.8408C142.124 21.1865 141.49 19.0273 141.49 16.3633V16.1377ZM144.471 16.4761C144.471 18.4526 144.879 19.9995 145.695 21.1167C146.512 22.2339 147.64 22.7925 149.079 22.7925C150.97 22.7925 152.35 21.9438 153.22 20.2466V12.2383C152.329 10.5947 150.959 9.77295 149.111 9.77295C147.65 9.77295 146.512 10.3369 145.695 11.4648C144.879 12.5928 144.471 14.2632 144.471 16.4761ZM178.099 15.5093H172.588V25H169.479V1.53906H177.245C179.888 1.53906 181.918 2.14062 183.336 3.34375C184.765 4.54688 185.479 6.29785 185.479 8.59668C185.479 10.0576 185.082 11.3306 184.287 12.4155C183.502 13.5005 182.407 14.3115 181 14.8486L186.51 24.8066V25H183.191L178.099 15.5093ZM172.588 12.9795H177.342C178.878 12.9795 180.097 12.582 181 11.7871C181.913 10.9922 182.369 9.92871 182.369 8.59668C182.369 7.14648 181.934 6.03467 181.064 5.26123C180.205 4.48779 178.958 4.0957 177.326 4.08496H172.588V12.9795ZM196.597 25.3223C194.234 25.3223 192.311 24.5488 190.829 23.002C189.346 21.4443 188.605 19.3657 188.605 16.7661V16.2183C188.605 14.4888 188.933 12.9473 189.588 11.5938C190.254 10.2295 191.178 9.16602 192.359 8.40332C193.552 7.62988 194.841 7.24316 196.227 7.24316C198.493 7.24316 200.255 7.98975 201.512 9.48291C202.769 10.9761 203.397 13.1138 203.397 15.896V17.1367H191.586C191.629 18.8555 192.128 20.2466 193.084 21.3101C194.051 22.3628 195.276 22.8892 196.758 22.8892C197.811 22.8892 198.703 22.6743 199.433 22.2446C200.164 21.8149 200.803 21.2456 201.351 20.5366L203.171 21.9546C201.71 24.1997 199.519 25.3223 196.597 25.3223ZM196.227 9.69238C195.023 9.69238 194.014 10.1328 193.197 11.0137C192.381 11.8838 191.876 13.1084 191.683 14.6875H200.416V14.4619C200.33 12.9473 199.922 11.7764 199.191 10.9492C198.461 10.1113 197.473 9.69238 196.227 9.69238ZM217.625 25C217.453 24.6562 217.313 24.0439 217.206 23.1631C215.82 24.6025 214.166 25.3223 212.243 25.3223C210.524 25.3223 209.112 24.8389 208.005 23.8721C206.91 22.8945 206.362 21.6592 206.362 20.166C206.362 18.3506 207.049 16.9434 208.424 15.9443C209.81 14.9346 211.754 14.4297 214.257 14.4297H217.158V13.0601C217.158 12.0181 216.846 11.1909 216.223 10.5786C215.6 9.95557 214.682 9.64404 213.468 9.64404C212.404 9.64404 211.513 9.9126 210.793 10.4497C210.073 10.9868 209.713 11.6367 209.713 12.3994H206.716C206.716 11.5293 207.022 10.6914 207.635 9.88574C208.258 9.06934 209.096 8.4248 210.148 7.95215C211.212 7.47949 212.377 7.24316 213.645 7.24316C215.654 7.24316 217.228 7.74805 218.366 8.75781C219.505 9.75684 220.096 11.1372 220.139 12.8989V20.9233C220.139 22.5239 220.343 23.7969 220.751 24.7422V25H217.625ZM212.678 22.728C213.613 22.728 214.499 22.4863 215.337 22.0029C216.175 21.5195 216.782 20.8911 217.158 20.1177V16.5405H214.821C211.169 16.5405 209.343 17.6094 209.343 19.7471C209.343 20.6816 209.654 21.4121 210.277 21.9385C210.9 22.4648 211.701 22.728 212.678 22.728ZM228.05 25H225.069V0.25H228.05V25ZM236.88 3.34375V7.56543H240.135V9.86963H236.88V20.6816C236.88 21.3799 237.025 21.9062 237.315 22.2607C237.605 22.6045 238.1 22.7764 238.798 22.7764C239.142 22.7764 239.614 22.7119 240.216 22.583V25C239.432 25.2148 238.669 25.3223 237.928 25.3223C236.596 25.3223 235.591 24.9194 234.915 24.1138C234.238 23.3081 233.899 22.1641 233.899 20.6816V9.86963H230.725V7.56543H233.899V3.34375H236.88ZM246.871 25H243.89V7.56543H246.871V25ZM243.648 2.94092C243.648 2.45752 243.793 2.04932 244.083 1.71631C244.384 1.3833 244.824 1.2168 245.404 1.2168C245.984 1.2168 246.425 1.3833 246.726 1.71631C247.026 2.04932 247.177 2.45752 247.177 2.94092C247.177 3.42432 247.026 3.82715 246.726 4.14941C246.425 4.47168 245.984 4.63281 245.404 4.63281C244.824 4.63281 244.384 4.47168 244.083 4.14941C243.793 3.82715 243.648 3.42432 243.648 2.94092ZM254.46 7.56543L254.541 9.49902C255.819 7.99512 257.543 7.24316 259.713 7.24316C262.151 7.24316 263.811 8.17773 264.692 10.0469C265.272 9.20898 266.024 8.53223 266.948 8.0166C267.882 7.50098 268.983 7.24316 270.251 7.24316C274.075 7.24316 276.02 9.26807 276.084 13.3179V25H273.103V13.4951C273.103 12.249 272.818 11.3198 272.249 10.7075C271.68 10.0845 270.724 9.77295 269.381 9.77295C268.274 9.77295 267.356 10.106 266.625 10.772C265.895 11.4272 265.471 12.3135 265.353 13.4307V25H262.355V13.5757C262.355 11.0405 261.115 9.77295 258.633 9.77295C256.678 9.77295 255.341 10.6055 254.621 12.2705V25H251.64V7.56543H254.46ZM287.831 25.3223C285.467 25.3223 283.544 24.5488 282.062 23.002C280.58 21.4443 279.838 19.3657 279.838 16.7661V16.2183C279.838 14.4888 280.166 12.9473 280.821 11.5938C281.487 10.2295 282.411 9.16602 283.593 8.40332C284.785 7.62988 286.074 7.24316 287.46 7.24316C289.727 7.24316 291.488 7.98975 292.745 9.48291C294.002 10.9761 294.63 13.1138 294.63 15.896V17.1367H282.819C282.862 18.8555 283.362 20.2466 284.318 21.3101C285.285 22.3628 286.509 22.8892 287.992 22.8892C289.044 22.8892 289.936 22.6743 290.667 22.2446C291.397 21.8149 292.036 21.2456 292.584 20.5366L294.405 21.9546C292.944 24.1997 290.752 25.3223 287.831 25.3223ZM287.46 9.69238C286.257 9.69238 285.247 10.1328 284.431 11.0137C283.614 11.8838 283.109 13.1084 282.916 14.6875H291.649V14.4619C291.563 12.9473 291.155 11.7764 290.425 10.9492C289.694 10.1113 288.706 9.69238 287.46 9.69238ZM323.264 1.53906V17.4912C323.253 19.7041 322.555 21.5142 321.169 22.9214C319.794 24.3286 317.925 25.1182 315.562 25.29L314.74 25.3223C312.172 25.3223 310.126 24.6294 308.601 23.2437C307.075 21.8579 306.302 19.9512 306.28 17.5234V1.53906H309.342V17.4268C309.342 19.124 309.809 20.4453 310.744 21.3906C311.678 22.3252 313.01 22.7925 314.74 22.7925C316.491 22.7925 317.828 22.3252 318.752 21.3906C319.687 20.4561 320.154 19.1401 320.154 17.4429V1.53906H323.264ZM337.83 20.3755C337.83 19.5698 337.524 18.9468 336.912 18.5063C336.31 18.0552 335.252 17.6685 333.737 17.3462C332.233 17.0239 331.036 16.6372 330.144 16.186C329.263 15.7349 328.608 15.1978 328.178 14.5747C327.759 13.9517 327.55 13.2104 327.55 12.3511C327.55 10.9224 328.151 9.71387 329.354 8.72559C330.568 7.7373 332.115 7.24316 333.995 7.24316C335.972 7.24316 337.572 7.75342 338.797 8.77393C340.032 9.79443 340.65 11.0996 340.65 12.6895H337.653C337.653 11.873 337.304 11.1694 336.605 10.5786C335.918 9.98779 335.048 9.69238 333.995 9.69238C332.91 9.69238 332.062 9.92871 331.449 10.4014C330.837 10.874 330.531 11.4917 330.531 12.2544C330.531 12.9741 330.815 13.5166 331.385 13.8818C331.954 14.2471 332.98 14.5962 334.462 14.9292C335.956 15.2622 337.164 15.6597 338.088 16.1216C339.012 16.5835 339.694 17.1421 340.134 17.7974C340.585 18.4419 340.811 19.2314 340.811 20.166C340.811 21.7236 340.188 22.9751 338.942 23.9204C337.696 24.855 336.079 25.3223 334.092 25.3223C332.695 25.3223 331.46 25.0752 330.386 24.5811C329.312 24.0869 328.468 23.3994 327.856 22.5186C327.254 21.627 326.954 20.6655 326.954 19.6343H329.935C329.988 20.6333 330.386 21.4282 331.127 22.019C331.879 22.5991 332.867 22.8892 334.092 22.8892C335.22 22.8892 336.122 22.6636 336.799 22.2124C337.486 21.7505 337.83 21.1382 337.83 20.3755ZM351.929 25.3223C349.566 25.3223 347.643 24.5488 346.161 23.002C344.678 21.4443 343.937 19.3657 343.937 16.7661V16.2183C343.937 14.4888 344.265 12.9473 344.92 11.5938C345.586 10.2295 346.51 9.16602 347.691 8.40332C348.884 7.62988 350.173 7.24316 351.559 7.24316C353.825 7.24316 355.587 7.98975 356.844 9.48291C358.101 10.9761 358.729 13.1138 358.729 15.896V17.1367H346.918C346.961 18.8555 347.46 20.2466 348.417 21.3101C349.383 22.3628 350.608 22.8892 352.09 22.8892C353.143 22.8892 354.035 22.6743 354.765 22.2446C355.496 21.8149 356.135 21.2456 356.683 20.5366L358.503 21.9546C357.042 24.1997 354.851 25.3223 351.929 25.3223ZM351.559 9.69238C350.355 9.69238 349.346 10.1328 348.529 11.0137C347.713 11.8838 347.208 13.1084 347.015 14.6875H355.748V14.4619C355.662 12.9473 355.254 11.7764 354.523 10.9492C353.793 10.1113 352.805 9.69238 351.559 9.69238ZM370.621 10.2402C370.169 10.165 369.681 10.1274 369.154 10.1274C367.199 10.1274 365.873 10.96 365.174 12.625V25H362.193V7.56543H365.094L365.142 9.57959C366.12 8.02197 367.505 7.24316 369.299 7.24316C369.879 7.24316 370.32 7.31836 370.621 7.46875V10.2402ZM388.941 14.5425C386.288 13.7798 384.354 12.8452 383.141 11.7388C381.938 10.6216 381.336 9.24658 381.336 7.61377C381.336 5.76611 382.072 4.24072 383.543 3.0376C385.026 1.82373 386.949 1.2168 389.312 1.2168C390.923 1.2168 392.357 1.52832 393.614 2.15137C394.882 2.77441 395.859 3.63379 396.547 4.72949C397.245 5.8252 397.594 7.02295 397.594 8.32275H394.484C394.484 6.90479 394.033 5.79297 393.131 4.9873C392.229 4.1709 390.956 3.7627 389.312 3.7627C387.787 3.7627 386.594 4.10107 385.735 4.77783C384.886 5.44385 384.462 6.37305 384.462 7.56543C384.462 8.52148 384.865 9.33252 385.67 9.99854C386.487 10.6538 387.867 11.2554 389.812 11.8032C391.767 12.3511 393.292 12.958 394.388 13.624C395.494 14.2793 396.311 15.0474 396.837 15.9282C397.374 16.8091 397.643 17.8457 397.643 19.0381C397.643 20.9395 396.901 22.4648 395.419 23.6143C393.937 24.7529 391.955 25.3223 389.473 25.3223C387.862 25.3223 386.358 25.0161 384.961 24.4038C383.565 23.7808 382.485 22.9321 381.723 21.8579C380.971 20.7837 380.595 19.5645 380.595 18.2002H383.705C383.705 19.6182 384.226 20.7407 385.268 21.5679C386.32 22.3843 387.722 22.7925 389.473 22.7925C391.106 22.7925 392.357 22.4595 393.228 21.7935C394.098 21.1274 394.533 20.2197 394.533 19.0703C394.533 17.9209 394.13 17.0347 393.324 16.4116C392.519 15.7778 391.058 15.1548 388.941 14.5425ZM416.592 20.8911L419.943 7.56543H422.924L417.849 25H415.432L411.194 11.7871L407.069 25H404.652L399.592 7.56543H402.557L405.989 20.6172L410.05 7.56543H412.451L416.592 20.8911ZM436.733 25C436.562 24.6562 436.422 24.0439 436.314 23.1631C434.929 24.6025 433.274 25.3223 431.352 25.3223C429.633 25.3223 428.22 24.8389 427.114 23.8721C426.018 22.8945 425.47 21.6592 425.47 20.166C425.47 18.3506 426.158 16.9434 427.533 15.9443C428.918 14.9346 430.863 14.4297 433.366 14.4297H436.266V13.0601C436.266 12.0181 435.955 11.1909 435.332 10.5786C434.708 9.95557 433.79 9.64404 432.576 9.64404C431.513 9.64404 430.621 9.9126 429.901 10.4497C429.182 10.9868 428.822 11.6367 428.822 12.3994H425.825C425.825 11.5293 426.131 10.6914 426.743 9.88574C427.366 9.06934 428.204 8.4248 429.257 7.95215C430.32 7.47949 431.486 7.24316 432.753 7.24316C434.762 7.24316 436.336 7.74805 437.475 8.75781C438.613 9.75684 439.204 11.1372 439.247 12.8989V20.9233C439.247 22.5239 439.451 23.7969 439.859 24.7422V25H436.733ZM431.787 22.728C432.721 22.728 433.607 22.4863 434.445 22.0029C435.283 21.5195 435.89 20.8911 436.266 20.1177V16.5405H433.93C430.277 16.5405 428.451 17.6094 428.451 19.7471C428.451 20.6816 428.763 21.4121 429.386 21.9385C430.009 22.4648 430.809 22.728 431.787 22.728ZM458.647 16.4761C458.647 19.1294 458.041 21.2671 456.827 22.8892C455.613 24.5112 453.969 25.3223 451.896 25.3223C449.78 25.3223 448.115 24.6509 446.901 23.3081V31.7031H443.92V7.56543H446.643L446.788 9.49902C448.002 7.99512 449.688 7.24316 451.848 7.24316C453.942 7.24316 455.597 8.03271 456.811 9.61182C458.035 11.1909 458.647 13.3877 458.647 16.2021V16.4761ZM455.667 16.1377C455.667 14.1719 455.248 12.6196 454.41 11.481C453.572 10.3423 452.422 9.77295 450.961 9.77295C449.157 9.77295 447.803 10.5732 446.901 12.1738V20.5044C447.792 22.0942 449.157 22.8892 450.994 22.8892C452.422 22.8892 453.556 22.3252 454.394 21.1973C455.242 20.0586 455.667 18.3721 455.667 16.1377Z" fill="white"/>
</svg>
