<svg width="161" height="187" viewBox="0 0 161 187" fill="none" xmlns="http://www.w3.org/2000/svg">
<path d="M13.1484 101.989H17.6796V90.5957C17.6778 87.0828 20.3508 84.1421 23.847 83.8012H31.9121V77.3976C32.1228 72.7677 29.9802 68.3486 26.2118 65.6504" stroke="black" stroke-width="6" stroke-miterlimit="22.9256" stroke-linejoin="bevel"/>
<path fill-rule="evenodd" clip-rule="evenodd" d="M94.199 69.903L114.038 39.7093C120.533 29.7923 118.708 16.6024 109.763 8.82218C100.819 1.04191 87.5035 1.06145 78.582 8.86794C69.6605 16.6744 67.8356 29.8114 74.3599 39.7093L94.199 69.903H94.199Z" stroke="black" stroke-width="6" stroke-miterlimit="22.9256" stroke-linejoin="bevel"/>
<path d="M74.8896 62.6582C68.4783 64.0652 64.1465 70.0521 64.8307 76.5803V82.5947H90.1897L107.901 101.674H118.988L122.304 97.7652H129.738L137.875 109.008H146.744" stroke="black" stroke-width="6" stroke-miterlimit="22.9256" stroke-linejoin="bevel"/>
<path fill-rule="evenodd" clip-rule="evenodd" d="M91.5051 102.418H71.0499L60.7417 112.235V127.524H75.3986L83.4518 133.961V162.768H95.3706L108.739 149.572V118.189L91.5051 102.418Z" stroke="black" stroke-width="6" stroke-miterlimit="22.9256" stroke-linejoin="bevel"/>
<path d="M60.7921 31.541C33.9891 38.6412 13.0071 59.4966 5.7448 86.2562C-1.51745 113.016 5.8364 141.409 25.3727 161.085C47.2728 183.067 80.1584 189.898 109.001 178.455C137.844 167.013 157.087 140.025 157.961 109.008C158.788 82.7263 146.266 57.8327 124.656 42.852" stroke="black" stroke-width="6" stroke-miterlimit="22.9256" stroke-linejoin="bevel"/>
<path d="M32.6827 152.685V134.142L39.5671 127.363V118.789L31.5851 112.109H13.2266" stroke="black" stroke-width="6" stroke-miterlimit="22.9256" stroke-linejoin="bevel"/>
<path fill-rule="evenodd" clip-rule="evenodd" d="M102.558 26.6732C102.558 22.0568 98.8154 18.3145 94.199 18.3145C89.5827 18.3145 85.8403 22.0568 85.8403 26.6731C85.8403 31.2895 89.5826 35.0319 94.199 35.0319C98.8154 35.0319 102.558 31.2896 102.558 26.6732L102.558 26.6732Z" stroke="black" stroke-width="6" stroke-miterlimit="22.9256" stroke-linejoin="bevel"/>
</svg>
