<svg width="153" height="154" viewBox="0 0 153 154" fill="none" xmlns="http://www.w3.org/2000/svg">
<path fill-rule="evenodd" clip-rule="evenodd" d="M142.446 43.9888C142.446 25.7569 127.529 10.8398 109.297 10.8398C91.0652 10.8398 76.7007 25.7569 76.7007 43.9888C76.7007 61.6683 91.0652 76.5853 109.297 76.5853C127.529 76.5853 142.446 61.6683 142.446 43.9888Z" stroke="#18181A" stroke-width="6" stroke-miterlimit="22.9256"/>
<path fill-rule="evenodd" clip-rule="evenodd" d="M76.7006 109.735C76.7006 91.503 61.7835 76.5859 43.5516 76.5859C25.3196 76.5859 10.9551 91.503 10.9551 109.735C10.9551 127.414 25.3196 142.331 43.5516 142.331C61.7835 142.331 76.7006 127.414 76.7006 109.735Z" stroke="#18181A" stroke-width="6" stroke-miterlimit="22.9256"/>
<path d="M83.3307 3.65606C67.3087 1.99861 50.7342 5.866 37.4746 14.7057" stroke="#18181A" stroke-width="6" stroke-miterlimit="22.9256"/>
<path d="M70.0708 150.065C86.0928 151.17 102.115 147.303 115.927 138.463" stroke="#18181A" stroke-width="6" stroke-miterlimit="22.9256"/>
<path d="M105.982 124.652L128.634 128.52L124.767 151.172" stroke="#18181A" stroke-width="6" stroke-miterlimit="22.9256"/>
<path d="M46.8669 28.5192L24.7676 24.6518L28.635 2" stroke="#18181A" stroke-width="6" stroke-miterlimit="22.9256"/>
<path d="M120.899 31.834H104.325C102.115 31.834 100.457 32.939 99.3525 35.1489C98.7176 36.8067 98.547 39.0627 99.3525 40.6737C100.457 42.8836 102.115 43.9886 104.325 43.9886H114.822C116.48 43.9886 118.689 45.0936 119.794 46.751C120.899 48.4085 120.899 50.6648 119.794 52.8283C118.699 54.8545 116.48 55.5908 114.822 55.5908H98.2476" stroke="#18181A" stroke-width="6" stroke-miterlimit="22.9256"/>
<path d="M109.297 25.7578V31.8351" stroke="#18181A" stroke-width="6" stroke-miterlimit="22.9256"/>
<path d="M109.297 55.5918V61.6691" stroke="#18181A" stroke-width="6" stroke-miterlimit="22.9256"/>
<path d="M24.7674 24.6523C9.29784 40.1219 1.56307 61.6687 3.22052 83.2156" stroke="#18181A" stroke-width="6" stroke-miterlimit="22.9256"/>
<path d="M128.634 128.52C144.104 113.051 151.839 91.5039 149.629 69.957" stroke="#18181A" stroke-width="6" stroke-miterlimit="22.9256"/>
<path d="M46 91.502V97.5793" stroke="#18181A" stroke-width="6" stroke-miterlimit="22.9256"/>
<path d="M46 121.338V127.415" stroke="#18181A" stroke-width="6" stroke-miterlimit="22.9256"/>
<path d="M36 91.502V97.5793" stroke="#18181A" stroke-width="6" stroke-miterlimit="22.9256"/>
<path d="M36 121.338V127.415" stroke="#18181A" stroke-width="6" stroke-miterlimit="22.9256"/>
<path d="M32.502 97.5801V94.5801H29.502V97.5801H32.502ZM54.0488 106.42L56.7321 107.761L56.7686 107.688L56.8012 107.613L54.0488 106.42ZM54.0488 112.497L56.7259 111.143L56.6447 110.983L56.545 110.833L54.0488 112.497ZM54.0488 118.574L56.545 120.239L56.6486 120.083L56.7321 119.916L54.0488 118.574ZM32.502 121.337H29.502V124.337H32.502V121.337ZM32.502 100.58H49.0765V94.5801H32.502V100.58ZM49.0765 100.58C49.6565 100.58 50.0301 100.716 50.3129 100.905C50.6144 101.106 50.991 101.488 51.3655 102.237L56.7321 99.5533C56.0017 98.0925 54.997 96.8166 53.6411 95.9127C52.2664 94.9962 50.7064 94.5801 49.0765 94.5801V100.58ZM51.3655 102.237C51.4641 102.434 51.6007 102.879 51.6143 103.499C51.6275 104.099 51.5211 104.708 51.2964 105.226L56.8012 107.613C57.983 104.888 57.8069 101.703 56.7321 99.5533L51.3655 102.237ZM51.3655 105.078C50.991 105.827 50.6144 106.209 50.3129 106.41C50.0301 106.598 49.6565 106.735 49.0765 106.735V112.735C50.7064 112.735 52.2664 112.319 53.6411 111.402C54.997 110.498 56.0017 109.222 56.7321 107.761L51.3655 105.078ZM49.0765 112.735C50.1227 112.735 50.9086 113.195 51.5526 114.161L56.545 110.833C54.979 108.484 52.4501 106.735 49.0765 106.735V112.735ZM51.3717 113.851C51.8439 114.785 51.988 115.988 51.3655 117.233L56.7321 119.916C58.3195 116.741 57.9305 113.525 56.7259 111.143L51.3717 113.851ZM51.5526 116.91C50.9086 117.876 50.1227 118.337 49.0765 118.337V124.337C52.4501 124.337 54.979 122.587 56.545 120.239L51.5526 116.91ZM49.0765 118.337H32.502V124.337H49.0765V118.337ZM29.502 97.5801V121.337H35.502V97.5801H29.502ZM49.0765 106.736H32.502V112.736H49.0765V106.736Z" fill="#18181A"/>
</svg>
