<svg width="190" height="121" viewBox="0 0 190 121" fill="none" xmlns="http://www.w3.org/2000/svg">
<path d="M128.974 104.22L127.096 101.881L126.966 101.985L126.849 102.102L128.974 104.22ZM42.4944 82.1708L40.472 79.9549L40.1458 80.2526L39.9192 80.6318L42.4944 82.1708ZM50.0442 75.2806L52.0665 77.4965L52.277 77.3044L52.4475 77.0761L50.0442 75.2806ZM52.7896 92.5061L50.6642 90.3889L50.4038 90.6503L50.2145 90.967L52.7896 92.5061ZM67.8892 77.3475L65.7638 75.2304L67.8892 77.3475ZM65.144 101.463L62.9758 99.3899L62.8822 99.4878L62.7978 99.5937L65.144 101.463ZM81.6163 84.2377L83.7845 86.3111L83.8781 86.2132L83.9624 86.1073L81.6163 84.2377ZM92.5978 93.884L94.7743 95.9488L95.0027 95.708L95.1729 95.4231L92.5978 93.884ZM100.148 105.597L98.3431 103.201L98.128 103.363L97.9452 103.56L100.148 105.597ZM59.6532 74.5913L57.5277 76.7085L57.7886 76.9704L58.1052 77.1612L59.6532 74.5913ZM77.4981 75.9699L78.8439 73.2887L78.7321 73.2326L78.616 73.186L77.4981 75.9699ZM90.5387 84.238L88.6602 86.577L88.8177 86.7035L88.9908 86.8078L90.5387 84.238ZM100.148 96.6406L97.7442 98.4361L97.8717 98.6068L98.0221 98.7578L100.148 96.6406ZM100.148 117.311L99.0296 114.527L98.9135 114.574L98.8017 114.63L100.148 117.311ZM114.561 111.109L113.443 108.325L113.074 108.474L112.756 108.713L114.561 111.109ZM105.638 109.731L108.042 107.936L107.983 107.858L107.92 107.783L105.638 109.731ZM44.5535 92.5061L42.675 94.8451L42.7116 94.8745L42.749 94.9027L44.5535 92.5061ZM69.2619 108.354L71.1405 106.014L71.1039 105.985L71.0664 105.957L69.2619 108.354ZM82.989 115.933L81.1845 118.329L81.401 118.492L81.6431 118.614L82.989 115.933ZM69.9483 24.9815L71.2941 27.6627L71.4217 27.5986L71.5427 27.5227L69.9483 24.9815ZM75.4391 21.5364L73.9778 18.9163L73.9102 18.954L73.8446 18.9952L75.4391 21.5364ZM135.838 23.6034L134.322 21.0147L131.704 22.5476L133.266 25.148L135.838 23.6034ZM163.978 70.4571L161.406 72.0017L162.953 74.5768L165.526 73.0269L163.978 70.4571ZM160.546 9.13392L163.147 7.63913L161.64 5.0167L159.03 6.54515L160.546 9.13392ZM128.288 27.7379L130.092 25.3413L129.943 25.2288L129.781 25.1357L128.288 27.7379ZM113.874 19.4696L112.206 21.9628L112.292 22.0203L112.382 22.0718L113.874 19.4696ZM100.148 19.4696L101.667 22.0566L101.743 22.0119L101.816 21.9628L100.148 19.4696ZM63.7711 40.8294L62.2521 38.2424L62.1039 38.3294L61.9667 38.4327L63.7711 40.8294ZM77.4981 51.1647L76.1523 48.4836L76.0777 48.521L76.0053 48.5625L77.4981 51.1647ZM100.834 39.4513L103.055 37.4344L101.523 35.7485L99.4881 36.7701L100.834 39.4513ZM55.5351 20.8472L58.0627 22.4631L59.6556 19.9715L57.1871 18.343L55.5351 20.8472ZM26.0221 67.0118L24.3702 69.516L26.9105 71.1919L28.5498 68.6277L26.0221 67.0118ZM31.513 5L33.165 2.49582L30.6241 0.819624L28.985 3.3846L31.513 5ZM143.387 86.3051L141.167 88.322L141.213 88.3733L141.262 88.4223L143.387 86.3051ZM143.387 96.6404L141.041 94.7708L141.012 94.8074L140.984 94.8449L143.387 96.6404ZM133.779 96.6404L131.548 98.647L131.742 98.8626L131.974 99.0371L133.779 96.6404ZM128.458 94.7343C129.766 96.9223 129.334 100.083 127.096 101.881L130.853 106.559C135.478 102.844 136.419 96.3584 133.608 91.6561L128.458 94.7343ZM126.849 102.102C126.413 102.54 125.495 102.892 123.979 102.639C122.49 102.39 121.016 101.625 120.118 100.724L115.867 104.959C117.715 106.814 120.359 108.117 122.988 108.557C125.59 108.992 128.79 108.656 131.1 106.337L126.849 102.102ZM120.374 101.017L106.647 83.1023L101.884 86.7516L115.611 104.666L120.374 101.017ZM159.243 64.0778L147.575 74.4132L151.554 78.9045L163.222 68.5692L159.243 64.0778ZM44.5167 84.3867L52.0665 77.4965L48.0219 73.0647L40.472 79.9549L44.5167 84.3867ZM54.915 94.6233L70.0147 79.4647L65.7638 75.2304L50.6642 90.3889L54.915 94.6233ZM67.3122 103.537L83.7845 86.3111L79.4481 82.1643L62.9758 99.3899L67.3122 103.537ZM81.0473 110.418L94.7743 95.9488L90.4214 91.8193L76.6944 106.289L81.0473 110.418ZM93.4274 117.281L102.35 107.634L97.9452 103.56L89.0227 113.207L93.4274 117.281ZM52.4475 77.0761C52.8931 76.4797 53.7792 75.9603 54.8769 75.8553C55.9418 75.7534 56.8914 76.0698 57.5277 76.7085L61.7786 72.4742C59.6695 70.3568 56.8441 69.6397 54.3057 69.8825C51.8 70.1222 49.2543 71.3254 47.6408 73.4851L52.4475 77.0761ZM58.1052 77.1612C58.8383 77.6027 59.2685 78.3333 59.3158 79.378C59.3656 80.4778 58.9592 81.8451 57.9933 83.0571L62.6857 86.7963C64.4652 84.5632 65.4315 81.7963 65.3097 79.1066C65.1854 76.3615 63.8997 73.647 61.2011 72.0215L58.1052 77.1612ZM70.0147 79.4647C71.6053 77.8679 73.6001 77.6374 76.3802 78.7538L78.616 73.186C74.5327 71.5462 69.6639 71.315 65.7638 75.2304L70.0147 79.4647ZM76.1523 78.6511C77.8324 79.4944 79.0669 81.6798 78.6741 83.6515L84.5585 84.8238C85.5383 79.9053 82.6546 75.2015 78.8439 73.2887L76.1523 78.6511ZM95.1729 95.4231C97.9366 90.799 97.1621 84.7253 92.0866 81.6682L88.9908 86.8078C90.7788 87.8848 91.3771 90.0788 90.0227 92.3449L95.1729 95.4231ZM92.4172 81.8989C90.6064 80.4446 88.438 79.0619 85.9971 78.9176C83.2478 78.7551 81.0218 80.17 79.2701 82.368L83.9624 86.1073C84.9562 84.8603 85.4754 84.8972 85.6431 84.9071C86.1191 84.9353 87.0392 85.2752 88.6602 86.577L92.4172 81.8989ZM101.952 107.994C106.487 104.58 105.989 98.2541 102.273 94.5234L98.0221 98.7578C99.7967 100.539 99.2992 102.481 98.3431 103.201L101.952 107.994ZM102.551 94.8451C99.6129 90.9125 94.3283 89.6875 90.1069 92.8659L93.7159 97.6592C94.9853 96.7034 96.5641 96.8565 97.7442 98.4361L102.551 94.8451ZM101.952 109.043C101.952 111.831 100.876 113.786 99.0296 114.527L101.265 120.095C106.283 118.08 107.952 113.144 107.952 109.043H101.952ZM98.8017 114.63C97.2438 115.412 94.7446 114.942 93.6284 113.448L88.8217 117.039C91.8236 121.057 97.5605 121.966 101.493 119.992L98.8017 114.63ZM115.206 103.952C115.634 105.025 115.579 105.938 115.303 106.612C115.031 107.275 114.459 107.917 113.443 108.325L115.679 113.893C118.094 112.923 119.925 111.154 120.854 108.889C121.779 106.635 121.725 104.103 120.78 101.731L115.206 103.952ZM112.756 108.713C111.407 109.729 109.159 109.431 108.042 107.936L103.235 111.527C106.236 115.544 112.224 116.624 116.365 113.506L112.756 108.713ZM107.92 107.783L103.802 102.96L99.2388 106.856L103.357 111.679L107.92 107.783ZM39.9192 80.6318C37.0655 85.4066 38.1165 91.1841 42.675 94.8451L46.4321 90.167C44.1271 88.3159 43.8052 85.8253 45.0695 83.7099L39.9192 80.6318ZM42.749 94.9027C44.251 96.0336 46.3173 97.2855 48.5771 97.5524C49.7728 97.6937 51.0829 97.5649 52.3482 96.9402C53.6128 96.3158 54.6116 95.3053 55.3647 94.0452L50.2145 90.967C49.9381 91.4294 49.7358 91.5386 49.692 91.5602C49.649 91.5814 49.5436 91.6249 49.2808 91.5939C48.6237 91.5162 47.6014 91.0456 46.358 90.1094L42.749 94.9027ZM52.2735 89.5887C49.238 94.6676 51.4232 100.559 56.0461 103.344L59.142 98.2043C56.9015 96.8548 56.3412 94.4782 57.4238 92.6669L52.2735 89.5887ZM56.0461 103.344C56.8385 103.821 57.4221 104.241 58.1859 104.744C58.8401 105.175 59.7343 105.741 60.7409 106.052C61.8974 106.409 63.2013 106.435 64.5301 105.831C65.7191 105.29 66.6737 104.357 67.4901 103.333L62.7978 99.5937C62.2415 100.292 61.995 100.392 62.0472 100.369C62.0992 100.345 62.2036 100.312 62.3361 100.307C62.4605 100.302 62.529 100.325 62.5118 100.319C62.4032 100.286 62.1391 100.163 61.485 99.7326C60.9404 99.374 60.0655 98.7606 59.142 98.2043L56.0461 103.344ZM65.7638 96.59C63.5206 98.8419 63.0918 101.832 63.5691 104.348C64.0386 106.822 65.4356 109.228 67.4574 110.75L71.0664 105.957C70.3429 105.412 69.6808 104.373 69.464 103.23C69.255 102.128 69.5125 101.329 70.0147 100.824L65.7638 96.59ZM67.3834 110.693C69.4629 112.363 71.8213 113.421 74.3238 113.421C76.8817 113.421 79.1597 112.314 80.9963 110.471L76.7454 106.236C75.8367 107.149 75.0261 107.421 74.3238 107.421C73.5661 107.421 72.4927 107.101 71.1405 106.014L67.3834 110.693ZM75.8709 108.354C75.8709 112.164 77.7802 115.766 81.1845 118.329L84.7934 113.536C82.707 111.965 81.8709 110.056 81.8709 108.354H75.8709ZM81.6431 118.614C83.3739 119.483 85.2759 120.001 87.2949 119.874C89.3327 119.746 91.2559 118.976 93.0295 117.64L89.4206 112.847C88.4488 113.579 87.6266 113.842 86.9191 113.886C86.1928 113.932 85.3494 113.761 84.3348 113.252L81.6431 118.614ZM47.8685 76.4395L38.946 68.8602L35.0615 73.4331L43.984 81.0124L47.8685 76.4395ZM51.4438 27.6627C57.7814 30.8439 64.9565 30.8439 71.2941 27.6627L68.6025 22.3003C63.9585 24.6313 58.7793 24.6313 54.1354 22.3003L51.4438 27.6627ZM71.5427 27.5227L77.0335 24.0776L73.8446 18.9952L68.3538 22.4403L71.5427 27.5227ZM76.9003 24.1565C82.0727 21.2717 88.2426 21.9435 92.0137 25.1885L95.9272 20.6404C90.0894 15.6171 81.1597 14.9108 73.9778 18.9163L76.9003 24.1565ZM133.266 25.148L161.406 72.0017L166.55 68.9125L138.409 22.0588L133.266 25.148ZM159.03 6.54515L134.322 21.0147L137.354 26.1922L162.062 11.7227L159.03 6.54515ZM186.452 53.4181L162.43 67.8872L165.526 73.0269L189.548 58.5577L186.452 53.4181ZM157.945 10.6287L178.536 46.458L183.738 43.4684L163.147 7.63913L157.945 10.6287ZM150.421 25.8317L156.598 36.1671L161.748 33.089L155.571 22.7536L150.421 25.8317ZM136.092 24.6523C133.989 26.2357 131.396 26.323 130.092 25.3413L126.483 30.1345C130.67 33.2869 136.313 31.9962 139.701 29.4455L136.092 24.6523ZM129.781 25.1357L115.367 16.8674L112.382 22.0718L126.795 30.3401L129.781 25.1357ZM115.543 16.9765C110.415 13.5446 103.607 13.5446 98.479 16.9765L101.816 21.9628C104.924 19.8825 109.098 19.8825 112.206 21.9628L115.543 16.9765ZM98.6285 16.8826L62.2521 38.2424L65.2902 43.4164L101.667 22.0566L98.6285 16.8826ZM61.9667 38.4327C57.6906 41.6523 57.6831 47.9258 60.9593 51.2149L65.2102 46.9805C64.3684 46.1353 64.3609 44.1406 65.5756 43.226L61.9667 38.4327ZM60.9593 51.2149C66.0196 56.2948 72.9906 57.2091 78.9909 53.767L76.0053 48.5625C72.3967 50.6326 68.3862 50.1688 65.2102 46.9805L60.9593 51.2149ZM78.8439 53.8459L102.18 42.1325L99.4881 36.7701L76.1523 48.4836L78.8439 53.8459ZM53.0075 19.2313L23.4945 65.3959L28.5498 68.6277L58.0627 22.4631L53.0075 19.2313ZM28.985 3.3846L5.64924 39.9029L10.7051 43.1337L34.0409 6.6154L28.985 3.3846ZM29.861 7.50418L53.8831 23.3514L57.1871 18.343L33.165 2.49582L29.861 7.50418ZM0.348019 53.6689L24.3702 69.516L27.6741 64.5077L3.65198 48.6605L0.348019 53.6689ZM36.5637 18.4991L29.7002 28.8345L34.6985 32.1537L41.5619 21.8184L36.5637 18.4991ZM98.6131 41.4683L141.167 88.322L145.608 84.2881L103.055 37.4344L98.6131 41.4683ZM141.262 88.4223C142.729 89.8951 143.027 92.2789 141.041 94.7708L145.734 98.5101C149.239 94.1118 149.537 88.2272 145.513 84.1879L141.262 88.4223ZM140.984 94.8449C140.763 95.1405 140.205 95.511 138.984 95.4526C137.777 95.3949 136.47 94.9114 135.583 94.2438L131.974 99.0371C133.833 100.437 136.3 101.331 138.697 101.446C141.079 101.56 143.953 100.897 145.791 98.436L140.984 94.8449ZM136.009 94.6339L116.791 73.2742L112.331 77.2872L131.548 98.647L136.009 94.6339Z" fill="#18181A"/>
</svg>
